<svg width="19" height="19" viewBox="0 0 19 19" fill="none" xmlns="http://www.w3.org/2000/svg">
<path d="M9.50002 4.77774C10.0216 4.77774 10.4445 5.20058 10.4445 5.72218C10.4445 6.24378 10.0216 6.66663 9.50002 6.66663C8.97841 6.66663 8.55557 6.24378 8.55557 5.72218C8.55557 5.20058 8.97841 4.77774 9.50002 4.77774Z" fill="#9B9B9B"/>
<path d="M9.5 14.2222V9.5" stroke="#9B9B9B" stroke-width="2" stroke-linecap="round"/>
<path d="M5.25 2.13715C6.50024 1.41392 7.95181 1 9.5 1C14.1944 1 18 4.80558 18 9.5C18 14.1944 14.1944 18 9.5 18C4.80558 18 1 14.1944 1 9.5C1 7.95181 1.41392 6.50024 2.13715 5.25" stroke="#9B9B9B" stroke-width="2" stroke-linecap="round"/>
</svg>
