<svg width="274" height="327" viewBox="0 0 274 327" fill="none" xmlns="http://www.w3.org/2000/svg">
<path d="M36.9029 142.393C36.9029 142.393 30.1479 133.272 30.0409 129.592C29.9339 125.913 33.0689 123.69 37.5429 129.385C42.0169 135.08 44.3139 136.706 48.5879 139.15C53.1989 141.786 71.8579 143.514 71.8579 143.514L69.0029 166.377L36.6449 168.097L36.9029 142.393Z" fill="#F1DCD5" stroke="#2A1302" stroke-miterlimit="10"/>
<path d="M10.8558 146.829C10.8558 146.829 3.18282 140.455 3.65082 137.107C4.11782 133.759 9.99482 136.325 15.0218 140.107L10.8558 146.829Z" fill="#F1DCD5" stroke="#2A1302" stroke-miterlimit="10"/>
<path d="M13.3608 137.067L18.9128 137.444L18.6178 141.781L13.0658 141.404C9.43782 141.158 6.28983 143.861 6.04783 147.431L5.43083 156.513C5.18883 160.082 7.94182 163.187 11.5698 163.433L17.1218 163.81L16.8278 168.147L11.2758 167.77C5.21883 167.359 0.619824 162.175 1.02482 156.214L1.64183 147.132C2.04583 141.17 7.30382 136.656 13.3608 137.067Z" fill="#F3B87B" stroke="#2A1302" stroke-miterlimit="10"/>
<path d="M10.8078 129.084L9.07977 164.161C8.87177 168.389 11.6608 171.962 15.3098 172.142L33.1888 173.023C36.8378 173.203 39.9648 169.921 40.1728 165.693L41.9008 130.616L10.8078 129.084Z" fill="#F3B87B"/>
<path d="M23.2308 144.244C23.1718 145.433 22.1618 146.349 20.9728 146.29C19.7838 146.231 18.8678 145.22 18.9268 144.032C18.9858 142.843 19.9958 141.927 21.1848 141.986C22.3738 142.045 23.2898 143.056 23.2308 144.244Z" fill="white"/>
<path d="M33.0428 144.728C32.9838 145.917 31.9728 146.832 30.7848 146.774C29.5958 146.715 28.6798 145.704 28.7388 144.516C28.7978 143.328 29.8088 142.411 30.9968 142.47C32.1848 142.528 33.1008 143.539 33.0428 144.728Z" fill="white"/>
<path d="M17.6248 136.998C17.5658 138.187 16.5548 139.102 15.3668 139.044C14.1778 138.985 13.2618 137.975 13.3208 136.786C13.3798 135.598 14.3908 134.682 15.5788 134.74C16.7678 134.798 17.6838 135.809 17.6248 136.998Z" fill="white"/>
<path d="M28.4788 137.532C28.4198 138.721 27.4098 139.636 26.2208 139.578C25.0328 139.519 24.1158 138.509 24.1748 137.32C24.2338 136.131 25.2438 135.216 26.4328 135.274C27.6218 135.333 28.5378 136.344 28.4788 137.532Z" fill="white"/>
<path d="M39.3338 138.067C39.2748 139.255 38.2638 140.171 37.0758 140.113C35.8868 140.054 34.9708 139.044 35.0298 137.855C35.0888 136.666 36.0998 135.751 37.2878 135.809C38.4758 135.867 39.3918 136.879 39.3338 138.067Z" fill="white"/>
<path d="M16.9399 150.905C16.8809 152.094 15.8699 153.009 14.6819 152.951C13.4929 152.892 12.5769 151.882 12.6359 150.693C12.6949 149.504 13.7059 148.589 14.8939 148.647C16.0829 148.705 16.9989 149.716 16.9399 150.905Z" fill="white"/>
<path d="M27.7949 151.44C27.7359 152.629 26.7249 153.544 25.5369 153.486C24.3479 153.427 23.4319 152.417 23.4909 151.228C23.5499 150.039 24.5609 149.124 25.7489 149.182C26.9369 149.24 27.8529 150.251 27.7949 151.44Z" fill="white"/>
<path d="M38.6489 151.974C38.5899 153.162 37.5788 154.078 36.3908 154.02C35.2028 153.961 34.2859 152.95 34.3449 151.762C34.4039 150.573 35.4139 149.657 36.6029 149.716C37.7909 149.775 38.7069 150.786 38.6489 151.974Z" fill="white"/>
<path d="M22.5459 158.151C22.4869 159.34 21.4759 160.256 20.2879 160.197C19.0999 160.138 18.1839 159.128 18.2419 157.939C18.2999 156.75 19.3109 155.834 20.4999 155.893C21.6889 155.952 22.6049 156.963 22.5459 158.151Z" fill="white"/>
<path d="M32.3578 158.635C32.2988 159.824 31.2888 160.739 30.0998 160.681C28.9108 160.622 27.9948 159.612 28.0538 158.423C28.1118 157.234 29.1228 156.319 30.3118 156.377C31.4998 156.435 32.4158 157.446 32.3578 158.635Z" fill="white"/>
<path d="M16.2548 164.812C16.1958 166.001 15.1848 166.917 13.9968 166.858C12.8078 166.799 11.8918 165.789 11.9508 164.6C12.0098 163.411 13.0208 162.495 14.2088 162.554C15.3978 162.613 16.3138 163.623 16.2548 164.812Z" fill="white"/>
<path d="M27.1098 165.347C27.0508 166.535 26.0408 167.452 24.8518 167.393C23.6628 167.334 22.7468 166.324 22.8058 165.135C22.8648 163.946 23.8748 163.03 25.0638 163.089C26.2518 163.147 27.1678 164.158 27.1098 165.347Z" fill="white"/>
<path d="M37.9638 165.881C37.9058 167.07 36.8948 167.986 35.7058 167.927C34.5178 167.868 33.6018 166.858 33.6598 165.669C33.7188 164.48 34.7288 163.564 35.9178 163.623C37.1058 163.682 38.0218 164.693 37.9638 165.881Z" fill="white"/>
<path d="M19.6119 130.125C19.5539 131.314 20.4699 132.324 21.6579 132.383C22.8469 132.442 23.8579 131.525 23.9159 130.337C23.9249 130.16 23.9059 129.989 23.8739 129.823L19.7049 129.618C19.6569 129.78 19.6209 129.948 19.6119 130.125Z" fill="white"/>
<path d="M29.4238 130.608C29.3648 131.797 30.2808 132.807 31.4698 132.866C32.6578 132.925 33.6688 132.009 33.7278 130.82C33.7368 130.643 33.7178 130.473 33.6858 130.306L29.5168 130.101C29.4678 130.264 29.4328 130.432 29.4238 130.608Z" fill="white"/>
<path d="M39.2359 131.092C39.1769 132.281 40.0929 133.291 41.2819 133.35C41.4489 133.358 41.6109 133.343 41.7689 133.315L41.8969 130.712L39.3289 130.586C39.2799 130.747 39.2439 130.915 39.2359 131.092Z" fill="white"/>
<path d="M10.6888 131.49C11.0158 131.728 11.4118 131.879 11.8458 131.9C13.0348 131.959 14.0449 131.043 14.1039 129.854C14.1129 129.677 14.0938 129.507 14.0618 129.34L10.8028 129.18L10.6888 131.49Z" fill="white"/>
<path d="M41.2939 142.94C41.1399 142.896 40.9799 142.865 40.8129 142.857C39.6239 142.798 38.6139 143.715 38.5549 144.903C38.4969 146.091 39.4129 147.102 40.6009 147.161C40.7679 147.169 40.9299 147.154 41.0879 147.126L41.2939 142.94Z" fill="white"/>
<path d="M11.3728 141.503C10.9388 141.482 10.5298 141.593 10.1808 141.797L10.0038 145.397C10.3308 145.635 10.7268 145.786 11.1608 145.807C12.3498 145.866 13.3598 144.95 13.4188 143.761C13.4778 142.573 12.5618 141.562 11.3728 141.503Z" fill="white"/>
<path d="M40.6038 156.943C40.4498 156.899 40.2898 156.868 40.1228 156.86C38.9338 156.801 37.9238 157.717 37.8648 158.906C37.8058 160.095 38.7218 161.105 39.9108 161.164C40.0778 161.172 40.2398 161.157 40.3978 161.129L40.6038 156.943Z" fill="white"/>
<path d="M10.6888 155.41C10.2548 155.389 9.84583 155.5 9.49683 155.704L9.31982 159.304C9.64682 159.542 10.0428 159.693 10.4768 159.714C11.6648 159.773 12.6758 158.857 12.7348 157.668C12.7938 156.479 11.8768 155.469 10.6888 155.41Z" fill="white"/>
<path d="M29.6268 170.284C28.4378 170.225 27.4268 171.141 27.3688 172.33C27.3598 172.503 27.3778 172.671 27.4088 172.834L31.5838 173.04C31.6298 172.88 31.6648 172.716 31.6728 172.543C31.7308 171.353 30.8148 170.342 29.6268 170.284Z" fill="white"/>
<path d="M19.8148 169.801C18.6258 169.742 17.6158 170.659 17.5568 171.847C17.5478 172.02 17.5658 172.187 17.5968 172.351L21.7718 172.557C21.8188 172.398 21.8528 172.233 21.8608 172.06C21.9198 170.87 21.0038 169.859 19.8148 169.801Z" fill="white"/>
<path d="M10.8078 129.084L9.07977 164.161C8.87177 168.389 11.6608 171.962 15.3098 172.142L33.1888 173.023C36.8378 173.203 39.9648 169.921 40.1728 165.693L41.9008 130.616L10.8078 129.084Z" stroke="#2A1302" stroke-miterlimit="10"/>
<path d="M7.98787 163.533C7.98787 163.533 6.14388 163.618 5.65088 162.225C5.15788 160.832 5.33088 158.897 6.76688 158.378C8.20288 157.859 10.8139 157.773 12.1809 158.34C13.1699 158.75 13.9629 160.671 12.8489 162.026C11.8349 163.26 9.27187 163.336 7.98787 163.533Z" fill="#F1DCD5" stroke="#2A1302" stroke-miterlimit="10"/>
<path d="M7.84581 158.816C7.84581 158.816 5.79681 158.447 5.52881 156.781C5.26081 155.114 5.83382 153.015 7.51982 152.801C9.20582 152.587 12.1008 153.147 13.4948 154.118C14.5028 154.821 14.9978 157.147 13.5018 158.368C12.1388 159.478 9.29981 158.919 7.84581 158.816Z" fill="#F1DCD5" stroke="#2A1302" stroke-miterlimit="10"/>
<path d="M7.87688 153.987C7.87688 153.987 5.82788 153.618 5.55988 151.952C5.29188 150.286 5.86588 148.186 7.55088 147.972C9.23688 147.758 12.1319 148.318 13.5259 149.289C14.5349 149.992 15.0289 152.318 13.5329 153.539C12.1709 154.649 9.33088 154.091 7.87688 153.987Z" fill="#F1DCD5" stroke="#2A1302" stroke-miterlimit="10"/>
<path d="M7.98693 149.107C7.98693 149.107 5.93793 148.738 5.66993 147.072C5.40193 145.406 5.97492 143.306 7.66092 143.092C9.34692 142.878 12.2419 143.438 13.6359 144.409C14.6439 145.111 15.1389 147.438 13.6429 148.659C12.2809 149.769 9.44093 149.211 7.98693 149.107Z" fill="#F1DCD5" stroke="#2A1302" stroke-miterlimit="10"/>
<path d="M48.8389 170.63C48.8389 170.63 54.9099 171.986 63.7209 173.085C65.3579 166.093 69.0118 148.633 67.4738 138.047C59.3338 138.734 54.6898 138.535 54.6898 138.535L48.8389 170.63Z" fill="#6B4564" stroke="#C6A8C4" stroke-miterlimit="10"/>
<path d="M49.3088 168.052L64.3498 170.307" stroke="#C6A8C4" stroke-miterlimit="10"/>
<path d="M50.0378 164.279L65.1539 166.453" stroke="#C6A8C4" stroke-miterlimit="10"/>
<path d="M50.7139 160.349L65.8689 162.661" stroke="#C6A8C4" stroke-miterlimit="10"/>
<path d="M51.3689 156.753L66.5309 158.662" stroke="#C6A8C4" stroke-miterlimit="10"/>
<path d="M52.1178 152.899L66.8788 154.719" stroke="#C6A8C4" stroke-miterlimit="10"/>
<path d="M52.7158 149.362L67.5328 150.451" stroke="#C6A8C4" stroke-miterlimit="10"/>
<path d="M53.4238 145.482L67.8138 145.796" stroke="#C6A8C4" stroke-miterlimit="10"/>
<path d="M54.1488 141.506L67.4668 141.479" stroke="#C6A8C4" stroke-miterlimit="10"/>
<path d="M36.5939 120.545C36.7217 116.215 33.3148 112.601 28.9844 112.474C24.654 112.346 21.0399 115.752 20.9122 120.082C20.7844 124.412 24.1913 128.025 28.5217 128.153C32.852 128.281 36.4661 124.875 36.5939 120.545Z" fill="#FFFEFD"/>
<path d="M46.3873 113.327C53.0413 106.673 53.0413 95.8846 46.3873 89.2305C39.7332 82.5765 28.9448 82.5765 22.2907 89.2305C15.6366 95.8846 15.6366 106.673 22.2907 113.327C28.9448 119.981 39.7332 119.981 46.3873 113.327Z" fill="#FFFEFD"/>
<path d="M58.4729 77.4018C58.6679 81.1858 55.7589 84.4118 51.9759 84.6068C48.1919 84.8028 44.9659 81.8928 44.7709 78.1098C44.5759 74.3258 47.4848 71.0998 51.2678 70.9038C55.0508 70.7088 58.2769 73.6178 58.4729 77.4018Z" stroke="#FFFEFD" stroke-miterlimit="10"/>
<path d="M248.235 209.316C243.423 176.228 222.104 132.859 210.225 116.176C197.334 98.0718 186.556 90.6147 172.612 90.6147C135.62 90.6147 118.718 139.978 109.877 217.411L226.492 250.596L238.229 253.936C238.229 253.936 253.125 242.944 248.235 209.316Z" fill="#836787"/>
<path d="M175.433 114.507C186.041 114.507 196.016 112.486 204.708 108.936C194.126 96.0637 184.523 90.6147 172.612 90.6147C160.074 90.6147 149.846 96.2927 141.456 106.806C151.17 111.668 162.856 114.507 175.433 114.507Z" fill="#7D7368"/>
<path d="M172.612 90.6147C163.302 90.6147 155.266 93.7447 148.31 99.6577C156.092 103.491 165.41 105.729 175.433 105.729C183.565 105.729 191.23 104.251 197.991 101.649C189.894 93.9777 181.965 90.6147 172.612 90.6147Z" fill="#C6A8C4"/>
<path d="M210.002 115.867C207.481 112.344 205.04 109.232 202.64 106.502C194.549 109.772 185.282 111.63 175.433 111.63C163.61 111.63 152.625 108.953 143.506 104.369C141.02 107.153 138.689 110.342 136.5 113.911C147.717 119.328 161.077 122.486 175.433 122.486C187.968 122.485 199.747 120.081 210.002 115.867Z" fill="#6B4564"/>
<path d="M174.207 117.919C173.568 117.91 172.933 117.894 172.3 117.87C172.03 117.859 171.819 117.632 171.828 117.361C171.839 117.091 172.069 116.905 172.337 116.889C173.62 116.938 174.918 116.954 176.203 116.943C176.496 116.972 176.695 117.158 176.698 117.429C176.7 117.7 176.483 117.921 176.212 117.924C175.545 117.931 174.876 117.928 174.207 117.919ZM168.43 117.64C168.418 117.64 168.407 117.64 168.396 117.639C167.091 117.532 165.784 117.393 164.507 117.229C164.238 117.194 164.048 116.948 164.083 116.679C164.118 116.41 164.367 116.226 164.632 116.255C165.894 116.418 167.187 116.554 168.477 116.661C168.747 116.683 168.947 116.92 168.925 117.191C168.904 117.449 168.686 117.644 168.43 117.64ZM180.086 117.806C179.831 117.802 179.619 117.601 179.604 117.342C179.59 117.072 179.797 116.841 180.068 116.826C181.345 116.758 182.642 116.658 183.923 116.53C184.175 116.504 184.433 116.699 184.46 116.97C184.487 117.24 184.29 117.479 184.02 117.507C182.725 117.635 181.413 117.737 180.121 117.806C180.109 117.806 180.097 117.806 180.086 117.806ZM160.718 116.646C160.691 116.646 160.665 116.643 160.639 116.638C159.349 116.41 158.058 116.15 156.803 115.865C156.538 115.805 156.374 115.543 156.433 115.278C156.493 115.013 156.763 114.855 157.02 114.908C158.26 115.19 159.534 115.446 160.81 115.673C161.077 115.72 161.255 115.975 161.207 116.241C161.165 116.481 160.954 116.649 160.718 116.646ZM187.822 117.03C187.586 117.026 187.381 116.852 187.345 116.611C187.305 116.343 187.491 116.094 187.759 116.055C189.025 115.868 190.306 115.647 191.569 115.398C191.832 115.35 192.093 115.518 192.145 115.785C192.198 116.05 192.024 116.308 191.758 116.361C190.481 116.612 189.184 116.836 187.902 117.025C187.875 117.029 187.849 117.031 187.822 117.03ZM153.134 114.926C153.093 114.925 153.051 114.92 153.01 114.908C151.749 114.557 150.489 114.171 149.266 113.762C149.009 113.676 148.87 113.398 148.956 113.141C149.041 112.884 149.317 112.746 149.577 112.831C150.785 113.235 152.029 113.616 153.273 113.963C153.534 114.036 153.687 114.306 153.614 114.567C153.552 114.787 153.351 114.929 153.134 114.926ZM195.452 115.526C195.235 115.523 195.038 115.375 194.983 115.154C194.918 114.891 195.078 114.624 195.341 114.559C196.594 114.247 197.848 113.901 199.066 113.532C199.33 113.454 199.599 113.601 199.678 113.859C199.757 114.119 199.61 114.393 199.351 114.471C198.116 114.845 196.847 115.194 195.578 115.51C195.536 115.522 195.493 115.526 195.452 115.526ZM145.759 112.461C145.702 112.46 145.643 112.45 145.587 112.427C144.365 111.947 143.153 111.433 141.982 110.898C141.736 110.786 141.628 110.495 141.74 110.248C141.855 110.001 142.145 109.896 142.39 110.006C143.544 110.534 144.74 111.041 145.946 111.514C146.198 111.613 146.323 111.898 146.223 112.15C146.146 112.345 145.958 112.464 145.759 112.461ZM202.893 113.271C202.695 113.268 202.51 113.144 202.439 112.947C202.347 112.692 202.479 112.411 202.734 112.319C203.945 111.882 205.155 111.409 206.332 110.912C206.582 110.808 206.869 110.923 206.975 111.173C207.081 111.423 206.963 111.71 206.713 111.816C205.521 112.32 204.294 112.8 203.067 113.243C203.009 113.262 202.951 113.272 202.893 113.271ZM210.053 110.241C209.875 110.238 209.704 110.138 209.62 109.966C209.5 109.723 209.601 109.429 209.844 109.31C210.999 108.744 212.149 108.139 213.259 107.511C213.496 107.379 213.794 107.46 213.928 107.697C214.062 107.933 213.979 108.232 213.743 108.366C212.615 109.003 211.449 109.618 210.276 110.192C210.204 110.226 210.127 110.243 210.053 110.241Z" fill="#F4EDF4"/>
<path d="M202.97 106.877C202.741 106.614 202.514 106.356 202.286 106.1C194.288 109.312 185.142 111.139 175.433 111.139C163.755 111.139 152.893 108.498 143.862 103.98C143.636 104.228 143.411 104.478 143.188 104.732C152.4 109.394 163.499 112.119 175.433 112.119C185.399 112.12 194.782 110.219 202.97 106.877Z" fill="#DDD0D0"/>
<path d="M210.281 116.257C210.263 116.231 210.243 116.202 210.225 116.177C210.048 115.929 209.873 115.69 209.697 115.445C199.523 119.615 187.846 121.994 175.433 121.994C161.186 121.994 147.914 118.854 136.767 113.473C136.596 113.748 136.428 114.029 136.259 114.308C147.554 119.782 161 122.975 175.433 122.975C188.063 122.975 199.94 120.533 210.281 116.257Z" fill="#DDD0D0"/>
<path d="M175.051 108.754H175.048C174.719 108.752 174.389 108.748 174.06 108.742C173.79 108.737 173.574 108.513 173.579 108.242C173.584 107.975 173.803 107.761 174.07 107.761C174.073 107.761 174.076 107.761 174.08 107.761C174.404 107.767 174.729 107.771 175.054 107.773C175.325 107.774 175.544 107.995 175.542 108.266C175.539 108.537 175.32 108.754 175.051 108.754ZM178.939 108.67C178.678 108.67 178.462 108.465 178.449 108.203C178.436 107.932 178.644 107.702 178.915 107.689C179.241 107.673 179.565 107.656 179.888 107.635C180.176 107.616 180.392 107.824 180.408 108.093C180.425 108.364 180.22 108.596 179.949 108.614C179.621 108.635 179.292 108.653 178.962 108.669C178.954 108.67 178.946 108.67 178.939 108.67ZM170.187 108.563C170.175 108.563 170.162 108.562 170.151 108.561C169.822 108.537 169.493 108.51 169.166 108.482C168.896 108.458 168.697 108.22 168.72 107.95C168.744 107.679 168.996 107.476 169.252 107.504C169.575 107.533 169.898 107.559 170.222 107.583C170.492 107.603 170.695 107.838 170.676 108.108C170.656 108.366 170.44 108.563 170.187 108.563ZM183.79 108.263C183.546 108.263 183.334 108.08 183.304 107.83C183.271 107.561 183.463 107.317 183.732 107.285C184.055 107.247 184.378 107.206 184.699 107.163C184.961 107.126 185.213 107.315 185.251 107.585C185.286 107.853 185.098 108.1 184.829 108.136C184.502 108.18 184.176 108.22 183.849 108.26C183.83 108.262 183.811 108.263 183.79 108.263ZM165.345 108.036C165.321 108.036 165.298 108.035 165.274 108.031C164.946 107.984 164.622 107.934 164.297 107.883C164.029 107.841 163.847 107.589 163.889 107.322C163.931 107.054 164.187 106.87 164.45 106.915C164.771 106.966 165.092 107.015 165.414 107.062C165.682 107.1 165.868 107.349 165.83 107.617C165.795 107.86 165.585 108.036 165.345 108.036ZM188.603 107.519C188.373 107.519 188.167 107.356 188.122 107.121C188.071 106.855 188.246 106.598 188.511 106.547C188.831 106.486 189.15 106.422 189.466 106.356C189.727 106.303 189.99 106.471 190.046 106.737C190.102 107.002 189.931 107.262 189.666 107.317C189.344 107.384 189.021 107.448 188.697 107.51C188.665 107.516 188.634 107.519 188.603 107.519ZM160.555 107.167C160.519 107.167 160.485 107.163 160.45 107.156C160.127 107.086 159.805 107.013 159.485 106.938C159.222 106.876 159.058 106.612 159.12 106.348C159.181 106.085 159.444 105.923 159.709 105.983C160.025 106.057 160.341 106.129 160.658 106.199C160.923 106.256 161.091 106.518 161.033 106.783C160.983 107.01 160.78 107.167 160.555 107.167ZM193.349 106.425C193.133 106.425 192.934 106.281 192.876 106.062C192.805 105.8 192.96 105.531 193.222 105.461C193.536 105.377 193.85 105.29 194.16 105.2C194.423 105.127 194.693 105.278 194.766 105.537C194.841 105.798 194.69 106.069 194.43 106.144C194.114 106.234 193.797 106.322 193.477 106.408C193.433 106.42 193.391 106.425 193.349 106.425ZM155.839 105.948C155.793 105.948 155.745 105.941 155.698 105.927C155.382 105.833 155.067 105.735 154.753 105.637C154.494 105.555 154.352 105.28 154.433 105.021C154.515 104.763 154.79 104.62 155.048 104.701C155.357 104.799 155.667 104.894 155.979 104.987C156.239 105.065 156.386 105.338 156.308 105.597C156.246 105.811 156.051 105.948 155.839 105.948ZM197.999 104.979C197.797 104.979 197.608 104.854 197.537 104.653C197.446 104.398 197.579 104.117 197.834 104.027C198.141 103.918 198.446 103.807 198.75 103.694C199.003 103.599 199.286 103.729 199.381 103.983C199.475 104.237 199.345 104.519 199.092 104.614C198.784 104.728 198.475 104.841 198.165 104.951C198.109 104.97 198.053 104.979 197.999 104.979ZM151.232 104.374C151.173 104.374 151.113 104.363 151.055 104.341C150.747 104.222 150.442 104.101 150.135 103.977C149.884 103.875 149.762 103.59 149.864 103.338C149.967 103.086 150.252 102.966 150.503 103.066C150.804 103.188 151.106 103.308 151.409 103.425C151.662 103.523 151.787 103.807 151.689 104.06C151.614 104.255 151.428 104.374 151.232 104.374ZM202.519 103.172C202.332 103.172 202.153 103.064 202.072 102.882C201.961 102.635 202.072 102.345 202.319 102.234C202.616 102.101 202.91 101.966 203.203 101.829C203.446 101.714 203.739 101.819 203.855 102.065C203.97 102.31 203.864 102.602 203.618 102.717C203.321 102.857 203.021 102.994 202.718 103.129C202.654 103.158 202.586 103.172 202.519 103.172ZM147.139 102.617C147.067 102.617 146.993 102.601 146.924 102.568C146.627 102.424 146.332 102.278 146.038 102.129C145.796 102.007 145.7 101.712 145.822 101.47C145.944 101.228 146.24 101.13 146.481 101.254C146.769 101.4 147.061 101.544 147.354 101.686C147.597 101.804 147.699 102.097 147.581 102.341C147.496 102.515 147.321 102.617 147.139 102.617Z" fill="#C6A8C4"/>
<path d="M219.189 130.723C218.865 130.139 218.545 129.573 218.225 129.008C205.449 134.058 190.884 136.925 175.433 136.925C158.7 136.925 143.004 133.564 129.497 127.707C129.245 128.301 128.994 128.9 128.747 129.507C142.49 135.469 158.438 138.887 175.433 138.887C191.234 138.887 206.128 135.93 219.189 130.723Z" fill="#DDD0D0"/>
<path d="M216.248 125.58C215.06 123.568 213.913 121.709 212.817 120.015C201.717 124.548 188.98 127.128 175.433 127.128C160.211 127.128 146.02 123.863 134.017 118.237C133.014 120.1 132.042 122.05 131.102 124.085C144.055 129.894 159.22 133.237 175.433 133.237C190.2 133.237 204.099 130.463 216.248 125.58Z" fill="#B2A8A6"/>
<path d="M213.942 121.783C213.434 122.338 213.076 123.013 212.925 123.819C212.679 125.129 211.96 126.023 210.952 126.274C210.01 126.509 208.989 126.149 208.356 125.354C207.606 124.411 206.373 123.941 205.069 124.104C203.457 124.301 202.065 125.355 201.347 126.925C200.687 128.368 199.324 129.4 198.031 129.433C197.485 129.456 196.794 129.291 196.369 128.476C195.796 127.383 194.615 126.719 193.209 126.7C193.186 126.7 193.164 126.7 193.142 126.7C191.354 126.7 189.692 127.691 188.793 129.297C187.914 130.868 186.213 131.569 184.906 131.569C184.898 131.569 184.891 131.569 184.882 131.569C183.784 131.561 182.903 131.093 182.463 130.282C181.747 128.961 180.434 128.068 178.95 127.894C177.553 127.727 176.228 128.207 175.329 129.209C174.044 130.641 171.979 131.713 170.895 131.476C170.559 131.406 170.35 131.212 170.235 130.868C169.683 129.203 168.634 128.002 167.429 127.657C166.73 127.457 165.617 127.446 164.298 128.54C162.5 130.032 160.7 130.765 159.617 130.465C159.122 130.326 158.781 129.971 158.577 129.377C157.962 127.598 156.788 126.345 155.436 126.025C154.619 125.828 153.342 125.894 151.911 127.288C150.854 128.318 149.587 128.737 148.352 128.469C147.196 128.22 146.214 127.384 145.785 126.288C145.174 124.727 144.072 123.596 142.76 123.183C141.674 122.839 140.55 123.023 139.513 123.715C138.544 124.359 137.255 124.496 136.065 124.08C134.751 123.622 133.78 122.6 133.329 121.203C133.224 120.877 133.079 120.599 132.912 120.349C132.729 120.709 132.547 121.071 132.366 121.437C132.375 121.461 132.388 121.48 132.396 121.505C132.935 123.177 134.155 124.454 135.742 125.008C137.223 125.523 138.836 125.347 140.058 124.533C140.839 124.013 141.672 123.873 142.467 124.12C143.478 124.439 144.377 125.384 144.872 126.647C145.418 128.045 146.672 129.111 148.145 129.429C149.717 129.773 151.297 129.258 152.596 127.992C153.49 127.121 154.373 126.785 155.211 126.98C156.219 127.218 157.153 128.26 157.65 129.698C157.959 130.594 158.549 131.186 159.353 131.411C160.768 131.807 162.852 131.016 164.925 129.296C165.718 128.638 166.468 128.403 167.159 128.601C168.211 128.903 168.956 130.129 169.304 131.177C169.53 131.859 170.011 132.295 170.695 132.438C172.284 132.773 174.718 131.361 176.059 129.865C176.742 129.103 177.755 128.744 178.836 128.868C180.003 129.006 181.037 129.709 181.601 130.751C182.216 131.885 183.41 132.542 184.877 132.551C184.887 132.551 184.899 132.551 184.911 132.551C186.848 132.551 188.706 131.464 189.651 129.777C190.516 128.23 192.015 127.682 193.148 127.682C193.164 127.682 193.181 127.682 193.196 127.682C194.236 127.696 195.098 128.164 195.5 128.933C196.01 129.906 196.982 130.451 198.058 130.415C199.711 130.371 201.43 129.104 202.241 127.334C202.816 126.078 203.919 125.235 205.189 125.079C206.165 124.96 207.046 125.283 207.591 125.967C208.462 127.061 209.877 127.555 211.19 127.228C212.586 126.881 213.57 125.706 213.89 124.001C213.996 123.438 214.213 123 214.478 122.65C214.299 122.359 214.119 122.064 213.942 121.783Z" fill="#472D43"/>
<path d="M172.612 90.6147C165.803 90.6147 159.677 92.2927 154.155 95.5047C160.376 98.2857 167.652 99.8867 175.432 99.8867C181.538 99.8867 187.329 98.8948 192.549 97.1268C186.265 92.6398 179.867 90.6147 172.612 90.6147Z" fill="#6B4564"/>
<path d="M248.235 209.316C243.423 176.228 222.104 132.859 210.225 116.176C197.334 98.0718 186.556 90.6147 172.612 90.6147C135.62 90.6147 118.718 139.978 109.877 217.411L226.492 250.596L238.229 253.936C238.229 253.936 253.125 242.944 248.235 209.316Z" stroke="#2A1302" stroke-miterlimit="10"/>
<path d="M170.834 142.875C170.669 144.791 170.504 146.707 170.339 148.622C170.284 149.263 171.284 149.259 171.339 148.622C171.504 146.706 171.669 144.79 171.834 142.875C171.889 142.234 170.889 142.237 170.834 142.875Z" fill="#C6A8C4"/>
<path d="M181.486 142.66C181.501 144.155 181.415 145.648 181.229 147.13C181.195 147.398 181.483 147.63 181.729 147.63C182.027 147.63 182.195 147.399 182.229 147.13C182.416 145.647 182.502 144.154 182.486 142.66C182.48 142.017 181.48 142.016 181.486 142.66Z" fill="#C6A8C4"/>
<path d="M185.93 155.658C185.859 157.931 185.788 160.204 185.717 162.477C185.697 163.121 186.697 163.12 186.717 162.477C186.788 160.204 186.859 157.931 186.93 155.658C186.95 155.014 185.95 155.015 185.93 155.658Z" fill="#C6A8C4"/>
<path d="M193.623 146.283C193.623 148.201 193.623 150.119 193.623 152.036C193.623 152.679 194.623 152.681 194.623 152.036C194.623 150.118 194.623 148.2 194.623 146.283C194.623 145.64 193.623 145.639 193.623 146.283Z" fill="#C6A8C4"/>
<path d="M197.414 163.327C197.345 164.464 197.276 165.6 197.207 166.737C197.191 167.007 197.448 167.237 197.707 167.237C197.991 167.237 198.19 167.008 198.207 166.737C198.276 165.6 198.345 164.464 198.414 163.327C198.43 163.057 198.172 162.827 197.914 162.827C197.629 162.827 197.43 163.056 197.414 163.327Z" fill="#C6A8C4"/>
<path d="M204.074 150.332C203.927 152.576 203.637 154.805 203.202 157.012C203.078 157.641 204.042 157.91 204.166 157.278C204.617 154.985 204.921 152.664 205.073 150.332C205.116 149.69 204.116 149.692 204.074 150.332Z" fill="#C6A8C4"/>
<path d="M204.507 169.085C204.287 171.002 204.066 172.919 203.846 174.836C203.815 175.105 204.098 175.336 204.346 175.336C204.642 175.336 204.815 175.106 204.846 174.836C205.066 172.919 205.287 171.002 205.507 169.085C205.538 168.816 205.255 168.585 205.007 168.585C204.711 168.585 204.538 168.815 204.507 169.085Z" fill="#C6A8C4"/>
<path d="M213.211 165.961C212.802 168.237 212.392 170.513 211.982 172.789C211.869 173.418 212.832 173.688 212.946 173.055C213.356 170.779 213.765 168.503 214.175 166.227C214.289 165.597 213.325 165.328 213.211 165.961Z" fill="#C6A8C4"/>
<path d="M209.143 181.865C208.91 184.476 208.527 187.069 207.997 189.636C207.867 190.264 208.831 190.533 208.961 189.902C209.509 187.248 209.902 184.564 210.143 181.865C210.2 181.224 209.2 181.228 209.143 181.865Z" fill="#C6A8C4"/>
<path d="M132.086 167.37C132.086 167.37 177.326 233.447 182.482 246.901C187.639 260.355 167.685 294.893 147.162 297.74C122.953 301.099 100.711 288.402 69.7949 223.575C38.8779 158.748 132.086 167.37 132.086 167.37Z" fill="#5C262D" stroke="#2A1302" stroke-miterlimit="10"/>
<path d="M47.1698 267.109L54.9478 226.973L93.7248 230.131L89.0808 285.864C89.0808 285.864 89.3938 295.438 74.8838 296.977C60.3728 298.516 20.9888 296.844 20.9888 296.844C20.9888 296.844 16.0148 296.284 15.0818 291.216C14.1788 286.308 16.0198 283.118 24.1168 277.965C30.6198 273.827 47.1698 267.109 47.1698 267.109Z" fill="#756B42" stroke="#352623" stroke-miterlimit="10"/>
<path d="M31.2029 290.925C31.2029 285.531 28.8859 280.691 25.2089 277.302C24.8229 277.528 24.4539 277.75 24.1179 277.964C16.0199 283.117 14.1799 286.307 15.0829 291.215C16.0149 296.283 20.9899 296.843 20.9899 296.843C20.9899 296.843 24.6359 296.998 30.1019 297.169C30.8009 295.216 31.2029 293.12 31.2029 290.925Z" fill="#B0581C" stroke="#352623" stroke-miterlimit="10"/>
<path d="M81.5569 277.054C71.7919 277.054 63.8759 285.452 63.8759 295.811C63.8759 296.397 63.9089 296.975 63.9589 297.548C68.2339 297.456 71.9839 297.596 74.8459 297.628C92.0669 297.821 89.6938 278.521 89.6938 278.521C87.4718 277.454 84.1539 277.054 81.5569 277.054Z" fill="#B0581C" stroke="#352623" stroke-miterlimit="10"/>
<path d="M52.6108 239.034L92.4618 242.686L93.8818 228.575L55.4138 224.571L52.6108 239.034Z" fill="#B0581C" stroke="#352623" stroke-miterlimit="10"/>
<path d="M71.3559 253.381C71.8659 253.961 72.9228 253.941 73.4368 253.381C74.0048 252.762 73.9808 251.919 73.4368 251.3C72.3828 250.101 71.4538 248.773 70.2888 247.676C69.6688 247.093 68.8368 247.155 68.2078 247.676C66.8278 248.818 65.4479 249.961 64.0679 251.103C63.4719 251.596 63.5199 252.681 64.0679 253.184C64.7009 253.765 65.5139 253.71 66.1489 253.184C66.6159 252.797 67.0829 252.411 67.5509 252.024C67.4999 252.71 67.4478 253.395 67.3968 254.081C67.1938 254.219 66.9958 254.358 66.8028 254.481C66.1618 254.891 65.5208 255.301 64.8798 255.711C64.2318 256.125 63.9089 257.038 64.3519 257.724C64.7699 258.372 65.6719 258.696 66.3649 258.252C66.6169 258.091 66.8688 257.93 67.1208 257.769C66.9968 259.425 66.8728 261.081 66.7498 262.738C66.6908 263.532 67.4689 264.21 68.2219 264.21C69.0679 264.21 69.6338 263.534 69.6938 262.738C69.8128 261.14 69.9328 259.542 70.0518 257.944C70.2508 258.171 70.4499 258.398 70.6489 258.625C71.1579 259.206 72.2168 259.184 72.7298 258.625C73.2988 258.006 73.2728 257.163 72.7298 256.544C72.2508 255.998 71.7728 255.452 71.2938 254.905C70.9998 254.569 70.7038 254.181 70.3548 253.878C70.3938 253.36 70.4318 252.842 70.4708 252.324C70.7608 252.682 71.0529 253.037 71.3559 253.381Z" fill="#EFD3B7"/>
<path d="M57.4968 239.481L59.6898 225.374" stroke="#352623" stroke-miterlimit="10"/>
<path d="M64.3178 225.498L62.0498 239.899" stroke="#352623" stroke-miterlimit="10"/>
<path d="M68.7519 225.959L66.8809 240.342" stroke="#352623" stroke-miterlimit="10"/>
<path d="M89.3719 228.106L87.9539 242.273" stroke="#352623" stroke-miterlimit="10"/>
<path d="M84.6588 227.666L82.8848 241.872" stroke="#352623" stroke-miterlimit="10"/>
<path d="M72.3959 226.546L70.8339 240.704" stroke="#352623" stroke-miterlimit="10"/>
<path d="M76.8498 226.802L75.1808 241.102" stroke="#352623" stroke-miterlimit="10"/>
<path d="M80.7989 227.213L78.8689 241.44" stroke="#352623" stroke-miterlimit="10"/>
<path d="M164.439 216.087C164.439 216.087 135.951 163.572 127.985 148.81C118.579 131.378 91.7048 95.9258 70.0618 120.538C48.4188 145.149 36.0898 225.375 36.0898 225.375L104.033 238.621L108.641 206.933" fill="#5C262D"/>
<path d="M164.439 216.087C164.439 216.087 135.951 163.572 127.985 148.81C118.579 131.378 91.7048 95.9258 70.0618 120.538C48.4188 145.149 36.0898 225.375 36.0898 225.375L104.033 238.621L108.641 206.933" stroke="#2A1302" stroke-miterlimit="10"/>
<path d="M36.0908 225.374L104.034 238.62L107.076 217.706L40.0098 204.05C37.4338 216.638 36.0908 225.374 36.0908 225.374Z" stroke="#2A1302" stroke-miterlimit="10"/>
<path d="M170.348 167.37C170.348 167.37 215.588 233.447 220.744 246.901C225.9 260.355 205.947 294.893 185.424 297.74C161.215 301.099 138.973 288.402 108.057 223.575C77.1408 158.748 170.348 167.37 170.348 167.37Z" fill="#5C262D" stroke="#2A1302" stroke-miterlimit="10"/>
<path d="M85.4318 267.109L93.2098 226.973L131.987 230.131L127.343 285.864C127.343 285.864 127.656 295.438 113.145 296.977C98.6338 298.516 59.2498 296.844 59.2498 296.844C59.2498 296.844 54.2758 296.284 53.3428 291.216C52.4398 286.308 54.2808 283.118 62.3778 277.965C68.8818 273.827 85.4318 267.109 85.4318 267.109Z" fill="#756B42" stroke="#352623" stroke-miterlimit="10"/>
<path d="M69.4639 290.925C69.4639 285.531 67.1458 280.691 63.4698 277.302C63.0838 277.528 62.7148 277.75 62.3788 277.964C54.2808 283.117 52.4409 286.307 53.3439 291.215C54.2759 296.283 59.2508 296.843 59.2508 296.843C59.2508 296.843 62.8968 296.998 68.3628 297.169C69.0628 295.216 69.4639 293.12 69.4639 290.925Z" fill="#B0581C" stroke="#352623" stroke-miterlimit="10"/>
<path d="M119.819 277.054C110.054 277.054 102.138 285.452 102.138 295.811C102.138 296.397 102.171 296.975 102.221 297.548C106.496 297.456 110.246 297.596 113.108 297.628C130.329 297.821 127.956 278.521 127.956 278.521C125.734 277.454 122.416 277.054 119.819 277.054Z" fill="#B0581C" stroke="#352623" stroke-miterlimit="10"/>
<path d="M90.8728 239.034L130.723 242.686L132.144 228.575L93.6758 224.571L90.8728 239.034Z" fill="#B0581C" stroke="#352623" stroke-miterlimit="10"/>
<path d="M109.617 253.381C110.127 253.961 111.184 253.941 111.698 253.381C112.266 252.762 112.242 251.919 111.698 251.3C110.644 250.101 109.715 248.773 108.55 247.676C107.93 247.093 107.098 247.155 106.469 247.676C105.089 248.818 103.709 249.961 102.329 251.103C101.734 251.596 101.781 252.681 102.329 253.184C102.962 253.765 103.775 253.71 104.41 253.184C104.877 252.797 105.344 252.411 105.811 252.024C105.76 252.71 105.709 253.395 105.657 254.081C105.454 254.219 105.256 254.358 105.063 254.481C104.422 254.891 103.781 255.301 103.14 255.711C102.492 256.125 102.169 257.038 102.612 257.724C103.03 258.372 103.932 258.696 104.625 258.252C104.877 258.091 105.129 257.93 105.381 257.769C105.257 259.425 105.133 261.081 105.01 262.738C104.951 263.532 105.729 264.21 106.482 264.21C107.328 264.21 107.894 263.534 107.954 262.738C108.073 261.14 108.193 259.542 108.312 257.944C108.511 258.171 108.71 258.398 108.909 258.625C109.418 259.206 110.477 259.184 110.99 258.625C111.559 258.006 111.533 257.163 110.99 256.544C110.511 255.998 110.033 255.452 109.554 254.905C109.26 254.569 108.964 254.181 108.615 253.878C108.654 253.36 108.692 252.842 108.731 252.324C109.023 252.682 109.315 253.037 109.617 253.381Z" fill="#EFD3B7"/>
<path d="M95.7588 239.481L97.9518 225.374" stroke="#352623" stroke-miterlimit="10"/>
<path d="M102.58 225.498L100.312 239.899" stroke="#352623" stroke-miterlimit="10"/>
<path d="M107.014 225.959L105.143 240.342" stroke="#352623" stroke-miterlimit="10"/>
<path d="M127.634 228.106L126.216 242.273" stroke="#352623" stroke-miterlimit="10"/>
<path d="M122.92 227.666L121.147 241.872" stroke="#352623" stroke-miterlimit="10"/>
<path d="M110.658 226.546L109.096 240.704" stroke="#352623" stroke-miterlimit="10"/>
<path d="M115.111 226.802L113.442 241.102" stroke="#352623" stroke-miterlimit="10"/>
<path d="M119.061 227.213L117.131 241.44" stroke="#352623" stroke-miterlimit="10"/>
<path d="M202.701 216.087C202.701 216.087 174.213 163.572 166.247 148.81C156.841 131.378 129.967 95.9258 108.324 120.538C86.6808 145.149 74.3518 225.375 74.3518 225.375L142.295 238.621L146.903 206.933" fill="#5C262D"/>
<path d="M202.701 216.087C202.701 216.087 174.213 163.572 166.247 148.81C156.841 131.378 129.967 95.9258 108.324 120.538C86.6808 145.149 74.3518 225.375 74.3518 225.375L142.295 238.621L146.903 206.933" stroke="#2A1302" stroke-miterlimit="10"/>
<path d="M74.3528 225.374L142.296 238.62L145.337 217.706L78.2708 204.05C75.6958 216.638 74.3528 225.374 74.3528 225.374Z" stroke="#2A1302" stroke-miterlimit="10"/>
<path d="M157.729 175.152C153.67 179.662 149.776 184.204 146.049 188.756L230.626 264.874C234.761 260.689 238.869 256.34 242.928 251.83C244.176 250.444 245.402 249.054 246.619 247.662L161.485 171.043C160.23 172.4 158.976 173.766 157.729 175.152Z" fill="#6B4564" stroke="#C6A8C4" stroke-miterlimit="10"/>
<path d="M165.424 174.515L150.013 191.639" stroke="#C6A8C4" stroke-miterlimit="10"/>
<path d="M169.456 178.217L153.74 195.679" stroke="#C6A8C4" stroke-miterlimit="10"/>
<path d="M173.796 182.123L158.08 199.585" stroke="#C6A8C4" stroke-miterlimit="10"/>
<path d="M177.853 185.774L162.138 203.236" stroke="#C6A8C4" stroke-miterlimit="10"/>
<path d="M181.629 189.173L165.914 206.635" stroke="#C6A8C4" stroke-miterlimit="10"/>
<path d="M185.406 192.571L169.69 210.033" stroke="#C6A8C4" stroke-miterlimit="10"/>
<path d="M189.409 196.175L173.694 213.636" stroke="#C6A8C4" stroke-miterlimit="10"/>
<path d="M193.618 199.962L177.903 217.424" stroke="#C6A8C4" stroke-miterlimit="10"/>
<path d="M197.619 203.563L181.903 221.025" stroke="#C6A8C4" stroke-miterlimit="10"/>
<path d="M201.87 207.01L186.155 224.472" stroke="#C6A8C4" stroke-miterlimit="10"/>
<path d="M206.179 210.888L190.464 228.35" stroke="#C6A8C4" stroke-miterlimit="10"/>
<path d="M210.339 214.632L194.624 232.094" stroke="#C6A8C4" stroke-miterlimit="10"/>
<path d="M214.481 218.739L198.766 236.201" stroke="#C6A8C4" stroke-miterlimit="10"/>
<path d="M218.677 222.515L202.961 239.977" stroke="#C6A8C4" stroke-miterlimit="10"/>
<path d="M222.835 225.878L207.119 243.34" stroke="#C6A8C4" stroke-miterlimit="10"/>
<path d="M226.492 229.548L210.776 247.01" stroke="#C6A8C4" stroke-miterlimit="10"/>
<path d="M242.096 243.86L226.647 261.026" stroke="#C6A8C4" stroke-miterlimit="10"/>
<path d="M238.082 240.246L222.632 257.413" stroke="#C6A8C4" stroke-miterlimit="10"/>
<path d="M234.219 236.77L218.77 253.937" stroke="#C6A8C4" stroke-miterlimit="10"/>
<path d="M230.204 233.157L214.755 250.323" stroke="#C6A8C4" stroke-miterlimit="10"/>
<path d="M81.5549 299.485C85.8659 292.782 90.2769 286.145 94.7869 279.574C95.9019 277.95 93.2569 276.421 92.1509 278.033C87.6409 284.604 83.2299 291.241 78.9189 297.944C77.8529 299.601 80.4939 301.134 81.5549 299.485Z" fill="#EFCAAC" stroke="#2A1302" stroke-miterlimit="10"/>
<path d="M92.5119 296.55C95.4909 292.003 98.4689 287.455 101.448 282.908C102.528 281.26 99.8849 279.728 98.8119 281.367C95.8329 285.914 92.8549 290.462 89.8759 295.009C88.7959 296.658 91.4389 298.189 92.5119 296.55Z" fill="#EFCAAC" stroke="#2A1302" stroke-miterlimit="10"/>
<path d="M96.9958 302.78C100.671 296.954 104.347 291.128 108.022 285.302C109.073 283.635 106.433 282.102 105.386 283.761C101.711 289.587 98.0348 295.413 94.3598 301.239C93.3078 302.906 95.9488 304.439 96.9958 302.78Z" fill="#EFCAAC" stroke="#2A1302" stroke-miterlimit="10"/>
<path d="M104.667 307.821C108.152 302.625 111.468 297.318 114.61 291.908C115.599 290.206 112.961 288.667 111.974 290.367C108.832 295.777 105.516 301.084 102.031 306.28C100.934 307.917 103.578 309.447 104.667 307.821Z" fill="#EFCAAC" stroke="#2A1302" stroke-miterlimit="10"/>
<path d="M117.03 305.167C120.094 299.37 123.159 293.572 126.223 287.775C127.14 286.039 124.506 284.494 123.587 286.234C120.523 292.031 117.458 297.829 114.394 303.626C113.476 305.362 116.111 306.906 117.03 305.167Z" fill="#EFCAAC" stroke="#2A1302" stroke-miterlimit="10"/>
<path d="M123.988 311.511C126.811 304.712 129.634 297.913 132.457 291.114C132.776 290.347 132.113 289.443 131.391 289.236C130.516 288.986 129.828 289.544 129.513 290.302C126.69 297.101 123.867 303.9 121.044 310.699C120.725 311.466 121.388 312.37 122.11 312.577C122.985 312.828 123.673 312.269 123.988 311.511Z" fill="#EFCAAC" stroke="#2A1302" stroke-miterlimit="10"/>
<path d="M135.962 293.411C134.915 299.53 133.517 305.581 131.772 311.539C131.219 313.428 134.164 314.235 134.716 312.351C136.46 306.393 137.859 300.342 138.906 294.223C139.045 293.411 138.69 292.579 137.84 292.345C137.106 292.144 136.102 292.594 135.962 293.411Z" fill="#EFCAAC" stroke="#2A1302" stroke-miterlimit="10"/>
<path d="M143.568 314.565C145.93 306.706 148.666 298.966 151.767 291.368C152.081 290.599 151.426 289.698 150.701 289.49C149.83 289.24 149.133 289.797 148.823 290.556C145.722 298.154 142.987 305.894 140.625 313.753C140.058 315.639 143.003 316.445 143.568 314.565Z" fill="#EFCAAC" stroke="#2A1302" stroke-miterlimit="10"/>
<path d="M151.494 312.345C153.067 307.564 154.94 302.894 157.119 298.357C157.476 297.614 157.323 296.708 156.571 296.268C155.904 295.878 154.841 296.069 154.482 296.816C152.19 301.588 150.204 306.505 148.549 311.533C147.934 313.404 150.881 314.206 151.494 312.345Z" fill="#EFCAAC" stroke="#2A1302" stroke-miterlimit="10"/>
<path d="M158.624 320.093C160.072 313.272 162.276 306.631 165.248 300.322C166.081 298.555 163.45 297.003 162.612 298.781C159.526 305.331 157.183 312.197 155.68 319.281C155.273 321.198 158.215 322.017 158.624 320.093Z" fill="#EFCAAC" stroke="#2A1302" stroke-miterlimit="10"/>
<path d="M167.504 301.357C166.262 308.201 164.746 314.99 162.96 321.713C162.455 323.614 165.399 324.425 165.904 322.525C167.69 315.803 169.206 309.013 170.448 302.169C170.796 300.247 167.855 299.423 167.504 301.357Z" fill="#EFCAAC" stroke="#2A1302" stroke-miterlimit="10"/>
<path d="M174.827 303.794C174.027 308.766 173.464 313.773 173.159 318.8C173.109 319.624 173.896 320.327 174.686 320.327C175.554 320.327 176.162 319.627 176.212 318.8C176.501 314.045 177.014 309.309 177.771 304.605C177.902 303.792 177.561 302.962 176.705 302.727C175.977 302.528 174.958 302.975 174.827 303.794Z" fill="#EFCAAC" stroke="#2A1302" stroke-miterlimit="10"/>
<path d="M182.832 324.979C183.972 319.267 185.265 313.586 186.708 307.943C187.195 306.039 184.252 305.226 183.764 307.131C182.32 312.774 181.028 318.455 179.888 324.167C179.505 326.086 182.447 326.907 182.832 324.979Z" fill="#EFCAAC" stroke="#2A1302" stroke-miterlimit="10"/>
<path d="M190.16 308.417C189.515 313.715 188.87 319.013 188.225 324.311C188.125 325.131 188.998 325.838 189.751 325.838C190.659 325.838 191.177 325.134 191.278 324.311C191.923 319.013 192.568 313.715 193.213 308.417C193.313 307.597 192.44 306.891 191.686 306.891C190.779 306.891 190.26 307.595 190.16 308.417Z" fill="#EFCAAC" stroke="#2A1302" stroke-miterlimit="10"/>
<path d="M198.757 308.666C197.963 313.926 196.993 319.158 195.846 324.353C195.423 326.268 198.366 327.085 198.79 325.165C199.937 319.97 200.908 314.739 201.701 309.478C201.824 308.664 201.496 307.837 200.635 307.6C199.914 307.402 198.881 307.846 198.757 308.666Z" fill="#EFCAAC" stroke="#2A1302" stroke-miterlimit="10"/>
<path d="M152.215 128.167C152.215 128.167 158.22 144.162 150.867 175.342C143.515 206.522 86.1938 284.069 86.1938 284.069L201.428 318.474C201.428 318.474 223.98 214.692 221.102 202.429C218.224 190.166 152.215 128.167 152.215 128.167Z" fill="#EFCAAC"/>
<path d="M153.886 136.001L164.336 139.746C163.423 138.864 162.547 138.019 161.713 137.217L153.641 134.324C153.725 134.853 153.808 135.405 153.886 136.001Z" fill="#A05A4E"/>
<path d="M210.917 272.403L207.533 281.845L181.765 272.61L191.434 245.63L214.451 253.879C214.544 253.375 214.637 252.87 214.73 252.367L191.946 244.202L200.156 221.294L201.616 217.22L219.55 223.647C219.625 223.127 219.696 222.62 219.767 222.114L202.128 215.793L211.797 188.812L211.857 188.833C211.228 188.087 210.575 187.324 209.899 186.544L185.154 177.676L189.727 164.915C189.348 164.527 188.968 164.139 188.588 163.752L183.775 177.182L158.006 167.947L167.139 142.462C166.75 142.084 166.364 141.71 165.985 141.342L156.628 167.453L152.752 166.064C152.668 166.558 152.582 167.054 152.49 167.558L156.124 168.86L150.749 183.86L146.455 195.842L143.287 194.707C143.065 195.159 142.837 195.617 142.608 196.075L145.943 197.27L136.274 224.252L128.404 221.432C128.136 221.873 127.867 222.314 127.598 222.754L135.763 225.68L128.21 246.756L126.094 252.66L111.734 247.514C111.443 247.95 111.155 248.382 110.865 248.814L125.582 254.088L116.258 280.106C116.262 280.114 116.267 280.121 116.271 280.128L115.914 281.123L93.9899 273.266C93.6939 273.683 93.4029 274.092 93.1199 274.488L115.427 282.482L112.087 291.801L113.472 292.215L116.785 282.97L142.554 292.205L139.74 300.058L141.145 300.478L143.933 292.699L169.701 301.932L167.412 308.319L168.817 308.738L171.079 302.426L196.847 311.661L195.084 316.581L196.489 317L198.226 312.154L202.459 313.671C202.558 313.21 202.663 312.716 202.773 312.196L198.73 310.747L205.182 292.744L208.4 283.765L208.641 283.851C208.741 283.352 208.842 282.853 208.943 282.348L208.911 282.337L208.988 282.122C209.622 278.969 210.268 275.715 210.917 272.403ZM184.724 260.012L180.386 272.116L154.618 262.881L164.287 235.901L190.055 245.136L184.724 260.012ZM190.567 243.708L164.799 234.473L173.709 209.611L174.468 207.492L200.236 216.727L190.567 243.708ZM184.649 179.082L210.417 188.317L209.073 192.066L200.747 215.299L174.979 206.064L184.649 179.082ZM157.502 169.353L183.271 178.588L182.503 180.732L173.602 205.57L147.833 196.335L157.502 169.353ZM142.389 211.525L147.321 197.763L173.09 206.998L163.421 233.98L137.652 224.745L142.389 211.525ZM137.14 226.172L162.909 235.407L156.218 254.078L153.24 262.387L127.471 253.152L137.14 226.172ZM143.059 290.796L117.29 281.561L119.422 275.612L126.96 254.579L152.729 263.814L143.059 290.796ZM170.206 300.525L144.438 291.29L147.454 282.875L154.108 264.309L179.876 273.544L170.206 300.525ZM197.352 310.254L171.584 301.019L175.987 288.732L181.253 274.038L207.021 283.273L197.352 310.254Z" fill="#A05A4E"/>
<path d="M152.215 128.167C152.215 128.167 158.22 144.162 150.867 175.342C143.515 206.522 86.1938 284.069 86.1938 284.069L201.428 318.474C201.428 318.474 223.98 214.692 221.102 202.429C218.224 190.166 152.215 128.167 152.215 128.167Z" stroke="#2A1302" stroke-miterlimit="10"/>
<path d="M192.205 129.876C192.205 129.876 203.072 149.053 209.252 161.199C215.431 173.345 220.119 191.031 205.843 189.752C191.566 188.473 182.83 181.516 182.83 181.516L160.299 209.889C160.299 209.889 194.549 239.401 222.889 242.81C251.229 246.219 274.7 225.705 272.998 200.8C269.642 151.706 214.068 88.9648 172.613 90.6158L192.205 129.876Z" fill="#836787"/>
<path d="M149.35 193.381C149.35 193.381 145.53 188.253 143.697 185.239C141.864 182.226 140.565 177.935 140.565 177.935L140.352 175.321C140.352 175.321 141.124 174.034 140.922 173.48C140.72 172.926 139.731 170.007 139.793 169.082C139.855 168.158 140.352 167.269 140.352 167.269L141.125 167.085C141.125 167.085 141.835 167.499 141.165 165.441C140.495 163.383 139.957 162.37 140.565 160.979C141.174 159.588 141.919 159.654 141.919 159.654C141.919 159.654 142.83 159.302 142.655 158.713C142.479 158.123 142.064 156.742 143.271 155.896C144.478 155.05 147.221 156.783 150.158 159.473C153.096 162.163 156.835 165.771 156.835 165.771C156.835 165.771 157.536 166.503 156.835 164.513C156.134 162.523 155.236 161.273 156.762 160.233C158.288 159.193 160.462 161.27 162.679 165.154C164.896 169.037 166.536 172.305 166.536 172.305C166.536 172.305 167.162 174.063 168.594 175.025C170.026 175.988 184.429 184.642 184.429 184.642C184.429 184.642 182.384 191.099 178.252 196.403C174.12 201.707 167.306 206.041 165.953 206.837C164.6 207.634 163.512 208.217 163.512 208.217C163.512 208.217 151.282 196.032 149.35 193.381Z" fill="#F1DCD5"/>
<path d="M141.026 174.039C139.842 175.42 140.779 181.092 145.711 188.588C150.643 196.085 163.511 208.217 163.511 208.217C163.511 208.217 169.384 205.356 175.697 199.241C182.01 193.125 184.427 184.642 184.427 184.642C184.427 184.642 175.4 179.847 166.684 173.704C164.525 172.182 162.384 170.577 160.405 168.941C159.03 167.805 157.733 166.654 156.561 165.506C146.894 156.037 143.91 154.039 142.53 156.801C141.149 159.563 150.643 169.846 152.221 171.424" stroke="#2A1302" stroke-miterlimit="10"/>
<path d="M142.966 159.475C142.966 159.475 140.251 159.316 140.354 162.424C140.458 165.531 145.341 173.743 147.042 176.332" stroke="#2A1302" stroke-miterlimit="10"/>
<path d="M141.617 166.962C141.617 166.962 139.644 166.567 139.792 169.083C139.94 171.598 141.863 176.481 144.897 181.512" stroke="#2A1302" stroke-miterlimit="10"/>
<path d="M158.575 167.377C158.575 167.377 154.176 161.579 157.005 160.081C159.52 158.749 164.388 167.506 167.429 174.224" stroke="#2A1302" stroke-miterlimit="10"/>
<path d="M224.464 114.179C214.735 120.057 203.075 124.219 190.301 126.059L192.206 129.875C192.206 129.875 192.616 130.599 193.318 131.846C206.866 129.712 219.239 125.204 229.621 118.932C227.925 117.293 226.204 115.71 224.464 114.179Z" fill="#B2A8A6"/>
<path d="M203.567 99.2598C198.679 100.702 182.93 104.776 179.925 105.269L182.808 111.046C186.743 110.198 204.746 106.231 210.452 103.421C208.168 101.916 205.87 100.529 203.567 99.2598Z" fill="#7D7368"/>
<path d="M232.637 121.942C221.895 128.362 209.169 133.017 195.259 135.312C195.579 135.885 195.918 136.493 196.274 137.131C210.321 134.725 223.168 129.94 234.023 123.376C233.563 122.894 233.101 122.416 232.637 121.942Z" fill="#DDD0D0"/>
<path d="M209.865 103.03C202.165 107.367 192.946 110.275 182.912 111.254L188.094 121.637C200.157 120.034 211.173 116.189 220.343 110.691C216.903 107.893 213.4 105.326 209.865 103.03Z" fill="#6B4564"/>
<path d="M187.822 117.03C187.586 117.026 187.381 116.852 187.345 116.611C187.305 116.343 187.491 116.094 187.759 116.055C189.025 115.868 190.306 115.647 191.569 115.398C191.832 115.35 192.093 115.518 192.145 115.785C192.198 116.05 192.024 116.308 191.758 116.361C190.481 116.612 189.184 116.836 187.902 117.025C187.875 117.029 187.849 117.031 187.822 117.03ZM195.452 115.526C195.235 115.523 195.038 115.375 194.983 115.154C194.918 114.891 195.078 114.624 195.341 114.559C196.594 114.247 197.848 113.901 199.066 113.532C199.33 113.454 199.599 113.601 199.678 113.859C199.757 114.119 199.61 114.393 199.351 114.471C198.116 114.845 196.847 115.194 195.578 115.51C195.536 115.522 195.493 115.526 195.452 115.526ZM202.893 113.271C202.695 113.268 202.51 113.144 202.439 112.947C202.347 112.692 202.479 112.411 202.734 112.319C203.945 111.882 205.155 111.409 206.332 110.912C206.582 110.808 206.869 110.923 206.975 111.173C207.081 111.423 206.963 111.71 206.713 111.816C205.521 112.32 204.294 112.8 203.067 113.243C203.009 113.262 202.951 113.272 202.893 113.271ZM210.053 110.241C209.875 110.238 209.704 110.138 209.62 109.966C209.5 109.723 209.601 109.429 209.844 109.31C210.999 108.744 212.149 108.139 213.259 107.511C213.496 107.379 213.794 107.46 213.928 107.697C214.062 107.933 213.979 108.232 213.743 108.366C212.615 109.003 211.449 109.618 210.276 110.192C210.204 110.226 210.127 110.243 210.053 110.241Z" fill="#F4EDF4"/>
<path d="M226.031 115.576C225.343 116.448 224.743 117.445 224.28 118.491C223.496 120.261 222.921 121.323 222.297 121.521C221.939 121.631 221.44 121.488 220.69 121.038C219.183 120.134 216.984 120.022 215.342 120.758C214.025 121.351 213.189 122.409 212.925 123.819C212.679 125.129 211.96 126.023 210.952 126.274C210.01 126.509 208.989 126.149 208.356 125.354C207.606 124.411 206.373 123.941 205.069 124.104C203.457 124.301 202.065 125.355 201.347 126.925C200.687 128.368 199.324 129.4 198.031 129.433C197.485 129.456 196.794 129.291 196.369 128.476C195.796 127.383 194.615 126.719 193.209 126.7C193.186 126.7 193.164 126.7 193.142 126.7C192.35 126.7 191.587 126.904 190.9 127.26L191.335 128.132C191.949 127.815 192.592 127.681 193.147 127.681C193.163 127.681 193.18 127.681 193.195 127.681C194.235 127.695 195.097 128.163 195.499 128.932C196.009 129.905 196.981 130.45 198.057 130.414C199.71 130.37 201.429 129.103 202.24 127.333C202.815 126.077 203.918 125.234 205.188 125.078C206.164 124.959 207.045 125.282 207.59 125.966C208.461 127.06 209.876 127.554 211.189 127.227C212.585 126.88 213.569 125.705 213.889 124C214.145 122.636 215.04 121.971 215.745 121.654C217.092 121.049 218.96 121.143 220.186 121.88C221.209 122.494 221.932 122.667 222.594 122.457C223.582 122.144 224.239 121.01 225.178 118.888C225.593 117.95 226.137 117.041 226.759 116.243C226.516 116.02 226.274 115.796 226.031 115.576Z" fill="#472D43"/>
<path d="M209.391 102.72C201.746 106.985 192.607 109.836 182.677 110.783L183.146 111.723C193.256 110.707 202.544 107.732 210.299 103.317C209.996 103.118 209.694 102.915 209.391 102.72Z" fill="#DDD0D0"/>
<path d="M219.921 110.345C210.795 115.79 199.841 119.594 187.86 121.17L188.323 122.097C200.436 120.458 211.507 116.561 220.721 111.001C220.455 110.782 220.189 110.561 219.921 110.345Z" fill="#DDD0D0"/>
<path d="M172.612 90.6148L180.071 105.562C188.714 104.96 196.706 102.693 203.471 99.1948C192.98 93.4298 182.403 90.2258 172.612 90.6148Z" fill="#C6A8C4"/>
<path d="M172.229 90.6678L176.917 99.8868C183.859 99.6668 190.662 98.1378 196.312 95.6758C188.21 92.1648 179.792 90.3668 172.229 90.6678Z" fill="#6B4564"/>
<path d="M183.79 108.263C183.546 108.263 183.334 108.08 183.304 107.83C183.271 107.561 183.463 107.317 183.732 107.285C184.055 107.247 184.378 107.206 184.699 107.163C184.961 107.126 185.213 107.315 185.251 107.585C185.286 107.853 185.098 108.1 184.829 108.136C184.502 108.18 184.176 108.22 183.849 108.26C183.83 108.262 183.811 108.263 183.79 108.263ZM188.603 107.519C188.373 107.519 188.167 107.356 188.122 107.121C188.071 106.855 188.246 106.598 188.511 106.547C188.831 106.486 189.15 106.422 189.466 106.356C189.727 106.303 189.99 106.471 190.046 106.737C190.102 107.002 189.931 107.262 189.666 107.317C189.344 107.384 189.021 107.448 188.697 107.51C188.665 107.516 188.634 107.519 188.603 107.519ZM193.349 106.425C193.133 106.425 192.934 106.281 192.876 106.062C192.805 105.8 192.96 105.531 193.222 105.461C193.536 105.377 193.85 105.29 194.16 105.2C194.423 105.127 194.693 105.278 194.766 105.537C194.841 105.798 194.69 106.069 194.43 106.144C194.114 106.234 193.797 106.322 193.477 106.408C193.433 106.42 193.391 106.425 193.349 106.425ZM197.999 104.979C197.797 104.979 197.608 104.854 197.537 104.653C197.446 104.398 197.579 104.117 197.834 104.027C198.141 103.918 198.446 103.807 198.75 103.694C199.003 103.599 199.286 103.729 199.381 103.983C199.475 104.237 199.345 104.519 199.092 104.614C198.784 104.728 198.475 104.841 198.165 104.951C198.109 104.97 198.053 104.979 197.999 104.979ZM202.519 103.172C202.332 103.172 202.153 103.064 202.072 102.882C201.961 102.635 202.072 102.345 202.319 102.234C202.616 102.101 202.91 101.966 203.203 101.829C203.446 101.714 203.739 101.819 203.855 102.065C203.97 102.31 203.864 102.602 203.618 102.717C203.321 102.857 203.021 102.994 202.718 103.129C202.654 103.158 202.586 103.172 202.519 103.172Z" fill="#C6A8C4"/>
<path d="M192.205 129.876C192.205 129.876 203.072 149.053 209.252 161.199C215.431 173.345 220.119 191.031 205.843 189.752C191.566 188.473 182.83 181.516 182.83 181.516L160.299 209.889C160.299 209.889 194.549 239.401 222.889 242.81C251.229 246.219 274.7 225.705 272.998 200.8C269.642 151.706 214.068 88.9648 172.613 90.6158" stroke="#2A1302" stroke-miterlimit="10"/>
<path d="M160.299 209.888C160.299 209.888 165.535 214.394 173.59 220.083C178.853 214.091 191.572 198.904 195.606 187.729C187.274 184.141 182.829 181.515 182.829 181.515L160.299 209.888Z" fill="#6B4564" stroke="#C6A8C4" stroke-miterlimit="10"/>
<path d="M162.109 207.609L175.66 217.691" stroke="#C6A8C4" stroke-miterlimit="10"/>
<path d="M164.797 204.295L178.465 214.337" stroke="#C6A8C4" stroke-miterlimit="10"/>
<path d="M167.516 200.799L181.15 210.997" stroke="#C6A8C4" stroke-miterlimit="10"/>
<path d="M170.04 197.622L183.891 207.428" stroke="#C6A8C4" stroke-miterlimit="10"/>
<path d="M172.792 194.239L186.296 203.748" stroke="#C6A8C4" stroke-miterlimit="10"/>
<path d="M175.229 191.087L189.171 199.91" stroke="#C6A8C4" stroke-miterlimit="10"/>
<path d="M177.953 187.657L191.882 195.498" stroke="#C6A8C4" stroke-miterlimit="10"/>
<path d="M180.744 184.142L193.803 191.087" stroke="#C6A8C4" stroke-miterlimit="10"/>
<path d="M206.043 143.556C206.52 144.419 206.998 145.283 207.475 146.146C207.602 146.375 207.936 146.469 208.159 146.325C208.391 146.175 208.474 145.886 208.338 145.641C207.861 144.778 207.384 143.914 206.906 143.051C206.779 142.822 206.445 142.728 206.222 142.872C205.991 143.022 205.908 143.311 206.043 143.556Z" fill="#C6A8C4"/>
<path d="M217.565 136.304C218.003 137.222 218.44 138.14 218.878 139.058C218.991 139.295 219.348 139.375 219.562 139.237C219.805 139.08 219.862 138.806 219.741 138.553C219.303 137.635 218.866 136.717 218.428 135.799C218.315 135.562 217.958 135.482 217.744 135.62C217.501 135.776 217.444 136.05 217.565 136.304Z" fill="#C6A8C4"/>
<path d="M218.792 151.314C219.282 152.595 219.772 153.877 220.262 155.158C220.358 155.41 220.599 155.584 220.877 155.507C221.118 155.441 221.323 155.146 221.226 154.892C220.736 153.611 220.246 152.329 219.756 151.048C219.66 150.796 219.419 150.622 219.141 150.699C218.9 150.765 218.695 151.061 218.792 151.314Z" fill="#C6A8C4"/>
<path d="M231.603 142.922C232.024 143.777 232.445 144.632 232.866 145.487C232.982 145.722 233.334 145.806 233.55 145.666C233.791 145.511 233.853 145.234 233.729 144.982C233.308 144.127 232.887 143.272 232.466 142.417C232.35 142.182 231.998 142.098 231.782 142.238C231.541 142.393 231.479 142.67 231.603 142.922Z" fill="#C6A8C4"/>
<path d="M232.244 130.136C233.097 131.84 233.951 133.544 234.804 135.248C235.092 135.824 235.955 135.318 235.667 134.743C234.814 133.039 233.96 131.335 233.107 129.631C232.819 129.055 231.956 129.561 232.244 130.136Z" fill="#C6A8C4"/>
<path d="M229.958 157.381C230.388 158.231 230.817 159.082 231.247 159.933C231.365 160.167 231.714 160.252 231.931 160.112C232.17 159.958 232.237 159.678 232.11 159.428C231.68 158.578 231.251 157.727 230.821 156.876C230.703 156.642 230.354 156.556 230.137 156.697C229.898 156.851 229.831 157.131 229.958 157.381Z" fill="#C6A8C4"/>
<path d="M244.244 145.868C244.814 146.933 245.383 147.997 245.953 149.062C246.077 149.293 246.416 149.384 246.637 149.241C246.872 149.09 246.949 148.804 246.816 148.557C246.246 147.492 245.677 146.428 245.107 145.363C244.983 145.132 244.644 145.041 244.423 145.184C244.189 145.335 244.112 145.621 244.244 145.868Z" fill="#C6A8C4"/>
<path d="M217.574 167.622C218.141 168.759 218.708 169.896 219.276 171.033C219.397 171.274 219.738 171.342 219.96 171.212C220.206 171.068 220.26 170.77 220.139 170.528C219.572 169.391 219.004 168.254 218.437 167.117C218.317 166.876 217.975 166.808 217.753 166.938C217.507 167.082 217.453 167.379 217.574 167.622Z" fill="#C6A8C4"/>
<path d="M227.576 172.955C228.255 174.06 228.807 175.233 229.219 176.463C229.305 176.719 229.564 176.887 229.834 176.812C230.084 176.743 230.269 176.454 230.183 176.197C229.745 174.887 229.162 173.627 228.439 172.45C228.298 172.22 227.992 172.132 227.755 172.271C227.526 172.405 227.434 172.724 227.576 172.955Z" fill="#C6A8C4"/>
<path d="M244.12 160.701C244.544 161.838 244.968 162.975 245.392 164.113C245.486 164.366 245.73 164.538 246.007 164.462C246.25 164.395 246.451 164.101 246.356 163.847C245.932 162.71 245.508 161.573 245.084 160.435C244.99 160.182 244.746 160.01 244.469 160.086C244.226 160.152 244.025 160.446 244.12 160.701Z" fill="#C6A8C4"/>
<path d="M240.497 176.042C241.073 177.709 241.814 179.317 242.714 180.833C243.042 181.386 243.907 180.883 243.577 180.328C242.72 178.884 242.009 177.363 241.461 175.776C241.373 175.521 241.118 175.352 240.846 175.427C240.598 175.495 240.408 175.786 240.497 176.042Z" fill="#C6A8C4"/>
<path d="M255.663 170.205C256.156 171.202 256.649 172.198 257.142 173.195C257.258 173.43 257.61 173.514 257.826 173.374C258.067 173.219 258.13 172.941 258.005 172.69C257.512 171.694 257.019 170.697 256.526 169.7C256.41 169.465 256.058 169.381 255.842 169.521C255.602 169.676 255.539 169.954 255.663 170.205Z" fill="#C6A8C4"/>
<path d="M251.188 183.489C251.465 184.627 251.742 185.765 252.019 186.904C252.083 187.167 252.379 187.323 252.634 187.253C252.901 187.179 253.047 186.901 252.983 186.638C252.706 185.5 252.429 184.362 252.152 183.223C252.088 182.96 251.792 182.804 251.537 182.874C251.27 182.947 251.124 183.226 251.188 183.489Z" fill="#C6A8C4"/>
<path d="M264.194 186.681C264.588 187.81 264.713 188.991 264.57 190.178C264.538 190.447 264.823 190.678 265.07 190.678C265.367 190.678 265.538 190.447 265.57 190.178C265.721 188.915 265.577 187.616 265.158 186.416C265.069 186.161 264.816 185.992 264.543 186.067C264.296 186.134 264.105 186.424 264.194 186.681Z" fill="#C6A8C4"/>
<path d="M255.844 200.406C255.777 201.942 255.588 203.466 255.274 204.972C255.219 205.236 255.351 205.512 255.623 205.587C255.871 205.655 256.183 205.503 256.238 205.238C256.569 203.647 256.773 202.03 256.844 200.406C256.872 199.763 255.872 199.764 255.844 200.406Z" fill="#C6A8C4"/>
<path d="M267.562 201.259C267.579 201.494 267.584 201.73 267.574 201.965C267.569 202.083 267.561 202.2 267.55 202.318C267.545 202.368 267.539 202.418 267.534 202.469C267.526 202.53 267.526 202.536 267.532 202.486C267.528 202.511 267.525 202.536 267.521 202.561C267.449 203.019 267.326 203.466 267.157 203.898C267.061 204.142 267.262 204.457 267.506 204.513C267.793 204.579 268.019 204.425 268.121 204.164C268.48 203.247 268.631 202.242 268.562 201.26C268.544 201 268.345 200.747 268.062 200.76C267.807 200.77 267.542 200.979 267.562 201.259Z" fill="#C6A8C4"/>
<path d="M182.538 220.51C184.551 221.676 186.564 222.841 188.577 224.007C189.135 224.33 189.639 223.466 189.082 223.144C187.069 221.978 185.056 220.812 183.043 219.647C182.485 219.323 181.98 220.187 182.538 220.51Z" fill="#C6A8C4"/>
<path d="M188.315 210.883C189.25 211.358 190.185 211.832 191.12 212.306C191.353 212.424 191.673 212.375 191.804 212.127C191.924 211.899 191.874 211.569 191.625 211.443C190.69 210.969 189.755 210.494 188.82 210.02C188.587 209.902 188.267 209.951 188.136 210.199C188.015 210.427 188.066 210.757 188.315 210.883Z" fill="#C6A8C4"/>
<path d="M197.402 220.059C198.403 220.468 199.405 220.877 200.406 221.286C200.649 221.385 200.966 221.179 201.021 220.937C201.087 220.647 200.932 220.428 200.672 220.322C199.671 219.913 198.669 219.504 197.668 219.095C197.425 218.996 197.108 219.202 197.053 219.444C196.987 219.734 197.142 219.953 197.402 220.059Z" fill="#C6A8C4"/>
<path d="M195.129 199.603C196.484 200.23 197.84 200.856 199.195 201.483C199.44 201.596 199.734 201.552 199.879 201.304C200.005 201.088 199.946 200.734 199.7 200.62C198.345 199.993 196.989 199.367 195.634 198.74C195.389 198.627 195.095 198.671 194.95 198.919C194.823 199.135 194.883 199.489 195.129 199.603Z" fill="#C6A8C4"/>
<path d="M204.231 210.006C205.719 210.444 207.207 210.882 208.695 211.32C209.314 211.502 209.578 210.537 208.961 210.356C207.473 209.918 205.985 209.48 204.497 209.042C203.878 208.86 203.614 209.824 204.231 210.006Z" fill="#C6A8C4"/>
<path d="M207.75 196.531C209.311 196.691 210.881 196.722 212.447 196.625C212.717 196.608 212.947 196.407 212.947 196.125C212.947 195.867 212.718 195.608 212.447 195.625C210.881 195.722 209.311 195.691 207.75 195.531C207.481 195.503 207.25 195.781 207.25 196.031C207.25 196.325 207.48 196.504 207.75 196.531Z" fill="#C6A8C4"/>
<path d="M218.838 206.252C220.045 206.402 221.251 206.552 222.458 206.701C222.726 206.734 222.958 206.447 222.958 206.201C222.958 205.903 222.727 205.734 222.458 205.701C221.252 205.551 220.045 205.401 218.838 205.252C218.57 205.219 218.338 205.506 218.338 205.752C218.338 206.05 218.569 206.219 218.838 206.252Z" fill="#C6A8C4"/>
<path d="M212.414 220.648C213.469 221.442 214.672 222.033 215.941 222.396C216.201 222.47 216.485 222.305 216.556 222.047C216.628 221.783 216.467 221.507 216.207 221.432C215.016 221.091 213.922 220.54 212.918 219.785C212.702 219.622 212.359 219.75 212.234 219.964C212.085 220.22 212.198 220.485 212.414 220.648Z" fill="#C6A8C4"/>
<path d="M204.422 233.085C205.917 233.715 207.413 234.345 208.908 234.975C209.157 235.08 209.458 234.862 209.523 234.626C209.602 234.337 209.424 234.116 209.174 234.011C207.679 233.381 206.183 232.751 204.688 232.121C204.439 232.016 204.138 232.234 204.073 232.47C203.994 232.759 204.172 232.979 204.422 233.085Z" fill="#C6A8C4"/>
<path d="M219.767 233.094C221.259 233.377 222.751 233.659 224.243 233.942C224.508 233.992 224.782 233.868 224.858 233.593C224.925 233.349 224.776 233.028 224.509 232.978C223.017 232.695 221.525 232.413 220.033 232.13C219.768 232.08 219.494 232.204 219.418 232.479C219.351 232.723 219.501 233.043 219.767 233.094Z" fill="#C6A8C4"/>
<path d="M229.282 216.88C231.123 217.01 232.983 216.79 234.744 216.238C235.356 216.046 235.095 215.08 234.478 215.274C232.794 215.802 231.043 216.005 229.282 215.881C229.012 215.862 228.782 216.124 228.782 216.381C228.782 216.666 229.012 216.861 229.282 216.88Z" fill="#C6A8C4"/>
<path d="M229.915 226.956C231.622 227.152 233.328 227.348 235.035 227.545C235.304 227.576 235.535 227.293 235.535 227.045C235.535 226.749 235.305 226.576 235.035 226.545C233.328 226.349 231.622 226.153 229.915 225.956C229.646 225.925 229.415 226.208 229.415 226.456C229.415 226.752 229.645 226.925 229.915 226.956Z" fill="#C6A8C4"/>
<path d="M238.361 237.1C239.923 236.743 241.485 236.385 243.047 236.028C243.674 235.885 243.409 234.92 242.781 235.064C241.219 235.421 239.657 235.779 238.095 236.136C237.468 236.279 237.734 237.243 238.361 237.1Z" fill="#C6A8C4"/>
<path d="M243.261 220.044C245.062 219.736 246.805 219.21 248.487 218.499C248.736 218.394 248.79 218.027 248.666 217.815C248.515 217.557 248.232 217.53 247.982 217.636C246.385 218.311 244.703 218.788 242.995 219.081C242.729 219.127 242.579 219.454 242.646 219.696C242.724 219.976 242.994 220.089 243.261 220.044Z" fill="#C6A8C4"/>
<path d="M234.453 205.776C236.173 204.916 237.626 203.556 238.614 201.909C238.946 201.356 238.082 200.852 237.751 201.404C236.845 202.914 235.522 204.126 233.949 204.913C233.708 205.034 233.64 205.375 233.77 205.597C233.913 205.842 234.211 205.897 234.453 205.776Z" fill="#C6A8C4"/>
<path d="M224.953 196.448C226.051 196.039 226.986 195.279 227.586 194.267C227.719 194.042 227.644 193.708 227.407 193.583C227.166 193.456 226.865 193.522 226.723 193.762C226.661 193.867 226.595 193.969 226.525 194.069C226.504 194.099 226.482 194.128 226.461 194.158C226.406 194.234 226.5 194.11 226.462 194.158C226.424 194.205 226.386 194.253 226.346 194.299C226.184 194.489 226.006 194.665 225.816 194.825C225.793 194.845 225.769 194.864 225.746 194.883C225.726 194.899 225.656 194.96 225.747 194.884C225.701 194.923 225.649 194.957 225.6 194.992C225.501 195.062 225.398 195.128 225.294 195.19C225.184 195.255 225.071 195.315 224.956 195.37C224.929 195.383 224.901 195.396 224.873 195.409C224.859 195.416 224.763 195.46 224.833 195.428C224.902 195.396 224.806 195.439 224.791 195.445C224.757 195.458 224.723 195.471 224.689 195.484C224.445 195.575 224.251 195.826 224.34 196.099C224.415 196.338 224.69 196.546 224.953 196.448Z" fill="#C6A8C4"/>
<path d="M260.993 214.05C261.569 213.274 262.144 212.499 262.72 211.723C262.877 211.512 262.762 211.156 262.541 211.039C262.279 210.901 262.024 210.993 261.857 211.218C261.281 211.994 260.706 212.77 260.13 213.545C259.974 213.756 260.088 214.112 260.309 214.229C260.57 214.368 260.826 214.275 260.993 214.05Z" fill="#C6A8C4"/>
<path d="M253.616 227.693C254.621 227.071 255.626 226.449 256.631 225.827C256.853 225.689 256.959 225.374 256.81 225.143C256.666 224.92 256.364 224.816 256.126 224.964C255.121 225.586 254.116 226.208 253.111 226.83C252.889 226.968 252.783 227.283 252.932 227.514C253.076 227.736 253.378 227.84 253.616 227.693Z" fill="#C6A8C4"/>
<path d="M220.755 187.229C221.677 185.676 222.356 183.981 222.757 182.219C222.9 181.593 221.936 181.325 221.793 181.953C221.41 183.636 220.773 185.239 219.892 186.723C219.562 187.279 220.427 187.783 220.755 187.229Z" fill="#C6A8C4"/>
<path d="M244.486 208.779C245.422 208.19 246.206 207.369 246.738 206.399C246.864 206.17 246.802 205.843 246.559 205.715C246.325 205.591 246.009 205.649 245.875 205.894C245.754 206.115 245.62 206.328 245.472 206.532C245.458 206.551 245.444 206.571 245.429 206.59C245.416 206.608 245.346 206.71 245.42 206.603C245.386 206.652 245.345 206.697 245.307 206.743C245.227 206.84 245.143 206.934 245.057 207.026C244.889 207.205 244.709 207.373 244.52 207.53C244.474 207.568 244.429 207.609 244.38 207.643C244.478 207.574 244.403 207.625 244.381 207.641C244.357 207.659 244.333 207.677 244.309 207.694C244.202 207.771 244.093 207.845 243.981 207.915C243.76 208.054 243.652 208.367 243.802 208.599C243.944 208.821 244.249 208.928 244.486 208.779Z" fill="#C6A8C4"/>
<path d="M235.658 194.038C236.466 192.875 237.134 191.631 237.683 190.326C237.788 190.077 237.57 189.776 237.334 189.711C237.045 189.632 236.824 189.81 236.719 190.06C236.206 191.281 235.55 192.446 234.795 193.533C234.641 193.755 234.754 194.088 234.974 194.217C235.223 194.363 235.504 194.26 235.658 194.038Z" fill="#C6A8C4"/>
<path d="M245.094 198.13C246.096 196.763 246.623 195.068 246.594 193.375C246.583 192.732 245.583 192.73 245.594 193.375C245.62 194.909 245.137 196.39 244.231 197.626C244.071 197.844 244.194 198.184 244.41 198.31C244.664 198.458 244.934 198.349 245.094 198.13Z" fill="#C6A8C4"/>
<path d="M161.343 89.8485H179.353V57.7695H161.343V89.8485Z" fill="#F2DDD6" stroke="#2A1302" stroke-miterlimit="10"/>
<path d="M146.054 48.6848L140.738 46.0168L147.727 40.2238L146.054 48.6848Z" fill="#CE919D"/>
<path d="M181.398 59.6538C181.296 60.1158 181.171 60.5658 181.034 61.0078C181.041 61.5158 180.997 62.0318 180.883 62.5478L181.398 59.6538L160.927 70.4738L160.947 70.3818L154.837 69.0288C147.812 67.4728 143.513 59.6558 145.284 51.6568L148.912 35.2758C150.683 27.2768 157.88 22.0058 164.906 23.5608L175.474 25.9008C182.499 27.4568 186.798 35.2738 185.027 43.2728L181.398 59.6538Z" fill="white"/>
<path d="M163.081 70.8547L154.837 69.0277C147.812 67.4717 143.513 59.6547 145.284 51.6557L148.911 35.2747C150.682 27.2757 157.88 22.0047 164.905 23.5607L175.472 25.9007C182.497 27.4567 186.796 35.2737 185.025 43.2727L181.397 59.6537C181.295 60.1157 181.17 60.5657 181.033 61.0077C181.04 61.5157 180.996 62.0317 180.881 62.5477" fill="#F2DDD6"/>
<path d="M163.081 70.8547L154.837 69.0277C147.812 67.4717 143.513 59.6547 145.284 51.6557L148.911 35.2747C150.682 27.2757 157.88 22.0047 164.905 23.5607L175.472 25.9007C182.497 27.4567 186.796 35.2737 185.025 43.2727L181.397 59.6537C181.295 60.1157 181.17 60.5657 181.033 61.0077C181.04 61.5157 180.996 62.0317 180.881 62.5477" stroke="#2A1302" stroke-miterlimit="10"/>
<path d="M159.408 45.8948C159.334 47.2238 158.197 48.2418 156.868 48.1678C155.539 48.0938 154.522 46.9568 154.595 45.6278C154.669 44.2988 155.806 43.2818 157.135 43.3548C158.465 43.4288 159.482 44.5658 159.408 45.8948Z" fill="#2A1302"/>
<path d="M170.925 56.6327C170.71 60.4997 167.4 63.4607 163.533 63.2457C159.666 63.0307 156.705 59.7207 156.92 55.8537C157.135 51.9867 160.445 49.0257 164.312 49.2407C168.18 49.4567 171.14 52.7657 170.925 56.6327Z" fill="#E0B6C6"/>
<path d="M145.269 60.1508C145.918 60.5768 146.766 60.7668 147.527 60.8168C149.437 60.9428 151.178 59.9948 152.54 58.7278C152.894 58.3978 152.363 57.8688 152.01 58.1978C150.766 59.3548 149.2 60.1998 147.46 60.0618C146.816 60.0108 146.161 59.8408 145.648 59.5028C145.243 59.2378 144.867 59.8878 145.269 60.1508Z" fill="#2A1302"/>
<path d="M173.987 47.5988C173.987 47.5988 135.008 34.3138 133.13 17.5268C131.251 0.739756 155.142 7.03776 163.396 18.9838C163.396 18.9838 152.176 3.69375 162.201 0.359749C171.152 -2.61725 173.502 13.7718 173.987 16.8118C173.987 16.8118 192.065 14.2058 198.798 22.8938C198.798 22.8938 200.388 14.5178 202.851 15.0138C205.314 15.5098 201.622 22.8938 201.622 22.8938C201.622 22.8938 206.835 20.0698 206.4 22.4598C205.966 24.8488 202.273 25.9348 202.273 25.9348C202.273 25.9348 209.223 36.7948 207.486 46.5678C205.748 56.3418 199.854 66.6858 179.354 73.2828V63.3908L175.776 54.7128L173.987 47.5988Z" fill="#2A1302"/>
<path d="M191.538 57.6737C190.98 62.0297 186.968 65.1037 182.576 64.5417C178.185 63.9787 175.077 59.9917 175.635 55.6357C176.193 51.2797 180.205 48.2057 184.597 48.7677C188.989 49.3307 192.096 53.3177 191.538 57.6737Z" fill="#F2DDD6"/>
<path d="M179.566 57.1447C179.569 57.0997 179.575 57.0537 179.579 57.0087C179.59 56.8857 179.563 57.0937 179.587 56.9507C179.599 56.8767 179.611 56.8017 179.625 56.7277C179.699 56.3347 179.811 55.9497 179.958 55.5787C180.101 55.2187 180.42 54.6687 180.712 54.3467C181.096 53.9227 181.556 53.6117 182.107 53.4357C182.984 53.1557 183.921 53.2337 184.805 53.4417C185.322 53.5627 185.543 52.7667 185.025 52.6457C183.4 52.2647 181.625 52.3477 180.349 53.5397C179.563 54.2747 179.085 55.3127 178.861 56.3527C178.805 56.6127 178.758 56.8797 178.741 57.1447C178.706 57.6757 179.532 57.6737 179.566 57.1447Z" fill="#2A1302"/>
<path d="M160.733 92.5648L181.971 92.2358C183.567 92.2108 184.841 90.8968 184.817 89.3008L184.702 81.8238C184.677 80.2278 183.363 78.9528 181.767 78.9778L160.529 79.3068C158.933 79.3318 157.659 80.6458 157.683 82.2418L157.799 89.7188C157.823 91.3158 159.137 92.5898 160.733 92.5648Z" fill="#6B4564" stroke="#C6A8C4" stroke-miterlimit="10"/>
<path d="M160.882 79.3478V92.6058" stroke="#C6A8C4" stroke-miterlimit="10"/>
<path d="M163.844 79.3478V92.6058" stroke="#C6A8C4" stroke-miterlimit="10"/>
<path d="M166.806 79.3478V92.6058" stroke="#C6A8C4" stroke-miterlimit="10"/>
<path d="M169.769 79.2228V92.4808" stroke="#C6A8C4" stroke-miterlimit="10"/>
<path d="M172.731 79.1768V92.4348" stroke="#C6A8C4" stroke-miterlimit="10"/>
<path d="M175.693 79.1259V92.3839" stroke="#C6A8C4" stroke-miterlimit="10"/>
<path d="M178.656 79.0768V92.3348" stroke="#C6A8C4" stroke-miterlimit="10"/>
<path d="M181.618 79.0128V92.2708" stroke="#C6A8C4" stroke-miterlimit="10"/>
</svg>
