<?xml version="1.0" encoding="iso-8859-1"?>
<!-- Uploaded to: SVG Repo, www.svgrepo.com, Generator: SVG Repo Mixer Tools -->
<svg height="800px" width="800px" version="1.1" id="Layer_1" xmlns="http://www.w3.org/2000/svg" xmlns:xlink="http://www.w3.org/1999/xlink" 
	 viewBox="0 0 512.001 512.001" xml:space="preserve">
<path style="fill:#FF8163;" d="M256.001,364.002c-6.004,0-11.754-2.398-16.004-6.657L83.879,200.383
	c-22.075-22.17-34.229-51.647-34.229-83c0-31.354,12.154-60.837,34.229-83.003C105.947,12.213,135.289,0,166.514,0
	c31.213,0,60.554,12.213,82.632,34.381l6.856,6.892l6.856-6.892C284.924,12.213,314.268,0,345.487,0
	c31.214,0,60.558,12.213,82.634,34.381c22.064,22.165,34.23,51.648,34.23,83.003c0,31.353-12.166,60.831-34.23,83l-156.118,156.96
	C267.753,361.604,262.003,364.002,256.001,364.002z"/>
<path style="fill:#E2D19A;" d="M345.487,0c-31.219,0-60.563,12.213-82.631,34.381l-4.627,4.651l165.043,166.224l4.848-4.873
	c22.064-22.17,34.23-51.647,34.23-83c0-31.354-12.166-60.837-34.23-83.003C406.045,12.213,376.701,0,345.487,0z"/>
<g>
	<path style="fill:#F9EEB7;" d="M282.656,18.369c-7.076,4.551-13.715,9.9-19.799,16.012l-4.627,4.651l165.043,166.224l4.848-4.873
		c6.008-6.036,11.274-12.617,15.77-19.627L282.656,18.369z"/>
	<path style="fill:#F9EEB7;" d="M345.487,0c-10.899,0-21.57,1.494-31.783,4.375l144.202,145.233
		c2.926-10.351,4.444-21.17,4.444-32.225c0-2.985-0.112-5.951-0.33-8.898L354.661,0.36C351.624,0.123,348.565,0,345.487,0z"/>
</g>
<g>
	<path style="fill:#E84731;" d="M324.685,180.743c-22.58,0-40.951-18.477-40.951-41.187c0-4.329,3.509-7.837,7.837-7.837
		s7.837,3.508,7.837,7.837c0,14.069,11.339,25.513,25.277,25.513c13.938,0,25.277-11.445,25.277-25.513
		c0-4.329,3.509-7.837,7.837-7.837c4.328,0,7.837,3.508,7.837,7.837C365.636,162.266,347.266,180.743,324.685,180.743z"/>
	<path style="fill:#E84731;" d="M291.506,278.967c-4.328,0-7.837-3.509-7.837-7.837c0-15.397-12.411-27.924-27.668-27.924
		s-27.669,12.526-27.669,27.924c0,4.328-3.509,7.837-7.837,7.837c-4.328,0-7.837-3.509-7.837-7.837
		c0-24.04,19.442-43.597,43.342-43.597s43.341,19.557,43.341,43.597C299.342,275.459,295.835,278.967,291.506,278.967z"/>
	<path style="fill:#E84731;" d="M187.317,180.743c-22.58,0-40.951-18.477-40.951-41.187c0-4.329,3.509-7.837,7.837-7.837
		c4.328,0,7.837,3.508,7.837,7.837c0,14.069,11.339,25.513,25.277,25.513s25.277-11.445,25.277-25.513
		c0-4.329,3.509-7.837,7.837-7.837c4.328,0,7.837,3.508,7.837,7.837C228.267,162.266,209.897,180.743,187.317,180.743z"/>
</g>
<g>
	<path style="fill:#7DD8D8;" d="M187.335,234.037c-6.131-0.019-11.896-2.387-16.231-6.667c-8.514-8.411-8.614-21.234-0.249-31.924
		l14.323-19.431c0.504-0.683,1.31-1.089,2.168-1.089l0,0c0.857,0,1.665,0.405,2.168,1.089l14.328,19.442
		c8.284,10.758,8.183,23.581-0.252,31.912c-4.334,4.281-10.101,6.648-16.238,6.667c-0.002,0-0.006,0-0.008,0
		C187.341,234.037,187.337,234.037,187.335,234.037z"/>
	<path style="fill:#7DD8D8;" d="M316.985,439.671c-6.131-0.019-11.896-2.388-16.232-6.666c-8.513-8.411-8.613-21.235-0.249-31.924
		l14.323-19.431c0.504-0.684,1.31-1.089,2.168-1.089l0,0c0.857,0,1.664,0.404,2.168,1.089l14.327,19.44
		c8.283,10.759,8.183,23.581-0.252,31.913c-4.334,4.279-10.102,6.648-16.238,6.666c-0.002,0-0.006,0-0.008,0
		C316.992,439.671,316.986,439.671,316.985,439.671z"/>
	<path style="fill:#7DD8D8;" d="M195.052,432.428c-6.131-0.019-11.896-2.388-16.231-6.666c-8.514-8.412-8.614-21.235-0.249-31.925
		l14.323-19.432c0.503-0.682,1.309-1.089,2.167-1.089l0,0c0.857,0,1.666,0.406,2.168,1.089l14.327,19.441
		c8.284,10.76,8.183,23.582-0.252,31.914c-4.334,4.279-10.101,6.648-16.238,6.666c-0.001,0-0.006,0-0.008,0
		C195.057,432.428,195.053,432.428,195.052,432.428z"/>
	<path style="fill:#7DD8D8;" d="M256.019,512c-6.131-0.019-11.896-2.388-16.231-6.666c-8.514-8.411-8.614-21.235-0.249-31.925
		l14.323-19.432c0.504-0.682,1.31-1.088,2.168-1.088l0,0c0.857,0,1.665,0.405,2.168,1.088l14.328,19.442
		c8.284,10.759,8.183,23.581-0.252,31.913c-4.334,4.279-10.101,6.648-16.238,6.666c-0.002,0-0.006,0-0.008,0
		C256.025,512,256.021,512,256.019,512z"/>
</g>
<g style="opacity:0.1;">
	<path d="M124.234,200.383c-22.075-22.17-34.229-51.647-34.229-83c0-31.354,12.154-60.837,34.229-83.003
		c17.237-17.316,38.911-28.556,62.454-32.649C180.09,0.586,173.348,0,166.514,0c-31.225,0-60.566,12.213-82.634,34.381
		C61.805,56.547,49.65,86.03,49.65,117.384c0,31.353,12.154,60.831,34.229,83l156.118,156.961c4.25,4.259,10,6.657,16.004,6.657
		c6.002,0,11.752-2.398,16.002-6.657l4.175-4.198L124.234,200.383z"/>
</g>
<path style="opacity:0.1;enable-background:new    ;" d="M318.472,433.005c-8.514-8.411-8.613-21.235-0.249-31.924l7.631-10.352
	l-6.691-9.078c-0.504-0.684-1.311-1.089-2.168-1.089c-0.858,0-1.665,0.404-2.168,1.089l-14.323,19.431
	c-8.364,10.688-8.265,23.512,0.249,31.924c4.336,4.279,10.101,6.648,16.232,6.666c0,0,0.005,0,0.009,0c0.002,0,0.006,0,0.008,0
	c3.091-0.008,6.085-0.616,8.853-1.764C323.13,436.78,320.625,435.129,318.472,433.005z"/>
<path style="opacity:0.1;enable-background:new    ;" d="M196.539,425.761c-8.514-8.412-8.614-21.235-0.249-31.925l7.631-10.353
	l-6.69-9.078c-0.504-0.682-1.311-1.089-2.168-1.089c-0.858,0-1.665,0.406-2.167,1.089l-14.323,19.432
	c-8.364,10.688-8.265,23.512,0.249,31.925c4.336,4.279,10.101,6.648,16.231,6.666c0.001,0,0.005,0,0.009,0c0.002,0,0.006,0,0.008,0
	c3.091-0.009,6.087-0.618,8.853-1.764C201.197,429.536,198.692,427.884,196.539,425.761z"/>
<path style="opacity:0.1;enable-background:new    ;" d="M257.506,505.334c-8.514-8.411-8.614-21.235-0.249-31.925l7.631-10.352
	l-6.69-9.079c-0.504-0.682-1.311-1.088-2.168-1.088c-0.858,0-1.665,0.405-2.168,1.088l-14.323,19.432
	c-8.364,10.688-8.265,23.513,0.249,31.925c4.335,4.279,10.101,6.648,16.231,6.666c0.001,0,0.005,0,0.009,0c0.001,0,0.006,0,0.008,0
	c3.091-0.008,6.087-0.616,8.853-1.764C262.164,509.108,259.658,507.457,257.506,505.334z"/>
</svg>