<svg width="390" height="430" viewBox="0 0 390 430" fill="none" xmlns="http://www.w3.org/2000/svg">
<g clip-path="url(#clip0_39_2)">
<path d="M195.001 305.704C189.332 305.704 183.903 303.69 179.89 300.113L32.4923 168.29C11.6503 149.671 0.175171 124.915 0.175171 98.5832C0.175171 72.2508 11.6503 47.4897 32.4923 28.8738C53.3277 10.257 81.0308 0 110.512 0C139.981 0 167.684 10.257 188.528 28.8746L195.001 34.6628L201.475 28.8746C222.308 10.257 250.013 0 279.488 0C308.959 0 336.664 10.257 357.507 28.8746C378.338 47.4897 389.825 72.2508 389.825 98.584C389.825 124.916 378.338 149.672 357.507 168.291L210.109 300.113C206.096 303.69 200.667 305.704 195.001 305.704Z" fill="#C6676C"/>
<path d="M279.488 0C250.013 0 222.308 10.257 201.473 28.8746L197.104 32.7807L352.929 172.383L357.506 168.29C378.337 149.671 389.824 124.915 389.824 98.5832C389.824 72.2508 378.337 47.4897 357.506 28.8738C336.664 10.257 308.959 0 279.488 0Z" fill="#BEBEBE"/>
<path d="M220.167 15.4271C213.486 19.2492 207.218 23.7415 201.474 28.8746L197.105 32.7807L352.93 172.383L357.507 168.29C363.179 163.221 368.151 157.694 372.396 151.806L220.167 15.4271Z" fill="#DAD8D0"/>
<path d="M279.488 0C269.198 0 259.123 1.25472 249.481 3.67431L385.628 125.647C388.391 116.954 389.824 107.868 389.824 98.5832C389.824 96.0763 389.718 93.5853 389.512 91.1103L288.15 0.302343C285.283 0.103301 282.394 0 279.488 0Z" fill="#DAD8D0"/>
<path d="M259.848 151.796C238.529 151.796 221.184 136.278 221.184 117.205C221.184 113.569 224.497 110.623 228.584 110.623C232.67 110.623 235.983 113.569 235.983 117.205C235.983 129.021 246.689 138.632 259.848 138.632C273.008 138.632 283.713 129.02 283.713 117.205C283.713 113.569 287.026 110.623 291.113 110.623C295.199 110.623 298.512 113.569 298.512 117.205C298.512 136.278 281.168 151.796 259.848 151.796Z" fill="black" fill-opacity="0.6"/>
<path d="M228.522 234.288C224.436 234.288 221.123 231.341 221.123 227.706C221.123 214.775 209.405 204.255 195 204.255C180.596 204.255 168.877 214.775 168.877 227.706C168.877 231.341 165.564 234.288 161.478 234.288C157.391 234.288 154.078 231.341 154.078 227.706C154.078 207.517 172.434 191.092 195 191.092C217.565 191.092 235.92 207.517 235.92 227.706C235.921 231.342 232.61 234.288 228.522 234.288Z" fill="black" fill-opacity="0.6"/>
<path d="M130.153 151.796C108.834 151.796 91.4891 136.278 91.4891 117.205C91.4891 113.569 94.8021 110.623 98.8883 110.623C102.975 110.623 106.288 113.569 106.288 117.205C106.288 129.021 116.993 138.632 130.153 138.632C143.312 138.632 154.018 129.02 154.018 117.205C154.018 113.569 157.331 110.623 161.417 110.623C165.503 110.623 168.816 113.569 168.816 117.205C168.816 136.278 151.472 151.796 130.153 151.796Z" fill="black" fill-opacity="0.6"/>
<path d="M130.17 196.554C124.381 196.538 118.938 194.549 114.845 190.955C106.807 183.891 106.712 173.122 114.61 164.144L128.133 147.825C128.609 147.251 129.37 146.91 130.18 146.91C130.989 146.91 131.752 147.25 132.227 147.825L145.755 164.153C153.576 173.188 153.481 183.957 145.517 190.954C141.425 194.549 135.98 196.537 130.186 196.553C130.184 196.553 130.18 196.553 130.178 196.553C130.175 196.554 130.172 196.554 130.17 196.554Z" fill="#A6B8D9"/>
<path d="M252.578 369.254C246.79 369.238 241.347 367.249 237.253 363.656C229.215 356.592 229.121 345.822 237.018 336.845L250.541 320.526C251.017 319.951 251.778 319.611 252.588 319.611C253.397 319.611 254.159 319.95 254.635 320.526L268.161 336.852C275.982 345.888 275.887 356.657 267.923 363.654C263.832 367.248 258.386 369.237 252.592 369.253C252.591 369.253 252.587 369.253 252.585 369.253C252.585 369.254 252.578 369.254 252.578 369.254Z" fill="#A6B8D9"/>
<path d="M137.456 363.171C131.667 363.155 126.224 361.166 122.131 357.573C114.093 350.508 113.998 339.739 121.896 330.761L135.419 314.441C135.894 313.868 136.655 313.526 137.465 313.526C138.274 313.526 139.038 313.867 139.512 314.441L153.039 330.768C160.86 339.805 160.765 350.574 152.801 357.571C148.709 361.165 143.264 363.154 137.47 363.17C137.47 363.17 137.464 363.17 137.462 363.17C137.46 363.171 137.456 363.171 137.456 363.171Z" fill="#A6B8D9"/>
<path d="M195.017 429.999C189.229 429.983 183.786 427.994 179.693 424.401C171.655 417.337 171.56 406.567 179.458 397.589L192.981 381.269C193.457 380.696 194.218 380.355 195.028 380.355C195.837 380.355 196.6 380.695 197.075 381.269L210.602 397.597C218.424 406.633 218.328 417.402 210.365 424.399C206.273 427.993 200.828 429.982 195.034 429.997C195.032 429.997 195.028 429.997 195.026 429.997C195.023 429.999 195.019 429.999 195.017 429.999Z" fill="#A6B8D9"/>
<g opacity="0.1">
<path d="M70.5933 168.29C49.7513 149.671 38.2762 124.915 38.2762 98.5832C38.2762 72.2508 49.7513 47.4897 70.5933 28.8738C86.8675 14.3311 107.331 4.89124 129.559 1.45377C123.329 0.492147 116.964 0 110.512 0C81.0308 0 53.3287 10.257 32.4933 28.8746C11.6513 47.4905 0.175171 72.2516 0.175171 98.584C0.175171 124.916 11.6503 149.672 32.4923 168.291L179.89 300.113C183.903 303.69 189.332 305.704 195.001 305.704C200.667 305.704 206.096 303.69 210.109 300.113L214.051 296.588L70.5933 168.29Z" fill="black"/>
</g>
<path opacity="0.1" d="M253.982 363.656C245.944 356.592 245.85 345.822 253.747 336.845L260.952 328.151L254.635 320.527C254.159 319.952 253.397 319.612 252.588 319.612C251.778 319.612 251.016 319.951 250.541 320.527L237.018 336.846C229.121 345.822 229.214 356.592 237.253 363.657C241.347 367.25 246.79 369.24 252.578 369.255C252.578 369.255 252.583 369.255 252.587 369.255C252.589 369.255 252.592 369.255 252.594 369.255C255.513 369.248 258.339 368.738 260.953 367.774C258.38 366.826 256.015 365.44 253.982 363.656Z" fill="black"/>
<path opacity="0.1" d="M138.86 357.572C130.821 350.507 130.727 339.738 138.625 330.76L145.829 322.065L139.513 314.441C139.037 313.868 138.275 313.526 137.466 313.526C136.656 313.526 135.894 313.867 135.42 314.441L121.897 330.761C114 339.737 114.094 350.507 122.132 357.573C126.226 361.167 131.669 363.156 137.457 363.171C137.457 363.171 137.461 363.171 137.465 363.171C137.467 363.171 137.471 363.171 137.473 363.171C140.391 363.164 143.22 362.652 145.831 361.69C143.258 360.742 140.892 359.355 138.86 357.572Z" fill="black"/>
<path opacity="0.1" d="M196.421 424.401C188.383 417.337 188.289 406.567 196.186 397.589L203.391 388.895L197.075 381.27C196.599 380.697 195.837 380.356 195.028 380.356C194.218 380.356 193.456 380.696 192.981 381.27L179.458 397.59C171.561 406.566 171.655 417.337 179.693 424.402C183.786 427.995 189.23 429.985 195.017 430C195.017 430 195.022 430 195.026 430C195.026 430 195.032 430 195.034 430C197.952 429.993 200.781 429.483 203.392 428.518C200.819 427.57 198.453 426.184 196.421 424.401Z" fill="black"/>
</g>
<defs>
<clipPath id="clip0_39_2">
<rect width="390" height="430" fill="white"/>
</clipPath>
</defs>
</svg>
