<svg width="36" height="35" viewBox="0 0 36 35" fill="none" xmlns="http://www.w3.org/2000/svg">
<path d="M30.6912 7.11044C29.9582 6.39185 29.0878 5.82182 28.1299 5.4329C27.172 5.04399 26.1452 4.84381 25.1083 4.84381C24.0714 4.84381 23.0447 5.04399 22.0868 5.4329C21.1288 5.82182 20.2585 6.39185 19.5255 7.11044L18.0042 8.60107L16.4829 7.11044C15.0022 5.65962 12.994 4.84456 10.9 4.84456C8.80603 4.84456 6.79781 5.65962 5.31714 7.11044C3.83647 8.56126 3.00464 10.529 3.00464 12.5808C3.00464 14.6325 3.83647 16.6003 5.31714 18.0511L6.83844 19.5417L18.0042 30.4823L29.1699 19.5417L30.6912 18.0511C31.4246 17.3328 32.0063 16.48 32.4033 15.5414C32.8002 14.6028 33.0045 13.5968 33.0045 12.5808C33.0045 11.5648 32.8002 10.5587 32.4033 9.6201C32.0063 8.68148 31.4246 7.82869 30.6912 7.11044Z" stroke="#EAEAEA" stroke-width="1.2" stroke-linecap="round" stroke-linejoin="round"/>
</svg>
