<svg width="336" height="382" viewBox="0 0 336 382" fill="none" xmlns="http://www.w3.org/2000/svg">
<path d="M209.743 173.18C208.273 173.18 206.926 172.705 206.417 171.971L180.99 135.22L31.824 140.815C31.737 140.819 31.6501 140.82 31.5664 140.82C24.595 140.82 18.91 137.931 18.7892 134.355L3.55994 67.6178C3.54384 67.5473 3.53418 67.476 3.53418 67.4055C3.53418 63.7738 9.26749 60.8197 16.3146 60.8197C16.3903 60.8197 16.4643 60.8214 16.5384 60.8239L226.813 67.6999C233.804 67.7331 239.471 70.6723 239.471 74.2799V126.921C239.471 130.526 233.812 133.463 226.829 133.501L213.282 134.007V171.358C213.282 172.244 212.043 173.001 210.35 173.153C210.146 173.171 209.945 173.18 209.743 173.18Z" fill="#AB89BF"/>
<path d="M16.3128 62.64L226.689 69.5194C231.799 69.5194 235.935 71.6508 235.935 74.279V126.92C235.935 129.549 231.799 131.679 226.689 131.679L209.746 132.315V171.358L183.416 133.303L31.5662 138.999C26.4576 138.999 22.3214 136.869 22.3214 134.24L7.06963 67.4054C7.06802 64.7739 11.2058 62.64 16.3128 62.64ZM16.3128 59C7.31758 59 0 62.7702 0 67.4062C0 67.548 0.0161014 67.6898 0.048302 67.8308L15.255 134.483C15.5062 139.003 22.7256 142.642 31.563 142.642C31.7337 142.642 31.9059 142.638 32.075 142.632L178.56 137.136L203.086 172.582C204.102 174.05 206.797 175 209.738 175C210.139 175 210.542 174.983 210.948 174.947C214.335 174.646 216.813 173.131 216.813 171.359V135.701L226.979 135.319C235.84 135.239 243 131.501 243 126.92V74.2798C243 69.6919 235.821 65.9507 226.942 65.8802L16.7572 59.0075C16.6123 59.0025 16.4625 59 16.3128 59Z" fill="#5C1F5B"/>
<path d="M53.7132 69.7143L28.3923 68.8866C23.8729 68.8866 20.2069 70.7734 20.2069 73.0997L27.6324 105.632" stroke="white" stroke-width="4.3902" stroke-miterlimit="10" stroke-linecap="round" stroke-linejoin="round"/>
<path d="M226.689 69.5193L212.06 69.0408V116.205C212.06 118.837 207.919 120.967 202.817 120.967L191.183 121.403L190.151 121.442L185.871 121.602L20.8448 127.794L22.318 134.239C22.318 136.868 26.4542 138.998 31.5628 138.998L183.413 133.302L185.87 136.849L209.743 171.357V132.313L226.685 131.678C231.796 131.678 235.932 129.547 235.932 126.918V74.2797C235.937 71.6515 231.799 69.5193 226.689 69.5193Z" fill="#A67FB9"/>
<path d="M226.688 69.5191L222.455 69.3815V121.958C222.455 124.589 218.319 126.717 213.211 126.717L196.268 127.356V151.876L209.746 171.358V132.314L226.688 131.679C231.798 131.679 235.934 129.549 235.934 126.92V74.2796C235.936 71.6514 231.798 69.5191 226.688 69.5191Z" fill="#9C77B5"/>
<path d="M103.432 109.636C101.47 109.636 99.786 108.934 98.3807 107.528C96.9754 106.123 96.2727 104.439 96.2727 102.477C96.2727 100.515 96.9754 98.8314 98.3807 97.4261C99.786 96.0208 101.47 95.3182 103.432 95.3182C105.394 95.3182 107.078 96.0208 108.483 97.4261C109.888 98.8314 110.591 100.515 110.591 102.477C110.591 103.777 110.259 104.97 109.597 106.057C108.96 107.144 108.098 108.019 107.011 108.682C105.951 109.318 104.758 109.636 103.432 109.636ZM134.276 109.636C132.313 109.636 130.63 108.934 129.224 107.528C127.819 106.123 127.116 104.439 127.116 102.477C127.116 100.515 127.819 98.8314 129.224 97.4261C130.63 96.0208 132.313 95.3182 134.276 95.3182C136.238 95.3182 137.921 96.0208 139.327 97.4261C140.732 98.8314 141.435 100.515 141.435 102.477C141.435 103.777 141.103 104.97 140.44 106.057C139.804 107.144 138.942 108.019 137.855 108.682C136.795 109.318 135.601 109.636 134.276 109.636ZM165.119 109.636C163.157 109.636 161.473 108.934 160.068 107.528C158.663 106.123 157.96 104.439 157.96 102.477C157.96 100.515 158.663 98.8314 160.068 97.4261C161.473 96.0208 163.157 95.3182 165.119 95.3182C167.081 95.3182 168.765 96.0208 170.17 97.4261C171.576 98.8314 172.278 100.515 172.278 102.477C172.278 103.777 171.947 104.97 171.284 106.057C170.648 107.144 169.786 108.019 168.699 108.682C167.638 109.318 166.445 109.636 165.119 109.636Z" fill="#443E3E"/>
<path d="M127.743 377.496C123.346 377.496 119.269 373.218 118.654 367.963L103.149 235.408C102.534 230.153 106.312 225.876 111.569 225.876H309.076C314.331 225.876 318.108 230.153 317.493 235.408L301.988 367.963C301.373 373.219 297.296 377.496 292.902 377.496H127.743Z" fill="#D8D2E9"/>
<path d="M308.665 229.752C311.773 229.752 314.009 232.285 313.658 235.408L298.707 367.963C298.355 371.089 295.941 373.62 293.318 373.62H127.33C124.704 373.62 122.29 371.087 121.938 367.963L106.989 235.408C106.638 232.285 108.872 229.752 111.983 229.752H308.665ZM309.492 222H111.157C103.731 222 98.4186 228.015 99.314 235.408L115.374 367.963C116.269 375.358 122.004 381.372 128.158 381.372H292.492C298.644 381.372 304.377 375.356 305.273 367.963L321.332 235.408C322.228 228.015 316.917 222 309.492 222Z" fill="#5C1F5B"/>
<path d="M308.665 229.752H280.091L272.184 334.241C271.947 337.367 269.536 339.897 266.797 339.897H118.773L121.939 367.963C122.292 371.089 124.705 373.62 127.332 373.62H293.319C295.944 373.62 298.356 371.087 298.709 367.963L313.659 235.408C314.009 232.284 311.773 229.752 308.665 229.752Z" fill="#CCC6E3"/>
<path d="M308.665 229.752H297.982L286.548 350.006C286.251 353.132 283.832 355.658 281.146 355.658H120.551L121.938 367.963C122.29 371.089 124.704 373.62 127.33 373.62H293.318C295.943 373.62 298.355 371.087 298.707 367.963L313.658 235.408C314.009 232.284 311.773 229.752 308.665 229.752Z" fill="#B9B0D7"/>
<path d="M118.838 262.972L125.486 327.548" stroke="white" stroke-width="5.1658" stroke-miterlimit="10" stroke-linecap="round" stroke-linejoin="round"/>
<path d="M154.751 356.255C154.87 357.955 153.789 359.336 152.331 359.336H145.32C143.866 359.336 142.565 357.955 142.421 356.255L135.676 277.246C135.53 275.541 136.724 274.163 138.334 274.163H146.099C147.714 274.163 149.113 275.541 149.232 277.246L154.751 356.255Z" fill="#979BCD" stroke="#5C1F5B" stroke-width="5.1658" stroke-miterlimit="10" stroke-linecap="round" stroke-linejoin="round"/>
<path d="M185.622 356.255C185.675 357.955 184.535 359.336 183.082 359.336H176.07C174.611 359.336 173.37 357.955 173.292 356.255L169.614 277.246C169.534 275.541 170.773 274.163 172.388 274.163H180.153C181.763 274.163 183.115 275.541 183.169 277.246L185.622 356.255Z" fill="#979BCD" stroke="#5C1F5B" stroke-width="5.1658" stroke-miterlimit="10" stroke-linecap="round" stroke-linejoin="round"/>
<path d="M216.489 356.255C216.476 357.955 215.286 359.336 213.828 359.336H206.818C205.363 359.336 204.171 357.955 204.157 356.255L203.545 277.246C203.532 275.541 204.83 274.163 206.441 274.163H214.205C215.818 274.163 217.115 275.541 217.101 277.246L216.489 356.255Z" fill="#979BCD" stroke="#5C1F5B" stroke-width="5.1658" stroke-miterlimit="10" stroke-linecap="round" stroke-linejoin="round"/>
<path d="M247.359 356.255C247.279 357.955 246.037 359.336 244.579 359.336H237.568C236.113 359.336 234.976 357.955 235.029 356.255L237.483 277.246C237.536 275.541 238.885 274.163 240.497 274.163H248.262C249.875 274.163 251.117 275.541 251.039 277.246L247.359 356.255Z" fill="#979BCD" stroke="#5C1F5B" stroke-width="5.1658" stroke-miterlimit="10" stroke-linecap="round" stroke-linejoin="round"/>
<path d="M278.226 356.255C278.081 357.955 276.785 359.336 275.328 359.336H268.317C266.862 359.336 265.778 357.955 265.897 356.255L271.418 277.246C271.537 275.541 272.94 274.163 274.552 274.163H282.317C283.93 274.163 285.118 275.541 284.972 277.246L278.226 356.255Z" fill="#979BCD" stroke="#5C1F5B" stroke-width="5.1658" stroke-miterlimit="10" stroke-linecap="round" stroke-linejoin="round"/>
<path d="M140.577 234.032C139.709 235.38 137.909 235.767 136.564 234.904L130.063 230.747C128.713 229.88 128.324 228.09 129.191 226.75L169.505 164.325C170.375 162.985 172.169 162.596 173.52 163.459L180.02 167.618C181.366 168.48 181.76 170.268 180.892 171.615L140.577 234.032Z" fill="#979BCD" stroke="#5C1F5B" stroke-width="5.1658" stroke-miterlimit="10" stroke-linecap="round" stroke-linejoin="round"/>
<path d="M280.07 234.032C280.938 235.38 282.738 235.767 284.083 234.904L290.582 230.747C291.933 229.88 292.323 228.09 291.455 226.75L251.142 164.325C250.273 162.985 248.476 162.596 247.125 163.459L240.626 167.618C239.279 168.48 238.885 170.268 239.754 171.615L280.07 234.032Z" fill="#979BCD" stroke="#5C1F5B" stroke-width="5.1658" stroke-miterlimit="10" stroke-linecap="round" stroke-linejoin="round"/>
<path d="M98.1277 256.304C93.0368 256.304 88.894 252.179 88.894 247.11V230.938C88.894 225.866 93.0368 221.739 98.1277 221.739H322.519C327.61 221.739 331.753 225.866 331.753 230.938V247.11C331.753 252.179 327.61 256.304 322.519 256.304H98.1277Z" fill="#979BCD"/>
<path d="M322.519 225.615C325.471 225.615 327.859 228 327.859 230.938V247.11C327.859 250.048 325.471 252.428 322.519 252.428H98.1277C95.1804 252.428 92.788 250.048 92.788 247.11V230.938C92.788 228 95.1804 225.615 98.1277 225.615H322.519ZM322.519 217.863H98.1277C90.8885 217.863 85 223.727 85 230.938V247.11C85 254.318 90.8885 260.181 98.1277 260.181H322.519C329.757 260.181 335.645 254.318 335.645 247.11V230.938C335.645 223.727 329.758 217.863 322.519 217.863Z" fill="#5C1F5B"/>
<path d="M322.519 225.615H311.831V233.705C311.831 236.642 309.443 239.023 306.491 239.023H92.788V247.112C92.788 250.05 95.1804 252.43 98.1277 252.43H322.519C325.471 252.43 327.859 250.05 327.859 247.112V230.939C327.859 228 325.471 225.615 322.519 225.615Z" fill="#838DC6"/>
</svg>
