<svg width="439" height="407" viewBox="0 0 439 407" fill="none" xmlns="http://www.w3.org/2000/svg">
<path d="M274.108 184.817C272.187 184.817 270.426 184.311 269.761 183.527L236.531 144.307L41.5899 150.278C41.4763 150.282 41.3627 150.283 41.2533 150.283C32.1425 150.283 24.7129 147.2 24.5551 143.383L4.65244 72.1617C4.6314 72.0864 4.61877 72.0103 4.61877 71.9351C4.61877 68.0594 12.1115 64.9067 21.3211 64.9067C21.42 64.9067 21.5168 64.9085 21.6136 64.9112L296.415 72.2493C305.551 72.2847 312.958 75.4214 312.958 79.2715V135.45C312.958 139.297 305.562 142.431 296.436 142.472L278.733 143.013V182.874C278.733 183.819 277.112 184.627 274.901 184.789C274.634 184.808 274.371 184.817 274.108 184.817Z" fill="#AB89BF"/>
<path d="M21.3187 66.8493L296.253 74.191C302.932 74.191 308.337 76.4656 308.337 79.2704V135.449C308.337 138.254 302.932 140.528 296.253 140.528L274.112 141.206V182.873L239.701 142.261L41.253 148.34C34.5767 148.34 29.1712 146.066 29.1712 143.26L9.2391 71.9349C9.237 69.1266 14.6445 66.8493 21.3187 66.8493ZM21.3187 62.9647C9.56314 62.9647 0 66.9883 0 71.9358C0 72.0872 0.0210425 72.2385 0.0631245 72.389L19.9364 143.52C20.2646 148.344 29.6994 152.227 41.2488 152.227C41.4718 152.227 41.697 152.223 41.9179 152.216L233.355 146.352L265.407 184.179C266.735 185.746 270.257 186.76 274.101 186.76C274.625 186.76 275.151 186.742 275.681 186.703C280.108 186.382 283.347 184.766 283.347 182.874V144.82L296.632 144.413C308.213 144.327 317.57 140.338 317.57 135.449V79.2713C317.57 74.3751 308.188 70.3825 296.584 70.3073L21.8995 62.9727C21.7101 62.9674 21.5144 62.9647 21.3187 62.9647Z" fill="#5C1F5B"/>
<path d="M70.1963 74.3989L37.1051 73.5156C31.1989 73.5156 26.4078 75.5292 26.4078 78.0118L36.1119 112.731" stroke="white" stroke-width="4.3902" stroke-miterlimit="10" stroke-linecap="round" stroke-linejoin="round"/>
<path d="M296.253 74.1909L277.135 73.6802V124.014C277.135 126.823 271.723 129.096 265.055 129.096L249.851 129.561L248.502 129.603L242.91 129.773L27.2416 136.381L29.1668 143.259C29.1668 146.065 34.5723 148.339 41.2486 148.339L239.697 142.26L242.908 146.045L274.107 182.871V141.204L296.249 140.526C302.927 140.526 308.333 138.252 308.333 135.447V79.2712C308.339 76.4664 302.931 74.1909 296.253 74.1909Z" fill="#A67FB9"/>
<path d="M296.252 74.1907L290.721 74.0438V130.154C290.721 132.961 285.315 135.232 278.639 135.232L256.497 135.914V162.082L274.111 182.873V141.206L296.252 140.528C302.931 140.528 308.336 138.254 308.336 135.448V79.2711C308.338 76.4663 302.931 74.1907 296.252 74.1907Z" fill="#9C77B5"/>
<path d="M130.437 109.636C128.474 109.636 126.791 108.934 125.385 107.528C123.98 106.123 123.277 104.439 123.277 102.477C123.277 100.515 123.98 98.8314 125.385 97.4261C126.791 96.0208 128.474 95.3182 130.437 95.3182C132.399 95.3182 134.082 96.0208 135.488 97.4261C136.893 98.8314 137.596 100.515 137.596 102.477C137.596 103.777 137.264 104.97 136.601 106.057C135.965 107.144 135.103 108.019 134.016 108.682C132.956 109.318 131.762 109.636 130.437 109.636ZM161.28 109.636C159.318 109.636 157.634 108.934 156.229 107.528C154.824 106.123 154.121 104.439 154.121 102.477C154.121 100.515 154.824 98.8314 156.229 97.4261C157.634 96.0208 159.318 95.3182 161.28 95.3182C163.242 95.3182 164.926 96.0208 166.331 97.4261C167.737 98.8314 168.439 100.515 168.439 102.477C168.439 103.777 168.108 104.97 167.445 106.057C166.809 107.144 165.947 108.019 164.86 108.682C163.799 109.318 162.606 109.636 161.28 109.636ZM192.124 109.636C190.162 109.636 188.478 108.934 187.073 107.528C185.668 106.123 184.965 104.439 184.965 102.477C184.965 100.515 185.668 98.8314 187.073 97.4261C188.478 96.0208 190.162 95.3182 192.124 95.3182C194.086 95.3182 195.77 96.0208 197.175 97.4261C198.581 98.8314 199.283 100.515 199.283 102.477C199.283 103.777 198.952 104.97 198.289 106.057C197.652 107.144 196.791 108.019 195.704 108.682C194.643 109.318 193.45 109.636 192.124 109.636Z" fill="#443E3E"/>
<path d="M166.944 402.863C161.197 402.863 155.87 398.298 155.066 392.689L134.803 251.227C133.999 245.619 138.936 241.055 145.806 241.055H403.923C410.791 241.055 415.726 245.619 414.922 251.227L394.659 392.689C393.855 398.299 388.528 402.863 382.785 402.863H166.944Z" fill="#D8D2E9"/>
<path d="M403.385 245.191C407.448 245.191 410.369 247.895 409.91 251.227L390.372 392.689C389.911 396.025 386.757 398.727 383.329 398.727H166.404C162.972 398.727 159.818 396.024 159.357 392.689L139.821 251.227C139.362 247.895 142.281 245.191 146.348 245.191H403.385ZM404.467 236.918H145.268C135.563 236.918 128.62 243.337 129.791 251.227L150.779 392.689C151.949 400.581 159.444 407 167.486 407H382.249C390.289 407 397.782 400.58 398.952 392.689L419.94 251.227C421.111 243.337 414.17 236.918 404.467 236.918Z" fill="#5C1F5B"/>
<path d="M403.385 245.191H366.043L355.709 356.701C355.4 360.037 352.249 362.737 348.67 362.737H155.221L159.359 392.689C159.82 396.025 162.974 398.727 166.406 398.727H383.331C386.761 398.727 389.913 396.023 390.374 392.689L409.912 251.227C410.369 247.893 407.447 245.191 403.385 245.191Z" fill="#CCC6E3"/>
<path d="M403.385 245.191H389.425L374.481 373.526C374.093 376.862 370.933 379.557 367.422 379.557H157.544L159.357 392.689C159.818 396.025 162.972 398.727 166.404 398.727H383.329C386.759 398.727 389.911 396.023 390.372 392.689L409.91 251.227C410.369 247.893 407.448 245.191 403.385 245.191Z" fill="#B9B0D7"/>
<path d="M155.306 280.643L163.995 349.559" stroke="white" stroke-width="5.1658" stroke-miterlimit="10" stroke-linecap="round" stroke-linejoin="round"/>
<path d="M202.239 380.195C202.395 382.009 200.982 383.483 199.077 383.483H189.914C188.015 383.483 186.315 382.009 186.126 380.195L177.311 295.876C177.12 294.057 178.68 292.587 180.784 292.587H190.933C193.043 292.587 194.871 294.057 195.027 295.876L202.239 380.195Z" fill="#979BCD" stroke="#5C1F5B" stroke-width="5.1658" stroke-miterlimit="10" stroke-linecap="round" stroke-linejoin="round"/>
<path d="M242.584 380.195C242.653 382.009 241.164 383.483 239.265 383.483H230.101C228.194 383.483 226.573 382.009 226.47 380.195L221.663 295.876C221.559 294.057 223.178 292.587 225.288 292.587H235.437C237.541 292.587 239.308 294.057 239.379 295.876L242.584 380.195Z" fill="#979BCD" stroke="#5C1F5B" stroke-width="5.1658" stroke-miterlimit="10" stroke-linecap="round" stroke-linejoin="round"/>
<path d="M282.924 380.195C282.906 382.009 281.351 383.483 279.446 383.483H270.285C268.384 383.483 266.825 382.009 266.808 380.195L266.008 295.876C265.99 294.057 267.686 292.587 269.792 292.587H279.939C282.047 292.587 283.741 294.057 283.723 295.876L282.924 380.195Z" fill="#979BCD" stroke="#5C1F5B" stroke-width="5.1658" stroke-miterlimit="10" stroke-linecap="round" stroke-linejoin="round"/>
<path d="M323.266 380.195C323.162 382.009 321.539 383.483 319.634 383.483H310.47C308.569 383.483 307.084 382.009 307.153 380.195L310.36 295.876C310.429 294.057 312.192 292.587 314.298 292.587H324.447C326.555 292.587 328.178 294.057 328.076 295.876L323.266 380.195Z" fill="#979BCD" stroke="#5C1F5B" stroke-width="5.1658" stroke-miterlimit="10" stroke-linecap="round" stroke-linejoin="round"/>
<path d="M363.606 380.195C363.416 382.009 361.722 383.483 359.819 383.483H350.656C348.755 383.483 347.338 382.009 347.494 380.195L354.708 295.876C354.864 294.057 356.698 292.587 358.804 292.587H368.953C371.061 292.587 372.613 294.057 372.422 295.876L363.606 380.195Z" fill="#979BCD" stroke="#5C1F5B" stroke-width="5.1658" stroke-miterlimit="10" stroke-linecap="round" stroke-linejoin="round"/>
<path d="M183.716 249.759C182.581 251.197 180.229 251.61 178.472 250.689L169.976 246.253C168.211 245.328 167.703 243.417 168.836 241.987L221.522 175.368C222.658 173.937 225.003 173.523 226.768 174.444L235.263 178.881C237.023 179.802 237.537 181.709 236.402 183.147L183.716 249.759Z" fill="#979BCD" stroke="#5C1F5B" stroke-width="5.1658" stroke-miterlimit="10" stroke-linecap="round" stroke-linejoin="round"/>
<path d="M366.015 249.759C367.15 251.197 369.502 251.61 371.26 250.689L379.753 246.253C381.518 245.328 382.029 243.417 380.894 241.987L328.21 175.368C327.075 173.937 324.726 173.523 322.961 174.444L314.468 178.881C312.706 179.802 312.192 181.709 313.327 183.147L366.015 249.759Z" fill="#979BCD" stroke="#5C1F5B" stroke-width="5.1658" stroke-miterlimit="10" stroke-linecap="round" stroke-linejoin="round"/>
<path d="M128.24 273.528C121.587 273.528 116.173 269.125 116.173 263.715V246.456C116.173 241.044 121.587 236.64 128.24 236.64H421.491C428.144 236.64 433.558 241.044 433.558 246.456V263.715C433.558 269.125 428.144 273.528 421.491 273.528H128.24Z" fill="#979BCD"/>
<path d="M421.491 240.776C425.349 240.776 428.469 243.321 428.469 246.456V263.715C428.469 266.851 425.349 269.391 421.491 269.391H128.24C124.389 269.391 121.262 266.851 121.262 263.715V246.456C121.262 243.321 124.389 240.776 128.24 240.776H421.491ZM421.491 232.503H128.24C118.78 232.503 111.084 238.761 111.084 246.456V263.715C111.084 271.407 118.78 277.664 128.24 277.664H421.491C430.95 277.664 438.645 271.407 438.645 263.715V246.456C438.645 238.761 430.952 232.503 421.491 232.503Z" fill="#5C1F5B"/>
<path d="M421.491 240.776H407.523V249.41C407.523 252.544 404.402 255.085 400.544 255.085H121.262V263.717C121.262 266.853 124.389 269.393 128.24 269.393H421.491C425.349 269.393 428.469 266.853 428.469 263.717V246.458C428.469 243.321 425.349 240.776 421.491 240.776Z" fill="#838DC6"/>
</svg>
