<svg width="436" height="292" viewBox="0 0 436 292" fill="none" xmlns="http://www.w3.org/2000/svg">
<path d="M57.0661 88.4353C56.2914 88.4353 55.5212 88.2753 54.8185 87.963L7.64378 66.8388C5.90515 66.0582 4.85116 64.4572 4.95251 62.7476C5.05385 61.038 6.29477 59.5399 8.11446 58.9252L169.054 4.62473C169.624 4.43104 170.225 4.33618 170.829 4.33618C171.374 4.33618 171.923 4.41523 172.448 4.57729L212.74 16.8411C214.729 17.4478 216.064 19.0922 216.064 20.9402V32.1189C216.064 33.9135 214.803 35.5243 212.896 36.1686L58.843 88.1448C58.2665 88.3404 57.6652 88.4353 57.0661 88.4353Z" fill="#D8D2E9"/>
<path d="M170.827 8.67653L211.117 20.9423V32.121L57.0662 84.0971L9.88917 62.9751L170.827 8.67653ZM170.827 0C169.622 0 168.419 0.193675 167.277 0.577103L6.33985 54.8776C2.69595 56.105 0.216392 59.1012 0.0137027 62.5205C-0.191238 65.9397 1.91673 69.1494 5.39397 70.7048L52.571 91.829C53.9763 92.4575 55.5212 92.7737 57.0639 92.7737C58.2643 92.7737 59.4669 92.584 60.611 92.1966L214.661 40.2204C218.481 38.9318 220.999 35.7121 220.999 32.121V20.9423C220.999 17.2444 218.332 13.9556 214.353 12.744L174.063 0.480265C173.018 0.158107 171.921 0 170.827 0Z" fill="#5C1F5B"/>
<path d="M84.9066 74.7032L53.9718 61.7161L195.05 16.0486L170.827 8.67651L9.88916 62.977L57.0662 84.0971L84.9066 74.7032Z" fill="#C7BDDE"/>
<path d="M378.941 88.4355C378.342 88.4355 377.74 88.3387 377.168 88.147L223.116 36.1708C221.204 35.5264 219.945 33.9157 219.945 32.1211V20.9424C219.945 19.0944 221.278 17.448 223.271 16.8433L263.559 4.57949C264.081 4.41742 264.631 4.33838 265.178 4.33838C265.782 4.33838 266.381 4.43522 266.951 4.62693L427.89 58.9274C429.714 59.5421 430.951 61.0382 431.052 62.7498C431.156 64.4594 430.1 66.0623 428.363 66.841L381.193 87.9612C380.484 88.2755 379.713 88.4355 378.941 88.4355Z" fill="#D8D2E9"/>
<path d="M265.174 8.67653L426.111 62.977L378.941 84.0991L224.888 32.123V20.9442L265.174 8.67653ZM265.174 0C264.079 0 262.982 0.158123 261.933 0.478305L221.645 12.7421C217.668 13.9536 214.999 17.2424 214.999 20.9403V32.119C214.999 35.7082 217.519 38.9278 221.341 40.2184L375.394 92.1946C376.54 92.582 377.743 92.7717 378.941 92.7717C380.488 92.7717 382.028 92.4555 383.436 91.827L430.606 70.7029C434.081 69.1475 436.189 65.9397 435.986 62.5185C435.781 59.0992 433.304 56.103 429.66 54.8757L268.721 0.575142C267.579 0.193691 266.378 0 265.174 0Z" fill="#5C1F5B"/>
<path d="M351.096 74.7032L382.033 61.7161L240.95 16.0486L265.174 8.67651L426.111 62.977L378.941 84.0971L351.096 74.7032Z" fill="#C7BDDE"/>
<path d="M378.937 231.331C378.337 231.331 377.736 231.234 377.164 231.043L216.231 176.74C214.321 176.098 213.06 174.485 213.06 172.691V31.4528C213.06 30.0238 213.864 28.6878 215.207 27.8774C216.042 27.3734 217.02 27.1125 218.004 27.1125C218.605 27.1125 219.204 27.2094 219.778 27.4011L380.709 81.7016C382.621 82.344 383.88 83.9567 383.88 85.7513V226.991C383.88 228.42 383.078 229.756 381.734 230.566C380.9 231.07 379.921 231.331 378.937 231.331Z" fill="#C7BDDE"/>
<path d="M218.004 31.4529L378.936 85.7534V226.993L218.004 172.691V31.4529ZM218.006 22.7783C216.033 22.7783 214.078 23.2962 212.407 24.3022C209.723 25.9209 208.119 28.597 208.119 31.4529V172.691C208.119 176.282 210.639 179.501 214.456 180.79L375.389 235.093C376.538 235.478 377.74 235.67 378.936 235.67C380.907 235.67 382.864 235.152 384.535 234.146C387.217 232.527 388.823 229.851 388.823 226.995V85.7554C388.823 82.1642 386.303 78.9445 382.483 77.6559L221.553 23.3555C220.404 22.9681 219.202 22.7783 218.006 22.7783Z" fill="#5C1F5B"/>
<path d="M341.788 73.217L218.003 119.558V172.691L378.936 226.993V85.7535L341.788 73.217Z" fill="#B9B0D7"/>
<path d="M218.004 287.662C217.017 287.662 216.042 287.401 215.207 286.899C213.864 286.089 213.06 284.753 213.06 283.322V142.082C213.06 140.287 214.324 138.676 216.231 138.032L377.164 83.7336C377.736 83.5399 378.337 83.4451 378.937 83.4451C379.923 83.4451 380.9 83.7059 381.734 84.2099C383.078 85.0183 383.88 86.3563 383.88 87.7853V229.025C383.88 230.82 382.619 232.432 380.709 233.075L219.778 287.373C219.204 287.567 218.6 287.662 218.004 287.662Z" fill="#D8D2E9"/>
<path d="M378.936 87.7852V229.025L218.004 283.324V142.084L378.936 87.7852ZM378.936 79.1107C377.74 79.1107 376.538 79.3024 375.389 79.6878L214.456 133.986C210.639 135.275 208.119 138.495 208.119 142.086V283.325C208.119 286.183 209.723 288.86 212.407 290.476C214.078 291.484 216.033 292 218.006 292C219.202 292 220.404 291.81 221.553 291.423L382.483 237.124C386.303 235.838 388.823 232.618 388.823 229.025V87.7852C388.823 84.9293 387.217 82.2532 384.535 80.6345C382.864 79.6266 380.907 79.1107 378.936 79.1107Z" fill="#5C1F5B"/>
<path d="M351.096 97.1871V208.668L218.003 253.562V283.323L378.936 229.025V87.7852L351.096 97.1871Z" fill="#C7BDDE"/>
<path d="M57.0662 231.331C56.0797 231.331 55.1023 231.07 54.269 230.566C52.9245 229.758 52.1228 228.42 52.1228 226.991V85.7513C52.1228 83.9567 53.384 82.344 55.2938 81.7016L216.231 27.4011C216.805 27.2074 217.404 27.1125 218.004 27.1125C218.99 27.1125 219.97 27.3734 220.803 27.8774C222.147 28.6858 222.947 30.0238 222.947 31.4528V172.691C222.947 174.485 221.688 176.098 219.778 176.74L58.8386 231.043C58.2665 231.234 57.663 231.331 57.0662 231.331Z" fill="#D8D2E9"/>
<path d="M218.004 31.4529V172.691L57.0662 226.993V85.7534L218.004 31.4529ZM218.004 22.7783C216.808 22.7783 215.607 22.97 214.456 23.3555L53.5191 77.6559C49.6995 78.9426 47.1794 82.1622 47.1794 85.7554V226.995C47.1794 229.851 48.7852 232.527 51.4674 234.146C53.1385 235.154 55.0956 235.67 57.0662 235.67C58.262 235.67 59.4646 235.478 60.6132 235.093L221.553 180.79C225.37 179.503 227.89 176.284 227.89 172.691V31.4529C227.89 28.597 226.284 25.9209 223.602 24.3022C221.931 23.2942 219.974 22.7783 218.004 22.7783Z" fill="#5C1F5B"/>
<path d="M195.178 39.155V157.931L57.066 204.525V226.993L218.003 172.691V31.4529L195.178 39.155Z" fill="#C7BDDE"/>
<path d="M218.004 287.662C217.404 287.662 216.805 287.567 216.231 287.371L55.2938 233.073C53.3817 232.43 52.1228 230.818 52.1228 229.023V87.7853C52.1228 86.3563 52.9245 85.0203 54.269 84.2099C55.1023 83.7059 56.082 83.4451 57.0662 83.4451C57.6652 83.4451 58.2665 83.5419 58.8386 83.7336L219.778 138.032C221.69 138.676 222.947 140.287 222.947 142.082V283.322C222.947 284.753 222.147 286.087 220.803 286.899C219.97 287.401 218.988 287.662 218.004 287.662Z" fill="#C7BDDE"/>
<path d="M57.0662 87.7852L218.004 142.084V283.324L57.0662 229.025V87.7852ZM57.0662 79.1107C55.0956 79.1107 53.1385 79.6285 51.4674 80.6345C48.7852 82.2532 47.1794 84.9293 47.1794 87.7852V229.025C47.1794 232.616 49.6995 235.836 53.5191 237.124L214.456 291.423C215.607 291.81 216.808 292 218.004 292C219.976 292 221.931 291.482 223.602 290.476C226.284 288.86 227.89 286.183 227.89 283.325V142.086C227.89 138.497 225.37 135.277 221.553 133.986L60.6132 79.6878C59.4646 79.3004 58.262 79.1107 57.0662 79.1107Z" fill="#5C1F5B"/>
<path d="M192.483 133.476V250.062L57.066 204.379V229.025L218.003 283.323V142.084L192.483 133.476Z" fill="#B9B0D7"/>
<path d="M250.853 188.668C249.256 188.668 247.711 187.986 246.77 186.775L220.805 153.387C220.242 152.668 219.943 151.814 219.943 150.942V139.76C219.943 137.965 221.204 136.352 223.114 135.71L377.166 83.7356C377.747 83.5399 378.346 83.447 378.939 83.447C380.535 83.447 382.08 84.1308 383.022 85.3424L415.869 127.585C416.722 128.682 416.954 130.057 416.506 131.322C416.056 132.589 414.97 133.603 413.558 134.081L252.621 188.382C252.046 188.575 251.445 188.668 250.853 188.668Z" fill="#D8D2E9"/>
<path d="M378.941 87.7851L411.79 130.029L250.852 184.33L224.888 150.942V139.759L378.941 87.7851ZM378.938 79.1086C377.754 79.1086 376.551 79.2984 375.396 79.6877L221.341 131.662C217.521 132.949 214.999 136.168 214.999 139.761V150.944C214.999 152.689 215.6 154.395 216.722 155.836L242.686 189.224C244.571 191.649 247.661 193.01 250.855 193.01C252.039 193.01 253.242 192.821 254.4 192.431L415.337 138.131C418.159 137.18 420.328 135.148 421.228 132.617C422.127 130.085 421.659 127.332 419.956 125.142L387.107 82.8974C385.224 80.4704 382.134 79.1086 378.938 79.1086Z" fill="#5C1F5B"/>
<path d="M351.096 97.1871L365.545 115.872L232.448 160.783L250.853 184.33L411.79 130.029L378.941 87.7852L351.096 97.1871Z" fill="#C7BDDE"/>
<path d="M185.15 188.668C184.555 188.668 183.956 188.575 183.378 188.38L22.4379 134.079C21.0281 133.603 19.9426 132.587 19.4922 131.32C19.0417 130.053 19.276 128.68 20.1273 127.583L52.9831 85.3403C53.9245 84.1288 55.4695 83.4449 57.0662 83.4449C57.6608 83.4449 58.2598 83.5398 58.8386 83.7335L214.285 136.178C216.197 136.822 217.456 138.433 217.456 140.228V149.134C217.456 150.005 217.157 150.857 216.596 151.576L189.231 186.773C188.289 187.988 186.747 188.668 185.15 188.668Z" fill="#D8D2E9"/>
<path d="M57.0662 87.7851L212.513 140.23V149.136L185.15 184.33L24.2126 130.029L57.0662 87.7851ZM57.0684 79.1086C53.8727 79.1086 50.7851 80.4724 48.9001 82.8955L16.0442 125.138C14.3416 127.33 13.8732 130.083 14.774 132.615C15.6726 135.146 17.8436 137.178 20.6632 138.129L181.603 192.429C182.763 192.819 183.963 193.008 185.148 193.008C188.343 193.008 191.431 191.647 193.318 189.222L220.681 154.027C221.801 152.584 222.402 150.881 222.402 149.136V140.23C222.402 136.641 219.882 133.421 216.062 132.13L60.6155 79.6857C59.4534 79.2964 58.2531 79.1086 57.0684 79.1086Z" fill="#5C1F5B"/>
<path d="M84.9066 97.1871L70.4549 115.872L203.554 160.783L185.15 184.33L24.2125 130.029L57.0662 87.7852L84.9066 97.1871Z" fill="#C7BDDE"/>
</svg>
