<svg width="19" height="19" viewBox="0 0 19 19" fill="none" xmlns="http://www.w3.org/2000/svg">
<g clip-path="url(#clip0_86_8)">
<path d="M18.5865 8.60891L10.4986 0.521028C9.94711 -0.0304469 9.05305 -0.0304469 8.50158 0.521028L0.413702 8.60891C0.00984655 9.01276 -0.110909 9.62013 0.107591 10.1478C0.326197 10.6755 0.841097 11.0195 1.4122 11.0195H2.50798V17.0664C2.50798 18.0751 3.32566 18.8927 4.33425 18.8927H14.6659C15.6745 18.8927 16.4922 18.0751 16.4922 17.0664V11.0195H17.588C18.1591 11.0195 18.674 10.6754 18.8926 10.1478C19.1111 9.62013 18.9903 9.01276 18.5865 8.60891ZM11.6339 16.2443H7.36622V13.8385C7.36622 12.66 8.32161 11.7046 9.50008 11.7046C10.6786 11.7046 11.6339 12.6599 11.6339 13.8385V16.2443Z" fill="#9B9B9B"/>
</g>
<defs>
<clipPath id="clip0_86_8">
<rect width="19" height="19" fill="white"/>
</clipPath>
</defs>
</svg>
