<svg width="275" height="327" viewBox="0 0 275 327" fill="none" xmlns="http://www.w3.org/2000/svg">
<path d="M237.976 142.393C237.976 142.393 244.754 133.272 244.861 129.592C244.969 125.913 241.823 123.69 237.334 129.385C232.845 135.08 230.54 136.706 226.252 139.15C221.626 141.786 202.904 143.514 202.904 143.514L205.768 166.377L238.235 168.097L237.976 142.393Z" fill="#F1DCD5" stroke="#2A1302" stroke-miterlimit="10"/>
<path d="M264.111 146.829C264.111 146.829 271.81 140.455 271.34 137.107C270.872 133.759 264.975 136.325 259.931 140.107L264.111 146.829Z" fill="#F1DCD5" stroke="#2A1302" stroke-miterlimit="10"/>
<path d="M261.598 137.067L256.027 137.444L256.323 141.781L261.894 141.404C265.534 141.158 268.692 143.861 268.935 147.431L269.554 156.513C269.797 160.082 267.035 163.187 263.395 163.433L257.824 163.81L258.119 168.147L263.69 167.77C269.767 167.359 274.381 162.175 273.975 156.214L273.356 147.132C272.951 141.17 267.675 136.656 261.598 137.067Z" fill="#F3B87B" stroke="#2A1302" stroke-miterlimit="10"/>
<path d="M264.159 129.084L265.893 164.161C266.102 168.389 263.303 171.962 259.642 172.142L241.703 173.023C238.042 173.203 234.904 169.921 234.696 165.693L232.962 130.616L264.159 129.084Z" fill="#F3B87B"/>
<path d="M251.695 144.244C251.754 145.433 252.767 146.349 253.96 146.29C255.153 146.231 256.072 145.22 256.013 144.032C255.954 142.843 254.94 141.927 253.747 141.986C252.554 142.045 251.635 143.056 251.695 144.244Z" fill="white"/>
<path d="M241.849 144.728C241.909 145.917 242.923 146.832 244.115 146.774C245.308 146.715 246.227 145.704 246.168 144.516C246.109 143.328 245.094 142.411 243.902 142.47C242.71 142.528 241.791 143.539 241.849 144.728Z" fill="white"/>
<path d="M257.319 136.998C257.378 138.187 258.393 139.102 259.585 139.044C260.778 138.985 261.697 137.975 261.638 136.786C261.578 135.598 260.564 134.682 259.372 134.74C258.179 134.798 257.26 135.809 257.319 136.998Z" fill="white"/>
<path d="M246.429 137.532C246.488 138.721 247.501 139.636 248.694 139.578C249.886 139.519 250.806 138.509 250.747 137.32C250.688 136.131 249.675 135.216 248.482 135.274C247.289 135.333 246.37 136.344 246.429 137.532Z" fill="white"/>
<path d="M235.537 138.067C235.596 139.255 236.611 140.171 237.803 140.113C238.996 140.054 239.915 139.044 239.856 137.855C239.796 136.666 238.782 135.751 237.59 135.809C236.398 135.867 235.479 136.879 235.537 138.067Z" fill="white"/>
<path d="M258.006 150.905C258.066 152.094 259.08 153.009 260.272 152.951C261.465 152.892 262.384 151.882 262.325 150.693C262.266 149.504 261.251 148.589 260.059 148.647C258.866 148.705 257.947 149.716 258.006 150.905Z" fill="white"/>
<path d="M247.115 151.44C247.174 152.629 248.189 153.544 249.381 153.486C250.574 153.427 251.493 152.417 251.433 151.228C251.374 150.039 250.36 149.124 249.168 149.182C247.976 149.24 247.057 150.251 247.115 151.44Z" fill="white"/>
<path d="M236.225 151.974C236.284 153.162 237.298 154.078 238.49 154.02C239.682 153.961 240.602 152.95 240.543 151.762C240.484 150.573 239.47 149.657 238.277 149.716C237.085 149.775 236.166 150.786 236.225 151.974Z" fill="white"/>
<path d="M252.382 158.151C252.441 159.34 253.455 160.256 254.647 160.197C255.839 160.138 256.758 159.128 256.7 157.939C256.642 156.75 255.628 155.834 254.435 155.893C253.242 155.952 252.323 156.963 252.382 158.151Z" fill="white"/>
<path d="M242.537 158.635C242.596 159.824 243.609 160.739 244.802 160.681C245.995 160.622 246.914 159.612 246.855 158.423C246.797 157.234 245.783 156.319 244.59 156.377C243.398 156.435 242.479 157.446 242.537 158.635Z" fill="white"/>
<path d="M258.694 164.812C258.753 166.001 259.767 166.917 260.959 166.858C262.152 166.799 263.072 165.789 263.012 164.6C262.953 163.411 261.939 162.495 260.747 162.554C259.554 162.613 258.635 163.623 258.694 164.812Z" fill="white"/>
<path d="M247.802 165.347C247.862 166.535 248.875 167.452 250.068 167.393C251.261 167.334 252.18 166.324 252.121 165.135C252.062 163.946 251.048 163.03 249.855 163.089C248.663 163.147 247.744 164.158 247.802 165.347Z" fill="white"/>
<path d="M236.912 165.881C236.97 167.07 237.985 167.986 239.178 167.927C240.37 167.868 241.289 166.858 241.23 165.669C241.171 164.48 240.158 163.564 238.965 163.623C237.773 163.682 236.854 164.693 236.912 165.881Z" fill="white"/>
<path d="M255.326 130.125C255.384 131.314 254.465 132.324 253.273 132.383C252.08 132.442 251.065 131.525 251.007 130.337C250.998 130.16 251.017 129.989 251.049 129.823L255.232 129.618C255.28 129.78 255.316 129.948 255.326 130.125Z" fill="white"/>
<path d="M245.481 130.608C245.54 131.797 244.621 132.807 243.428 132.866C242.236 132.925 241.221 132.009 241.162 130.82C241.153 130.643 241.172 130.473 241.204 130.306L245.387 130.101C245.436 130.264 245.472 130.432 245.481 130.608Z" fill="white"/>
<path d="M235.636 131.092C235.695 132.281 234.776 133.291 233.583 133.35C233.415 133.358 233.253 133.343 233.094 133.315L232.966 130.712L235.542 130.586C235.591 130.747 235.628 130.915 235.636 131.092Z" fill="white"/>
<path d="M264.279 131.49C263.95 131.728 263.553 131.879 263.118 131.9C261.925 131.959 260.911 131.043 260.852 129.854C260.843 129.677 260.862 129.507 260.894 129.34L264.164 129.18L264.279 131.49Z" fill="white"/>
<path d="M233.571 142.94C233.725 142.896 233.886 142.865 234.053 142.857C235.246 142.798 236.26 143.715 236.319 144.903C236.377 146.091 235.458 147.102 234.266 147.161C234.098 147.169 233.936 147.154 233.777 147.126L233.571 142.94Z" fill="white"/>
<path d="M263.592 141.503C264.028 141.482 264.438 141.593 264.788 141.797L264.966 145.397C264.638 145.635 264.24 145.786 263.805 145.807C262.612 145.866 261.599 144.95 261.539 143.761C261.48 142.573 262.399 141.562 263.592 141.503Z" fill="white"/>
<path d="M234.263 156.943C234.418 156.899 234.578 156.868 234.746 156.86C235.939 156.801 236.952 157.717 237.011 158.906C237.07 160.095 236.151 161.105 234.958 161.164C234.791 161.172 234.628 161.157 234.47 161.129L234.263 156.943Z" fill="white"/>
<path d="M264.279 155.41C264.714 155.389 265.124 155.5 265.475 155.704L265.652 159.304C265.324 159.542 264.927 159.693 264.491 159.714C263.299 159.773 262.285 158.857 262.226 157.668C262.167 156.479 263.087 155.469 264.279 155.41Z" fill="white"/>
<path d="M245.277 170.284C246.47 170.225 247.484 171.141 247.543 172.33C247.552 172.503 247.534 172.671 247.502 172.834L243.313 173.04C243.267 172.88 243.232 172.716 243.224 172.543C243.166 171.353 244.085 170.342 245.277 170.284Z" fill="white"/>
<path d="M255.122 169.801C256.315 169.742 257.328 170.659 257.388 171.847C257.397 172.02 257.379 172.187 257.347 172.351L253.158 172.557C253.111 172.398 253.077 172.233 253.069 172.06C253.01 170.87 253.929 169.859 255.122 169.801Z" fill="white"/>
<path d="M264.159 129.084L265.893 164.161C266.102 168.389 263.303 171.962 259.642 172.142L241.703 173.023C238.042 173.203 234.904 169.921 234.696 165.693L232.962 130.616L264.159 129.084Z" stroke="#2A1302" stroke-miterlimit="10"/>
<path d="M266.989 163.533C266.989 163.533 268.839 163.618 269.333 162.225C269.828 160.832 269.654 158.897 268.214 158.378C266.773 157.859 264.153 157.773 262.781 158.34C261.789 158.75 260.993 160.671 262.111 162.026C263.129 163.26 265.7 163.336 266.989 163.533Z" fill="#F1DCD5" stroke="#2A1302" stroke-miterlimit="10"/>
<path d="M267.131 158.816C267.131 158.816 269.187 158.447 269.456 156.781C269.725 155.114 269.15 153.015 267.458 152.801C265.767 152.587 262.862 153.147 261.463 154.118C260.452 154.821 259.955 157.147 261.456 158.368C262.824 159.478 265.672 158.919 267.131 158.816Z" fill="#F1DCD5" stroke="#2A1302" stroke-miterlimit="10"/>
<path d="M267.1 153.987C267.1 153.987 269.156 153.618 269.425 151.952C269.694 150.286 269.118 148.186 267.427 147.972C265.735 147.758 262.831 148.318 261.432 149.289C260.42 149.992 259.924 152.318 261.425 153.539C262.792 154.649 265.641 154.091 267.1 153.987Z" fill="#F1DCD5" stroke="#2A1302" stroke-miterlimit="10"/>
<path d="M266.99 149.107C266.99 149.107 269.045 148.738 269.314 147.072C269.583 145.406 269.008 143.306 267.317 143.092C265.625 142.878 262.72 143.438 261.322 144.409C260.31 145.111 259.814 147.438 261.315 148.659C262.681 149.769 265.531 149.211 266.99 149.107Z" fill="#F1DCD5" stroke="#2A1302" stroke-miterlimit="10"/>
<path d="M226 170.63C226 170.63 219.909 171.986 211.068 173.085C209.426 166.093 205.759 148.633 207.303 138.047C215.47 138.734 220.13 138.535 220.13 138.535L226 170.63Z" fill="#6B4564" stroke="#C6A8C4" stroke-miterlimit="10"/>
<path d="M225.529 168.052L210.437 170.307" stroke="#C6A8C4" stroke-miterlimit="10"/>
<path d="M224.797 164.279L209.63 166.453" stroke="#C6A8C4" stroke-miterlimit="10"/>
<path d="M224.119 160.349L208.913 162.661" stroke="#C6A8C4" stroke-miterlimit="10"/>
<path d="M223.462 156.753L208.249 158.662" stroke="#C6A8C4" stroke-miterlimit="10"/>
<path d="M222.71 152.899L207.9 154.719" stroke="#C6A8C4" stroke-miterlimit="10"/>
<path d="M222.11 149.362L207.243 150.451" stroke="#C6A8C4" stroke-miterlimit="10"/>
<path d="M221.4 145.482L206.961 145.796" stroke="#C6A8C4" stroke-miterlimit="10"/>
<path d="M220.672 141.506L207.31 141.479" stroke="#C6A8C4" stroke-miterlimit="10"/>
<path d="M238.286 120.545C238.158 116.215 241.577 112.601 245.922 112.473C250.266 112.346 253.893 115.752 254.021 120.082C254.149 124.412 250.731 128.025 246.386 128.153C242.041 128.281 238.415 124.874 238.286 120.545Z" fill="#FFFEFD"/>
<path d="M228.46 113.327C221.784 106.673 221.784 95.8845 228.46 89.2304C235.137 82.5763 245.961 82.5763 252.638 89.2304C259.314 95.8845 259.314 106.673 252.638 113.327C245.961 119.981 235.137 119.981 228.46 113.327Z" fill="#FFFEFD"/>
<path d="M216.334 77.4017C216.138 81.1857 219.057 84.4117 222.853 84.6067C226.65 84.8027 229.886 81.8927 230.082 78.1097C230.278 74.3257 227.359 71.0997 223.563 70.9037C219.767 70.7087 216.531 73.6177 216.334 77.4017Z" stroke="#FFFEFD" stroke-miterlimit="10"/>
<path d="M25.9337 209.316C30.7618 176.228 52.1525 132.859 64.0715 116.176C77.0058 98.0716 87.8201 90.6146 101.811 90.6146C138.927 90.6146 155.886 139.978 164.757 217.411L47.7498 250.596L35.9733 253.936C35.9733 253.936 21.0272 242.944 25.9337 209.316Z" fill="#836787"/>
<path d="M98.9805 114.507C88.3368 114.507 78.3283 112.486 69.6071 108.936C80.2247 96.0636 89.86 90.6146 101.811 90.6146C114.391 90.6146 124.654 96.2926 133.072 106.806C123.325 111.668 111.6 114.507 98.9805 114.507Z" fill="#7D7368"/>
<path d="M101.811 90.6146C111.152 90.6146 119.215 93.7446 126.195 99.6576C118.387 103.491 109.037 105.729 98.9805 105.729C90.8211 105.729 83.1304 104.251 76.3466 101.649C84.4709 93.9776 92.4265 90.6146 101.811 90.6146Z" fill="#C6A8C4"/>
<path d="M64.2954 115.867C66.8248 112.344 69.274 109.232 71.6821 106.502C79.8003 109.772 89.0985 111.63 98.9806 111.63C110.843 111.63 121.865 108.953 131.015 104.369C133.509 107.153 135.848 110.342 138.045 113.911C126.79 119.328 113.385 122.486 98.9806 122.486C86.4035 122.485 74.5848 120.081 64.2954 115.867Z" fill="#6B4564"/>
<path d="M100.211 117.919C100.852 117.91 101.489 117.894 102.124 117.87C102.395 117.859 102.607 117.632 102.598 117.361C102.587 117.091 102.356 116.905 102.087 116.889C100.8 116.938 99.4972 116.954 98.2079 116.943C97.9139 116.972 97.7143 117.158 97.7113 117.429C97.7093 117.7 97.927 117.921 98.1989 117.924C98.8681 117.931 99.5394 117.928 100.211 117.919ZM106.007 117.64C106.019 117.64 106.03 117.64 106.041 117.639C107.351 117.532 108.662 117.393 109.943 117.229C110.213 117.194 110.404 116.948 110.369 116.679C110.334 116.41 110.084 116.226 109.818 116.255C108.552 116.418 107.254 116.554 105.96 116.661C105.689 116.683 105.488 116.92 105.51 117.191C105.531 117.449 105.75 117.644 106.007 117.64ZM94.3119 117.806C94.5677 117.802 94.7804 117.601 94.7955 117.342C94.8095 117.072 94.6018 116.841 94.3299 116.826C93.0486 116.758 91.7473 116.658 90.462 116.53C90.2091 116.504 89.9502 116.699 89.9231 116.97C89.896 117.24 90.0937 117.479 90.3646 117.507C91.664 117.635 92.9804 117.737 94.2767 117.806C94.2888 117.806 94.3008 117.806 94.3119 117.806ZM113.745 116.646C113.772 116.646 113.798 116.643 113.824 116.638C115.119 116.41 116.414 116.15 117.673 115.865C117.939 115.805 118.104 115.543 118.044 115.278C117.984 115.013 117.713 114.855 117.455 114.908C116.211 115.19 114.933 115.446 113.653 115.673C113.385 115.72 113.206 115.975 113.254 116.241C113.296 116.481 113.508 116.649 113.745 116.646ZM86.5498 117.03C86.7866 117.026 86.9923 116.852 87.0285 116.611C87.0686 116.343 86.882 116.094 86.6131 116.055C85.3428 115.868 84.0575 115.647 82.7902 115.398C82.5264 115.35 82.2645 115.518 82.2123 115.785C82.1591 116.05 82.3337 116.308 82.6006 116.361C83.8819 116.612 85.1833 116.836 86.4696 117.025C86.4967 117.029 86.5227 117.031 86.5498 117.03ZM121.355 114.926C121.396 114.925 121.438 114.92 121.479 114.908C122.744 114.557 124.008 114.171 125.235 113.762C125.493 113.676 125.633 113.398 125.547 113.141C125.461 112.884 125.184 112.746 124.923 112.831C123.711 113.235 122.463 113.616 121.215 113.963C120.953 114.036 120.8 114.306 120.873 114.567C120.935 114.787 121.137 114.929 121.355 114.926ZM78.8942 115.526C79.1119 115.523 79.3096 115.375 79.3648 115.154C79.43 114.891 79.2694 114.624 79.0056 114.559C77.7483 114.247 76.4901 113.901 75.268 113.532C75.0031 113.454 74.7332 113.601 74.654 113.859C74.5747 114.119 74.7222 114.393 74.9821 114.471C76.2212 114.845 77.4945 115.194 78.7678 115.51C78.8099 115.522 78.853 115.526 78.8942 115.526ZM128.754 112.461C128.811 112.46 128.871 112.45 128.927 112.427C130.153 111.947 131.369 111.433 132.544 110.898C132.791 110.786 132.899 110.495 132.787 110.248C132.671 110.001 132.38 109.896 132.135 110.006C130.977 110.534 129.777 111.041 128.567 111.514C128.314 111.613 128.188 111.898 128.289 112.15C128.366 112.345 128.555 112.464 128.754 112.461ZM71.4282 113.271C71.6268 113.268 71.8124 113.144 71.8837 112.947C71.976 112.692 71.8435 112.411 71.5877 112.319C70.3726 111.882 69.1586 111.409 67.9776 110.912C67.7268 110.808 67.4388 110.923 67.3324 111.173C67.2261 111.423 67.3445 111.71 67.5953 111.816C68.7913 112.32 70.0224 112.8 71.2536 113.243C71.3118 113.262 71.37 113.272 71.4282 113.271ZM64.2441 110.241C64.4227 110.238 64.5942 110.138 64.6785 109.966C64.7989 109.723 64.6976 109.429 64.4538 109.31C63.2949 108.744 62.141 108.139 61.0273 107.511C60.7895 107.379 60.4905 107.46 60.356 107.697C60.2216 107.933 60.3049 108.232 60.5417 108.366C61.6735 109.003 62.8434 109.618 64.0203 110.192C64.0926 110.226 64.1698 110.243 64.2441 110.241Z" fill="#F4EDF4"/>
<path d="M71.3511 106.877C71.5808 106.614 71.8086 106.356 72.0374 106.1C80.0623 109.312 89.239 111.139 98.9807 111.139C110.698 111.139 121.596 108.498 130.658 103.98C130.885 104.228 131.11 104.478 131.334 104.732C122.091 109.394 110.955 112.119 98.9807 112.119C88.9812 112.12 79.5666 110.219 71.3511 106.877Z" fill="#DDD0D0"/>
<path d="M64.0154 116.257C64.0335 116.231 64.0536 116.202 64.0716 116.177C64.2492 115.929 64.4248 115.69 64.6014 115.445C74.8096 119.615 86.5259 121.994 98.9806 121.994C113.276 121.994 126.592 118.854 137.777 113.473C137.948 113.748 138.117 114.029 138.286 114.308C126.953 119.782 113.462 122.975 98.9806 122.975C86.3081 122.975 74.3912 120.533 64.0154 116.257Z" fill="#DDD0D0"/>
<path d="M99.3638 108.754H99.3668C99.6969 108.752 100.028 108.748 100.358 108.742C100.629 108.737 100.846 108.513 100.841 108.242C100.836 107.975 100.616 107.761 100.348 107.761C100.345 107.761 100.342 107.761 100.338 107.761C100.013 107.767 99.6868 107.771 99.3608 107.773C99.0888 107.774 98.8691 107.995 98.8711 108.266C98.8741 108.537 99.0938 108.754 99.3638 108.754ZM95.4627 108.67C95.7246 108.67 95.9413 108.465 95.9543 108.203C95.9674 107.932 95.7587 107.702 95.4868 107.689C95.1597 107.673 94.8346 107.656 94.5105 107.635C94.2215 107.616 94.0048 107.824 93.9887 108.093C93.9717 108.364 94.1774 108.596 94.4493 108.614C94.7784 108.635 95.1085 108.653 95.4396 108.669C95.4476 108.67 95.4557 108.67 95.4627 108.67ZM104.244 108.563C104.256 108.563 104.269 108.562 104.28 108.561C104.61 108.537 104.94 108.51 105.269 108.482C105.539 108.458 105.739 108.22 105.716 107.95C105.692 107.679 105.439 107.476 105.182 107.504C104.858 107.533 104.534 107.559 104.209 107.583C103.938 107.603 103.734 107.838 103.753 108.108C103.774 108.366 103.99 108.563 104.244 108.563ZM90.5954 108.263C90.8402 108.263 91.0529 108.08 91.083 107.83C91.1161 107.561 90.9235 107.317 90.6536 107.285C90.3295 107.247 90.0054 107.206 89.6833 107.163C89.4204 107.126 89.1676 107.315 89.1295 107.585C89.0944 107.853 89.283 108.1 89.5529 108.136C89.881 108.18 90.2081 108.22 90.5362 108.26C90.5553 108.262 90.5743 108.263 90.5954 108.263ZM109.102 108.036C109.127 108.036 109.15 108.035 109.174 108.031C109.503 107.984 109.828 107.934 110.154 107.883C110.423 107.841 110.605 107.589 110.563 107.322C110.521 107.054 110.264 106.87 110 106.915C109.678 106.966 109.356 107.015 109.033 107.062C108.764 107.1 108.578 107.349 108.616 107.617C108.651 107.86 108.862 108.036 109.102 108.036ZM85.7662 107.519C85.9969 107.519 86.2037 107.356 86.2488 107.121C86.3 106.855 86.1244 106.598 85.8585 106.547C85.5374 106.486 85.2174 106.422 84.9003 106.356C84.6384 106.303 84.3745 106.471 84.3183 106.737C84.2621 107.002 84.4337 107.262 84.6996 107.317C85.0227 107.384 85.3468 107.448 85.6719 107.51C85.704 107.516 85.7351 107.519 85.7662 107.519ZM113.909 107.167C113.945 107.167 113.979 107.163 114.014 107.156C114.338 107.086 114.661 107.013 114.982 106.938C115.246 106.876 115.411 106.612 115.348 106.348C115.287 106.085 115.023 105.923 114.757 105.983C114.44 106.057 114.123 106.129 113.805 106.199C113.539 106.256 113.371 106.518 113.429 106.783C113.479 107.01 113.683 107.167 113.909 107.167ZM81.0042 106.425C81.221 106.425 81.4206 106.281 81.4788 106.062C81.5501 105.8 81.3945 105.531 81.1317 105.461C80.8166 105.377 80.5016 105.29 80.1905 105.2C79.9266 105.127 79.6557 105.278 79.5825 105.537C79.5072 105.798 79.6587 106.069 79.9196 106.144C80.2366 106.234 80.5547 106.322 80.8758 106.408C80.9199 106.42 80.9621 106.425 81.0042 106.425ZM118.64 105.948C118.687 105.948 118.735 105.941 118.782 105.927C119.099 105.833 119.415 105.735 119.73 105.637C119.99 105.555 120.132 105.28 120.051 105.021C119.969 104.763 119.693 104.62 119.434 104.701C119.124 104.799 118.813 104.894 118.5 104.987C118.239 105.065 118.092 105.338 118.17 105.597C118.232 105.811 118.428 105.948 118.64 105.948ZM76.3386 104.979C76.5413 104.979 76.7309 104.854 76.8021 104.653C76.8934 104.398 76.76 104.117 76.5041 104.027C76.1961 103.918 75.8901 103.807 75.5851 103.694C75.3312 103.599 75.0473 103.729 74.9519 103.983C74.8576 104.237 74.9881 104.519 75.2419 104.614C75.551 104.728 75.861 104.841 76.172 104.951C76.2282 104.97 76.2844 104.979 76.3386 104.979ZM123.263 104.374C123.322 104.374 123.382 104.363 123.44 104.341C123.749 104.222 124.056 104.101 124.364 103.977C124.615 103.875 124.738 103.59 124.635 103.338C124.532 103.086 124.246 102.966 123.994 103.066C123.692 103.188 123.389 103.308 123.085 103.425C122.831 103.523 122.706 103.807 122.804 104.06C122.88 104.255 123.066 104.374 123.263 104.374ZM71.8034 103.172C71.991 103.172 72.1706 103.064 72.2519 102.882C72.3633 102.635 72.2519 102.345 72.0041 102.234C71.7061 102.101 71.4111 101.966 71.1171 101.829C70.8733 101.714 70.5793 101.819 70.4629 102.065C70.3475 102.31 70.4539 102.602 70.7007 102.717C70.9987 102.857 71.2997 102.994 71.6037 103.129C71.6679 103.158 71.7362 103.172 71.8034 103.172ZM127.37 102.617C127.442 102.617 127.516 102.601 127.585 102.568C127.883 102.424 128.179 102.278 128.474 102.129C128.717 102.007 128.813 101.712 128.691 101.47C128.569 101.228 128.272 101.13 128.03 101.254C127.741 101.4 127.448 101.544 127.154 101.686C126.91 101.804 126.808 102.097 126.926 102.341C127.011 102.515 127.187 102.617 127.37 102.617Z" fill="#C6A8C4"/>
<path d="M55.0774 130.723C55.4025 130.139 55.7236 129.573 56.0447 129.008C68.8637 134.058 83.4776 136.925 98.9806 136.925C115.77 136.925 131.519 133.564 145.071 127.707C145.324 128.301 145.576 128.9 145.824 129.507C132.034 135.469 116.033 138.887 98.9806 138.887C83.1265 138.887 68.1824 135.93 55.0774 130.723Z" fill="#DDD0D0"/>
<path d="M58.0282 125.58C59.2202 123.568 60.3711 121.709 61.4708 120.015C72.6081 124.548 85.3879 127.128 98.9805 127.128C114.254 127.128 128.492 123.863 140.536 118.237C141.542 120.1 142.517 122.05 143.461 124.085C130.464 129.894 115.248 133.237 98.9805 133.237C84.1638 133.237 70.2181 130.463 58.0282 125.58Z" fill="#B2A8A6"/>
<path d="M60.3421 121.783C60.8519 122.338 61.2111 123.013 61.3626 123.819C61.6094 125.129 62.3308 126.023 63.3422 126.274C64.2874 126.509 65.3118 126.149 65.9469 125.354C66.6995 124.411 67.9366 123.941 69.245 124.104C70.8624 124.301 72.2591 125.355 72.9795 126.925C73.6417 128.368 75.0093 129.4 76.3067 129.433C76.8545 129.456 77.5478 129.291 77.9742 128.476C78.5492 127.383 79.7341 126.719 81.1449 126.7C81.1679 126.7 81.19 126.7 81.2121 126.7C83.0061 126.7 84.6737 127.691 85.5757 129.297C86.4577 130.868 88.1644 131.569 89.4758 131.569C89.4838 131.569 89.4908 131.569 89.4999 131.569C90.6016 131.561 91.4855 131.093 91.927 130.282C92.6454 128.961 93.9628 128.068 95.4518 127.894C96.8535 127.727 98.183 128.207 99.085 129.209C100.374 130.641 102.446 131.713 103.534 131.476C103.871 131.406 104.081 131.212 104.196 130.868C104.75 129.203 105.803 128.002 107.012 127.657C107.713 127.457 108.83 127.446 110.153 128.54C111.957 130.032 113.763 130.765 114.85 130.465C115.347 130.326 115.689 129.971 115.893 129.377C116.51 127.598 117.688 126.345 119.045 126.025C119.865 125.828 121.146 125.894 122.582 127.288C123.642 128.318 124.914 128.737 126.153 128.469C127.313 128.22 128.298 127.384 128.728 126.288C129.341 124.727 130.447 123.596 131.764 123.183C132.853 122.839 133.981 123.023 135.021 123.715C135.994 124.359 137.287 124.496 138.481 124.08C139.799 123.622 140.774 122.6 141.226 121.203C141.332 120.877 141.477 120.599 141.645 120.349C141.828 120.709 142.011 121.071 142.193 121.437C142.183 121.461 142.17 121.48 142.162 121.505C141.622 123.177 140.397 124.454 138.805 125.008C137.319 125.523 135.701 125.347 134.475 124.533C133.691 124.013 132.855 123.873 132.058 124.12C131.043 124.439 130.141 125.384 129.644 126.647C129.097 128.045 127.838 129.111 126.36 129.429C124.783 129.773 123.198 129.258 121.894 127.992C120.997 127.121 120.111 126.785 119.271 126.98C118.259 127.218 117.322 128.26 116.823 129.698C116.513 130.594 115.921 131.186 115.115 131.411C113.695 131.807 111.604 131.016 109.524 129.296C108.728 128.638 107.976 128.403 107.282 128.601C106.227 128.903 105.479 130.129 105.13 131.177C104.904 131.859 104.421 132.295 103.735 132.438C102.14 132.773 99.6981 131.361 98.3525 129.865C97.6672 129.103 96.6509 128.744 95.5662 128.868C94.3953 129.006 93.3578 129.709 92.7919 130.751C92.1748 131.885 90.9768 132.542 89.5049 132.551C89.4949 132.551 89.4828 132.551 89.4708 132.551C87.5273 132.551 85.663 131.464 84.7149 129.777C83.8469 128.23 82.3429 127.682 81.2061 127.682C81.19 127.682 81.173 127.682 81.1579 127.682C80.1144 127.696 79.2495 128.164 78.8462 128.933C78.3345 129.906 77.3592 130.451 76.2796 130.415C74.621 130.371 72.8962 129.104 72.0825 127.334C71.5056 126.078 70.3988 125.235 69.1246 125.079C68.1453 124.96 67.2613 125.283 66.7145 125.967C65.8406 127.061 64.4208 127.555 63.1034 127.228C61.7027 126.881 60.7154 125.706 60.3943 124.001C60.288 123.438 60.0702 123 59.8043 122.65C59.9839 122.359 60.1645 122.064 60.3421 121.783Z" fill="#472D43"/>
<path d="M101.811 90.6146C108.643 90.6146 114.79 92.2926 120.33 95.5046C114.088 98.2856 106.788 99.8866 98.9816 99.8866C92.8551 99.8866 87.0446 98.8946 81.8071 97.1266C88.1122 92.6396 94.5317 90.6146 101.811 90.6146Z" fill="#6B4564"/>
<path d="M25.9337 209.316C30.7618 176.228 52.1525 132.859 64.0715 116.176C77.0058 98.0716 87.8201 90.6146 101.811 90.6146C138.927 90.6146 155.886 139.978 164.757 217.411L47.7498 250.596L35.9733 253.936C35.9733 253.936 21.0272 242.944 25.9337 209.316Z" stroke="#2A1302" stroke-miterlimit="10"/>
<path d="M103.595 142.875C103.76 144.791 103.926 146.707 104.092 148.622C104.147 149.263 103.143 149.259 103.088 148.622C102.923 146.706 102.757 144.79 102.592 142.875C102.536 142.234 103.54 142.237 103.595 142.875Z" fill="#C6A8C4"/>
<path d="M92.9072 142.66C92.8922 144.155 92.9785 145.648 93.1651 147.13C93.1992 147.398 92.9102 147.63 92.6634 147.63C92.3644 147.63 92.1958 147.399 92.1617 147.13C91.9741 145.647 91.8878 144.154 91.9038 142.66C91.9099 142.017 92.9132 142.016 92.9072 142.66Z" fill="#C6A8C4"/>
<path d="M88.4482 155.658C88.5194 157.931 88.5907 160.204 88.6619 162.477C88.682 163.121 87.6786 163.12 87.6586 162.477C87.5873 160.204 87.5161 157.931 87.4448 155.658C87.4248 155.014 88.4281 155.015 88.4482 155.658Z" fill="#C6A8C4"/>
<path d="M80.7295 146.283C80.7295 148.201 80.7295 150.119 80.7295 152.036C80.7295 152.679 79.7261 152.681 79.7261 152.036C79.7261 150.118 79.7261 148.2 79.7261 146.283C79.7261 145.64 80.7295 145.639 80.7295 146.283Z" fill="#C6A8C4"/>
<path d="M76.9256 163.327C76.9949 164.464 77.0641 165.6 77.1333 166.737C77.1494 167.007 76.8915 167.237 76.6316 167.237C76.3467 167.237 76.147 167.008 76.13 166.737C76.0607 165.6 75.9915 164.464 75.9223 163.327C75.9062 163.057 76.1651 162.827 76.4239 162.827C76.7099 162.827 76.9096 163.056 76.9256 163.327Z" fill="#C6A8C4"/>
<path d="M70.2431 150.332C70.3906 152.576 70.6815 154.805 71.118 157.012C71.2424 157.641 70.2752 157.91 70.1508 157.278C69.6983 154.985 69.3933 152.664 69.2407 150.332C69.1976 149.69 70.201 149.692 70.2431 150.332Z" fill="#C6A8C4"/>
<path d="M69.8087 169.085C70.0294 171.002 70.2512 172.919 70.4719 174.836C70.503 175.105 70.219 175.336 69.9702 175.336C69.6732 175.336 69.4996 175.106 69.4685 174.836C69.2478 172.919 69.026 171.002 68.8053 169.085C68.7742 168.816 69.0581 168.585 69.307 168.585C69.604 168.585 69.7776 168.815 69.8087 169.085Z" fill="#C6A8C4"/>
<path d="M61.0754 165.961C61.4858 168.237 61.8971 170.513 62.3085 172.789C62.4219 173.418 61.4557 173.688 61.3413 173.055C60.9299 170.779 60.5195 168.503 60.1081 166.227C59.9938 165.597 60.961 165.328 61.0754 165.961Z" fill="#C6A8C4"/>
<path d="M65.1572 181.865C65.391 184.476 65.7752 187.069 66.307 189.636C66.4375 190.264 65.4702 190.533 65.3398 189.902C64.79 187.248 64.3956 184.564 64.1538 181.865C64.0966 181.224 65.1 181.228 65.1572 181.865Z" fill="#C6A8C4"/>
<path d="M142.473 167.37C142.473 167.37 97.0811 233.447 91.9078 246.901C86.7334 260.355 106.755 294.893 127.347 297.74C151.637 301.099 173.954 288.402 204.974 223.575C235.995 158.748 142.473 167.37 142.473 167.37Z" fill="#5C262D" stroke="#2A1302" stroke-miterlimit="10"/>
<path d="M227.675 267.109L219.871 226.973L180.963 230.131L185.623 285.864C185.623 285.864 185.309 295.438 199.868 296.977C214.428 298.516 253.944 296.844 253.944 296.844C253.944 296.844 258.935 296.284 259.871 291.216C260.777 286.308 258.93 283.118 250.805 277.965C244.281 273.827 227.675 267.109 227.675 267.109Z" fill="#756B42" stroke="#352623" stroke-miterlimit="10"/>
<path d="M243.696 290.925C243.696 285.531 246.02 280.691 249.71 277.302C250.097 277.528 250.467 277.75 250.804 277.964C258.93 283.117 260.776 286.307 259.87 291.215C258.935 296.283 253.943 296.843 253.943 296.843C253.943 296.843 250.285 296.998 244.8 297.169C244.099 295.216 243.696 293.12 243.696 290.925Z" fill="#B0581C" stroke="#352623" stroke-miterlimit="10"/>
<path d="M193.172 277.054C202.97 277.054 210.913 285.452 210.913 295.811C210.913 296.397 210.88 296.975 210.829 297.548C206.54 297.456 202.777 297.596 199.906 297.628C182.627 297.821 185.008 278.521 185.008 278.521C187.237 277.454 190.567 277.054 193.172 277.054Z" fill="#B0581C" stroke="#352623" stroke-miterlimit="10"/>
<path d="M222.216 239.034L182.231 242.686L180.806 228.575L219.403 224.571L222.216 239.034Z" fill="#B0581C" stroke="#352623" stroke-miterlimit="10"/>
<path d="M203.407 253.381C202.896 253.961 201.835 253.941 201.32 253.381C200.75 252.762 200.774 251.919 201.32 251.3C202.377 250.101 203.309 248.773 204.478 247.676C205.1 247.093 205.935 247.155 206.566 247.676C207.951 248.818 209.335 249.961 210.72 251.103C211.318 251.596 211.27 252.681 210.72 253.184C210.085 253.765 209.269 253.71 208.632 253.184C208.163 252.797 207.695 252.411 207.225 252.024C207.276 252.71 207.329 253.395 207.38 254.081C207.584 254.219 207.782 254.358 207.976 254.481C208.619 254.891 209.262 255.301 209.905 255.711C210.555 256.125 210.88 257.038 210.435 257.724C210.016 258.372 209.111 258.696 208.415 258.252C208.162 258.091 207.91 257.93 207.657 257.769C207.781 259.425 207.906 261.081 208.029 262.738C208.088 263.532 207.308 264.21 206.552 264.21C205.703 264.21 205.135 263.534 205.075 262.738C204.956 261.14 204.835 259.542 204.716 257.944C204.516 258.171 204.317 258.398 204.117 258.625C203.606 259.206 202.544 259.184 202.029 258.625C201.458 258.006 201.484 257.163 202.029 256.544C202.509 255.998 202.989 255.452 203.47 254.905C203.765 254.569 204.062 254.181 204.412 253.878C204.373 253.36 204.335 252.842 204.295 252.324C204.005 252.682 203.712 253.037 203.407 253.381Z" fill="#EFD3B7"/>
<path d="M217.313 239.481L215.113 225.374" stroke="#352623" stroke-miterlimit="10"/>
<path d="M210.469 225.498L212.745 239.899" stroke="#352623" stroke-miterlimit="10"/>
<path d="M206.02 225.959L207.898 240.342" stroke="#352623" stroke-miterlimit="10"/>
<path d="M185.331 228.106L186.754 242.273" stroke="#352623" stroke-miterlimit="10"/>
<path d="M190.06 227.666L191.84 241.872" stroke="#352623" stroke-miterlimit="10"/>
<path d="M202.364 226.546L203.931 240.704" stroke="#352623" stroke-miterlimit="10"/>
<path d="M197.895 226.802L199.57 241.102" stroke="#352623" stroke-miterlimit="10"/>
<path d="M193.933 227.213L195.869 241.44" stroke="#352623" stroke-miterlimit="10"/>
<path d="M110.012 216.087C110.012 216.087 138.595 163.572 146.588 148.81C156.026 131.378 182.99 95.9257 204.706 120.538C226.422 145.149 238.792 225.375 238.792 225.375L170.621 238.621L165.997 206.933" fill="#5C262D"/>
<path d="M110.012 216.087C110.012 216.087 138.595 163.572 146.588 148.81C156.026 131.378 182.99 95.9257 204.706 120.538C226.422 145.149 238.792 225.375 238.792 225.375L170.621 238.621L165.997 206.933" stroke="#2A1302" stroke-miterlimit="10"/>
<path d="M238.791 225.374L170.62 238.62L167.567 217.706L234.859 204.05C237.444 216.638 238.791 225.374 238.791 225.374Z" stroke="#2A1302" stroke-miterlimit="10"/>
<path d="M104.083 167.37C104.083 167.37 58.6906 233.447 53.5172 246.901C48.3439 260.355 68.364 294.893 88.956 297.74C113.246 301.099 135.563 288.402 166.583 223.575C197.603 158.748 104.083 167.37 104.083 167.37Z" fill="#5C262D" stroke="#2A1302" stroke-miterlimit="10"/>
<path d="M189.284 267.109L181.48 226.973L142.573 230.131L147.232 285.864C147.232 285.864 146.918 295.438 161.478 296.977C176.038 298.516 215.554 296.844 215.554 296.844C215.554 296.844 220.545 296.284 221.481 291.216C222.387 286.308 220.54 283.118 212.416 277.965C205.89 273.827 189.284 267.109 189.284 267.109Z" fill="#756B42" stroke="#352623" stroke-miterlimit="10"/>
<path d="M205.306 290.925C205.306 285.531 207.632 280.691 211.32 277.302C211.707 277.528 212.078 277.75 212.415 277.964C220.54 283.117 222.386 286.307 221.48 291.215C220.545 296.283 215.553 296.843 215.553 296.843C215.553 296.843 211.895 296.998 206.411 297.169C205.708 295.216 205.306 293.12 205.306 290.925Z" fill="#B0581C" stroke="#352623" stroke-miterlimit="10"/>
<path d="M154.782 277.054C164.579 277.054 172.522 285.452 172.522 295.811C172.522 296.397 172.489 296.975 172.439 297.548C168.149 297.456 164.387 297.596 161.515 297.628C144.236 297.821 146.617 278.521 146.617 278.521C148.847 277.454 152.176 277.054 154.782 277.054Z" fill="#B0581C" stroke="#352623" stroke-miterlimit="10"/>
<path d="M183.825 239.034L143.841 242.686L142.415 228.575L181.013 224.571L183.825 239.034Z" fill="#B0581C" stroke="#352623" stroke-miterlimit="10"/>
<path d="M165.018 253.381C164.506 253.961 163.446 253.941 162.93 253.381C162.36 252.762 162.384 251.919 162.93 251.3C163.987 250.101 164.92 248.773 166.088 247.676C166.711 247.093 167.545 247.155 168.176 247.676C169.561 248.818 170.946 249.961 172.33 251.103C172.927 251.596 172.88 252.681 172.33 253.184C171.695 253.765 170.88 253.71 170.242 253.184C169.774 252.797 169.305 252.411 168.837 252.024C168.888 252.71 168.939 253.395 168.991 254.081C169.195 254.219 169.394 254.358 169.587 254.481C170.23 254.891 170.873 255.301 171.517 255.711C172.167 256.125 172.491 257.038 172.046 257.724C171.627 258.372 170.722 258.696 170.027 258.252C169.774 258.091 169.521 257.93 169.268 257.769C169.393 259.425 169.517 261.081 169.64 262.738C169.7 263.532 168.919 264.21 168.163 264.21C167.315 264.21 166.747 263.534 166.686 262.738C166.567 261.14 166.447 259.542 166.327 257.944C166.128 258.171 165.928 258.398 165.728 258.625C165.218 259.206 164.155 259.184 163.64 258.625C163.069 258.006 163.095 257.163 163.64 256.544C164.121 255.998 164.6 255.452 165.081 254.905C165.376 254.569 165.673 254.181 166.023 253.878C165.984 253.36 165.946 252.842 165.907 252.324C165.614 252.682 165.321 253.037 165.018 253.381Z" fill="#EFD3B7"/>
<path d="M178.922 239.481L176.722 225.374" stroke="#352623" stroke-miterlimit="10"/>
<path d="M172.078 225.498L174.354 239.899" stroke="#352623" stroke-miterlimit="10"/>
<path d="M167.63 225.959L169.507 240.342" stroke="#352623" stroke-miterlimit="10"/>
<path d="M146.94 228.106L148.363 242.273" stroke="#352623" stroke-miterlimit="10"/>
<path d="M151.67 227.666L153.449 241.872" stroke="#352623" stroke-miterlimit="10"/>
<path d="M163.973 226.546L165.541 240.704" stroke="#352623" stroke-miterlimit="10"/>
<path d="M159.505 226.802L161.18 241.102" stroke="#352623" stroke-miterlimit="10"/>
<path d="M155.542 227.213L157.479 241.44" stroke="#352623" stroke-miterlimit="10"/>
<path d="M71.621 216.087C71.621 216.087 100.205 163.572 108.198 148.81C117.635 131.378 144.6 95.9257 166.315 120.538C188.031 145.149 200.402 225.375 200.402 225.375L132.23 238.621L127.607 206.933" fill="#5C262D"/>
<path d="M71.621 216.087C71.621 216.087 100.205 163.572 108.198 148.81C117.635 131.378 144.6 95.9257 166.315 120.538C188.031 145.149 200.402 225.375 200.402 225.375L132.23 238.621L127.607 206.933" stroke="#2A1302" stroke-miterlimit="10"/>
<path d="M200.4 225.374L132.229 238.62L129.178 217.706L196.469 204.05C199.053 216.638 200.4 225.374 200.4 225.374Z" stroke="#2A1302" stroke-miterlimit="10"/>
<path d="M116.744 175.152C120.817 179.662 124.724 184.204 128.463 188.756L43.6019 264.874C39.453 260.689 35.3312 256.34 31.2586 251.83C30.0064 250.444 28.7762 249.054 27.5551 247.662L112.975 171.043C114.235 172.4 115.493 173.766 116.744 175.152Z" fill="#6B4564" stroke="#C6A8C4" stroke-miterlimit="10"/>
<path d="M109.023 174.515L124.486 191.639" stroke="#C6A8C4" stroke-miterlimit="10"/>
<path d="M104.978 178.217L120.746 195.679" stroke="#C6A8C4" stroke-miterlimit="10"/>
<path d="M100.623 182.123L116.392 199.585" stroke="#C6A8C4" stroke-miterlimit="10"/>
<path d="M96.5524 185.774L112.32 203.236" stroke="#C6A8C4" stroke-miterlimit="10"/>
<path d="M92.7636 189.173L108.531 206.635" stroke="#C6A8C4" stroke-miterlimit="10"/>
<path d="M88.9741 192.571L104.743 210.033" stroke="#C6A8C4" stroke-miterlimit="10"/>
<path d="M84.9576 196.175L100.725 213.636" stroke="#C6A8C4" stroke-miterlimit="10"/>
<path d="M80.7343 199.962L96.5022 217.424" stroke="#C6A8C4" stroke-miterlimit="10"/>
<path d="M76.7199 203.563L92.4888 221.025" stroke="#C6A8C4" stroke-miterlimit="10"/>
<path d="M72.4547 207.01L88.2225 224.472" stroke="#C6A8C4" stroke-miterlimit="10"/>
<path d="M68.1311 210.888L83.8989 228.35" stroke="#C6A8C4" stroke-miterlimit="10"/>
<path d="M63.9571 214.632L79.725 232.094" stroke="#C6A8C4" stroke-miterlimit="10"/>
<path d="M59.8011 218.739L75.569 236.201" stroke="#C6A8C4" stroke-miterlimit="10"/>
<path d="M55.5911 222.515L71.36 239.977" stroke="#C6A8C4" stroke-miterlimit="10"/>
<path d="M51.419 225.878L67.1879 243.34" stroke="#C6A8C4" stroke-miterlimit="10"/>
<path d="M47.7499 229.548L63.5188 247.01" stroke="#C6A8C4" stroke-miterlimit="10"/>
<path d="M32.0933 243.86L47.5942 261.026" stroke="#C6A8C4" stroke-miterlimit="10"/>
<path d="M36.1209 240.246L51.6228 257.413" stroke="#C6A8C4" stroke-miterlimit="10"/>
<path d="M39.9968 236.77L55.4978 253.937" stroke="#C6A8C4" stroke-miterlimit="10"/>
<path d="M44.0253 233.157L59.5262 250.323" stroke="#C6A8C4" stroke-miterlimit="10"/>
<path d="M193.174 299.485C188.849 292.782 184.423 286.145 179.898 279.574C178.779 277.95 181.433 276.421 182.543 278.033C187.068 284.604 191.494 291.241 195.819 297.944C196.889 299.601 194.239 301.134 193.174 299.485Z" fill="#EFCAAC" stroke="#2A1302" stroke-miterlimit="10"/>
<path d="M182.18 296.55C179.191 292.003 176.203 287.455 173.214 282.908C172.131 281.26 174.783 279.728 175.859 281.367C178.848 285.914 181.836 290.462 184.825 295.009C185.909 296.658 183.257 298.189 182.18 296.55Z" fill="#EFCAAC" stroke="#2A1302" stroke-miterlimit="10"/>
<path d="M177.681 302.78C173.994 296.954 170.306 291.128 166.618 285.302C165.564 283.635 168.213 282.102 169.263 283.761C172.951 289.587 176.639 295.413 180.326 301.239C181.382 302.906 178.732 304.439 177.681 302.78Z" fill="#EFCAAC" stroke="#2A1302" stroke-miterlimit="10"/>
<path d="M169.984 307.821C166.488 302.625 163.161 297.318 160.008 291.908C159.016 290.206 161.663 288.667 162.653 290.367C165.805 295.777 169.133 301.084 172.629 306.28C173.73 307.917 171.077 309.447 169.984 307.821Z" fill="#EFCAAC" stroke="#2A1302" stroke-miterlimit="10"/>
<path d="M157.58 305.167C154.506 299.37 151.43 293.572 148.356 287.775C147.436 286.039 150.079 284.494 151.001 286.234C154.075 292.031 157.15 297.829 160.225 303.626C161.146 305.362 158.502 306.906 157.58 305.167Z" fill="#EFCAAC" stroke="#2A1302" stroke-miterlimit="10"/>
<path d="M150.598 311.511C147.766 304.712 144.934 297.913 142.101 291.114C141.781 290.347 142.446 289.443 143.171 289.236C144.049 288.986 144.739 289.544 145.055 290.302C147.887 297.101 150.72 303.9 153.552 310.699C153.872 311.466 153.207 312.37 152.483 312.577C151.605 312.828 150.915 312.269 150.598 311.511Z" fill="#EFCAAC" stroke="#2A1302" stroke-miterlimit="10"/>
<path d="M138.584 293.411C139.635 299.53 141.038 305.581 142.788 311.539C143.343 313.428 140.388 314.235 139.834 312.351C138.085 306.393 136.681 300.342 135.63 294.223C135.491 293.411 135.847 292.579 136.7 292.345C137.436 292.144 138.444 292.594 138.584 293.411Z" fill="#EFCAAC" stroke="#2A1302" stroke-miterlimit="10"/>
<path d="M130.953 314.565C128.583 306.706 125.838 298.966 122.726 291.368C122.411 290.599 123.068 289.698 123.796 289.49C124.67 289.24 125.369 289.797 125.68 290.556C128.791 298.154 131.536 305.894 133.906 313.753C134.474 315.639 131.52 316.445 130.953 314.565Z" fill="#EFCAAC" stroke="#2A1302" stroke-miterlimit="10"/>
<path d="M123 312.345C121.422 307.564 119.542 302.894 117.356 298.357C116.998 297.614 117.151 296.708 117.906 296.268C118.575 295.878 119.642 296.069 120.002 296.816C122.302 301.588 124.294 306.505 125.955 311.533C126.572 313.404 123.615 314.206 123 312.345Z" fill="#EFCAAC" stroke="#2A1302" stroke-miterlimit="10"/>
<path d="M115.846 320.093C114.393 313.272 112.182 306.631 109.2 300.322C108.364 298.555 111.004 297.003 111.845 298.781C114.941 305.331 117.292 312.197 118.8 319.281C119.208 321.198 116.256 322.017 115.846 320.093Z" fill="#EFCAAC" stroke="#2A1302" stroke-miterlimit="10"/>
<path d="M106.936 301.357C108.182 308.201 109.703 314.99 111.496 321.713C112.002 323.614 109.048 324.425 108.542 322.525C106.75 315.803 105.229 309.013 103.982 302.169C103.633 300.247 106.584 299.423 106.936 301.357Z" fill="#EFCAAC" stroke="#2A1302" stroke-miterlimit="10"/>
<path d="M99.5884 303.794C100.391 308.766 100.956 313.773 101.262 318.8C101.312 319.624 100.523 320.327 99.7299 320.327C98.859 320.327 98.2489 319.627 98.1988 318.8C97.9088 314.045 97.394 309.309 96.6345 304.605C96.5031 303.792 96.8452 302.962 97.7041 302.727C98.4345 302.528 99.457 302.975 99.5884 303.794Z" fill="#EFCAAC" stroke="#2A1302" stroke-miterlimit="10"/>
<path d="M91.5567 324.979C90.4129 319.267 89.1155 313.586 87.6677 307.943C87.179 306.039 90.1319 305.226 90.6216 307.131C92.0704 312.774 93.3668 318.455 94.5106 324.167C94.8949 326.086 91.943 326.907 91.5567 324.979Z" fill="#EFCAAC" stroke="#2A1302" stroke-miterlimit="10"/>
<path d="M84.2039 308.417C84.8511 313.715 85.4983 319.013 86.1454 324.311C86.2458 325.131 85.3698 325.838 84.6143 325.838C83.7032 325.838 83.1835 325.134 83.0822 324.311C82.435 319.013 81.7878 313.715 81.1406 308.417C81.0403 307.597 81.9163 306.891 82.6728 306.891C83.5828 306.891 84.1036 307.595 84.2039 308.417Z" fill="#EFCAAC" stroke="#2A1302" stroke-miterlimit="10"/>
<path d="M75.578 308.666C76.3747 313.926 77.3479 319.158 78.4988 324.353C78.9232 326.268 75.9703 327.085 75.5449 325.165C74.394 319.97 73.4198 314.739 72.6241 309.478C72.5007 308.664 72.8298 307.837 73.6937 307.6C74.4171 307.402 75.4536 307.846 75.578 308.666Z" fill="#EFCAAC" stroke="#2A1302" stroke-miterlimit="10"/>
<path d="M122.277 128.167C122.277 128.167 116.251 144.162 123.629 175.342C131.006 206.522 188.52 284.069 188.52 284.069L72.8981 318.474C72.8981 318.474 50.2702 214.692 53.1579 202.429C56.0456 190.166 122.277 128.167 122.277 128.167Z" fill="#EFCAAC"/>
<path d="M120.6 136.001L110.115 139.746C111.031 138.864 111.91 138.019 112.747 137.217L120.846 134.324C120.762 134.853 120.678 135.405 120.6 136.001Z" fill="#A05A4E"/>
<path d="M63.3772 272.403L66.7725 281.845L92.6272 272.61L82.9257 245.63L59.8313 253.879C59.738 253.375 59.6447 252.87 59.5514 252.367L82.412 244.202L74.1744 221.294L72.7095 217.22L54.7151 223.647C54.6399 223.127 54.5687 222.62 54.4974 222.114L72.1957 215.793L62.4942 188.812L62.434 188.833C63.0651 188.087 63.7203 187.324 64.3986 186.544L89.2268 177.676L84.6384 164.915C85.0187 164.527 85.4 164.139 85.7813 163.752L90.6104 177.182L116.466 167.947L107.302 142.462C107.693 142.084 108.08 141.71 108.46 141.342L117.849 167.453L121.738 166.064C121.822 166.558 121.908 167.054 122.001 167.558L118.354 168.86L123.748 183.86L128.056 195.842L131.235 194.707C131.457 195.159 131.686 195.617 131.916 196.075L128.57 197.27L138.271 224.252L146.168 221.432C146.437 221.873 146.706 222.314 146.976 222.754L138.784 225.68L146.362 246.756L148.485 252.66L162.894 247.514C163.186 247.95 163.475 248.382 163.766 248.814L148.999 254.088L158.354 280.106C158.35 280.114 158.345 280.121 158.341 280.128L158.7 281.123L180.697 273.266C180.994 273.683 181.286 274.092 181.57 274.488L159.188 282.482L162.54 291.801L161.15 292.215L157.826 282.97L131.97 292.205L134.794 300.058L133.384 300.478L130.586 292.699L104.732 301.932L107.028 308.319L105.619 308.738L103.349 302.426L77.4945 311.661L79.2634 316.581L77.8537 317L76.1109 312.154L71.8636 313.671C71.7643 313.21 71.6589 312.716 71.5486 312.196L75.6052 310.747L69.1315 292.744L65.9026 283.765L65.6608 283.851C65.5605 283.352 65.4591 282.853 65.3578 282.348L65.3899 282.337L65.3127 282.122C64.6765 278.969 64.0283 275.715 63.3772 272.403ZM89.6583 260.012L94.0108 272.116L119.866 262.881L110.164 235.901L84.3093 245.136L89.6583 260.012ZM83.7956 243.708L109.65 234.473L100.71 209.611L99.9487 207.492L74.0941 216.727L83.7956 243.708ZM89.7335 179.082L63.8788 188.317L65.2274 192.066L73.5814 215.299L99.436 206.064L89.7335 179.082ZM116.972 169.353L91.1161 178.588L91.8867 180.732L100.818 205.57L126.673 196.335L116.972 169.353ZM132.136 211.525L127.187 197.763L101.331 206.998L111.033 233.98L136.889 224.745L132.136 211.525ZM137.402 226.172L111.547 235.407L118.26 254.078L121.248 262.387L147.104 253.152L137.402 226.172ZM131.463 290.796L157.319 281.561L155.18 275.612L147.617 254.579L121.761 263.814L131.463 290.796ZM104.225 300.525L130.08 291.29L127.054 282.875L120.377 264.309L94.5226 273.544L104.225 300.525ZM76.9878 310.254L102.842 301.019L98.4247 288.732L93.1409 274.038L67.2863 283.273L76.9878 310.254Z" fill="#A05A4E"/>
<path d="M122.277 128.167C122.277 128.167 116.251 144.162 123.629 175.342C131.006 206.522 188.52 284.069 188.52 284.069L72.8981 318.474C72.8981 318.474 50.2702 214.692 53.1579 202.429C56.0456 190.166 122.277 128.167 122.277 128.167Z" stroke="#2A1302" stroke-miterlimit="10"/>
<path d="M82.1521 129.876C82.1521 129.876 71.2486 149.053 65.0478 161.199C58.848 173.345 54.1442 191.031 68.4682 189.752C82.7932 188.473 91.5586 181.516 91.5586 181.516L114.165 209.889C114.165 209.889 79.8002 239.401 51.3649 242.81C22.9296 246.219 -0.620346 225.705 1.08738 200.8C4.45467 151.706 60.2156 88.9647 101.81 90.6157L82.1521 129.876Z" fill="#836787"/>
<path d="M125.151 193.381C125.151 193.381 128.984 188.253 130.823 185.239C132.663 182.226 133.966 177.935 133.966 177.935L134.18 175.321C134.18 175.321 133.405 174.034 133.608 173.48C133.81 172.926 134.803 170.007 134.741 169.082C134.678 168.158 134.18 167.269 134.18 167.269L133.404 167.085C133.404 167.085 132.692 167.499 133.364 165.441C134.036 163.383 134.576 162.37 133.966 160.979C133.355 159.588 132.607 159.654 132.607 159.654C132.607 159.654 131.693 159.302 131.869 158.713C132.046 158.123 132.462 156.742 131.251 155.896C130.04 155.05 127.288 156.783 124.341 159.473C121.393 162.163 117.641 165.771 117.641 165.771C117.641 165.771 116.938 166.503 117.641 164.513C118.345 162.523 119.246 161.273 117.715 160.233C116.183 159.193 114.002 161.27 111.778 165.154C109.553 169.037 107.908 172.305 107.908 172.305C107.908 172.305 107.28 174.063 105.843 175.025C104.406 175.988 89.9545 184.642 89.9545 184.642C89.9545 184.642 92.0064 191.099 96.1523 196.403C100.298 201.707 107.135 206.041 108.493 206.837C109.85 207.634 110.942 208.217 110.942 208.217C110.942 208.217 123.213 196.032 125.151 193.381Z" fill="#F1DCD5"/>
<path d="M133.503 174.039C134.691 175.42 133.751 181.092 128.803 188.588C123.854 196.085 110.943 208.217 110.943 208.217C110.943 208.217 105.05 205.356 98.7157 199.241C92.3815 193.125 89.9564 184.642 89.9564 184.642C89.9564 184.642 99.0137 179.847 107.759 173.704C109.925 172.182 112.074 170.577 114.059 168.941C115.439 167.805 116.74 166.654 117.916 165.506C127.616 156.037 130.61 154.039 131.994 156.801C133.38 159.563 123.854 169.846 122.271 171.424" stroke="#2A1302" stroke-miterlimit="10"/>
<path d="M131.557 159.475C131.557 159.475 134.281 159.316 134.178 162.424C134.073 165.531 129.174 173.743 127.467 176.332" stroke="#2A1302" stroke-miterlimit="10"/>
<path d="M132.91 166.962C132.91 166.962 134.89 166.567 134.741 169.083C134.593 171.598 132.663 176.481 129.619 181.512" stroke="#2A1302" stroke-miterlimit="10"/>
<path d="M115.895 167.376C115.895 167.376 120.309 161.578 117.47 160.08C114.947 158.748 110.063 167.505 107.011 174.223" stroke="#2A1302" stroke-miterlimit="10"/>
<path d="M49.7846 114.179C59.5463 120.057 71.2455 124.219 84.0625 126.059L82.1511 129.875C82.1511 129.875 81.7397 130.599 81.0354 131.846C67.4418 129.712 55.0272 125.204 44.6103 118.932C46.312 117.293 48.0388 115.71 49.7846 114.179Z" fill="#B2A8A6"/>
<path d="M70.7519 99.2596C75.6563 100.702 91.4583 104.776 94.4734 105.269L91.5807 111.046C87.6325 110.198 69.5689 106.231 63.8437 103.421C66.1354 101.916 68.4411 100.529 70.7519 99.2596Z" fill="#7D7368"/>
<path d="M41.584 121.942C52.3622 128.362 65.131 133.017 79.0878 135.312C78.7667 135.885 78.4265 136.493 78.0693 137.131C63.9751 134.725 51.0849 129.94 40.1934 123.376C40.6549 122.894 41.1185 122.416 41.584 121.942Z" fill="#DDD0D0"/>
<path d="M64.4327 103.03C72.1586 107.367 81.4086 110.275 91.4763 111.254L86.2769 121.637C74.1733 120.034 63.1203 116.189 53.9194 110.691C57.371 107.893 60.8858 105.326 64.4327 103.03Z" fill="#6B4564"/>
<path d="M86.5498 117.03C86.7866 117.026 86.9923 116.852 87.0284 116.611C87.0685 116.343 86.8819 116.094 86.613 116.055C85.3427 115.868 84.0574 115.647 82.7902 115.398C82.5263 115.35 82.2644 115.518 82.2122 115.785C82.159 116.05 82.3336 116.308 82.6005 116.361C83.8818 116.612 85.1832 116.836 86.4695 117.025C86.4966 117.029 86.5227 117.031 86.5498 117.03ZM78.8941 115.526C79.1118 115.523 79.3095 115.375 79.3647 115.154C79.4299 114.891 79.2694 114.624 79.0055 114.559C77.7483 114.247 76.4901 113.901 75.268 113.532C75.0031 113.454 74.7332 113.601 74.6539 113.859C74.5746 114.119 74.7221 114.393 74.982 114.471C76.2211 114.845 77.4944 115.194 78.7677 115.51C78.8098 115.522 78.853 115.526 78.8941 115.526ZM71.4281 113.271C71.6268 113.268 71.8124 113.144 71.8836 112.947C71.9759 112.692 71.8435 112.411 71.5876 112.319C70.3725 111.882 69.1585 111.409 67.9775 110.912C67.7267 110.808 67.4387 110.923 67.3324 111.173C67.226 111.423 67.3444 111.71 67.5952 111.816C68.7912 112.32 70.0224 112.8 71.2535 113.243C71.3117 113.262 71.3699 113.272 71.4281 113.271ZM64.244 110.241C64.4226 110.238 64.5942 110.138 64.6784 109.966C64.7988 109.723 64.6975 109.429 64.4537 109.31C63.2948 108.744 62.141 108.139 61.0272 107.511C60.7894 107.379 60.4904 107.46 60.356 107.697C60.2215 107.933 60.3048 108.232 60.5416 108.366C61.6734 109.003 62.8433 109.618 64.0203 110.192C64.0925 110.226 64.1698 110.243 64.244 110.241Z" fill="#F4EDF4"/>
<path d="M48.2122 115.576C48.9025 116.448 49.5045 117.445 49.9691 118.491C50.7557 120.261 51.3326 121.323 51.9587 121.521C52.3179 121.631 52.8186 121.488 53.5711 121.038C55.0832 120.134 57.2896 120.022 58.9371 120.758C60.2585 121.351 61.0974 122.409 61.3622 123.819C61.6091 125.129 62.3305 126.023 63.3419 126.274C64.287 126.509 65.3115 126.149 65.9466 125.354C66.6991 124.411 67.9363 123.941 69.2447 124.104C70.8621 124.301 72.2588 125.355 72.9792 126.925C73.6414 128.368 75.009 129.4 76.3063 129.433C76.8542 129.456 77.5475 129.291 77.9739 128.476C78.5488 127.383 79.7338 126.719 81.1445 126.7C81.1676 126.7 81.1897 126.7 81.2118 126.7C82.0065 126.7 82.772 126.904 83.4613 127.26L83.0248 128.132C82.4088 127.815 81.7636 127.681 81.2068 127.681C81.1907 127.681 81.1737 127.681 81.1586 127.681C80.1151 127.695 79.2502 128.163 78.8468 128.932C78.3351 129.905 77.3599 130.45 76.2803 130.414C74.6217 130.37 72.8969 129.103 72.0832 127.333C71.5062 126.077 70.3995 125.234 69.1253 125.078C68.146 124.959 67.262 125.282 66.7152 125.966C65.8412 127.06 64.4215 127.554 63.1041 127.227C61.7034 126.88 60.7161 125.705 60.395 124C60.1381 122.636 59.2401 121.971 58.5327 121.654C57.1812 121.049 55.307 121.143 54.0768 121.88C53.0504 122.494 52.3249 122.667 51.6607 122.457C50.6694 122.144 50.0102 121.01 49.068 118.888C48.6516 117.95 48.1058 117.041 47.4817 116.243C47.7255 116.02 47.9684 115.796 48.2122 115.576Z" fill="#472D43"/>
<path d="M64.9083 102.72C72.579 106.985 81.7488 109.836 91.7122 110.783L91.2416 111.723C81.0976 110.707 71.7783 107.732 63.9973 103.317C64.3013 103.118 64.6043 102.915 64.9083 102.72Z" fill="#DDD0D0"/>
<path d="M54.3429 110.345C63.4996 115.79 74.4904 119.594 86.5117 121.17L86.0472 122.097C73.8934 120.458 62.7852 116.561 53.5402 111.001C53.8071 110.782 54.074 110.561 54.3429 110.345Z" fill="#DDD0D0"/>
<path d="M101.811 90.6146L94.3271 105.562C85.655 104.96 77.6361 102.693 70.8484 99.1946C81.3747 93.4296 91.9872 90.2256 101.811 90.6146Z" fill="#C6A8C4"/>
<path d="M102.195 90.6676L97.4915 99.8867C90.5262 99.6667 83.7003 98.1377 78.0313 95.6757C86.1606 92.1647 94.6069 90.3666 102.195 90.6676Z" fill="#6B4564"/>
<path d="M90.5953 108.263C90.8402 108.263 91.0529 108.08 91.083 107.83C91.1161 107.561 90.9234 107.317 90.6535 107.285C90.3294 107.247 90.0054 107.206 89.6833 107.163C89.4204 107.126 89.1676 107.315 89.1294 107.585C89.0943 107.853 89.2829 108.1 89.5528 108.136C89.8809 108.18 90.2081 108.22 90.5362 108.26C90.5552 108.262 90.5743 108.263 90.5953 108.263ZM85.7661 107.519C85.9969 107.519 86.2036 107.356 86.2488 107.121C86.2999 106.855 86.1243 106.598 85.8585 106.547C85.5374 106.486 85.2173 106.422 84.9003 106.356C84.6384 106.303 84.3745 106.471 84.3183 106.737C84.2621 107.002 84.4337 107.262 84.6996 107.317C85.0227 107.384 85.3467 107.448 85.6718 107.51C85.7039 107.516 85.735 107.519 85.7661 107.519ZM81.0042 106.425C81.2209 106.425 81.4206 106.281 81.4788 106.062C81.55 105.8 81.3945 105.531 81.1316 105.461C80.8166 105.377 80.5015 105.29 80.1905 105.2C79.9266 105.127 79.6557 105.278 79.5824 105.537C79.5072 105.798 79.6587 106.069 79.9195 106.144C80.2366 106.234 80.5547 106.322 80.8758 106.408C80.9199 106.42 80.9621 106.425 81.0042 106.425ZM76.3385 104.979C76.5412 104.979 76.7309 104.854 76.8021 104.653C76.8934 104.398 76.76 104.117 76.5041 104.027C76.1961 103.918 75.8901 103.807 75.585 103.694C75.3312 103.599 75.0472 103.729 74.9519 103.983C74.8576 104.237 74.988 104.519 75.2419 104.614C75.5509 104.728 75.861 104.841 76.172 104.951C76.2282 104.97 76.2844 104.979 76.3385 104.979ZM71.8034 103.172C71.991 103.172 72.1706 103.064 72.2518 102.882C72.3632 102.635 72.2519 102.345 72.004 102.234C71.706 102.101 71.411 101.966 71.1171 101.829C70.8732 101.714 70.5792 101.819 70.4629 102.065C70.3475 102.31 70.4538 102.602 70.7007 102.717C70.9987 102.857 71.2997 102.994 71.6037 103.129C71.6679 103.158 71.7361 103.172 71.8034 103.172Z" fill="#C6A8C4"/>
<path d="M82.1521 129.876C82.1521 129.876 71.2486 149.053 65.0478 161.199C58.848 173.345 54.1442 191.031 68.4682 189.752C82.7932 188.473 91.5586 181.516 91.5586 181.516L114.165 209.889C114.165 209.889 79.8002 239.401 51.3649 242.81C22.9296 246.219 -0.620346 225.705 1.08738 200.8C4.45467 151.706 60.2156 88.9647 101.81 90.6157" stroke="#2A1302" stroke-miterlimit="10"/>
<path d="M114.165 209.888C114.165 209.888 108.912 214.394 100.83 220.083C95.549 214.091 82.7872 198.904 78.7397 187.729C87.0997 184.141 91.5596 181.515 91.5596 181.515L114.165 209.888Z" fill="#6B4564" stroke="#C6A8C4" stroke-miterlimit="10"/>
<path d="M112.349 207.609L98.7528 217.691" stroke="#C6A8C4" stroke-miterlimit="10"/>
<path d="M109.652 204.295L95.9383 214.337" stroke="#C6A8C4" stroke-miterlimit="10"/>
<path d="M106.924 200.799L93.2443 210.997" stroke="#C6A8C4" stroke-miterlimit="10"/>
<path d="M104.392 197.622L90.494 207.428" stroke="#C6A8C4" stroke-miterlimit="10"/>
<path d="M101.63 194.239L88.081 203.748" stroke="#C6A8C4" stroke-miterlimit="10"/>
<path d="M99.1852 191.087L85.1963 199.91" stroke="#C6A8C4" stroke-miterlimit="10"/>
<path d="M96.452 187.657L82.4762 195.498" stroke="#C6A8C4" stroke-miterlimit="10"/>
<path d="M93.6516 184.142L80.5487 191.087" stroke="#C6A8C4" stroke-miterlimit="10"/>
<path d="M68.2676 143.556C67.789 144.419 67.3094 145.283 66.8308 146.146C66.7033 146.375 66.3682 146.469 66.1445 146.325C65.9117 146.175 65.8284 145.886 65.9649 145.641C66.4435 144.778 66.9221 143.914 67.4017 143.051C67.5291 142.822 67.8642 142.728 68.088 142.872C68.3198 143.022 68.4031 143.311 68.2676 143.556Z" fill="#C6A8C4"/>
<path d="M56.7069 136.304C56.2674 137.222 55.8289 138.14 55.3894 139.058C55.276 139.295 54.9178 139.375 54.7031 139.237C54.4593 139.08 54.4021 138.806 54.5235 138.553C54.963 137.635 55.4015 136.717 55.8409 135.799C55.9543 135.562 56.3125 135.482 56.5272 135.62C56.7711 135.776 56.8283 136.05 56.7069 136.304Z" fill="#C6A8C4"/>
<path d="M55.4757 151.314C54.984 152.595 54.4924 153.877 54.0007 155.158C53.9044 155.41 53.6626 155.584 53.3837 155.507C53.1419 155.441 52.9362 155.146 53.0335 154.892C53.5252 153.611 54.0168 152.329 54.5084 151.048C54.6048 150.796 54.8466 150.622 55.1255 150.699C55.3673 150.765 55.573 151.061 55.4757 151.314Z" fill="#C6A8C4"/>
<path d="M42.6216 142.922C42.1992 143.777 41.7768 144.632 41.3544 145.487C41.238 145.722 40.8848 145.806 40.6681 145.666C40.4263 145.511 40.3641 145.234 40.4885 144.982C40.9109 144.127 41.3333 143.272 41.7557 142.417C41.8721 142.182 42.2253 142.098 42.442 142.238C42.6838 142.393 42.746 142.67 42.6216 142.922Z" fill="#C6A8C4"/>
<path d="M41.9784 130.136C41.1225 131.84 40.2657 133.544 39.4098 135.248C39.1208 135.824 38.2549 135.318 38.5439 134.743C39.3998 133.039 40.2566 131.335 41.1125 129.631C41.4015 129.055 42.2674 129.561 41.9784 130.136Z" fill="#C6A8C4"/>
<path d="M44.2721 157.381C43.8406 158.231 43.4102 159.082 42.9788 159.933C42.8604 160.167 42.5102 160.252 42.2925 160.112C42.0527 159.958 41.9854 159.678 42.1128 159.428C42.5443 158.578 42.9747 157.727 43.4062 156.876C43.5246 156.642 43.8747 156.556 44.0925 156.697C44.3323 156.851 44.3995 157.131 44.2721 157.381Z" fill="#C6A8C4"/>
<path d="M29.9381 145.868C29.3662 146.933 28.7953 147.997 28.2233 149.062C28.0989 149.293 27.7588 149.384 27.537 149.241C27.3012 149.09 27.224 148.804 27.3574 148.557C27.9294 147.492 28.5002 146.428 29.0722 145.363C29.1966 145.132 29.5367 145.041 29.7585 145.184C29.9933 145.335 30.0705 145.621 29.9381 145.868Z" fill="#C6A8C4"/>
<path d="M56.6979 167.622C56.129 168.759 55.5601 169.896 54.9901 171.033C54.8687 171.274 54.5266 171.342 54.3038 171.212C54.057 171.068 54.0028 170.77 54.1242 170.528C54.6931 169.391 55.263 168.254 55.832 167.117C55.9524 166.876 56.2955 166.808 56.5182 166.938C56.7651 167.082 56.8193 167.379 56.6979 167.622Z" fill="#C6A8C4"/>
<path d="M46.6621 172.955C45.9808 174.06 45.427 175.233 45.0136 176.463C44.9273 176.719 44.6674 176.887 44.3965 176.812C44.1457 176.743 43.9601 176.454 44.0464 176.197C44.4858 174.887 45.0708 173.627 45.7962 172.45C45.9377 172.22 46.2447 172.132 46.4825 172.271C46.7123 172.405 46.8046 172.724 46.6621 172.955Z" fill="#C6A8C4"/>
<path d="M30.0625 160.701C29.6371 161.838 29.2117 162.975 28.7863 164.113C28.692 164.366 28.4471 164.538 28.1692 164.462C27.9254 164.395 27.7237 164.101 27.819 163.847C28.2445 162.71 28.6699 161.573 29.0953 160.435C29.1896 160.182 29.4344 160.01 29.7124 160.086C29.9562 160.152 30.1579 160.446 30.0625 160.701Z" fill="#C6A8C4"/>
<path d="M33.6976 176.042C33.1197 177.709 32.3762 179.317 31.4731 180.833C31.144 181.386 30.2761 180.883 30.6072 180.328C31.4671 178.884 32.1805 177.363 32.7304 175.776C32.8187 175.521 33.0745 175.352 33.3474 175.427C33.5963 175.495 33.7869 175.786 33.6976 176.042Z" fill="#C6A8C4"/>
<path d="M18.4807 170.205C17.9861 171.202 17.4914 172.198 16.9968 173.195C16.8804 173.43 16.5272 173.514 16.3105 173.374C16.0686 173.219 16.0054 172.941 16.1309 172.69C16.6255 171.694 17.1202 170.697 17.6148 169.7C17.7312 169.465 18.0844 169.381 18.3011 169.521C18.5419 169.676 18.6051 169.954 18.4807 170.205Z" fill="#C6A8C4"/>
<path d="M22.9707 183.489C22.6928 184.627 22.4149 185.765 22.1369 186.904C22.0727 187.167 21.7757 187.323 21.5199 187.253C21.252 187.179 21.1055 186.901 21.1697 186.638C21.4476 185.5 21.7255 184.362 22.0035 183.223C22.0677 182.96 22.3647 182.804 22.6205 182.874C22.8884 182.947 23.0349 183.226 22.9707 183.489Z" fill="#C6A8C4"/>
<path d="M9.92095 186.681C9.52562 187.81 9.4002 188.991 9.54368 190.178C9.57578 190.447 9.28983 190.678 9.04199 190.678C8.744 190.678 8.57242 190.447 8.54031 190.178C8.38881 188.915 8.53328 187.616 8.95369 186.416C9.04299 186.161 9.29686 185.992 9.57078 186.067C9.81861 186.134 10.0102 186.424 9.92095 186.681Z" fill="#C6A8C4"/>
<path d="M18.299 200.406C18.3663 201.942 18.5559 203.466 18.871 204.972C18.9262 205.236 18.7937 205.512 18.5208 205.587C18.272 205.655 17.9589 205.503 17.9037 205.238C17.5716 203.647 17.3669 202.03 17.2957 200.406C17.2676 199.763 18.271 199.764 18.299 200.406Z" fill="#C6A8C4"/>
<path d="M6.54174 201.259C6.52468 201.494 6.51967 201.73 6.5297 201.965C6.53472 202.083 6.54274 202.2 6.55377 202.318C6.55879 202.368 6.5648 202.418 6.56982 202.469C6.57784 202.53 6.57786 202.536 6.57184 202.486C6.57585 202.511 6.57885 202.536 6.58286 202.561C6.6551 203.019 6.77853 203.466 6.9481 203.898C7.04442 204.142 6.84275 204.457 6.59793 204.513C6.30996 204.579 6.08321 204.425 5.98087 204.164C5.62066 203.247 5.46914 202.242 5.53838 201.26C5.55644 201 5.75611 200.747 6.04006 200.76C6.29591 200.77 6.56181 200.979 6.54174 201.259Z" fill="#C6A8C4"/>
<path d="M91.8516 220.51C89.8318 221.676 87.812 222.841 85.7923 224.007C85.2324 224.33 84.7267 223.466 85.2856 223.144C87.3054 221.978 89.3251 220.812 91.3449 219.647C91.9048 219.323 92.4114 220.187 91.8516 220.51Z" fill="#C6A8C4"/>
<path d="M86.0551 210.883C85.1169 211.358 84.1787 211.832 83.2406 212.306C83.0068 212.424 82.6857 212.375 82.5543 212.127C82.4339 211.899 82.4841 211.569 82.7339 211.443C83.6721 210.969 84.6102 210.494 85.5483 210.02C85.7821 209.902 86.1032 209.951 86.2346 210.199C86.356 210.427 86.3049 210.757 86.0551 210.883Z" fill="#C6A8C4"/>
<path d="M76.9377 220.059C75.9333 220.468 74.9279 220.877 73.9236 221.286C73.6798 221.385 73.3617 221.179 73.3065 220.937C73.2403 220.647 73.3958 220.428 73.6567 220.322C74.6611 219.913 75.6664 219.504 76.6708 219.095C76.9146 218.996 77.2327 219.202 77.2879 219.444C77.3541 219.734 77.1986 219.953 76.9377 220.059Z" fill="#C6A8C4"/>
<path d="M79.2182 199.603C77.8587 200.23 76.4981 200.856 75.1385 201.483C74.8927 201.596 74.5977 201.552 74.4523 201.304C74.3258 201.088 74.385 200.734 74.6318 200.62C75.9914 199.993 77.352 199.367 78.7115 198.74C78.9574 198.627 79.2523 198.671 79.3978 198.919C79.5252 199.135 79.4651 199.489 79.2182 199.603Z" fill="#C6A8C4"/>
<path d="M70.0857 210.006C68.5927 210.444 67.0997 210.882 65.6067 211.32C64.9856 211.502 64.7208 210.537 65.3398 210.356C66.8328 209.918 68.3258 209.48 69.8188 209.042C70.4399 208.86 70.7048 209.824 70.0857 210.006Z" fill="#C6A8C4"/>
<path d="M66.5548 196.531C64.9886 196.691 63.4133 196.722 61.842 196.625C61.5711 196.608 61.3403 196.407 61.3403 196.125C61.3403 195.867 61.5701 195.608 61.842 195.625C63.4133 195.722 64.9886 195.691 66.5548 195.531C66.8247 195.503 67.0565 195.781 67.0565 196.031C67.0565 196.325 66.8257 196.504 66.5548 196.531Z" fill="#C6A8C4"/>
<path d="M55.4293 206.252C54.2183 206.402 53.0082 206.552 51.7972 206.701C51.5283 206.734 51.2955 206.447 51.2955 206.201C51.2955 205.903 51.5273 205.734 51.7972 205.701C53.0072 205.551 54.2183 205.401 55.4293 205.252C55.6983 205.219 55.931 205.506 55.931 205.752C55.931 206.05 55.6993 206.219 55.4293 206.252Z" fill="#C6A8C4"/>
<path d="M61.8753 220.648C60.8167 221.442 59.6097 222.033 58.3364 222.396C58.0755 222.47 57.7906 222.305 57.7194 222.047C57.6471 221.783 57.8087 221.507 58.0695 221.432C59.2645 221.091 60.3622 220.54 61.3696 219.785C61.5863 219.622 61.9305 219.75 62.0559 219.964C62.2054 220.22 62.092 220.485 61.8753 220.648Z" fill="#C6A8C4"/>
<path d="M69.8939 233.085C68.3938 233.715 66.8928 234.345 65.3928 234.975C65.1429 235.08 64.8409 234.862 64.7757 234.626C64.6964 234.337 64.875 234.116 65.1259 234.011C66.6259 233.381 68.1269 232.751 69.627 232.121C69.8768 232.016 70.1788 232.234 70.2441 232.47C70.3233 232.759 70.1447 232.979 69.8939 233.085Z" fill="#C6A8C4"/>
<path d="M54.4973 233.094C53.0003 233.377 51.5032 233.659 50.0062 233.942C49.7403 233.992 49.4654 233.868 49.3891 233.593C49.3219 233.349 49.4714 233.028 49.7393 232.978C51.2363 232.695 52.7333 232.413 54.2304 232.13C54.4962 232.08 54.7712 232.204 54.8474 232.479C54.9147 232.723 54.7642 233.043 54.4973 233.094Z" fill="#C6A8C4"/>
<path d="M44.9505 216.88C43.1033 217.01 41.237 216.79 39.4701 216.238C38.856 216.046 39.1179 215.08 39.737 215.274C41.4266 215.802 43.1835 216.005 44.9505 215.881C45.2214 215.862 45.4521 216.124 45.4521 216.381C45.4521 216.666 45.2214 216.861 44.9505 216.88Z" fill="#C6A8C4"/>
<path d="M44.3155 226.956C42.6027 227.152 40.891 227.348 39.1782 227.545C38.9083 227.576 38.6766 227.293 38.6766 227.045C38.6766 226.749 38.9073 226.576 39.1782 226.545C40.891 226.349 42.6027 226.153 44.3155 225.956C44.5854 225.925 44.8171 226.208 44.8171 226.456C44.8171 226.752 44.5864 226.925 44.3155 226.956Z" fill="#C6A8C4"/>
<path d="M35.8409 237.1C34.2736 236.743 32.7064 236.385 31.1391 236.028C30.51 235.885 30.7759 234.92 31.406 235.064C32.9733 235.421 34.5405 235.779 36.1078 236.136C36.7369 236.279 36.47 237.243 35.8409 237.1Z" fill="#C6A8C4"/>
<path d="M30.9245 220.044C29.1174 219.736 27.3686 219.21 25.6809 218.499C25.4311 218.394 25.3769 218.027 25.5013 217.815C25.6528 217.557 25.9367 217.53 26.1876 217.636C27.79 218.311 29.4776 218.788 31.1914 219.081C31.4583 219.127 31.6088 219.454 31.5415 219.696C31.4633 219.976 31.1924 220.089 30.9245 220.044Z" fill="#C6A8C4"/>
<path d="M39.7619 205.776C38.0361 204.916 36.5782 203.556 35.5869 201.909C35.2538 201.356 36.1207 200.852 36.4528 201.404C37.3619 202.914 38.6893 204.126 40.2676 204.913C40.5094 205.034 40.5776 205.375 40.4472 205.597C40.3037 205.842 40.0047 205.897 39.7619 205.776Z" fill="#C6A8C4"/>
<path d="M49.294 196.448C48.1923 196.039 47.2542 195.279 46.6522 194.267C46.5187 194.042 46.594 193.708 46.8318 193.583C47.0736 193.456 47.3756 193.522 47.5181 193.762C47.5803 193.867 47.6465 193.969 47.7167 194.069C47.7378 194.099 47.7599 194.128 47.781 194.158C47.8362 194.234 47.7418 194.11 47.78 194.158C47.8181 194.205 47.8562 194.253 47.8964 194.299C48.0589 194.489 48.2375 194.665 48.4281 194.825C48.4512 194.845 48.4753 194.864 48.4984 194.883C48.5184 194.899 48.5887 194.96 48.4974 194.884C48.5435 194.923 48.5957 194.957 48.6449 194.992C48.7442 195.062 48.8475 195.128 48.9519 195.19C49.0623 195.255 49.1756 195.315 49.291 195.37C49.3181 195.383 49.3462 195.396 49.3743 195.409C49.3883 195.416 49.4847 195.46 49.4144 195.428C49.3452 195.396 49.4415 195.439 49.4566 195.445C49.4907 195.458 49.5248 195.471 49.5589 195.484C49.8037 195.575 49.9984 195.826 49.9091 196.099C49.8338 196.338 49.5579 196.546 49.294 196.448Z" fill="#C6A8C4"/>
<path d="M13.1327 214.05C12.5548 213.274 11.9779 212.499 11.3999 211.723C11.2424 211.512 11.3578 211.156 11.5795 211.039C11.8424 210.901 12.0983 210.993 12.2658 211.218C12.8438 211.994 13.4207 212.77 13.9986 213.545C14.1552 213.756 14.0408 214.112 13.819 214.229C13.5572 214.368 13.3003 214.275 13.1327 214.05Z" fill="#C6A8C4"/>
<path d="M20.5346 227.693C19.5262 227.071 18.5179 226.449 17.5095 225.827C17.2867 225.689 17.1804 225.374 17.3299 225.143C17.4744 224.92 17.7774 224.816 18.0162 224.964C19.0246 225.586 20.0329 226.208 21.0413 226.83C21.264 226.968 21.3704 227.283 21.2209 227.514C21.0764 227.736 20.7734 227.84 20.5346 227.693Z" fill="#C6A8C4"/>
<path d="M53.5061 187.229C52.581 185.676 51.8997 183.981 51.4974 182.219C51.3539 181.593 52.3212 181.325 52.4646 181.953C52.8489 183.636 53.4881 185.239 54.372 186.723C54.7031 187.279 53.8352 187.783 53.5061 187.229Z" fill="#C6A8C4"/>
<path d="M29.6951 208.779C28.756 208.19 27.9694 207.369 27.4356 206.399C27.3091 206.17 27.3713 205.843 27.6152 205.715C27.8499 205.591 28.167 205.649 28.3015 205.894C28.4229 206.115 28.5573 206.328 28.7058 206.532C28.7199 206.551 28.7339 206.571 28.749 206.59C28.762 206.608 28.8322 206.71 28.758 206.603C28.7921 206.652 28.8333 206.697 28.8714 206.743C28.9517 206.84 29.0359 206.934 29.1222 207.026C29.2908 207.205 29.4714 207.373 29.661 207.53C29.7072 207.568 29.7523 207.609 29.8015 207.643C29.7032 207.574 29.7784 207.625 29.8005 207.641C29.8246 207.659 29.8486 207.677 29.8727 207.694C29.9801 207.771 30.0895 207.845 30.2018 207.915C30.4236 208.054 30.532 208.367 30.3814 208.599C30.239 208.821 29.9329 208.928 29.6951 208.779Z" fill="#C6A8C4"/>
<path d="M38.553 194.038C37.7423 192.875 37.0721 191.631 36.5212 190.326C36.4159 190.077 36.6346 189.776 36.8714 189.711C37.1614 189.632 37.3831 189.81 37.4884 190.06C38.0032 191.281 38.6614 192.446 39.4189 193.533C39.5734 193.755 39.4601 194.088 39.2393 194.217C38.9895 194.363 38.7075 194.26 38.553 194.038Z" fill="#C6A8C4"/>
<path d="M29.0852 198.13C28.0799 196.763 27.5511 195.068 27.5802 193.375C27.5912 192.732 28.5946 192.73 28.5836 193.375C28.5575 194.909 29.0421 196.39 29.9511 197.626C30.1117 197.844 29.9883 198.184 29.7716 198.31C29.5167 198.458 29.2458 198.349 29.0852 198.13Z" fill="#C6A8C4"/>
<path d="M113.118 89.8484H95.047V57.7694H113.118V89.8484Z" fill="#F2DDD6" stroke="#2A1302" stroke-miterlimit="10"/>
<path d="M128.458 48.6846L133.792 46.0166L126.78 40.2236L128.458 48.6846Z" fill="#CE919D"/>
<path d="M92.9955 59.6536C93.0978 60.1156 93.2232 60.5656 93.3607 61.0076C93.3537 61.5156 93.3978 62.0316 93.5122 62.5476L92.9955 59.6536L113.535 70.4737L113.515 70.3816L119.646 69.0286C126.694 67.4726 131.008 59.6557 129.231 51.6567L125.591 35.2756C123.814 27.2766 116.593 22.0056 109.543 23.5606L98.9394 25.9006C91.8908 27.4566 87.5773 35.2736 89.3543 43.2726L92.9955 59.6536Z" fill="white"/>
<path d="M111.374 70.8546L119.646 69.0276C126.694 67.4716 131.008 59.6546 129.231 51.6556L125.592 35.2746C123.815 27.2756 116.593 22.0046 109.544 23.5606L98.9414 25.9006C91.8928 27.4566 87.5793 35.2736 89.3563 43.2726L92.9965 59.6536C93.0988 60.1156 93.2242 60.5656 93.3617 61.0076C93.3547 61.5156 93.3988 62.0316 93.5142 62.5476" fill="#F2DDD6"/>
<path d="M111.374 70.8546L119.646 69.0276C126.694 67.4716 131.008 59.6546 129.231 51.6556L125.592 35.2746C123.815 27.2756 116.593 22.0046 109.544 23.5606L98.9414 25.9006C91.8928 27.4566 87.5793 35.2736 89.3563 43.2726L92.9965 59.6536C93.0988 60.1156 93.2242 60.5656 93.3617 61.0076C93.3547 61.5156 93.3988 62.0316 93.5142 62.5476" stroke="#2A1302" stroke-miterlimit="10"/>
<path d="M115.06 45.8946C115.134 47.2236 116.275 48.2416 117.608 48.1676C118.942 48.0936 119.962 46.9566 119.889 45.6276C119.814 44.2986 118.674 43.2816 117.34 43.3546C116.006 43.4286 114.985 44.5656 115.06 45.8946Z" fill="#2A1302"/>
<path d="M103.504 56.6326C103.719 60.4996 107.041 63.4606 110.921 63.2456C114.801 63.0306 117.772 59.7206 117.556 55.8536C117.34 51.9866 114.019 49.0256 110.139 49.2406C106.258 49.4566 103.288 52.7656 103.504 56.6326Z" fill="#E0B6C6"/>
<path d="M129.246 60.1507C128.595 60.5767 127.744 60.7667 126.98 60.8167C125.064 60.9427 123.317 59.9947 121.951 58.7277C121.595 58.3977 122.128 57.8687 122.482 58.1977C123.731 59.3547 125.302 60.1997 127.048 60.0617C127.694 60.0107 128.351 59.8407 128.866 59.5027C129.272 59.2377 129.649 59.8877 129.246 60.1507Z" fill="#2A1302"/>
<path d="M100.432 47.5986C100.432 47.5986 139.542 34.3136 141.426 17.5266C143.311 0.739634 119.34 7.03763 111.058 18.9836C111.058 18.9836 122.316 3.69363 112.257 0.359627C103.276 -2.61737 100.918 13.7716 100.432 16.8116C100.432 16.8116 82.2927 14.2056 75.5371 22.8936C75.5371 22.8936 73.9417 14.5176 71.4704 15.0136C68.9992 15.5096 72.7036 22.8936 72.7036 22.8936C72.7036 22.8936 67.473 20.0696 67.9095 22.4596C68.3449 24.8486 72.0504 25.9346 72.0504 25.9346C72.0504 25.9346 65.077 36.7946 66.8198 46.5676C68.5637 56.3416 74.4775 66.6856 95.0465 73.2826L95.0465 63.3906L98.6365 54.7126L100.432 47.5986Z" fill="#2A1302"/>
<path d="M82.8215 57.6736C83.3814 62.0296 87.4069 65.1036 91.8137 64.5416C96.2194 63.9786 99.3379 59.9916 98.778 55.6356C98.2181 51.2796 94.1926 48.2056 89.7859 48.7676C85.3791 49.3306 82.2616 53.3176 82.8215 57.6736Z" fill="#F2DDD6"/>
<path d="M94.8336 57.1446C94.8306 57.0996 94.8246 57.0536 94.8206 57.0086C94.8095 56.8856 94.8366 57.0936 94.8125 56.9506C94.8005 56.8766 94.7885 56.8016 94.7744 56.7276C94.7002 56.3346 94.5878 55.9496 94.4403 55.5786C94.2968 55.2186 93.9767 54.6685 93.6838 54.3465C93.2985 53.9225 92.8369 53.6116 92.284 53.4356C91.4041 53.1556 90.4639 53.2336 89.577 53.4416C89.0582 53.5626 88.8365 52.7666 89.3562 52.6456C90.9867 52.2646 92.7677 52.3476 94.048 53.5396C94.8366 54.2746 95.3162 55.3126 95.541 56.3526C95.5971 56.6126 95.6443 56.8796 95.6614 57.1446C95.6965 57.6756 94.8677 57.6736 94.8336 57.1446Z" fill="#2A1302"/>
<path d="M113.73 92.5646L92.4206 92.2357C90.8193 92.2107 89.541 90.8967 89.5651 89.3007L89.6804 81.8236C89.7055 80.2276 91.024 78.9527 92.6253 78.9777L113.935 79.3067C115.536 79.3317 116.814 80.6456 116.79 82.2416L116.674 89.7187C116.65 91.3157 115.331 92.5896 113.73 92.5646Z" fill="#6B4564" stroke="#C6A8C4" stroke-miterlimit="10"/>
<path d="M113.581 79.3477V92.6057" stroke="#C6A8C4" stroke-miterlimit="10"/>
<path d="M110.609 79.3477V92.6057" stroke="#C6A8C4" stroke-miterlimit="10"/>
<path d="M107.637 79.3477V92.6057" stroke="#C6A8C4" stroke-miterlimit="10"/>
<path d="M104.664 79.2227V92.4807" stroke="#C6A8C4" stroke-miterlimit="10"/>
<path d="M101.692 79.1768V92.4348" stroke="#C6A8C4" stroke-miterlimit="10"/>
<path d="M98.7197 79.1257V92.3837" stroke="#C6A8C4" stroke-miterlimit="10"/>
<path d="M95.7467 79.0767V92.3347" stroke="#C6A8C4" stroke-miterlimit="10"/>
<path d="M92.7749 79.0127V92.2707" stroke="#C6A8C4" stroke-miterlimit="10"/>
</svg>
