<svg width="40" height="40" viewBox="0 0 40 40" fill="none" xmlns="http://www.w3.org/2000/svg">
<path d="M39.9905 28.9583C40.0395 29.556 39.8896 30.1211 39.7425 30.6684C39.6243 31.1093 39.5147 31.5264 39.5032 31.9466C39.4974 32.2543 39.5435 32.5679 39.5954 32.8992C39.6675 33.3756 39.7425 33.8667 39.6502 34.3697C39.5349 34.991 39.1802 35.5768 38.5659 36.1597C36.7665 37.8698 34.2489 38.3639 31.6074 38.7574C27.1923 39.4142 22.8609 40 18.4632 40C18.1748 40 17.8864 39.997 17.5952 39.9911C12.338 39.8964 7.71535 38.8787 3.86263 36.9644C2.76391 36.4171 1.53254 35.704 0.730852 34.5324C-0.140047 33.2632 -0.243863 31.6122 0.479964 30.5175C0.615502 30.3134 0.771225 30.1329 0.924065 29.9584C1.15188 29.698 1.36528 29.4524 1.47775 29.1625C1.65654 28.7039 1.56426 28.1802 1.46621 27.624C1.40277 27.263 1.33644 26.8873 1.34221 26.5056C1.35663 25.621 1.84687 24.7659 2.65144 24.2156C3.38969 23.7097 4.26059 23.5618 5.01902 23.7955C5.39968 21.0824 6.28788 18.4374 7.64037 16.0853C9.62729 12.6296 12.5543 9.9431 16.3378 8.09691C16.3955 7.68862 16.5685 7.29808 16.8367 6.9963C16.779 6.99038 16.7214 6.9815 16.6637 6.97558C16.1561 6.91345 15.5794 6.8454 15.2218 6.36019C15.0113 6.07616 14.945 5.70632 15.0372 5.32466C15.1497 4.84832 15.5015 4.40452 15.9312 4.19446C16.3782 3.97552 16.8656 3.94593 17.327 3.97552C17.0386 3.43704 17.0011 2.74768 17.2866 2.18554C17.699 1.38374 18.6968 0.966573 19.559 1.23285C19.9829 1.36599 20.352 1.65298 20.6116 2.02577C20.6952 1.61748 20.8279 1.20918 21.0701 0.845269C21.4652 0.247622 22.287 -0.216885 23.0282 0.105607C23.7059 0.401472 23.9712 1.18551 23.9193 1.91038C23.9308 1.91038 23.9423 1.91038 23.9539 1.91038C24.5047 1.91038 25.067 2.10565 25.5457 2.47252C26.1484 2.93703 26.5348 3.60864 26.6041 4.31576C26.6704 5.02288 26.4195 5.75958 25.9119 6.33356C25.7533 6.51699 25.5717 6.6738 25.3813 6.80398C27.0972 7.17677 28.8159 8.28035 30.4943 10.0999C34.2807 14.2006 36.3195 19.822 36.1926 25.4346C36.9943 25.7275 37.819 26.0352 38.5371 26.5707C39.3878 27.2038 39.9155 28.0737 39.9905 28.9583ZM39.186 30.5146C39.3244 29.9939 39.457 29.4998 39.4167 29.0086C39.3561 28.2956 38.912 27.5826 38.1997 27.05C37.5941 26.6003 36.8789 26.3163 36.1695 26.0559C36.1234 26.9553 36.0225 27.8548 35.861 28.7483C36.1522 28.5915 36.4319 28.4258 36.7059 28.2512C36.8414 28.1654 37.0202 28.2068 37.1039 28.3459C37.1875 28.4849 37.1471 28.6684 37.0116 28.7542C36.579 29.0293 36.1176 29.2808 35.6447 29.5146C35.613 29.5412 35.5755 29.5589 35.5351 29.5708C35.4111 29.6299 35.2871 29.6921 35.1573 29.7512C35.1746 29.7512 35.189 29.7512 35.2035 29.7512C35.3246 29.7572 35.4515 29.7631 35.5726 29.7956C35.8783 29.8814 36.1436 30.1536 36.2762 30.5235C36.3916 30.843 36.4031 31.1803 36.4146 31.5057C36.4175 31.5678 36.3685 31.6182 36.3108 31.6211C36.3079 31.6211 36.3079 31.6211 36.3051 31.6211C36.2474 31.6211 36.2012 31.5738 36.1984 31.5146C36.1868 31.2069 36.1753 30.8874 36.0744 30.6004C35.9648 30.2986 35.7543 30.0767 35.5149 30.0116C35.4169 29.985 35.3073 29.9791 35.1948 29.9731C35.0535 29.9672 34.9122 29.9584 34.7796 29.911C33.8394 30.3075 32.8272 30.627 31.7487 30.8696C32.1351 30.9791 32.4437 31.3785 32.5908 31.7868C32.9455 32.772 32.7609 33.8904 32.6138 34.7898C32.6052 34.8431 32.559 34.8815 32.5071 34.8815C32.5014 34.8815 32.4956 34.8815 32.4898 34.8815C32.4293 34.8697 32.3889 34.8135 32.4004 34.7514C32.5504 33.8342 32.7205 32.7927 32.3889 31.8637C32.2274 31.414 31.8496 30.9939 31.4459 31.0678C31.3882 31.0797 31.3306 31.0383 31.3219 30.9791C31.3219 30.9761 31.3219 30.9702 31.3219 30.9673C30.5664 31.1211 29.7791 31.2394 28.963 31.3193C28.5391 31.3608 28.118 31.3903 27.697 31.411C28.0892 31.7483 28.3055 32.3193 28.3459 32.8371C28.3718 33.204 28.3401 33.5738 28.3112 33.9288C28.2853 34.2365 28.2565 34.5502 28.2709 34.8579C28.2709 34.92 28.2247 34.9703 28.1671 34.9733C28.1642 34.9733 28.1642 34.9733 28.1613 34.9733C28.1036 34.9733 28.0546 34.9259 28.0546 34.8667C28.0402 34.5472 28.069 34.2218 28.095 33.9111C28.1238 33.5649 28.1555 33.204 28.1296 32.8549C28.0834 32.2868 27.8124 31.6566 27.3077 31.4318C26.8434 31.4495 26.3791 31.4584 25.9119 31.4584C25.1679 31.4584 24.4153 31.4347 23.6511 31.3992C23.8241 31.8223 23.7549 32.343 23.7059 32.7158C23.6165 33.3845 23.5415 34.1685 23.6597 34.9318C23.6886 35.1212 23.7289 35.3105 23.7693 35.4999C23.8645 35.9466 23.9625 36.4082 23.9106 36.8757C23.8875 37.0709 23.8385 37.2632 23.7635 37.4437C23.7491 37.4851 23.7087 37.5118 23.6655 37.5118C23.6511 37.5118 23.6367 37.5088 23.6222 37.5029C23.5674 37.4792 23.5415 37.4141 23.5646 37.3579C23.6309 37.1952 23.6741 37.0266 23.6943 36.849C23.7434 36.42 23.654 35.9969 23.5559 35.5472C23.5155 35.3549 23.4752 35.1596 23.4463 34.9673C23.3223 34.1744 23.4002 33.3697 23.4925 32.6862C23.5588 32.1951 23.5963 31.7276 23.4088 31.3903C22.4803 31.343 21.5315 31.2809 20.551 31.2069C20.1358 31.1773 19.7234 31.1448 19.311 31.1122C19.4783 31.488 19.409 31.9791 19.3802 32.1773L18.8409 35.8964C18.8323 35.9496 18.7861 35.991 18.7342 35.991C18.7285 35.991 18.7227 35.991 18.7169 35.9881C18.6593 35.9792 18.6189 35.923 18.6275 35.8638L19.1668 32.1448C19.2389 31.6418 19.2014 31.2957 19.0486 31.0915C17.5375 30.9732 16.0408 30.8371 14.5585 30.6625C14.5585 30.6684 14.5557 30.6743 14.5528 30.6773C14.0654 31.346 13.7568 32.1714 13.6848 33.0028C13.6819 33.059 13.6328 33.1034 13.5781 33.1034C13.5752 33.1034 13.5723 33.1034 13.5694 33.1034C13.5088 33.0975 13.4656 33.0442 13.4714 32.9821C13.5406 32.1478 13.8434 31.3164 14.3192 30.6329C12.9811 30.4702 11.6575 30.272 10.3482 30.0205C9.94162 30.2365 9.61864 30.6122 9.47156 31.056C9.29565 31.5886 9.36775 32.1803 9.43408 32.7513C9.45715 32.9436 9.48022 33.1359 9.49752 33.3253C9.56096 34.1951 9.43984 35.0886 9.14282 35.9052C9.12551 35.9526 9.08514 35.9792 9.04188 35.9792C9.03035 35.9792 9.01593 35.9762 9.00439 35.9703C8.94672 35.9496 8.92076 35.8875 8.94095 35.8283C9.22644 35.0413 9.34468 34.1803 9.28124 33.343C9.26682 33.1566 9.24375 32.9673 9.22068 32.7779C9.14858 32.1833 9.0736 31.5679 9.26682 30.985C9.40524 30.5708 9.6792 30.2069 10.0281 29.9584C9.0563 29.7631 8.09312 29.5412 7.13859 29.2808C7.1011 29.2838 7.06362 29.2838 7.02901 29.2986C6.93096 29.337 6.85598 29.408 6.82138 29.4938C6.80408 29.5382 6.7637 29.5648 6.72045 29.5648C6.70891 29.5648 6.69449 29.5619 6.68296 29.556C6.67142 29.553 6.66277 29.5471 6.65412 29.5412C6.61663 29.5116 6.60221 29.4583 6.61951 29.414C6.65412 29.3222 6.71468 29.2483 6.79254 29.1861C6.11774 28.9968 5.4487 28.7867 4.78544 28.5559C4.47976 28.4494 4.17408 28.3193 3.94049 28.121C3.72709 28.1506 3.52523 28.2453 3.37239 28.3991C3.3522 28.4198 3.32625 28.4287 3.29741 28.4287C3.26857 28.4287 3.24262 28.4199 3.21955 28.3962C3.17917 28.3518 3.17917 28.2808 3.22243 28.2394C3.3695 28.0914 3.55695 27.9849 3.75593 27.9287C3.6896 27.8459 3.63193 27.7542 3.58867 27.6476C3.52811 27.4968 3.59732 27.3222 3.74439 27.2601C3.89147 27.1979 4.05873 27.2689 4.12217 27.4198C4.2231 27.6743 4.52013 27.8281 4.84599 27.9494C4.77678 26.766 4.81139 25.5736 4.94404 24.3902C4.3298 24.1653 3.59732 24.2778 2.97154 24.7068C2.32269 25.1506 1.9305 25.8251 1.91897 26.5174C1.91608 26.8399 1.97376 27.1683 2.03432 27.5204C2.14102 28.1329 2.25348 28.766 2.01413 29.3814C1.86417 29.769 1.60463 30.0649 1.35375 30.3548C1.20956 30.5205 1.07114 30.6803 0.95867 30.8519C0.266565 31.8963 0.601083 33.3164 1.20091 34.1922C1.35663 34.417 1.53254 34.6212 1.71999 34.8105C1.48063 34.0265 1.51812 33.1478 1.86417 32.4051C1.97376 32.1714 2.10929 31.9495 2.23906 31.7395C2.3573 31.5471 2.47842 31.3519 2.57647 31.1477C2.82159 30.6448 2.93982 30.0826 2.91964 29.5234C2.91675 29.4613 2.96289 29.411 3.02345 29.408C3.08113 29.414 3.13303 29.4524 3.13592 29.5146C3.15899 30.1122 3.0321 30.7128 2.76968 31.2483C2.66875 31.4613 2.54186 31.6625 2.42363 31.8578C2.29386 32.0649 2.1612 32.2779 2.06027 32.4998C1.67673 33.3253 1.69692 34.3223 2.07757 35.1478C2.70335 35.6863 3.43295 36.0946 4.11352 36.4319C4.48841 36.6183 4.87483 36.7928 5.26703 36.9615C4.94404 36.2691 5.06228 35.4407 5.18051 34.9555C5.25549 34.6537 5.35354 34.3549 5.44582 34.065C5.60443 33.5827 5.76592 33.0827 5.81494 32.5738C5.83801 32.3282 5.83513 32.0708 5.83513 31.8223C5.82936 31.2424 5.82648 30.6448 6.12062 30.1329C6.14081 30.1004 6.1783 30.0797 6.21579 30.0797C6.23597 30.0797 6.25328 30.0856 6.27058 30.0944C6.3196 30.127 6.3369 30.195 6.30807 30.2483C6.04276 30.7039 6.04564 31.2454 6.05141 31.8193C6.05141 32.0738 6.0543 32.3401 6.03123 32.5945C5.97932 33.1271 5.81206 33.6389 5.65057 34.136C5.55829 34.42 5.46312 34.7159 5.39103 35.0088C5.2901 35.423 5.12284 36.4112 5.59866 37.1064C6.657 37.5473 7.77014 37.923 8.92942 38.2366C8.7189 37.7958 8.67564 37.2692 8.84867 36.8076C8.86597 36.7632 8.90635 36.7366 8.9496 36.7366C8.96402 36.7366 8.97844 36.7396 8.98997 36.7455C9.04477 36.7662 9.0736 36.8313 9.05053 36.8875C8.87462 37.355 8.95249 37.8994 9.22068 38.3136C10.5587 38.6627 11.9603 38.926 13.4252 39.1094C13.3474 38.8698 13.356 38.6094 13.3675 38.3964L13.4512 36.7632C13.4541 36.7011 13.5088 36.6478 13.5665 36.6597C13.6242 36.6626 13.6703 36.7129 13.6675 36.7751L13.5838 38.4082C13.5723 38.6301 13.5579 38.8787 13.6444 39.0887C13.653 39.1065 13.6617 39.1213 13.6703 39.139C14.9363 39.287 16.2484 39.3757 17.6067 39.3994C17.748 39.4024 17.8893 39.3994 18.0306 39.3994C18.4776 39.0444 18.6823 38.3935 18.4949 37.8431C18.4747 37.784 18.5035 37.7218 18.5612 37.7011C18.5728 37.6952 18.5872 37.6952 18.5987 37.6952C18.642 37.6952 18.6852 37.7218 18.6996 37.7692C18.8871 38.3254 18.7314 38.9704 18.3478 39.3994C19.8791 39.4053 21.4075 39.3432 22.933 39.2219C23.207 39 23.3915 38.6627 23.429 38.3077C23.4348 38.2455 23.4838 38.2071 23.5473 38.2071C23.6049 38.213 23.6482 38.2692 23.6424 38.3313C23.6107 38.6449 23.4752 38.9497 23.2733 39.1923C24.7786 39.068 26.284 38.8964 27.7951 38.6982C27.7922 38.6656 27.8008 38.6361 27.8239 38.6124C28.2478 38.1923 28.4122 37.5266 28.2305 36.9526C28.2103 36.8934 28.242 36.8313 28.2997 36.8106C28.3112 36.8076 28.3199 36.8047 28.3314 36.8047C28.3776 36.8047 28.4208 36.8372 28.4353 36.8816C28.6285 37.4911 28.4785 38.1863 28.069 38.6627C29.2168 38.5118 30.3674 38.3432 31.5238 38.1715C31.7343 38.139 31.9448 38.1065 32.1524 38.0739C32.3428 37.9201 32.4696 37.6834 32.4754 37.4319C32.4754 37.3727 32.5389 37.3224 32.585 37.3224C32.6456 37.3254 32.6917 37.3757 32.6917 37.4378C32.6859 37.6479 32.6138 37.8491 32.4956 38.0177C33.9721 37.7721 35.3736 37.4437 36.5819 36.8313C36.6857 36.6331 36.7001 36.3283 36.628 35.9082L36.2157 33.5324C36.2041 33.4732 36.2445 33.414 36.3022 33.4052C36.3079 33.4052 36.3166 33.4022 36.3224 33.4022C36.3714 33.4022 36.4175 33.4407 36.4262 33.4939L36.8386 35.8697C36.8674 36.0236 36.9251 36.3668 36.8587 36.6833C37.3346 36.4171 37.7758 36.1035 38.1766 35.7248C38.6871 35.2366 38.9927 34.7454 39.0821 34.2602C39.1571 33.8578 39.0937 33.4377 39.0245 32.991C38.9726 32.6478 38.9206 32.2927 38.9264 31.9318C38.9408 31.4377 39.0648 30.9673 39.186 30.5146ZM35.2092 29.0737C36.5444 22.4907 34.5834 15.39 30.0761 10.5053C28.3285 8.61468 26.5579 7.53773 24.8103 7.30104C24.7959 7.30104 24.7815 7.29216 24.7671 7.28624C24.9718 7.63832 25.0584 8.06436 25.0612 8.50224C28.1411 9.89576 30.5433 12.8367 31.3334 16.1947C31.3479 16.2539 31.3133 16.3131 31.2556 16.3279C31.2469 16.3308 31.2383 16.3308 31.2296 16.3308C31.1806 16.3308 31.1373 16.2983 31.1258 16.248C30.3558 12.9846 28.0344 10.1265 25.0526 8.74485C25.0353 9.0348 24.9891 9.32475 24.917 9.58807C24.7873 10.0644 24.6114 10.4609 24.3951 10.7686C24.9863 11.6828 25.3121 12.7183 25.5515 13.6237C26.1196 15.7923 26.3935 18.0291 26.3647 20.2717C26.3647 20.3339 26.3157 20.3812 26.258 20.3812C26.2551 20.3812 26.2551 20.3812 26.2551 20.3812C26.1946 20.3812 26.1484 20.3309 26.1484 20.2688C26.1773 18.0468 25.9062 15.8308 25.341 13.6828C25.1131 12.813 24.8046 11.8248 24.2538 10.949C24.075 11.1562 23.8731 11.3159 23.6453 11.4224C23.4146 11.5289 23.1753 11.5763 22.9417 11.5763C22.2726 11.5763 21.6267 11.1917 21.2258 10.7272C21.1105 10.5911 21.0095 10.4431 20.9173 10.2952C20.5308 11.3307 20.2223 12.4047 20.0118 13.4935C20.0031 13.5467 19.957 13.5822 19.9051 13.5822C19.8993 13.5822 19.8935 13.5822 19.8849 13.5793C19.8272 13.5674 19.7897 13.5112 19.8012 13.4491C20.0233 12.2923 20.3549 11.1502 20.776 10.0526C20.6404 9.79518 20.5279 9.52593 20.4328 9.25966C20.081 9.85434 19.5013 10.2981 18.8496 10.4254C18.1661 10.5615 17.4481 10.3248 16.9492 9.86027C14.8008 12.8426 13.3214 16.3397 12.6726 19.9907C12.6639 20.0439 12.6178 20.0794 12.5659 20.0794C12.5601 20.0794 12.5543 20.0794 12.5486 20.0794C12.488 20.0676 12.4505 20.0114 12.4592 19.9492C13.1167 16.2539 14.6162 12.7154 16.7935 9.69754C16.655 9.53777 16.5368 9.35434 16.4561 9.15611C16.4013 9.02593 16.3667 8.88983 16.3436 8.75078C12.785 10.5408 10.0224 13.1059 8.13638 16.387C6.12351 19.8842 5.16321 24.044 5.42852 28.0944C5.4314 28.1122 5.42563 28.1299 5.42275 28.1447C7.57116 28.8607 9.77436 29.3548 12.0237 29.7128C11.943 27.6299 11.9487 25.5233 12.0497 23.4493C12.0525 23.3872 12.0958 23.3458 12.1621 23.3428C12.2227 23.3458 12.2688 23.399 12.2659 23.4582C12.165 25.5441 12.1592 27.6565 12.2429 29.7483C14.1663 30.0471 16.1215 30.2542 18.1027 30.4229C17.9787 25.121 18.4834 19.8102 19.608 14.6355C19.6196 14.5763 19.6744 14.5408 19.7378 14.5527C19.7955 14.5645 19.8301 14.6237 19.8185 14.6858C18.6968 19.8487 18.1921 25.1506 18.319 30.4406C19.0745 30.5027 19.833 30.5619 20.5943 30.6181C22.1977 30.7365 23.7174 30.8341 25.1997 30.8578C25.1997 30.8489 25.1997 30.84 25.2025 30.8282C25.7332 28.3133 25.984 25.7334 25.9466 23.1594C25.9466 23.1002 25.9956 23.0499 26.0561 23.0469C26.1167 23.0469 26.1628 23.0972 26.1628 23.1564C26.2003 25.7423 25.9494 28.3341 25.4159 30.8607C26.4772 30.8755 27.524 30.8459 28.5679 30.7572C28.49 30.4672 28.3574 30.1921 28.1815 29.9524C28.144 29.9021 28.1526 29.8341 28.2017 29.7956C28.2478 29.7601 28.317 29.769 28.3516 29.8193C28.5564 30.0915 28.7006 30.4081 28.7871 30.7394C28.8274 30.7365 28.8678 30.7335 28.9082 30.7306C28.9399 30.7276 28.9745 30.7217 29.0091 30.7187C28.9399 30.4229 28.8044 30.1447 28.6112 29.911C28.5737 29.8637 28.5794 29.7956 28.6256 29.7542C28.6688 29.7157 28.738 29.7217 28.7784 29.769C28.9947 30.0323 29.1504 30.3518 29.2254 30.6921C29.3667 30.6773 29.508 30.6595 29.6493 30.6418C29.6061 30.6388 29.5657 30.6092 29.5513 30.5649L29.2196 29.4761C29.2023 29.4199 29.2341 29.3577 29.2917 29.337C29.3494 29.3222 29.41 29.3518 29.4273 29.411L29.756 30.4998C29.7733 30.556 29.7445 30.6181 29.6868 30.6359C30.4308 30.5382 31.1431 30.4081 31.8294 30.2483C32.5071 26.8488 32.5389 23.2541 31.9217 19.8487C31.9102 19.7865 31.9477 19.7303 32.0082 19.7185C32.0659 19.7066 32.1236 19.7481 32.1322 19.8072C32.7523 23.2097 32.7234 26.7985 32.0602 30.195C32.8532 29.9968 33.6059 29.7512 34.3181 29.4643L33.8625 29.0293C33.8193 28.9879 33.8164 28.9169 33.8567 28.8725C33.8971 28.8281 33.9663 28.8252 34.0096 28.8666L34.5402 29.3725C34.6094 29.3429 34.6786 29.3134 34.7478 29.2838L34.1999 28.7276C34.1567 28.6861 34.1567 28.6151 34.1999 28.5707C34.2403 28.5264 34.3095 28.5293 34.3527 28.5707L34.9641 29.1921C35.0477 29.1536 35.1285 29.1151 35.2092 29.0737ZM25.4852 5.94006C25.8831 5.48739 26.0792 4.91637 26.0302 4.37494C25.9783 3.83055 25.6755 3.31278 25.1997 2.94591C24.7238 2.582 24.15 2.4311 23.6309 2.5317C23.5357 2.54945 23.4348 2.51691 23.3656 2.44294C23.2993 2.37193 23.2733 2.26542 23.2964 2.16778C23.4406 1.59085 23.2964 0.865978 22.8032 0.649997C22.362 0.460644 21.817 0.768342 21.5459 1.17664C21.2258 1.6589 21.1393 2.30092 21.0614 2.86898C21.0528 2.9252 21.0297 2.97549 20.998 3.01396C21.0095 3.0968 21.0153 3.17668 21.0153 3.25953C21.0182 3.42225 20.8884 3.55835 20.7298 3.55835C20.5683 3.54947 20.4414 3.43113 20.4386 3.2684C20.4299 2.61454 19.98 1.98435 19.3917 1.80091C18.7948 1.61452 18.0796 1.91038 17.797 2.46069C17.5144 3.01692 17.7076 3.78912 18.2123 4.11162C18.3305 4.18854 18.3795 4.33351 18.3305 4.46665C18.2844 4.59683 18.1517 4.67672 18.0191 4.65601C17.4452 4.56725 16.7329 4.45778 16.1763 4.72997C15.9024 4.86311 15.6688 5.15898 15.5967 5.46372C15.5621 5.61165 15.5477 5.82171 15.6832 6.00515C15.8908 6.28622 16.2802 6.33356 16.7329 6.38681C17.0242 6.42232 17.327 6.45782 17.6125 6.56729C17.722 6.60871 17.7941 6.71227 17.7999 6.83357C17.8028 6.95192 17.7365 7.06435 17.6326 7.11168C17.0213 7.40163 16.7127 8.26556 16.9867 8.92534C17.2318 9.52298 17.8922 9.90465 18.5439 9.86618C18.2844 9.46972 18.0883 9.02297 17.9787 8.56142C17.9672 8.50225 18.0018 8.44011 18.0594 8.42828C18.12 8.41348 18.1777 8.44899 18.1892 8.50817C18.2988 8.98155 18.5064 9.43718 18.7833 9.83363C18.8957 9.80701 19.0024 9.76855 19.1091 9.71825C18.8755 9.32771 18.6852 8.91054 18.5468 8.47562C18.5266 8.41644 18.5583 8.35431 18.616 8.3336C18.6708 8.31585 18.7314 8.3484 18.7515 8.40461C18.8871 8.83066 19.0716 9.23599 19.2995 9.6147C19.7378 9.33954 20.0723 8.87208 20.1761 8.3336C20.205 8.20046 20.3145 8.10283 20.4443 8.09395C20.4501 8.09395 20.4559 8.09395 20.4587 8.09395C20.5856 8.09395 20.6981 8.17975 20.7356 8.30402C20.9432 8.99338 21.1797 9.77742 21.6584 10.3366C21.9006 10.6147 22.2467 10.8425 22.6129 10.9343C22.6273 10.5674 22.6158 10.2005 22.5725 9.83363C22.5668 9.77446 22.6071 9.71825 22.6677 9.71234C22.7283 9.70346 22.7802 9.74783 22.7888 9.80701C22.835 10.1946 22.8465 10.5822 22.8292 10.9727C22.9417 10.9816 23.0541 10.9816 23.1666 10.9609L23.1435 9.9224C23.1435 9.86027 23.1897 9.80997 23.2502 9.80701H23.2531C23.3108 9.80701 23.3598 9.8573 23.3598 9.91648L23.38 10.8928C23.3886 10.8899 23.3973 10.8869 23.406 10.884C23.8299 10.6857 24.1528 10.1975 24.3605 9.4283C24.5941 8.57029 24.5393 7.55548 23.8933 7.2182C23.7751 7.15606 23.7145 7.017 23.7462 6.88682C23.7751 6.75368 23.8904 6.65901 24.0231 6.65901C24.5537 6.65309 25.0872 6.39273 25.4852 5.94006Z" fill="#665151"/>
<path d="M39.4167 29.0086C39.457 29.4998 39.3244 29.9939 39.186 30.5146C39.0649 30.9672 38.9409 31.4377 38.9264 31.9318C38.9207 32.2927 38.9726 32.6478 39.0245 32.991C39.0937 33.4377 39.1571 33.8578 39.0822 34.2602C38.9928 34.7454 38.6871 35.2366 38.1767 35.7247C37.7758 36.1035 37.3346 36.4171 36.8588 36.6833C36.9251 36.3668 36.8674 36.0236 36.8386 35.8697L36.4262 33.4939C36.4176 33.4407 36.3714 33.4022 36.3224 33.4022L36.3339 32.6625C36.3945 32.6625 36.4435 32.6152 36.4435 32.5531V32.4051C36.4435 32.343 36.3945 32.2927 36.3339 32.2927L36.3109 31.6211C36.3685 31.6181 36.4176 31.5678 36.4147 31.5057C36.4031 31.1803 36.3916 30.843 36.2762 30.5235C36.1436 30.1536 35.8783 29.8814 35.5726 29.7956C35.4515 29.7631 35.3246 29.7572 35.2035 29.7512C35.1891 29.7512 35.1747 29.7512 35.1573 29.7512C35.2871 29.6921 35.4111 29.6299 35.5351 29.5708C35.5755 29.5589 35.613 29.5412 35.6447 29.5146C36.1176 29.2808 36.579 29.0293 37.0116 28.7542C37.1471 28.6684 37.1875 28.4849 37.1039 28.3459C37.0203 28.2068 36.8415 28.1654 36.7059 28.2512C36.432 28.4258 36.1523 28.5915 35.861 28.7483C36.0225 27.8548 36.1234 26.9553 36.1696 26.0559C36.879 26.3163 37.5941 26.6003 38.1997 27.05C38.912 27.5826 39.3561 28.2956 39.4167 29.0086Z" fill="#A07CA0"/>
<path d="M36.6281 35.9082C36.7002 36.3283 36.6857 36.6331 36.5819 36.8313C35.3736 37.4437 33.9721 37.7721 32.4956 38.0177C32.6139 37.8491 32.6859 37.6479 32.6917 37.4378C32.6917 37.3757 32.6456 37.3254 32.585 37.3224C32.5389 37.3224 32.4754 37.3727 32.4754 37.4319C32.4697 37.6834 32.3428 37.9201 32.1525 38.0739C31.9448 38.1065 31.7343 38.139 31.5238 38.1715C30.3674 38.3431 29.2168 38.5118 28.069 38.6627C28.4785 38.1863 28.6285 37.4911 28.4353 36.8816C28.4209 36.8372 28.3776 36.8047 28.3315 36.8047L28.2594 36.068C28.2795 36.068 28.3026 36.062 28.3199 36.0472C28.3689 36.0117 28.3805 35.9437 28.3459 35.8934C28.2853 35.8046 28.2882 35.6715 28.3516 35.5857C28.3891 35.5384 28.3805 35.4674 28.3343 35.4318C28.3084 35.4111 28.2738 35.4023 28.2421 35.4111L28.1671 34.9733C28.2248 34.9703 28.2709 34.92 28.2709 34.8579C28.2565 34.5502 28.2853 34.2365 28.3113 33.9288C28.3401 33.5738 28.3718 33.204 28.3459 32.8371C28.3055 32.3193 28.0892 31.7483 27.697 31.411C28.1181 31.3903 28.5391 31.3608 28.963 31.3193C29.7791 31.2394 30.5664 31.1211 31.3219 30.9672C31.3219 30.9702 31.3219 30.9761 31.3219 30.9791C31.3306 31.0383 31.3882 31.0797 31.4459 31.0678C31.8497 30.9939 32.2274 31.414 32.3889 31.8637C32.7206 32.7927 32.5504 33.8342 32.4005 34.7514C32.3889 34.8135 32.4293 34.8697 32.4899 34.8815C32.4956 34.8815 32.5014 34.8815 32.5072 34.8815C32.5591 34.8815 32.6052 34.8431 32.6139 34.7898C32.7609 33.8904 32.9455 32.772 32.5908 31.7868C32.4437 31.3785 32.1351 30.9791 31.7487 30.8696C32.8273 30.627 33.8395 30.3075 34.7796 29.911C34.9122 29.9583 35.0535 29.9672 35.1948 29.9731C35.3073 29.9791 35.4169 29.985 35.5149 30.0116C35.7543 30.0767 35.9648 30.2986 36.0744 30.6004C36.1753 30.8874 36.1868 31.2069 36.1984 31.5146C36.2013 31.5738 36.2474 31.6211 36.3051 31.6211C36.308 31.6211 36.308 31.6211 36.3109 31.6211L36.3339 32.2927C36.2762 32.2927 36.2272 32.343 36.2272 32.4051V32.5531C36.2272 32.6152 36.2762 32.6625 36.3339 32.6625L36.3224 33.4022C36.3166 33.4022 36.308 33.4052 36.3022 33.4052C36.2445 33.414 36.2042 33.4732 36.2157 33.5324L36.6281 35.9082ZM32.5591 36.2188C32.6398 35.9881 32.6571 35.7366 32.6139 35.494C32.6023 35.4318 32.5475 35.3934 32.487 35.4023C32.4293 35.4141 32.3918 35.4733 32.4005 35.5324C32.4379 35.7366 32.4235 35.9496 32.3543 36.1449C32.3341 36.2041 32.363 36.2662 32.4206 36.2869C32.4322 36.2928 32.4437 36.2928 32.4552 36.2928C32.5014 36.2928 32.5418 36.2662 32.5591 36.2188Z" fill="#A07CA0"/>
<path d="M36.4435 32.4052V32.5531C36.4435 32.6152 36.3944 32.6626 36.3339 32.6626C36.2762 32.6626 36.2272 32.6152 36.2272 32.5531V32.4052C36.2272 32.343 36.2762 32.2927 36.3339 32.2927C36.3944 32.2927 36.4435 32.343 36.4435 32.4052Z" fill="#665151"/>
<path d="M30.0761 10.5052C34.5834 15.39 36.5444 22.4907 35.2092 29.0737C35.1285 29.1151 35.0477 29.1536 34.9641 29.1921L34.3527 28.5707C34.3095 28.5293 34.2403 28.5264 34.1999 28.5707C34.1566 28.6151 34.1566 28.6861 34.1999 28.7276L34.7478 29.2838C34.6786 29.3134 34.6094 29.3429 34.5402 29.3725L34.0095 28.8666C33.9663 28.8252 33.8971 28.8281 33.8567 28.8725C33.8163 28.9169 33.8192 28.9879 33.8625 29.0293L34.3181 29.4643C33.6058 29.7512 32.8532 29.9968 32.0601 30.195C32.7234 26.7985 32.7522 23.2097 32.1322 19.8072C32.1236 19.7481 32.0659 19.7066 32.0082 19.7185C31.9477 19.7303 31.9102 19.7865 31.9217 19.8486C32.5388 23.2541 32.5071 26.8488 31.8294 30.2483C31.1431 30.4081 30.4308 30.5382 29.6868 30.6359C29.7445 30.6181 29.7733 30.556 29.756 30.4998L29.4272 29.411C29.4099 29.3518 29.3494 29.3222 29.2917 29.337C29.234 29.3577 29.2023 29.4199 29.2196 29.4761L29.5512 30.5649C29.5657 30.6092 29.606 30.6388 29.6493 30.6418C29.508 30.6595 29.3667 30.6773 29.2254 30.6921C29.1504 30.3518 28.9947 30.0323 28.7784 29.769C28.738 29.7217 28.6688 29.7157 28.6255 29.7542C28.5794 29.7956 28.5736 29.8637 28.6111 29.911C28.8043 30.1447 28.9399 30.4229 29.0091 30.7187C28.9745 30.7217 28.9399 30.7276 28.9082 30.7306C28.8678 30.7335 28.8274 30.7365 28.787 30.7394C28.7005 30.4081 28.5563 30.0915 28.3516 29.8193C28.317 29.769 28.2478 29.7601 28.2016 29.7956C28.1526 29.8341 28.144 29.9021 28.1814 29.9524C28.3574 30.1921 28.49 30.4672 28.5679 30.7572C27.5239 30.8459 26.4771 30.8755 25.4159 30.8607C25.9494 28.334 26.2003 25.7423 26.1628 23.1564C26.1628 23.0972 26.1167 23.0469 26.0561 23.0469C25.9955 23.0499 25.9465 23.1002 25.9465 23.1594C25.984 25.7334 25.7331 28.3133 25.2025 30.8282C25.1996 30.84 25.1996 30.8489 25.1996 30.8578C23.7174 30.8341 22.1976 30.7365 20.5942 30.6181C19.8329 30.5619 19.0745 30.5027 18.3189 30.4406C18.1921 25.1505 18.6967 19.8487 19.8185 14.6858C19.83 14.6237 19.7954 14.5645 19.7378 14.5527C19.6743 14.5408 19.6195 14.5763 19.608 14.6355C18.4833 19.8102 17.9787 25.121 18.1027 30.4229C16.1215 30.2542 14.1663 30.0471 12.2428 29.7483C12.1592 27.6565 12.165 25.544 12.2659 23.4582C12.2688 23.399 12.2227 23.3458 12.1621 23.3428C12.0958 23.3458 12.0525 23.3872 12.0496 23.4493C11.9487 25.5233 11.9429 27.6299 12.0237 29.7128C9.77433 29.3548 7.57113 28.8607 5.42272 28.1447C5.4256 28.1299 5.43137 28.1121 5.42849 28.0944C5.16318 24.044 6.12348 19.8842 8.13635 16.387C10.0223 13.1059 12.785 10.5408 16.3436 8.75077C16.3666 8.88983 16.4012 9.02593 16.456 9.15611C16.5368 9.35434 16.655 9.53777 16.7934 9.69753C14.6162 12.7154 13.1166 16.2539 12.4591 19.9492C12.4505 20.0114 12.488 20.0676 12.5485 20.0794C12.5543 20.0794 12.5601 20.0794 12.5658 20.0794C12.6177 20.0794 12.6639 20.0439 12.6725 19.9907C13.3214 16.3397 14.8007 12.8426 16.9492 9.86027C17.448 10.3248 18.1661 10.5615 18.8496 10.4254C19.5013 10.2981 20.0809 9.85434 20.4328 9.25965C20.5279 9.52593 20.6404 9.79517 20.7759 10.0526C20.3549 11.1502 20.0233 12.2923 19.8012 13.4491C19.7897 13.5112 19.8272 13.5674 19.8848 13.5793C19.8935 13.5822 19.8993 13.5822 19.905 13.5822C19.9569 13.5822 20.0031 13.5467 20.0117 13.4935C20.2222 12.4047 20.5308 11.3307 20.9172 10.2952C21.0095 10.4431 21.1104 10.591 21.2258 10.7271C21.6266 11.1917 22.2726 11.5763 22.9416 11.5763C23.1752 11.5763 23.4146 11.5289 23.6453 11.4224C23.8731 11.3159 24.075 11.1562 24.2538 10.949C24.8046 11.8248 25.1131 12.813 25.3409 13.6828C25.9062 15.8308 26.1772 18.0468 26.1484 20.2688C26.1484 20.3309 26.1945 20.3812 26.2551 20.3812C26.2551 20.3812 26.2551 20.3812 26.258 20.3812C26.3156 20.3812 26.3647 20.3339 26.3647 20.2717C26.3935 18.0291 26.1196 15.7923 25.5514 13.6237C25.3121 12.7183 24.9862 11.6828 24.3951 10.7686C24.6113 10.4609 24.7872 10.0644 24.917 9.58807C24.9891 9.32475 25.0353 9.0348 25.0526 8.74485C28.0344 10.1265 30.3558 12.9846 31.1258 16.248C31.1373 16.2983 31.1806 16.3308 31.2296 16.3308C31.2382 16.3308 31.2469 16.3308 31.2556 16.3279C31.3132 16.3131 31.3478 16.2539 31.3334 16.1947C30.5433 12.8367 28.1411 9.89576 25.0612 8.50224C25.0583 8.06436 24.9718 7.63832 24.7671 7.28624C24.7815 7.29216 24.7959 7.30103 24.8103 7.30103C26.5579 7.53773 28.3285 8.61467 30.0761 10.5052ZM34.7074 24.0085C34.7247 23.9493 34.6959 23.8872 34.6382 23.8665L34.494 23.8192C34.4392 23.7984 34.3758 23.831 34.3585 23.8872C34.3383 23.9464 34.37 24.0085 34.4248 24.0292L34.5719 24.0795C34.5805 24.0825 34.5921 24.0825 34.6036 24.0825C34.6498 24.0825 34.693 24.0558 34.7074 24.0085ZM34.471 26.1417C34.5142 26.1003 34.5171 26.0293 34.4767 25.9849C34.2749 25.7689 33.9173 25.7452 33.6923 25.9346C33.6462 25.9731 33.6375 26.0441 33.6779 26.0914C33.7154 26.1387 33.7846 26.1446 33.8279 26.1062C33.9663 25.9908 34.1941 26.0056 34.3181 26.1387C34.3383 26.1624 34.3671 26.1713 34.396 26.1713C34.4248 26.1713 34.4508 26.1624 34.471 26.1417ZM34.4364 25.3872C34.4796 25.3458 34.4825 25.2748 34.4421 25.2304C34.3325 25.1062 34.1537 25.0559 33.998 25.1032C33.9403 25.121 33.9086 25.1831 33.9259 25.2423C33.9432 25.2985 34.0009 25.334 34.0586 25.3162C34.1393 25.2926 34.2287 25.3192 34.2835 25.3784C34.3037 25.402 34.3354 25.4168 34.3643 25.4168C34.3902 25.4168 34.4162 25.405 34.4364 25.3872ZM31.7314 18.0172C31.7919 18.0172 31.8381 17.9699 31.841 17.9078C31.841 17.603 31.7516 17.2924 31.593 17.0379C31.5583 16.9847 31.492 16.9699 31.443 17.0024C31.3911 17.0379 31.3767 17.106 31.4084 17.1563C31.5468 17.3782 31.6247 17.6445 31.6247 17.9078C31.6218 17.9699 31.6708 18.0172 31.7314 18.0172ZM30.8749 22.8487C30.9326 22.8398 30.9729 22.7836 30.9643 22.7215C30.9354 22.544 30.8201 22.3813 30.6615 22.2984C30.6096 22.2718 30.5433 22.2955 30.5173 22.3487C30.4885 22.4049 30.5115 22.47 30.5663 22.4996C30.6615 22.5469 30.7336 22.6475 30.7509 22.757C30.7595 22.8132 30.8057 22.8517 30.8576 22.8517C30.8634 22.8517 30.8691 22.8517 30.8749 22.8487ZM30.6096 23.8872C30.6355 23.831 30.6096 23.7659 30.5548 23.7393C30.425 23.6801 30.3068 23.5825 30.226 23.4641C30.1914 23.4138 30.1251 23.402 30.0761 23.4375C30.0271 23.47 30.0155 23.541 30.0501 23.5913C30.1539 23.7452 30.2981 23.8665 30.4683 23.9434C30.4827 23.9493 30.4971 23.9523 30.5115 23.9523C30.5519 23.9523 30.5923 23.9286 30.6096 23.8872ZM28.7034 20.9167C28.7034 20.8546 28.6573 20.8043 28.5967 20.8043H28.4035C28.3458 20.8043 28.2968 20.8546 28.2968 20.9167C28.2968 20.9759 28.3458 21.0262 28.4035 21.0262H28.5967C28.6573 21.0262 28.7034 20.9759 28.7034 20.9167ZM28.4842 22.0262C28.5189 21.9759 28.5073 21.9049 28.4583 21.8724L28.0286 21.5676C27.9796 21.5351 27.9133 21.5469 27.8787 21.5972C27.8469 21.6475 27.8585 21.7156 27.9075 21.7511L28.3343 22.0528C28.3545 22.0676 28.3747 22.0736 28.3977 22.0736C28.4323 22.0736 28.4641 22.0558 28.4842 22.0262ZM26.2061 22.0499V21.6801C26.2061 21.6179 26.157 21.5676 26.0965 21.5676C26.0388 21.5676 25.9898 21.6179 25.9898 21.6801V22.0499C25.9898 22.112 26.0388 22.1594 26.0965 22.1594C26.157 22.1594 26.2061 22.112 26.2061 22.0499ZM22.9416 21.5469C22.9907 21.5114 22.9993 21.4404 22.9647 21.3931L22.8205 21.1948C22.783 21.1445 22.7167 21.1357 22.6677 21.1712C22.6215 21.2096 22.61 21.2777 22.6475 21.328L22.7917 21.5232C22.8119 21.5528 22.8436 21.5676 22.8782 21.5676C22.8984 21.5676 22.9215 21.5617 22.9416 21.5469ZM22.4543 22.9138C22.4687 22.8546 22.4341 22.7955 22.3735 22.7807L22.1832 22.7304C22.1226 22.7156 22.065 22.7511 22.0505 22.8103C22.0361 22.8724 22.0707 22.9316 22.1284 22.9464L22.3216 22.9967C22.3303 22.9967 22.3389 22.9996 22.3476 22.9996C22.3966 22.9996 22.4399 22.9641 22.4543 22.9138ZM22.437 24.186C22.4687 24.1328 22.4543 24.0647 22.4053 24.0322C22.2207 23.9079 22.0044 23.828 21.7852 23.8044C21.7189 23.8014 21.6699 23.8428 21.6641 23.902C21.6584 23.9641 21.7016 24.0174 21.7622 24.0263C21.9467 24.047 22.1313 24.1121 22.287 24.2186C22.3043 24.2304 22.3274 24.2363 22.3476 24.2363C22.3822 24.2363 22.4168 24.2186 22.437 24.186ZM16.8482 19.6149C16.8915 19.5705 16.8915 19.4995 16.8511 19.4581L16.704 19.3072C16.6637 19.2658 16.5945 19.2658 16.5512 19.3102C16.5108 19.3516 16.5108 19.4226 16.5512 19.467L16.6954 19.612C16.7185 19.6356 16.7444 19.6445 16.7732 19.6445C16.8021 19.6445 16.828 19.6356 16.8482 19.6149ZM16.3839 20.4848C16.4128 20.4315 16.3984 20.3635 16.3464 20.3309L16.1071 20.183C16.0552 20.1504 15.9889 20.1682 15.9571 20.2214C15.9254 20.2717 15.9427 20.3398 15.9946 20.3723L16.234 20.5203C16.2513 20.5321 16.2715 20.538 16.2917 20.538C16.3263 20.538 16.3638 20.5173 16.3839 20.4848ZM12.5745 20.9049C12.5947 20.8457 12.5658 20.7836 12.511 20.7629C12.4534 20.7422 12.3928 20.7717 12.3726 20.8309C12.2774 21.1031 12.2227 21.3871 12.2169 21.6771C12.214 21.7392 12.2601 21.7895 12.3207 21.7895H12.3236C12.3813 21.7895 12.4303 21.7422 12.4332 21.683C12.4389 21.4167 12.488 21.1564 12.5745 20.9049ZM10.3713 23.4493C10.4059 23.399 10.3972 23.331 10.3511 23.2925L10.1579 23.1446C10.1089 23.1061 10.0425 23.118 10.005 23.1683C9.97043 23.2156 9.97908 23.2866 10.0281 23.3221L10.2184 23.47C10.2386 23.4848 10.2617 23.4907 10.2848 23.4907C10.3165 23.4907 10.3511 23.476 10.3713 23.4493ZM10.1002 24.4996C10.1088 24.4405 10.0656 24.3843 10.0079 24.3754C9.94447 24.3695 9.8868 24.3132 9.87526 24.2482C9.86661 24.189 9.80894 24.1476 9.75126 24.1564C9.69359 24.1683 9.65321 24.2245 9.66187 24.2837C9.68782 24.4464 9.82336 24.5766 9.98196 24.5973C9.98485 24.5973 9.99062 24.5973 9.9935 24.5973C10.0483 24.5973 10.0944 24.5559 10.1002 24.4996Z" fill="#A998A1"/>
<path d="M34.6383 23.8665C34.6959 23.8872 34.7248 23.9494 34.7075 24.0085C34.6931 24.0559 34.6498 24.0825 34.6037 24.0825C34.5921 24.0825 34.5806 24.0825 34.5719 24.0795L34.4249 24.0292C34.3701 24.0085 34.3383 23.9464 34.3585 23.8872C34.3758 23.831 34.4393 23.7985 34.4941 23.8192L34.6383 23.8665Z" fill="#665151"/>
<path d="M34.4768 25.9849C34.5171 26.0293 34.5143 26.1003 34.471 26.1417C34.4508 26.1624 34.4249 26.1713 34.396 26.1713C34.3672 26.1713 34.3384 26.1624 34.3182 26.1387C34.1942 26.0056 33.9663 25.9908 33.8279 26.1062C33.7847 26.1447 33.7155 26.1387 33.678 26.0914C33.6376 26.0441 33.6462 25.9731 33.6924 25.9346C33.9173 25.7452 34.2749 25.7689 34.4768 25.9849Z" fill="#665151"/>
<path d="M34.4422 25.2304C34.4825 25.2748 34.4797 25.3458 34.4364 25.3872C34.4162 25.405 34.3903 25.4168 34.3643 25.4168C34.3355 25.4168 34.3038 25.402 34.2836 25.3784C34.2288 25.3192 34.1394 25.2926 34.0586 25.3162C34.001 25.334 33.9433 25.2985 33.926 25.2423C33.9087 25.1831 33.9404 25.121 33.9981 25.1032C34.1538 25.0559 34.3326 25.1062 34.4422 25.2304Z" fill="#665151"/>
<path d="M32.6139 35.494C32.6571 35.7366 32.6398 35.9881 32.5591 36.2189C32.5418 36.2662 32.5014 36.2928 32.4553 36.2928C32.4437 36.2928 32.4322 36.2928 32.4206 36.2869C32.363 36.2662 32.3341 36.2041 32.3543 36.1449C32.4235 35.9496 32.438 35.7366 32.4005 35.5325C32.3918 35.4733 32.4293 35.4141 32.487 35.4023C32.5475 35.3934 32.6023 35.4319 32.6139 35.494Z" fill="#665151"/>
<path d="M31.841 17.9078C31.8381 17.9699 31.792 18.0172 31.7314 18.0172C31.6709 18.0172 31.6218 17.9699 31.6247 17.9078C31.6247 17.6445 31.5469 17.3782 31.4085 17.1563C31.3767 17.106 31.3911 17.0379 31.4431 17.0024C31.4921 16.9699 31.5584 16.9847 31.593 17.0379C31.7516 17.2924 31.841 17.603 31.841 17.9078Z" fill="#665151"/>
<path d="M30.9643 22.7215C30.9729 22.7836 30.9326 22.8399 30.8749 22.8487C30.8691 22.8517 30.8634 22.8517 30.8576 22.8517C30.8057 22.8517 30.7595 22.8132 30.7509 22.757C30.7336 22.6475 30.6615 22.5469 30.5663 22.4996C30.5115 22.47 30.4885 22.4049 30.5173 22.3487C30.5433 22.2955 30.6096 22.2718 30.6615 22.2984C30.8201 22.3813 30.9355 22.544 30.9643 22.7215Z" fill="#665151"/>
<path d="M30.5548 23.7393C30.6096 23.7659 30.6356 23.831 30.6096 23.8872C30.5923 23.9286 30.5519 23.9523 30.5116 23.9523C30.4971 23.9523 30.4827 23.9493 30.4683 23.9434C30.2982 23.8665 30.154 23.7452 30.0502 23.5913C30.0156 23.541 30.0271 23.47 30.0761 23.4375C30.1251 23.402 30.1915 23.4138 30.2261 23.4641C30.3068 23.5825 30.4251 23.6801 30.5548 23.7393Z" fill="#665151"/>
<path d="M28.5967 20.8043C28.6573 20.8043 28.7034 20.8546 28.7034 20.9167C28.7034 20.9759 28.6573 21.0262 28.5967 21.0262H28.4035C28.3458 21.0262 28.2968 20.9759 28.2968 20.9167C28.2968 20.8546 28.3458 20.8043 28.4035 20.8043H28.5967Z" fill="#665151"/>
<path d="M28.4583 21.8724C28.5074 21.9049 28.5189 21.9759 28.4843 22.0262C28.4641 22.0558 28.4324 22.0736 28.3978 22.0736C28.3747 22.0736 28.3545 22.0676 28.3343 22.0528L27.9075 21.7511C27.8585 21.7156 27.847 21.6475 27.8787 21.5972C27.9133 21.5469 27.9796 21.5351 28.0287 21.5676L28.4583 21.8724Z" fill="#665151"/>
<path d="M28.3343 35.4318C28.3805 35.4673 28.3891 35.5383 28.3516 35.5857C28.2882 35.6715 28.2853 35.8046 28.3459 35.8934C28.3805 35.9437 28.3689 36.0117 28.3199 36.0472C28.3026 36.062 28.2796 36.0679 28.2594 36.0679C28.2248 36.0679 28.1902 36.0532 28.17 36.0206C28.0517 35.852 28.0575 35.6123 28.1815 35.4496C28.1959 35.4259 28.219 35.4141 28.2421 35.4111C28.2738 35.4023 28.3084 35.4111 28.3343 35.4318Z" fill="#665151"/>
<path d="M28.2594 36.068L28.3315 36.8047C28.3199 36.8047 28.3113 36.8076 28.2997 36.8106C28.2421 36.8313 28.2103 36.8934 28.2305 36.9526C28.4122 37.5266 28.2478 38.1923 27.8239 38.6124C27.8008 38.6361 27.7922 38.6656 27.7951 38.6982C26.284 38.8964 24.7786 39.068 23.2733 39.1923C23.4752 38.9497 23.6107 38.6449 23.6424 38.3313C23.6482 38.2692 23.605 38.213 23.5473 38.2071L23.6655 37.5118C23.7088 37.5118 23.7491 37.4851 23.7636 37.4437C23.8385 37.2633 23.8876 37.0709 23.9106 36.8757C23.9625 36.4082 23.8645 35.9467 23.7693 35.4999C23.729 35.3105 23.6886 35.1212 23.6597 34.9318C23.5415 34.1685 23.6165 33.3845 23.7059 32.7158C23.7549 32.343 23.8241 31.8223 23.6511 31.3992C24.4153 31.4347 25.168 31.4584 25.912 31.4584C26.3791 31.4584 26.8434 31.4495 27.3077 31.4318C27.8124 31.6566 28.0834 32.2868 28.1296 32.8549C28.1555 33.204 28.1238 33.5649 28.095 33.9111C28.069 34.2218 28.0402 34.5472 28.0546 34.8667C28.0546 34.9259 28.1036 34.9733 28.1613 34.9733C28.1642 34.9733 28.1642 34.9733 28.1671 34.9733L28.2421 35.4111C28.219 35.4141 28.1959 35.4259 28.1815 35.4496C28.0575 35.6123 28.0517 35.852 28.17 36.0206C28.1901 36.0532 28.2248 36.068 28.2594 36.068Z" fill="#A07CA0"/>
<path d="M26.2061 21.6801V22.0499C26.2061 22.112 26.1571 22.1594 26.0965 22.1594C26.0388 22.1594 25.9898 22.112 25.9898 22.0499V21.6801C25.9898 21.6179 26.0388 21.5676 26.0965 21.5676C26.1571 21.5676 26.2061 21.6179 26.2061 21.6801Z" fill="#665151"/>
<path d="M26.0302 4.37494C26.0792 4.91637 25.8831 5.48739 25.4852 5.94006C25.0872 6.39273 24.5537 6.6531 24.0231 6.65901C23.8904 6.65901 23.7751 6.75369 23.7462 6.88683C23.7145 7.01701 23.7751 7.15607 23.8933 7.2182C24.5393 7.55548 24.5941 8.57029 24.3605 9.4283C24.1529 10.1976 23.8299 10.6857 23.406 10.884C23.3973 10.8869 23.3887 10.8899 23.38 10.8928L23.3598 9.91648C23.3598 9.8573 23.3108 9.80701 23.2531 9.80701H23.2502C23.1897 9.80997 23.1435 9.86027 23.1435 9.9224L23.1666 10.9609C23.0541 10.9816 22.9417 10.9816 22.8292 10.9727C22.8465 10.5822 22.835 10.1946 22.7888 9.80701C22.7802 9.74784 22.7283 9.70346 22.6677 9.71234C22.6072 9.71826 22.5668 9.77446 22.5725 9.83364C22.6158 10.2005 22.6273 10.5674 22.6129 10.9343C22.2467 10.8425 21.9006 10.6147 21.6584 10.3366C21.1797 9.77742 20.9432 8.99338 20.7356 8.30402C20.6981 8.17976 20.5856 8.09395 20.4587 8.09395C20.4559 8.09395 20.4501 8.09395 20.4443 8.09395C20.3146 8.10283 20.205 8.20046 20.1761 8.3336C20.0723 8.87208 19.7378 9.33954 19.2995 9.6147C19.0717 9.23599 18.8871 8.83066 18.7516 8.40461C18.7314 8.3484 18.6708 8.31585 18.616 8.3336C18.5583 8.35431 18.5266 8.41644 18.5468 8.47562C18.6852 8.91054 18.8756 9.32771 19.1091 9.71825C19.0024 9.76855 18.8957 9.80701 18.7833 9.83364C18.5064 9.43718 18.2988 8.98155 18.1892 8.50817C18.1777 8.44899 18.12 8.41349 18.0594 8.42828C18.0018 8.44011 17.9672 8.50225 17.9787 8.56142C18.0883 9.02297 18.2844 9.46973 18.5439 9.86619C17.8922 9.90465 17.2318 9.52298 16.9867 8.92534C16.7127 8.26556 17.0213 7.40163 17.6327 7.11169C17.7365 7.06435 17.8028 6.95192 17.7999 6.83357C17.7941 6.71227 17.722 6.60871 17.6125 6.56729C17.327 6.45782 17.0242 6.42232 16.7329 6.38681C16.2802 6.33356 15.8909 6.28622 15.6832 6.00515C15.5477 5.82171 15.5621 5.61165 15.5967 5.46372C15.6688 5.15898 15.9024 4.86311 16.1763 4.72998C16.7329 4.45778 17.4452 4.56725 18.0191 4.65601C18.1517 4.67672 18.2844 4.59684 18.3305 4.46666C18.3795 4.33352 18.3305 4.18854 18.2123 4.11162C17.7076 3.78913 17.5144 3.01692 17.797 2.46069C18.0796 1.91039 18.7948 1.61452 19.3918 1.80091C19.98 1.98435 20.4299 2.61454 20.4386 3.2684C20.4414 3.43113 20.5683 3.54947 20.7298 3.55835C20.8884 3.55835 21.0182 3.42225 21.0153 3.25953C21.0153 3.17669 21.0095 3.0968 20.998 3.01396C21.0297 2.9755 21.0528 2.9252 21.0615 2.86898C21.1393 2.30092 21.2258 1.6589 21.5459 1.17664C21.817 0.768345 22.362 0.460646 22.8033 0.65C23.2964 0.865981 23.4406 1.59085 23.2964 2.16779C23.2733 2.26542 23.2993 2.37194 23.3656 2.44294C23.4348 2.51691 23.5357 2.54945 23.6309 2.5317C24.15 2.4311 24.7238 2.582 25.1997 2.94591C25.6755 3.31278 25.9783 3.83055 26.0302 4.37494ZM24.6056 5.18857C24.6344 5.13531 24.6171 5.07022 24.5652 5.03767L24.1356 4.78619C24.0836 4.75365 24.0202 4.77436 23.9885 4.82761C23.9596 4.88087 23.9769 4.94891 24.0289 4.9785L24.4585 5.22999C24.4758 5.24182 24.4931 5.24478 24.5133 5.24478C24.5508 5.24478 24.5854 5.22703 24.6056 5.18857ZM24.4845 5.81284C24.5306 5.77142 24.5364 5.70337 24.496 5.65603C24.3172 5.44596 24.0865 5.27732 23.8356 5.17081C23.7809 5.14714 23.7174 5.17377 23.6943 5.23294C23.6713 5.28916 23.6972 5.35425 23.752 5.37792C23.9741 5.46964 24.1759 5.61757 24.3317 5.801C24.3547 5.82763 24.3836 5.83947 24.4153 5.83947C24.4384 5.83947 24.4643 5.83059 24.4845 5.81284ZM21.2922 4.44594C21.3441 4.41932 21.3671 4.35127 21.3383 4.29801L21.2922 4.20038C21.2662 4.14416 21.1999 4.12345 21.148 4.15008C21.0932 4.17671 21.073 4.2418 21.0989 4.29801L21.1451 4.39565C21.1653 4.43707 21.2028 4.45778 21.2431 4.45778C21.2604 4.45778 21.2749 4.45482 21.2922 4.44594ZM20.2482 5.81875C20.2973 5.78029 20.3088 5.71224 20.2713 5.66195C20.1761 5.52881 20.0204 5.44005 19.8589 5.4223C19.7955 5.41638 19.7465 5.46076 19.7407 5.52289C19.7349 5.58206 19.7782 5.63828 19.8387 5.6442C19.9397 5.65307 20.0377 5.70928 20.0983 5.79509C20.1185 5.82467 20.1531 5.83947 20.1848 5.83947C20.2079 5.83947 20.2309 5.83355 20.2482 5.81875ZM20.2223 6.48741C20.2598 6.44007 20.254 6.36907 20.2079 6.3306L19.6311 5.83947C19.585 5.79805 19.5186 5.80396 19.4783 5.8513C19.4408 5.89864 19.4465 5.96965 19.4927 6.00811L20.0694 6.5022C20.0896 6.51995 20.1156 6.52883 20.1386 6.52883C20.1704 6.52883 20.2021 6.51404 20.2223 6.48741Z" fill="#A07CA0"/>
<path d="M24.5652 5.03766C24.6171 5.07021 24.6344 5.1353 24.6056 5.18856C24.5854 5.22702 24.5508 5.24477 24.5133 5.24477C24.4931 5.24477 24.4758 5.24181 24.4585 5.22998L24.0288 4.97849C23.9769 4.94891 23.9596 4.88086 23.9884 4.8276C24.0202 4.77435 24.0836 4.75364 24.1355 4.78618L24.5652 5.03766Z" fill="#665151"/>
<path d="M24.496 5.65602C24.5364 5.70336 24.5306 5.77141 24.4845 5.81283C24.4643 5.83058 24.4384 5.83946 24.4153 5.83946C24.3836 5.83946 24.3547 5.82762 24.3317 5.80099C24.1759 5.61756 23.9741 5.46963 23.752 5.37791C23.6972 5.35424 23.6713 5.28915 23.6943 5.23293C23.7174 5.17376 23.7809 5.14713 23.8356 5.1708C24.0865 5.27731 24.3172 5.44596 24.496 5.65602Z" fill="#665151"/>
<path d="M23.5559 35.5472C23.6539 35.9969 23.7433 36.42 23.6943 36.849C23.6741 37.0265 23.6308 37.1952 23.5645 37.3579C23.5415 37.4141 23.5674 37.4792 23.6222 37.5029C23.6366 37.5088 23.651 37.5118 23.6655 37.5118L23.5472 38.207C23.4838 38.207 23.4348 38.2455 23.429 38.3076C23.3915 38.6627 23.2069 39 22.933 39.2219C21.4075 39.3432 19.8791 39.4053 18.3478 39.3994C18.7313 38.9704 18.887 38.3254 18.6996 37.7692C18.6852 37.7218 18.6419 37.6952 18.5987 37.6952V37.1005C18.639 37.1005 18.6765 37.0798 18.6967 37.0413L18.7688 36.8934C18.7948 36.8372 18.7746 36.7721 18.7198 36.7455C18.7025 36.7366 18.6852 36.7307 18.6679 36.7307L18.7342 35.991C18.7861 35.991 18.8323 35.9496 18.8409 35.8963L19.3802 32.1773C19.409 31.9791 19.4782 31.488 19.311 31.1122C19.7233 31.1448 20.1357 31.1773 20.551 31.2069C21.5315 31.2809 22.4802 31.343 23.4088 31.3903C23.5962 31.7276 23.5588 32.1951 23.4924 32.6862C23.4001 33.3697 23.3223 34.1744 23.4463 34.9673C23.4751 35.1596 23.5155 35.3549 23.5559 35.5472ZM21.7218 32.3608C21.7477 32.3075 21.7276 32.2395 21.6728 32.2128L21.5776 32.1625C21.5257 32.1359 21.4594 32.1566 21.4334 32.2128C21.4046 32.2661 21.4276 32.3341 21.4796 32.3608L21.5776 32.4111C21.592 32.417 21.6093 32.4229 21.6237 32.4229C21.6641 32.4229 21.7016 32.3992 21.7218 32.3608ZM21.5891 33.1152C21.6064 33.056 21.5718 32.9939 21.5142 32.9791L21.1768 32.8844C21.1191 32.8696 21.0585 32.9052 21.0441 32.9643C21.0268 33.0235 21.0614 33.0856 21.1191 33.1004L21.4565 33.1921C21.468 33.1951 21.4767 33.1981 21.4853 33.1981C21.5343 33.1981 21.5776 33.1655 21.5891 33.1152Z" fill="#A07CA0"/>
<path d="M22.9647 21.3931C22.9993 21.4404 22.9907 21.5114 22.9417 21.5469C22.9215 21.5617 22.8984 21.5676 22.8782 21.5676C22.8436 21.5676 22.8119 21.5528 22.7917 21.5233L22.6475 21.328C22.61 21.2777 22.6216 21.2096 22.6677 21.1712C22.7167 21.1357 22.783 21.1446 22.8205 21.1949L22.9647 21.3931Z" fill="#665151"/>
<path d="M22.3736 22.7807C22.4341 22.7955 22.4687 22.8546 22.4543 22.9138C22.4399 22.9641 22.3966 22.9996 22.3476 22.9996C22.3389 22.9996 22.3303 22.9967 22.3216 22.9967L22.1284 22.9463C22.0708 22.9316 22.0362 22.8724 22.0506 22.8103C22.065 22.7511 22.1227 22.7156 22.1832 22.7304L22.3736 22.7807Z" fill="#665151"/>
<path d="M22.4053 24.0322C22.4543 24.0647 22.4687 24.1328 22.437 24.186C22.4168 24.2186 22.3822 24.2363 22.3476 24.2363C22.3274 24.2363 22.3043 24.2304 22.287 24.2186C22.1313 24.1121 21.9468 24.047 21.7622 24.0263C21.7016 24.0174 21.6584 23.9642 21.6642 23.902C21.6699 23.8428 21.7189 23.8014 21.7853 23.8044C22.0044 23.828 22.2207 23.9079 22.4053 24.0322Z" fill="#665151"/>
<path d="M21.6728 32.2128C21.7276 32.2395 21.7478 32.3075 21.7218 32.3608C21.7017 32.3992 21.6642 32.4229 21.6238 32.4229C21.6094 32.4229 21.5921 32.417 21.5776 32.4111L21.4796 32.3608C21.4277 32.3341 21.4046 32.2661 21.4335 32.2128C21.4594 32.1566 21.5257 32.1359 21.5776 32.1625L21.6728 32.2128Z" fill="#665151"/>
<path d="M21.5142 32.9791C21.5719 32.9939 21.6065 33.0561 21.5892 33.1152C21.5776 33.1655 21.5344 33.1981 21.4854 33.1981C21.4767 33.1981 21.4681 33.1951 21.4565 33.1922L21.1191 33.1004C21.0614 33.0856 21.0268 33.0235 21.0441 32.9643C21.0586 32.9052 21.1191 32.8697 21.1768 32.8845L21.5142 32.9791Z" fill="#665151"/>
<path d="M21.3383 4.29801C21.3672 4.35126 21.3441 4.41931 21.2922 4.44594C21.2749 4.45482 21.2605 4.45778 21.2432 4.45778C21.2028 4.45778 21.1653 4.43707 21.1451 4.39565L21.099 4.29801C21.073 4.2418 21.0932 4.1767 21.148 4.15008C21.1999 4.12345 21.2662 4.14416 21.2922 4.20037L21.3383 4.29801Z" fill="#665151"/>
<path d="M20.2712 5.66195C20.3087 5.71224 20.2972 5.78029 20.2482 5.81875C20.2309 5.83355 20.2078 5.83947 20.1847 5.83947C20.153 5.83947 20.1184 5.82467 20.0982 5.79508C20.0377 5.70928 19.9396 5.65307 19.8387 5.6442C19.7781 5.63828 19.7349 5.58206 19.7406 5.52289C19.7464 5.46076 19.7954 5.41638 19.8589 5.4223C20.0204 5.44005 20.1761 5.52881 20.2712 5.66195Z" fill="#665151"/>
<path d="M20.2079 6.3306C20.254 6.36907 20.2598 6.44007 20.2223 6.48741C20.2021 6.51404 20.1704 6.52883 20.1387 6.52883C20.1156 6.52883 20.0896 6.51995 20.0695 6.5022L19.4927 6.00811C19.4466 5.96965 19.4408 5.89864 19.4783 5.8513C19.5187 5.80396 19.585 5.79805 19.6311 5.83947L20.2079 6.3306Z" fill="#665151"/>
<path d="M19.0486 31.0915C19.2014 31.2957 19.2389 31.6418 19.1668 32.1448L18.6275 35.8638C18.6189 35.923 18.6592 35.9792 18.7169 35.9881C18.7227 35.991 18.7285 35.991 18.7342 35.991L18.6679 36.7307C18.6304 36.7307 18.5929 36.7544 18.5756 36.7928L18.5035 36.9408C18.4776 36.997 18.4978 37.0621 18.5525 37.0916C18.567 37.0976 18.5843 37.1005 18.5987 37.1005V37.6952C18.5871 37.6952 18.5727 37.6952 18.5612 37.7011C18.5035 37.7218 18.4747 37.784 18.4949 37.8431C18.6823 38.3934 18.4776 39.0444 18.0306 39.3994C17.8893 39.3994 17.748 39.4023 17.6067 39.3994C16.2484 39.3757 14.9363 39.287 13.6703 39.139C13.6617 39.1213 13.653 39.1065 13.6444 39.0887C13.5579 38.8787 13.5723 38.6301 13.5838 38.4082L13.6674 36.7751C13.6703 36.7129 13.6242 36.6626 13.5665 36.6597C13.5088 36.6478 13.454 36.7011 13.4512 36.7632L13.3675 38.3964C13.356 38.6094 13.3473 38.8698 13.4252 39.1094C11.9602 38.926 10.5587 38.6627 9.22066 38.3136C8.95247 37.8994 8.87461 37.355 9.05052 36.8875C9.07359 36.8313 9.04475 36.7662 8.98996 36.7455C8.97842 36.7396 8.964 36.7366 8.94958 36.7366L9.04187 35.9792C9.08512 35.9792 9.1255 35.9526 9.1428 35.9052C9.43983 35.0886 9.56094 34.1951 9.4975 33.3253C9.4802 33.1359 9.45713 32.9436 9.43406 32.7513C9.36773 32.1803 9.29564 31.5886 9.47155 31.056C9.61862 30.6122 9.9416 30.2365 10.3482 30.0205C11.6574 30.272 12.9811 30.4702 14.3192 30.6329C13.8433 31.3164 13.5405 32.1477 13.4713 32.9821C13.4656 33.0442 13.5088 33.0975 13.5694 33.1034C13.5723 33.1034 13.5752 33.1034 13.578 33.1034C13.6328 33.1034 13.6819 33.059 13.6847 33.0028C13.7568 32.1714 14.0654 31.346 14.5528 30.6773C14.5556 30.6743 14.5585 30.6684 14.5585 30.6625C16.0408 30.8371 17.5375 30.9732 19.0486 31.0915ZM13.6472 34.5472C13.7453 34.4141 13.7741 34.2336 13.7222 34.0738C13.702 34.0147 13.6415 33.9821 13.5838 34.0028C13.529 34.0235 13.4973 34.0857 13.5175 34.1419C13.5463 34.2336 13.529 34.3401 13.4742 34.4141C13.4367 34.4644 13.4483 34.5354 13.4944 34.5709C13.5146 34.5857 13.5377 34.5916 13.5607 34.5916C13.5925 34.5916 13.6271 34.5768 13.6472 34.5472Z" fill="#A07CA0"/>
<path d="M18.7198 36.7455C18.7746 36.7721 18.7948 36.8372 18.7688 36.8934L18.6967 37.0413C18.6766 37.0798 18.6391 37.1005 18.5987 37.1005C18.5843 37.1005 18.567 37.0976 18.5526 37.0916C18.4978 37.0621 18.4776 36.997 18.5035 36.9408L18.5756 36.7928C18.5929 36.7544 18.6304 36.7307 18.6679 36.7307C18.6852 36.7307 18.7025 36.7366 18.7198 36.7455Z" fill="#665151"/>
<path d="M16.8511 19.4581C16.8915 19.4995 16.8915 19.5705 16.8482 19.6149C16.8281 19.6356 16.8021 19.6445 16.7733 19.6445C16.7444 19.6445 16.7185 19.6356 16.6954 19.612L16.5512 19.467C16.5108 19.4226 16.5108 19.3516 16.5512 19.3102C16.5945 19.2658 16.6637 19.2658 16.7041 19.3072L16.8511 19.4581Z" fill="#665151"/>
<path d="M16.3465 20.3309C16.3984 20.3635 16.4128 20.4315 16.384 20.4848C16.3638 20.5173 16.3263 20.538 16.2917 20.538C16.2715 20.538 16.2513 20.5321 16.234 20.5203L15.9947 20.3723C15.9428 20.3398 15.9255 20.2718 15.9572 20.2215C15.9889 20.1682 16.0553 20.1504 16.1072 20.183L16.3465 20.3309Z" fill="#665151"/>
<path d="M13.7222 34.0738C13.7741 34.2336 13.7453 34.4141 13.6473 34.5472C13.6271 34.5768 13.5925 34.5916 13.5607 34.5916C13.5377 34.5916 13.5146 34.5857 13.4944 34.5709C13.4483 34.5354 13.4367 34.4644 13.4742 34.4141C13.529 34.3401 13.5463 34.2336 13.5175 34.1419C13.4973 34.0857 13.529 34.0235 13.5838 34.0028C13.6415 33.9821 13.702 34.0147 13.7222 34.0738Z" fill="#665151"/>
<path d="M12.5111 20.7629C12.5659 20.7836 12.5947 20.8457 12.5745 20.9049C12.488 21.1564 12.439 21.4167 12.4332 21.683C12.4303 21.7422 12.3813 21.7895 12.3236 21.7895H12.3207C12.2602 21.7895 12.214 21.7392 12.2169 21.6771C12.2227 21.3871 12.2775 21.1031 12.3726 20.8309C12.3928 20.7718 12.4534 20.7422 12.5111 20.7629Z" fill="#665151"/>
<path d="M10.3511 23.2925C10.3973 23.331 10.4059 23.399 10.3713 23.4493C10.3511 23.476 10.3165 23.4908 10.2848 23.4908C10.2617 23.4908 10.2387 23.4848 10.2185 23.4701L10.0282 23.3221C9.97913 23.2866 9.97048 23.2156 10.0051 23.1683C10.0426 23.118 10.1089 23.1061 10.1579 23.1446L10.3511 23.2925Z" fill="#665151"/>
<path d="M10.008 24.3754C10.0657 24.3843 10.1089 24.4405 10.1003 24.4996C10.0945 24.5559 10.0484 24.5973 9.99357 24.5973C9.99068 24.5973 9.98492 24.5973 9.98203 24.5973C9.82343 24.5766 9.68789 24.4464 9.66193 24.2837C9.65328 24.2245 9.69366 24.1683 9.75133 24.1564C9.80901 24.1476 9.86668 24.189 9.87533 24.2482C9.88687 24.3132 9.94454 24.3695 10.008 24.3754Z" fill="#665151"/>
<path d="M10.0281 29.9584C9.67916 30.2069 9.40521 30.5708 9.26678 30.985C9.07357 31.5679 9.14855 32.1833 9.22065 32.7779C9.24372 32.9673 9.26679 33.1567 9.2812 33.343C9.34465 34.1803 9.22641 35.0413 8.94092 35.8283C8.92073 35.8875 8.94669 35.9496 9.00436 35.9703C9.0159 35.9762 9.03032 35.9792 9.04185 35.9792L8.94957 36.7366C8.90631 36.7366 8.86594 36.7632 8.84864 36.8076C8.67561 37.2692 8.71887 37.7958 8.92938 38.2366C7.77011 37.923 6.65697 37.5473 5.59863 37.1064C5.1228 36.4112 5.29006 35.423 5.391 35.0088C5.46309 34.7159 5.55825 34.42 5.65054 34.136C5.81203 33.6389 5.97928 33.1271 6.03119 32.5945C6.05426 32.3401 6.05138 32.0738 6.05138 31.8193C6.04561 31.2454 6.04273 30.7039 6.30803 30.2483C6.33687 30.195 6.31957 30.127 6.27055 30.0945C6.25324 30.0856 6.23594 30.0797 6.21575 30.0797L6.65409 29.5412C6.66274 29.5471 6.67139 29.553 6.68292 29.556C6.69446 29.5619 6.70888 29.5649 6.72041 29.5649C6.76367 29.5649 6.80404 29.5382 6.82135 29.4938C6.85595 29.408 6.93093 29.337 7.02898 29.2986C7.06358 29.2838 7.10107 29.2838 7.13856 29.2808C8.09309 29.5412 9.05627 29.7631 10.0281 29.9584Z" fill="#A07CA0"/>
<path d="M6.65412 29.5412L6.21579 30.0797C6.1783 30.0797 6.14081 30.1004 6.12062 30.1329C5.82648 30.6448 5.82936 31.2424 5.83513 31.8223C5.83513 32.0708 5.83801 32.3282 5.81494 32.5738C5.76592 33.0827 5.60443 33.5827 5.44582 34.065C5.35354 34.3549 5.25549 34.6537 5.18051 34.9555C5.06228 35.4407 4.94404 36.2691 5.26703 36.9615C4.87483 36.7928 4.48841 36.6183 4.11352 36.4319C3.43295 36.0946 2.70335 35.6863 2.07758 35.1478C1.69692 34.3224 1.67673 33.3253 2.06027 32.4998C2.1612 32.2779 2.29386 32.0649 2.42363 31.8578C2.54186 31.6625 2.66875 31.4613 2.76968 31.2483C3.0321 30.7128 3.15899 30.1122 3.13592 29.5146C3.13304 29.4524 3.08113 29.414 3.02345 29.408C2.96289 29.411 2.91675 29.4613 2.91964 29.5234C2.93982 30.0826 2.82159 30.6448 2.57647 31.1477C2.47842 31.3519 2.3573 31.5471 2.23907 31.7395C2.1093 31.9495 1.97376 32.1714 1.86418 32.4052C1.51812 33.1478 1.48063 34.0265 1.71999 34.8105C1.53254 34.6212 1.35663 34.417 1.20091 34.1922C0.601084 33.3164 0.266566 31.8963 0.958672 30.8519C1.07114 30.6803 1.20956 30.5205 1.35375 30.3548C1.60464 30.0649 1.86418 29.769 2.01413 29.3814C2.25349 28.766 2.14102 28.1329 2.03432 27.5204C1.97376 27.1683 1.91608 26.8399 1.91897 26.5175C1.9305 25.8251 2.3227 25.1506 2.97154 24.7068C3.59732 24.2778 4.3298 24.1653 4.94404 24.3902C4.81139 25.5736 4.77679 26.766 4.846 27.9494C4.52013 27.8281 4.2231 27.6743 4.12217 27.4198C4.05873 27.2689 3.89147 27.1979 3.7444 27.2601C3.59732 27.3222 3.52811 27.4968 3.58867 27.6477C3.63193 27.7542 3.6896 27.8459 3.75593 27.9287C3.55695 27.9849 3.3695 28.0915 3.22243 28.2394C3.17918 28.2808 3.17918 28.3518 3.21955 28.3962C3.24262 28.4199 3.26857 28.4287 3.29741 28.4287C3.32625 28.4287 3.3522 28.4199 3.37239 28.3991C3.52523 28.2453 3.72709 28.1506 3.94049 28.121C4.17408 28.3193 4.47976 28.4494 4.78544 28.556C5.4487 28.7867 6.11774 28.9968 6.79254 29.1861C6.71468 29.2483 6.65412 29.3223 6.61952 29.414C6.60221 29.4583 6.61663 29.5116 6.65412 29.5412Z" fill="#A07CA0"/>
</svg>
