<svg width="50" height="50" viewBox="0 0 50 50" fill="none" xmlns="http://www.w3.org/2000/svg">
<path d="M49.9882 36.1979C50.0494 36.945 49.862 37.6513 49.6781 38.3355C49.5304 38.8866 49.3934 39.408 49.379 39.9332C49.3717 40.3178 49.4294 40.7098 49.4943 41.1241C49.5844 41.7195 49.6782 42.3334 49.5628 42.9621C49.4186 43.7388 48.9752 44.471 48.2074 45.1996C45.9581 47.3372 42.8112 47.9548 39.5093 48.4467C33.9904 49.2677 28.5761 50 23.079 50C22.7185 50 22.358 49.9963 21.9939 49.9889C15.4225 49.8706 9.64418 48.5983 4.82829 46.2055C3.45489 45.5213 1.91568 44.63 0.913565 43.1655C-0.175059 41.5789 -0.304828 39.5153 0.599955 38.1469C0.769377 37.8917 0.964032 37.6661 1.15508 37.4479C1.43985 37.1225 1.7066 36.8155 1.84719 36.4531C2.07068 35.8799 1.95533 35.2252 1.83277 34.53C1.75346 34.0788 1.67056 33.6091 1.67777 33.132C1.69579 32.0262 2.30859 30.9574 3.31431 30.2695C4.23711 29.6371 5.32574 29.4522 6.27378 29.7444C6.7496 26.353 7.85985 23.0467 9.55046 20.1066C12.0341 15.7869 15.6929 12.4289 20.4223 10.1211C20.4944 9.61077 20.7107 9.1226 21.0459 8.74537C20.9738 8.73797 20.9017 8.72688 20.8296 8.71948C20.1952 8.64182 19.4742 8.55675 19.0273 7.95023C18.7641 7.59519 18.6812 7.13291 18.7966 6.65582C18.9371 6.0604 19.3769 5.50565 19.914 5.24307C20.4727 4.9694 21.0819 4.93241 21.6587 4.9694C21.2982 4.2963 21.2514 3.4346 21.6082 2.73192C22.1237 1.72968 23.3709 1.20822 24.4487 1.54106C24.9786 1.70749 25.44 2.06623 25.7645 2.53221C25.869 2.02185 26.0348 1.51148 26.3376 1.05659C26.8315 0.309528 27.8588 -0.271107 28.7852 0.132009C29.6323 0.50184 29.964 1.48189 29.8991 2.38798C29.9135 2.38798 29.9279 2.38798 29.9423 2.38798C30.6308 2.38798 31.3338 2.63207 31.9321 3.09066C32.6855 3.67129 33.1686 4.5108 33.2551 5.3947C33.338 6.2786 33.0244 7.19948 32.3899 7.91695C32.1917 8.14624 31.9646 8.34225 31.7267 8.50498C33.8715 8.97096 36.0199 10.3504 38.1178 12.6249C42.8508 17.7508 45.3994 24.7775 45.2407 31.7932C46.2429 32.1594 47.2738 32.544 48.1714 33.2134C49.2348 34.0048 49.8944 35.0921 49.9882 36.1979ZM48.9824 38.1432C49.1555 37.4923 49.3213 36.8747 49.2708 36.2608C49.1951 35.3695 48.64 34.4782 47.7496 33.8125C46.9926 33.2504 46.0987 32.8953 45.2119 32.5699C45.1542 33.6942 45.0281 34.8184 44.8262 35.9353C45.1903 35.7393 45.5399 35.5322 45.8824 35.314C46.0518 35.2068 46.2753 35.2585 46.3798 35.4324C46.4844 35.6062 46.4339 35.8355 46.2645 35.9427C45.7238 36.2867 45.147 36.601 44.5559 36.8932C44.5162 36.9265 44.4693 36.9487 44.4189 36.9635C44.2639 37.0374 44.1089 37.1151 43.9467 37.1891C43.9683 37.1891 43.9863 37.1891 44.0043 37.1891C44.1557 37.1964 44.3143 37.2038 44.4657 37.2445C44.8478 37.3518 45.1795 37.692 45.3453 38.1543C45.4895 38.5537 45.5039 38.9753 45.5183 39.3821C45.5219 39.4598 45.4606 39.5227 45.3885 39.5264C45.3849 39.5264 45.3849 39.5264 45.3813 39.5264C45.3092 39.5264 45.2516 39.4672 45.248 39.3932C45.2335 39.0086 45.2191 38.6092 45.093 38.2505C44.956 37.8732 44.6928 37.5959 44.3936 37.5145C44.2711 37.4812 44.1341 37.4738 43.9935 37.4664C43.8169 37.459 43.6403 37.4479 43.4744 37.3888C42.2993 37.8843 41.034 38.2838 39.6859 38.587C40.1689 38.7238 40.5546 39.2231 40.7385 39.7335C41.1818 40.965 40.9511 42.363 40.7673 43.4873C40.7565 43.5538 40.6988 43.6019 40.6339 43.6019C40.6267 43.6019 40.6195 43.6019 40.6123 43.6019C40.5366 43.5871 40.4861 43.5169 40.5005 43.4392C40.688 42.2927 40.9007 40.9909 40.4861 39.8296C40.2843 39.2675 39.812 38.7423 39.3074 38.8348C39.2353 38.8496 39.1632 38.7978 39.1524 38.7238C39.1524 38.7201 39.1524 38.7128 39.1524 38.7091C38.2079 38.9014 37.2239 39.0493 36.2037 39.1492C35.6738 39.2009 35.1475 39.2379 34.6213 39.2638C35.1115 39.6854 35.3818 40.3992 35.4323 41.0464C35.4648 41.505 35.4251 41.9673 35.3891 42.4111C35.3566 42.7957 35.3206 43.1877 35.3386 43.5723C35.3386 43.65 35.2809 43.7129 35.2088 43.7166C35.2052 43.7166 35.2052 43.7166 35.2016 43.7166C35.1295 43.7166 35.0682 43.6574 35.0682 43.5834C35.0502 43.184 35.0863 42.7772 35.1187 42.3889C35.1548 41.9562 35.1944 41.505 35.162 41.0686C35.1043 40.3585 34.7654 39.5708 34.1346 39.2897C33.5543 39.3119 32.9739 39.323 32.3899 39.323C31.4599 39.323 30.5191 39.2934 29.5638 39.249C29.7801 39.7779 29.6936 40.4288 29.6323 40.8948C29.5206 41.7306 29.4269 42.7106 29.5747 43.6648C29.6107 43.9015 29.6612 44.1382 29.7116 44.3749C29.8306 44.9333 29.9532 45.5103 29.8883 46.0946C29.8594 46.3387 29.7981 46.5791 29.7044 46.8047C29.6864 46.8564 29.6359 46.8897 29.5819 46.8897C29.5638 46.8897 29.5458 46.886 29.5278 46.8786C29.4593 46.849 29.4269 46.7677 29.4557 46.6974C29.5386 46.494 29.5927 46.2832 29.6179 46.0613C29.6792 45.525 29.5674 44.9962 29.4449 44.434C29.3944 44.1936 29.344 43.9496 29.3079 43.7092C29.1529 42.718 29.2502 41.7121 29.3656 40.8578C29.4485 40.2439 29.4953 39.6595 29.261 39.2379C28.1003 39.1787 26.9144 39.1011 25.6888 39.0086C25.1697 38.9716 24.6542 38.931 24.1387 38.8903C24.3478 39.36 24.2613 39.9739 24.2253 40.2217L23.5512 44.8704C23.5404 44.937 23.4827 44.9888 23.4178 44.9888C23.4106 44.9888 23.4034 44.9888 23.3962 44.9851C23.3241 44.974 23.2736 44.9037 23.2844 44.8298L23.9585 40.181C24.0486 39.5523 24.0018 39.1196 23.8107 38.8644C21.9218 38.7165 20.051 38.5463 18.1982 38.3281C18.1982 38.3355 18.1946 38.3429 18.191 38.3466C17.5818 39.1824 17.1961 40.2143 17.1059 41.2535C17.1023 41.3238 17.0411 41.3792 16.9726 41.3792C16.969 41.3792 16.9654 41.3792 16.9618 41.3792C16.8861 41.3718 16.832 41.3053 16.8392 41.2276C16.9257 40.1847 17.3042 39.1455 17.899 38.2912C16.2264 38.0877 14.5718 37.84 12.9353 37.5256C12.427 37.7956 12.0233 38.2653 11.8395 38.82C11.6196 39.4857 11.7097 40.2254 11.7926 40.9391C11.8214 41.1795 11.8503 41.4199 11.8719 41.6566C11.9512 42.7439 11.7998 43.8608 11.4285 44.8815C11.4069 44.9407 11.3564 44.974 11.3024 44.974C11.2879 44.974 11.2699 44.9703 11.2555 44.9629C11.1834 44.937 11.151 44.8593 11.1762 44.7854C11.5331 43.8016 11.6808 42.7254 11.6015 41.6788C11.5835 41.4458 11.5547 41.2091 11.5258 40.9724C11.4357 40.2291 11.342 39.4598 11.5835 38.7313C11.7565 38.2135 12.099 37.7586 12.5352 37.4479C11.3204 37.2038 10.1164 36.9265 8.92324 36.601C8.87638 36.6047 8.82952 36.6047 8.78626 36.6232C8.6637 36.6713 8.56998 36.76 8.52672 36.8673C8.5051 36.9228 8.45463 36.9561 8.40056 36.9561C8.38614 36.9561 8.36811 36.9524 8.3537 36.945C8.33928 36.9413 8.32846 36.9339 8.31765 36.9265C8.27079 36.8895 8.25277 36.8229 8.27439 36.7675C8.31765 36.6528 8.39335 36.5603 8.49068 36.4827C7.64717 36.246 6.81088 35.9834 5.98179 35.6949C5.59969 35.5618 5.2176 35.3991 4.92561 35.1513C4.65886 35.1883 4.40653 35.3066 4.21548 35.4989C4.19025 35.5248 4.15781 35.5359 4.12176 35.5359C4.08571 35.5359 4.05327 35.5248 4.02443 35.4952C3.97397 35.4398 3.97397 35.351 4.02804 35.2992C4.21188 35.1143 4.44619 34.9812 4.69491 34.9109C4.612 34.8073 4.53991 34.6927 4.48584 34.5596C4.41014 34.3709 4.49665 34.1527 4.68049 34.0751C4.86433 33.9974 5.07341 34.0862 5.15271 34.2748C5.27888 34.5928 5.65016 34.7852 6.05749 34.9368C5.97098 33.4575 6.01424 31.967 6.18005 30.4877C5.41225 30.2066 4.49665 30.3472 3.71443 30.8834C2.90337 31.4382 2.41313 32.2814 2.39871 33.1468C2.3951 33.5499 2.4672 33.9604 2.5429 34.4005C2.67627 35.1661 2.81685 35.9575 2.51766 36.7268C2.33022 37.2112 2.00579 37.5811 1.69218 37.9435C1.51195 38.1506 1.33892 38.3503 1.19834 38.5648C0.333206 39.8703 0.751353 41.6455 1.50113 42.7402C1.69579 43.0213 1.91568 43.2765 2.14998 43.5132C1.85079 42.5331 1.89765 41.4347 2.33022 40.5064C2.4672 40.2143 2.63662 39.9369 2.79883 39.6743C2.94662 39.4339 3.09802 39.1898 3.22058 38.9347C3.52698 38.3059 3.67478 37.6033 3.64954 36.9043C3.64594 36.8266 3.70361 36.7637 3.77931 36.76C3.85141 36.7674 3.91629 36.8155 3.9199 36.8932C3.94874 37.6402 3.79013 38.391 3.4621 39.0604C3.33593 39.3267 3.17733 39.5782 3.02953 39.8222C2.86732 40.0811 2.7015 40.3474 2.57534 40.6248C2.09591 41.6566 2.12115 42.9029 2.59697 43.9348C3.37919 44.6079 4.29118 45.1182 5.1419 45.5398C5.61051 45.7728 6.09354 45.991 6.58378 46.2018C6.18005 45.3364 6.32785 44.3009 6.47564 43.6944C6.56936 43.3171 6.69192 42.9436 6.80727 42.5812C7.00553 41.9784 7.2074 41.3533 7.26868 40.7172C7.29752 40.4103 7.29391 40.0885 7.29391 39.7779C7.2867 39.053 7.2831 38.3059 7.65078 37.6661C7.67601 37.6255 7.72287 37.5996 7.76973 37.5996C7.79497 37.5996 7.81659 37.607 7.83822 37.6181C7.8995 37.6587 7.92113 37.7438 7.88508 37.8104C7.55345 38.3799 7.55705 39.0567 7.56426 39.7742C7.56426 40.0922 7.56787 40.4251 7.53903 40.7431C7.47415 41.4088 7.26507 42.0486 7.06321 42.6699C6.94786 43.025 6.8289 43.3948 6.73878 43.761C6.61262 44.2787 6.40355 45.5139 6.99832 46.3831C8.32125 46.9341 9.71267 47.4038 11.1618 47.7958C10.8986 47.2448 10.8446 46.5865 11.0608 46.0095C11.0825 45.954 11.1329 45.9208 11.187 45.9208C11.205 45.9208 11.223 45.9245 11.2375 45.9319C11.306 45.9577 11.342 46.0391 11.3132 46.1094C11.0933 46.6937 11.1906 47.3742 11.5258 47.892C13.1984 48.3284 14.9503 48.6575 16.7815 48.8868C16.6842 48.5872 16.695 48.2618 16.7094 47.9955L16.814 45.954C16.8176 45.8764 16.8861 45.8098 16.9582 45.8246C17.0302 45.8283 17.0879 45.8912 17.0843 45.9688L16.9798 48.0103C16.9654 48.2877 16.9473 48.5983 17.0555 48.8609C17.0663 48.8831 17.0771 48.9016 17.0879 48.9238C18.6704 49.1087 20.3105 49.2197 22.0084 49.2492C22.185 49.2529 22.3616 49.2492 22.5382 49.2492C23.097 48.8054 23.3529 47.9918 23.1186 47.3039C23.0934 47.23 23.1294 47.1523 23.2015 47.1264C23.2159 47.119 23.234 47.119 23.2484 47.119C23.3024 47.119 23.3565 47.1523 23.3745 47.2115C23.6088 47.9068 23.4142 48.713 22.9348 49.2492C24.8489 49.2566 26.7594 49.179 28.6663 49.0273C29.0087 48.75 29.2394 48.3284 29.2863 47.8846C29.2935 47.8069 29.3548 47.7588 29.4341 47.7588C29.5062 47.7662 29.5602 47.8365 29.553 47.9141C29.5134 48.3062 29.344 48.6871 29.0916 48.9904C30.9733 48.835 32.8549 48.6205 34.7438 48.3727C34.7402 48.3321 34.751 48.2951 34.7799 48.2655C35.3098 47.7403 35.5152 46.9082 35.2881 46.1907C35.2629 46.1168 35.3025 46.0391 35.3746 46.0132C35.3891 46.0095 35.3999 46.0058 35.4143 46.0058C35.472 46.0058 35.526 46.0465 35.5441 46.102C35.7856 46.8638 35.5981 47.7329 35.0863 48.3284C36.5209 48.1397 37.9592 47.9289 39.4047 47.7144C39.6679 47.6738 39.931 47.6331 40.1905 47.5924C40.4285 47.4001 40.5871 47.1042 40.5943 46.7899C40.5943 46.7159 40.6736 46.653 40.7312 46.653C40.8069 46.6567 40.8646 46.7196 40.8646 46.7973C40.8574 47.0598 40.7673 47.3113 40.6195 47.5221C42.4651 47.2152 44.217 46.8046 45.7274 46.0391C45.8572 45.7913 45.8752 45.4104 45.7851 44.8852L45.2696 41.9155C45.2552 41.8415 45.3056 41.7676 45.3777 41.7565C45.3849 41.7565 45.3957 41.7528 45.403 41.7528C45.4642 41.7528 45.5219 41.8008 45.5327 41.8674L46.0482 44.8371C46.0842 45.0295 46.1563 45.4585 46.0734 45.8542C46.6682 45.5213 47.2197 45.1293 47.7208 44.6559C48.3588 44.0457 48.7409 43.4318 48.8527 42.8253C48.9464 42.3223 48.8671 41.7971 48.7806 41.2387C48.7157 40.8097 48.6508 40.3659 48.658 39.9147C48.676 39.2971 48.831 38.7091 48.9824 38.1432ZM44.0115 36.3421C45.6805 28.1134 43.2293 19.2375 37.5951 13.1316C35.4107 10.7683 33.1974 9.42216 31.0129 9.1263C30.9949 9.1263 30.9769 9.1152 30.9589 9.1078C31.2148 9.5479 31.3229 10.0805 31.3265 10.6278C35.1764 12.3697 38.1791 16.0458 39.1668 20.2434C39.1848 20.3174 39.1416 20.3913 39.0695 20.4098C39.0587 20.4135 39.0478 20.4135 39.037 20.4135C38.9757 20.4135 38.9217 20.3729 38.9073 20.31C37.9448 16.2307 35.043 12.6582 31.3157 10.9311C31.2941 11.2935 31.2364 11.6559 31.1463 11.9851C30.9841 12.5805 30.7642 13.0761 30.4939 13.4607C31.2328 14.6035 31.6402 15.8979 31.9393 17.0296C32.6495 19.7404 32.9919 22.5364 32.9559 25.3397C32.9559 25.4173 32.8946 25.4765 32.8225 25.4765C32.8189 25.4765 32.8189 25.4765 32.8189 25.4765C32.7432 25.4765 32.6855 25.4136 32.6855 25.336C32.7216 22.5586 32.3827 19.7885 31.6762 17.1035C31.3914 16.0162 31.0057 14.781 30.3172 13.6863C30.0937 13.9452 29.8414 14.1449 29.5566 14.278C29.2683 14.4112 28.9691 14.4704 28.6771 14.4704C27.8408 14.4704 27.0333 13.9896 26.5323 13.4089C26.3881 13.2388 26.2619 13.0539 26.1466 12.869C25.6635 14.1634 25.2778 15.5059 25.0147 16.8669C25.0039 16.9334 24.9462 16.9778 24.8813 16.9778C24.8741 16.9778 24.8669 16.9778 24.8561 16.9741C24.784 16.9593 24.7371 16.889 24.7515 16.8114C25.0291 15.3653 25.4437 13.9378 25.9699 12.5657C25.8005 12.244 25.6599 11.9074 25.541 11.5746C25.1012 12.3179 24.3767 12.8727 23.562 13.0317C22.7077 13.2018 21.8101 12.906 21.1865 12.3253C18.501 16.0532 16.6518 20.4246 15.8407 24.9883C15.8299 25.0549 15.7722 25.0993 15.7073 25.0993C15.7001 25.0993 15.6929 25.0993 15.6857 25.0993C15.61 25.0845 15.5631 25.0142 15.5739 24.9366C16.3958 20.3174 18.2703 15.8942 20.9918 12.1219C20.8188 11.9222 20.671 11.6929 20.5701 11.4451C20.5016 11.2824 20.4583 11.1123 20.4295 10.9385C15.9813 13.1759 12.528 16.3824 10.1705 20.4838C7.65438 24.8552 6.45401 30.055 6.78565 35.118C6.78925 35.1402 6.78204 35.1624 6.77844 35.1809C9.46395 36.0759 12.218 36.6935 15.0296 37.141C14.9287 34.5374 14.9359 31.9042 15.0621 29.3117C15.0657 29.234 15.1197 29.1822 15.2027 29.1785C15.2784 29.1822 15.336 29.2488 15.3324 29.3228C15.2063 31.9301 15.199 34.5706 15.3036 37.1853C17.7079 37.5589 20.1519 37.8178 22.6284 38.0286C22.4734 31.4012 23.1042 24.7627 24.51 18.2944C24.5244 18.2204 24.5929 18.1761 24.6722 18.1908C24.7443 18.2056 24.7876 18.2796 24.7732 18.3573C23.3709 24.8108 22.7401 31.4382 22.8987 38.0508C23.8432 38.1284 24.7912 38.2024 25.7428 38.2727C27.7471 38.4206 29.6467 38.5426 31.4996 38.5722C31.4996 38.5611 31.4996 38.55 31.5032 38.5352C32.1664 35.3917 32.4801 32.1667 32.4332 28.9492C32.4332 28.8753 32.4945 28.8124 32.5702 28.8087C32.6459 28.8087 32.7035 28.8716 32.7035 28.9455C32.7504 32.1778 32.4368 35.4176 31.7699 38.5759C33.0965 38.5944 34.405 38.5574 35.7099 38.4465C35.6126 38.084 35.4467 37.7401 35.2268 37.4405C35.18 37.3777 35.1908 37.2926 35.2521 37.2445C35.3098 37.2001 35.3963 37.2112 35.4395 37.2741C35.6955 37.6144 35.8757 38.0101 35.9838 38.4243C36.0343 38.4206 36.0848 38.4169 36.1352 38.4132C36.1749 38.4095 36.2181 38.4021 36.2614 38.3984C36.1749 38.0286 36.0055 37.6809 35.764 37.3888C35.7171 37.3296 35.7243 37.2445 35.782 37.1928C35.836 37.1447 35.9226 37.1521 35.973 37.2112C36.2434 37.5404 36.438 37.9398 36.5318 38.3651C36.7084 38.3466 36.885 38.3244 37.0616 38.3022C37.0076 38.2985 36.9571 38.2616 36.9391 38.2061L36.5245 36.8451C36.5029 36.7748 36.5426 36.6972 36.6147 36.6713C36.6868 36.6528 36.7625 36.6898 36.7841 36.7637L37.195 38.1247C37.2166 38.195 37.1806 38.2727 37.1085 38.2948C38.0385 38.1728 38.9289 38.0101 39.7868 37.8104C40.6339 33.561 40.6736 29.0676 39.9022 24.8108C39.8877 24.7332 39.9346 24.6629 40.0103 24.6481C40.0824 24.6333 40.1545 24.6851 40.1653 24.759C40.9403 29.0121 40.9043 33.4981 40.0752 37.7438C41.0665 37.496 42.0073 37.1891 42.8977 36.8303L42.3281 36.2867C42.2741 36.2349 42.2705 36.1461 42.3209 36.0907C42.3714 36.0352 42.4579 36.0315 42.512 36.0833L43.1752 36.7157C43.2618 36.6787 43.3483 36.6417 43.4348 36.6047L42.7499 35.9094C42.6958 35.8577 42.6958 35.7689 42.7499 35.7134C42.8004 35.658 42.8869 35.6617 42.9409 35.7134L43.7051 36.4901C43.8097 36.442 43.9106 36.3939 44.0115 36.3421ZM31.8564 7.42507C32.3539 6.85923 32.599 6.14546 32.5377 5.46867C32.4728 4.78818 32.0943 4.14098 31.4996 3.68239C30.9048 3.22749 30.1875 3.03888 29.5386 3.16462C29.4197 3.18681 29.2935 3.14613 29.207 3.05368C29.1241 2.96492 29.0916 2.83177 29.1205 2.70973C29.3007 1.98856 29.1205 1.08247 28.5041 0.812496C27.9525 0.575805 27.2712 0.960428 26.9324 1.47079C26.5323 2.07362 26.4241 2.87615 26.3268 3.58623C26.316 3.65649 26.2872 3.71937 26.2475 3.76745C26.2619 3.871 26.2691 3.97085 26.2691 4.07441C26.2727 4.27781 26.1105 4.44793 25.9123 4.44793C25.7104 4.43684 25.5518 4.28891 25.5482 4.0855C25.5374 3.26817 24.975 2.48043 24.2397 2.25114C23.4935 2.01814 22.5995 2.38798 22.2463 3.07586C21.893 3.77115 22.1345 4.73641 22.7653 5.13952C22.9131 5.23568 22.9744 5.41689 22.9131 5.58332C22.8555 5.74604 22.6896 5.8459 22.5238 5.82001C21.8065 5.70906 20.9161 5.57222 20.2204 5.91247C19.878 6.07889 19.586 6.44872 19.4959 6.82964C19.4526 7.01456 19.4346 7.27714 19.604 7.50644C19.8636 7.85777 20.3502 7.91695 20.9161 7.98351C21.2802 8.02789 21.6587 8.07227 22.0156 8.20911C22.1525 8.26089 22.2427 8.39033 22.2499 8.54196C22.2535 8.6899 22.1706 8.83043 22.0408 8.8896C21.2766 9.25204 20.8909 10.3319 21.2333 11.1567C21.5397 11.9037 22.3652 12.3808 23.1799 12.3327C22.8555 11.8372 22.6103 11.2787 22.4734 10.7018C22.4589 10.6278 22.5022 10.5501 22.5743 10.5353C22.65 10.5169 22.7221 10.5612 22.7365 10.6352C22.8735 11.2269 23.133 11.7965 23.4791 12.292C23.6197 12.2588 23.753 12.2107 23.8864 12.1478C23.5944 11.6596 23.3565 11.1382 23.1835 10.5945C23.1583 10.5206 23.1979 10.4429 23.27 10.417C23.3385 10.3948 23.4142 10.4355 23.4394 10.5058C23.6088 11.0383 23.8396 11.545 24.1243 12.0184C24.6722 11.6744 25.0904 11.0901 25.2202 10.417C25.2562 10.2506 25.3932 10.1285 25.5554 10.1174C25.5626 10.1174 25.5698 10.1174 25.5734 10.1174C25.732 10.1174 25.8726 10.2247 25.9195 10.38C26.179 11.2417 26.4746 12.2218 27.073 12.9208C27.3758 13.2684 27.8083 13.5532 28.2661 13.6678C28.2842 13.2092 28.2697 12.7506 28.2157 12.292C28.2085 12.2181 28.2589 12.1478 28.3346 12.1404C28.4103 12.1293 28.4752 12.1848 28.486 12.2588C28.5437 12.7432 28.5581 13.2277 28.5365 13.7159C28.6771 13.727 28.8177 13.727 28.9582 13.7011L28.9294 12.403C28.9294 12.3253 28.9871 12.2625 29.0628 12.2588H29.0664C29.1385 12.2588 29.1998 12.3216 29.1998 12.3956L29.225 13.616C29.2358 13.6123 29.2466 13.6086 29.2574 13.6049C29.7873 13.3572 30.1911 12.7469 30.4506 11.7854C30.7426 10.7129 30.6741 9.44435 29.8666 9.02274C29.7188 8.94508 29.6431 8.77126 29.6828 8.60853C29.7188 8.44211 29.863 8.32376 30.0288 8.32376C30.6921 8.31637 31.359 7.99091 31.8564 7.42507Z" fill="#4D4D4D"/>
<path d="M49.2708 36.2608C49.3213 36.8747 49.1555 37.4923 48.9824 38.1432C48.831 38.7091 48.676 39.2971 48.658 39.9147C48.6508 40.3659 48.7157 40.8097 48.7806 41.2387C48.8671 41.7971 48.9464 42.3223 48.8527 42.8253C48.7409 43.4318 48.3588 44.0457 47.7208 44.6559C47.2197 45.1293 46.6682 45.5213 46.0734 45.8542C46.1563 45.4585 46.0843 45.0295 46.0482 44.8372L45.5327 41.8674C45.5219 41.8008 45.4642 41.7528 45.403 41.7528L45.4174 40.8282C45.4931 40.8282 45.5544 40.769 45.5544 40.6914V40.5064C45.5544 40.4288 45.4931 40.3659 45.4174 40.3659L45.3885 39.5264C45.4606 39.5227 45.5219 39.4598 45.5183 39.3821C45.5039 38.9753 45.4895 38.5537 45.3453 38.1543C45.1795 37.692 44.8478 37.3518 44.4657 37.2445C44.3143 37.2038 44.1557 37.1964 44.0043 37.1891C43.9863 37.1891 43.9683 37.1891 43.9467 37.1891C44.1089 37.1151 44.2639 37.0374 44.4189 36.9635C44.4693 36.9487 44.5162 36.9265 44.5559 36.8932C45.147 36.601 45.7238 36.2867 46.2645 35.9427C46.4339 35.8355 46.4844 35.6062 46.3798 35.4324C46.2753 35.2585 46.0518 35.2068 45.8824 35.314C45.5399 35.5322 45.1903 35.7393 44.8262 35.9353C45.0281 34.8184 45.1542 33.6942 45.2119 32.5699C46.0987 32.8953 46.9926 33.2504 47.7496 33.8125C48.64 34.4782 49.1951 35.3695 49.2708 36.2608Z" fill="#DB6A6A"/>
<path d="M45.7851 44.8852C45.8752 45.4104 45.8572 45.7913 45.7274 46.0391C44.217 46.8047 42.4651 47.2152 40.6195 47.5221C40.7673 47.3113 40.8574 47.0598 40.8646 46.7973C40.8646 46.7196 40.807 46.6567 40.7313 46.653C40.6736 46.653 40.5943 46.7159 40.5943 46.7899C40.5871 47.1042 40.4285 47.4001 40.1906 47.5924C39.931 47.6331 39.6679 47.6738 39.4047 47.7144C37.9592 47.9289 36.521 48.1397 35.0863 48.3284C35.5982 47.7329 35.7856 46.8638 35.5441 46.102C35.5261 46.0465 35.472 46.0058 35.4143 46.0058L35.3242 45.0849C35.3494 45.0849 35.3783 45.0775 35.3999 45.0591C35.4612 45.0147 35.4756 44.9296 35.4323 44.8667C35.3566 44.7558 35.3602 44.5894 35.4395 44.4821C35.4864 44.4229 35.4756 44.3342 35.4179 44.2898C35.3855 44.2639 35.3422 44.2528 35.3026 44.2639L35.2088 43.7166C35.2809 43.7129 35.3386 43.65 35.3386 43.5723C35.3206 43.1877 35.3566 42.7957 35.3891 42.4111C35.4251 41.9673 35.4648 41.505 35.4323 41.0464C35.3819 40.3992 35.1115 39.6854 34.6213 39.2638C35.1476 39.2379 35.6739 39.2009 36.2037 39.1492C37.2239 39.0493 38.208 38.9014 39.1524 38.7091C39.1524 38.7128 39.1524 38.7201 39.1524 38.7238C39.1632 38.7978 39.2353 38.8496 39.3074 38.8348C39.8121 38.7423 40.2843 39.2675 40.4861 39.8296C40.9007 40.9909 40.688 42.2927 40.5006 43.4392C40.4862 43.5169 40.5366 43.5871 40.6123 43.6019C40.6195 43.6019 40.6267 43.6019 40.6339 43.6019C40.6988 43.6019 40.7565 43.5538 40.7673 43.4873C40.9512 42.363 41.1819 40.965 40.7385 39.7335C40.5546 39.2231 40.1689 38.7238 39.6859 38.587C41.0341 38.2838 42.2993 37.8843 43.4745 37.3888C43.6403 37.4479 43.8169 37.459 43.9935 37.4664C44.1341 37.4738 44.2711 37.4812 44.3937 37.5145C44.6929 37.5959 44.956 37.8732 45.093 38.2505C45.2191 38.6092 45.2336 39.0086 45.248 39.3932C45.2516 39.4672 45.3093 39.5264 45.3814 39.5264C45.385 39.5264 45.385 39.5264 45.3886 39.5264L45.4174 40.3659C45.3453 40.3659 45.284 40.4288 45.284 40.5064V40.6913C45.284 40.769 45.3453 40.8282 45.4174 40.8282L45.403 41.7528C45.3958 41.7528 45.385 41.7565 45.3778 41.7565C45.3057 41.7676 45.2552 41.8415 45.2696 41.9155L45.7851 44.8852ZM40.6988 45.2736C40.7998 44.9851 40.8214 44.6707 40.7673 44.3675C40.7529 44.2898 40.6844 44.2417 40.6087 44.2528C40.5366 44.2676 40.4898 44.3416 40.5006 44.4155C40.5474 44.6707 40.5294 44.937 40.4429 45.1811C40.4177 45.2551 40.4537 45.3327 40.5258 45.3586C40.5402 45.366 40.5546 45.366 40.5691 45.366C40.6267 45.366 40.6772 45.3327 40.6988 45.2736Z" fill="#DB6A6A"/>
<path d="M45.5544 40.5064V40.6914C45.5544 40.769 45.4931 40.8282 45.4174 40.8282C45.3453 40.8282 45.284 40.769 45.284 40.6914V40.5064C45.284 40.4288 45.3453 40.3659 45.4174 40.3659C45.4931 40.3659 45.5544 40.4288 45.5544 40.5064Z" fill="#4D4D4D"/>
<path d="M37.5951 13.1316C43.2293 19.2375 45.6805 28.1134 44.0115 36.3421C43.9106 36.3939 43.8097 36.442 43.7051 36.4901L42.9409 35.7134C42.8868 35.6617 42.8003 35.658 42.7499 35.7134C42.6958 35.7689 42.6958 35.8577 42.7499 35.9094L43.4348 36.6047C43.3482 36.6417 43.2617 36.6787 43.1752 36.7157L42.512 36.0833C42.4579 36.0315 42.3714 36.0352 42.3209 36.0907C42.2704 36.1461 42.274 36.2349 42.3281 36.2867L42.8977 36.8303C42.0073 37.1891 41.0665 37.496 40.0752 37.7438C40.9043 33.4981 40.9403 29.0121 40.1653 24.759C40.1545 24.6851 40.0824 24.6333 40.0103 24.6481C39.9346 24.6629 39.8877 24.7332 39.9021 24.8108C40.6735 29.0676 40.6339 33.561 39.7868 37.8104C38.9289 38.0101 38.0385 38.1728 37.1085 38.2948C37.1806 38.2727 37.2166 38.195 37.195 38.1247L36.7841 36.7638C36.7624 36.6898 36.6867 36.6528 36.6146 36.6713C36.5425 36.6972 36.5029 36.7748 36.5245 36.8451L36.9391 38.2061C36.9571 38.2616 37.0076 38.2986 37.0616 38.3022C36.885 38.3244 36.7084 38.3466 36.5317 38.3651C36.438 37.9398 36.2434 37.5404 35.973 37.2112C35.9225 37.1521 35.836 37.1447 35.7819 37.1928C35.7243 37.2445 35.7171 37.3296 35.7639 37.3888C36.0054 37.6809 36.1749 38.0286 36.2614 38.3984C36.2181 38.4021 36.1749 38.4095 36.1352 38.4132C36.0847 38.4169 36.0343 38.4206 35.9838 38.4243C35.8757 38.0101 35.6954 37.6144 35.4395 37.2741C35.3962 37.2112 35.3097 37.2001 35.2521 37.2445C35.1908 37.2926 35.18 37.3777 35.2268 37.4405C35.4467 37.7401 35.6125 38.084 35.7099 38.4465C34.4049 38.5574 33.0964 38.5944 31.7699 38.5759C32.4368 35.4176 32.7504 32.1778 32.7035 28.9455C32.7035 28.8716 32.6458 28.8087 32.5701 28.8087C32.4945 28.8124 32.4332 28.8753 32.4332 28.9492C32.48 32.1668 32.1664 35.3917 31.5032 38.5352C31.4995 38.55 31.4995 38.5611 31.4995 38.5722C29.6467 38.5426 27.747 38.4206 25.7428 38.2727C24.7912 38.2024 23.8431 38.1284 22.8987 38.0508C22.7401 31.4382 23.3709 24.8108 24.7732 18.3573C24.7876 18.2796 24.7443 18.2056 24.6722 18.1908C24.5929 18.1761 24.5244 18.2204 24.51 18.2944C23.1042 24.7627 22.4733 31.4012 22.6283 38.0286C20.1519 37.8178 17.7079 37.5589 15.3036 37.1854C15.199 34.5706 15.2062 31.9301 15.3324 29.3228C15.336 29.2488 15.2783 29.1822 15.2026 29.1785C15.1197 29.1822 15.0657 29.234 15.0621 29.3117C14.9359 31.9042 14.9287 34.5374 15.0296 37.141C12.2179 36.6935 9.46393 36.0759 6.77842 35.1809C6.78202 35.1624 6.78923 35.1402 6.78563 35.118C6.45399 30.055 7.65436 24.8552 10.1705 20.4838C12.5279 16.3824 15.9813 13.1759 20.4295 10.9385C20.4583 11.1123 20.5016 11.2824 20.5701 11.4451C20.671 11.6929 20.8188 11.9222 20.9918 12.1219C18.2702 15.8942 16.3958 20.3174 15.5739 24.9366C15.5631 25.0142 15.61 25.0845 15.6857 25.0993C15.6929 25.0993 15.7001 25.0993 15.7073 25.0993C15.7722 25.0993 15.8299 25.0549 15.8407 24.9883C16.6517 20.4246 18.5009 16.0532 21.1865 12.3253C21.8101 12.906 22.7077 13.2018 23.562 13.0317C24.3766 12.8727 25.1012 12.3179 25.541 11.5746C25.6599 11.9074 25.8005 12.244 25.9699 12.5657C25.4436 13.9378 25.0291 15.3653 24.7515 16.8114C24.7371 16.889 24.784 16.9593 24.8561 16.9741C24.8669 16.9778 24.8741 16.9778 24.8813 16.9778C24.9462 16.9778 25.0039 16.9334 25.0147 16.8669C25.2778 15.5059 25.6635 14.1634 26.1465 12.869C26.2619 13.0539 26.3881 13.2388 26.5323 13.4089C27.0333 13.9896 27.8408 14.4704 28.6771 14.4704C28.969 14.4704 29.2682 14.4112 29.5566 14.278C29.8414 14.1449 30.0937 13.9452 30.3172 13.6863C31.0057 14.781 31.3914 16.0162 31.6762 17.1035C32.3827 19.7885 32.7215 22.5586 32.6855 25.336C32.6855 25.4136 32.7432 25.4765 32.8189 25.4765C32.8189 25.4765 32.8189 25.4765 32.8225 25.4765C32.8946 25.4765 32.9559 25.4173 32.9559 25.3397C32.9919 22.5364 32.6495 19.7404 31.9393 17.0296C31.6401 15.8979 31.2328 14.6035 30.4938 13.4607C30.7642 13.0761 30.9841 12.5805 31.1463 11.9851C31.2364 11.6559 31.2941 11.2935 31.3157 10.9311C35.043 12.6582 37.9448 16.2307 38.9072 20.31C38.9217 20.3729 38.9757 20.4135 39.037 20.4135C39.0478 20.4135 39.0586 20.4135 39.0695 20.4098C39.1415 20.3913 39.1848 20.3174 39.1668 20.2434C38.1791 16.0458 35.1764 12.3697 31.3265 10.6278C31.3229 10.0805 31.2148 9.5479 30.9588 9.1078C30.9769 9.1152 30.9949 9.1263 31.0129 9.1263C33.1974 9.42216 35.4107 10.7683 37.5951 13.1316ZM43.3843 30.0106C43.4059 29.9367 43.3699 29.859 43.2978 29.8331L43.1175 29.774C43.0491 29.7481 42.9698 29.7887 42.9481 29.859C42.9229 29.933 42.9625 30.0106 43.031 30.0365L43.2149 30.0994C43.2257 30.1031 43.2401 30.1031 43.2545 30.1031C43.3122 30.1031 43.3663 30.0698 43.3843 30.0106ZM43.0887 32.6771C43.1428 32.6253 43.1464 32.5366 43.0959 32.4811C42.8436 32.2111 42.3966 32.1815 42.1154 32.4182C42.0578 32.4663 42.0469 32.5551 42.0974 32.6142C42.1443 32.6734 42.2308 32.6808 42.2849 32.6327C42.4579 32.4885 42.7427 32.507 42.8977 32.6734C42.9229 32.703 42.9589 32.7141 42.995 32.7141C43.031 32.7141 43.0635 32.703 43.0887 32.6771ZM43.0455 31.7341C43.0995 31.6823 43.1031 31.5935 43.0527 31.538C42.9157 31.3827 42.6922 31.3198 42.4975 31.379C42.4254 31.4012 42.3858 31.4789 42.4074 31.5528C42.429 31.6231 42.5011 31.6675 42.5732 31.6453C42.6742 31.6157 42.7859 31.649 42.8544 31.723C42.8796 31.7525 42.9193 31.771 42.9553 31.771C42.9878 31.771 43.0202 31.7562 43.0455 31.7341ZM39.6642 22.5216C39.7399 22.5216 39.7976 22.4624 39.8012 22.3847C39.8012 22.0038 39.6895 21.6155 39.4912 21.2974C39.4479 21.2309 39.365 21.2124 39.3038 21.253C39.2389 21.2974 39.2209 21.3825 39.2605 21.4454C39.4335 21.7227 39.5309 22.0556 39.5309 22.3847C39.5273 22.4624 39.5885 22.5216 39.6642 22.5216ZM38.5936 28.5609C38.6657 28.5498 38.7162 28.4795 38.7054 28.4019C38.6693 28.18 38.5251 27.9766 38.3269 27.873C38.262 27.8397 38.1791 27.8693 38.1466 27.9359C38.1106 28.0062 38.1394 28.0875 38.2079 28.1245C38.3269 28.1837 38.417 28.3094 38.4386 28.4463C38.4494 28.5165 38.5071 28.5646 38.572 28.5646C38.5792 28.5646 38.5864 28.5646 38.5936 28.5609ZM38.262 29.859C38.2944 29.7887 38.262 29.7074 38.1935 29.6741C38.0313 29.6001 37.8835 29.4781 37.7826 29.3301C37.7393 29.2673 37.6564 29.2525 37.5951 29.2969C37.5338 29.3375 37.5194 29.4263 37.5627 29.4892C37.6924 29.6815 37.8727 29.8331 38.0854 29.9293C38.1034 29.9367 38.1214 29.9404 38.1394 29.9404C38.1899 29.9404 38.2404 29.9108 38.262 29.859ZM35.8793 26.1459C35.8793 26.0682 35.8216 26.0054 35.7459 26.0054H35.5044C35.4323 26.0054 35.371 26.0682 35.371 26.1459C35.371 26.2199 35.4323 26.2827 35.5044 26.2827H35.7459C35.8216 26.2827 35.8793 26.2199 35.8793 26.1459ZM35.6053 27.5328C35.6486 27.4699 35.6342 27.3811 35.5729 27.3405L35.0358 26.9595C34.9745 26.9189 34.8916 26.9336 34.8483 26.9965C34.8087 27.0594 34.8231 27.1444 34.8844 27.1888L35.4179 27.5661C35.4431 27.5846 35.4683 27.592 35.4972 27.592C35.5404 27.592 35.5801 27.5698 35.6053 27.5328ZM32.7576 27.5624V27.1001C32.7576 27.0224 32.6963 26.9595 32.6206 26.9595C32.5485 26.9595 32.4872 27.0224 32.4872 27.1001V27.5624C32.4872 27.64 32.5485 27.6992 32.6206 27.6992C32.6963 27.6992 32.7576 27.64 32.7576 27.5624ZM28.6771 26.9337C28.7383 26.8893 28.7492 26.8005 28.7059 26.7413L28.5257 26.4936C28.4788 26.4307 28.3959 26.4196 28.3346 26.464C28.2769 26.512 28.2625 26.5971 28.3094 26.66L28.4896 26.9041C28.5148 26.941 28.5545 26.9595 28.5978 26.9595C28.623 26.9595 28.6518 26.9521 28.6771 26.9337ZM28.0679 28.6423C28.0859 28.5683 28.0426 28.4943 27.9669 28.4758L27.729 28.413C27.6533 28.3945 27.5812 28.4389 27.5632 28.5128C27.5452 28.5905 27.5884 28.6645 27.6605 28.6829L27.902 28.7458C27.9129 28.7458 27.9237 28.7495 27.9345 28.7495C27.9958 28.7495 28.0498 28.7051 28.0679 28.6423ZM28.0462 30.2325C28.0859 30.166 28.0679 30.0809 28.0066 30.0402C27.7759 29.8849 27.5055 29.785 27.2316 29.7555C27.1487 29.7518 27.0874 29.8035 27.0802 29.8775C27.073 29.9552 27.127 30.0217 27.2027 30.0328C27.4334 30.0587 27.6641 30.1401 27.8588 30.2732C27.8804 30.288 27.9093 30.2954 27.9345 30.2954C27.9777 30.2954 28.021 30.2732 28.0462 30.2325ZM21.0603 24.5186C21.1144 24.4632 21.1144 24.3744 21.0639 24.3226L20.8801 24.134C20.8296 24.0823 20.7431 24.0822 20.689 24.1377C20.6385 24.1895 20.6385 24.2783 20.689 24.3337L20.8692 24.515C20.8981 24.5445 20.9305 24.5556 20.9666 24.5556C21.0026 24.5556 21.0351 24.5445 21.0603 24.5186ZM20.4799 25.606C20.516 25.5394 20.498 25.4543 20.4331 25.4136L20.1339 25.2287C20.069 25.188 19.9861 25.2102 19.9464 25.2768C19.9068 25.3397 19.9284 25.4247 19.9933 25.4654L20.2925 25.6503C20.3141 25.6651 20.3394 25.6725 20.3646 25.6725C20.4078 25.6725 20.4547 25.6466 20.4799 25.606ZM15.7181 26.1311C15.7433 26.0571 15.7073 25.9795 15.6388 25.9536C15.5667 25.9277 15.491 25.9647 15.4658 26.0387C15.3468 26.3789 15.2783 26.7339 15.2711 27.0964C15.2675 27.174 15.3252 27.2369 15.4009 27.2369H15.4045C15.4766 27.2369 15.5379 27.1777 15.5415 27.1038C15.5487 26.7709 15.61 26.4455 15.7181 26.1311ZM12.9641 29.3117C13.0074 29.2488 12.9965 29.1637 12.9389 29.1157L12.6974 28.9307C12.6361 28.8827 12.5532 28.8974 12.5063 28.9603C12.4631 29.0195 12.4739 29.1083 12.5351 29.1526L12.7731 29.3376C12.7983 29.356 12.8271 29.3634 12.856 29.3634C12.8956 29.3634 12.9389 29.3449 12.9641 29.3117ZM12.6253 30.6246C12.6361 30.5506 12.582 30.4803 12.5099 30.4692C12.4306 30.4618 12.3585 30.3916 12.3441 30.3102C12.3333 30.2362 12.2612 30.1845 12.1891 30.1956C12.117 30.2103 12.0665 30.2806 12.0773 30.3546C12.1098 30.558 12.2792 30.7207 12.4775 30.7466C12.4811 30.7466 12.4883 30.7466 12.4919 30.7466C12.5604 30.7466 12.6181 30.6948 12.6253 30.6246Z" fill="#F79494"/>
<path d="M43.2978 29.8331C43.3699 29.859 43.4059 29.9367 43.3843 30.0106C43.3663 30.0698 43.3122 30.1031 43.2545 30.1031C43.2401 30.1031 43.2257 30.1031 43.2149 30.0994L43.031 30.0365C42.9626 30.0106 42.9229 29.933 42.9481 29.859C42.9698 29.7887 43.0491 29.7481 43.1176 29.774L43.2978 29.8331Z" fill="#4D4D4D"/>
<path d="M43.096 32.4811C43.1464 32.5366 43.1428 32.6254 43.0887 32.6771C43.0635 32.703 43.0311 32.7141 42.995 32.7141C42.959 32.7141 42.9229 32.703 42.8977 32.6734C42.7427 32.507 42.4579 32.4885 42.2849 32.6327C42.2308 32.6808 42.1443 32.6734 42.0974 32.6143C42.047 32.5551 42.0578 32.4663 42.1155 32.4182C42.3966 32.1816 42.8436 32.2111 43.096 32.4811Z" fill="#4D4D4D"/>
<path d="M43.0527 31.538C43.1032 31.5935 43.0996 31.6823 43.0455 31.734C43.0202 31.7562 42.9878 31.771 42.9554 31.771C42.9193 31.771 42.8797 31.7525 42.8544 31.723C42.7859 31.649 42.6742 31.6157 42.5733 31.6453C42.5012 31.6675 42.4291 31.6231 42.4074 31.5528C42.3858 31.4789 42.4255 31.4012 42.4976 31.379C42.6922 31.3198 42.9157 31.3827 43.0527 31.538Z" fill="#4D4D4D"/>
<path d="M40.7673 44.3675C40.8214 44.6707 40.7998 44.9851 40.6988 45.2736C40.6772 45.3327 40.6267 45.366 40.5691 45.366C40.5546 45.366 40.5402 45.366 40.5258 45.3586C40.4537 45.3327 40.4177 45.2551 40.4429 45.1811C40.5294 44.937 40.5474 44.6707 40.5006 44.4156C40.4898 44.3416 40.5366 44.2676 40.6087 44.2528C40.6844 44.2417 40.7529 44.2898 40.7673 44.3675Z" fill="#4D4D4D"/>
<path d="M39.8012 22.3847C39.7976 22.4624 39.74 22.5216 39.6643 22.5216C39.5886 22.5216 39.5273 22.4624 39.5309 22.3847C39.5309 22.0556 39.4336 21.7227 39.2605 21.4454C39.2209 21.3825 39.2389 21.2974 39.3038 21.253C39.3651 21.2124 39.448 21.2309 39.4912 21.2974C39.6895 21.6155 39.8012 22.0038 39.8012 22.3847Z" fill="#4D4D4D"/>
<path d="M38.7054 28.4019C38.7162 28.4795 38.6657 28.5498 38.5936 28.5609C38.5864 28.5646 38.5792 28.5646 38.572 28.5646C38.5071 28.5646 38.4494 28.5165 38.4386 28.4463C38.417 28.3094 38.3269 28.1837 38.2079 28.1245C38.1394 28.0875 38.1106 28.0062 38.1467 27.9359C38.1791 27.8693 38.262 27.8397 38.3269 27.873C38.5251 27.9766 38.6693 28.18 38.7054 28.4019Z" fill="#4D4D4D"/>
<path d="M38.1935 29.6741C38.262 29.7074 38.2945 29.7887 38.262 29.859C38.2404 29.9108 38.1899 29.9404 38.1395 29.9404C38.1214 29.9404 38.1034 29.9367 38.0854 29.9293C37.8727 29.8331 37.6925 29.6815 37.5627 29.4892C37.5195 29.4263 37.5339 29.3375 37.5952 29.2969C37.6564 29.2525 37.7393 29.2673 37.7826 29.3302C37.8835 29.4781 38.0313 29.6001 38.1935 29.6741Z" fill="#4D4D4D"/>
<path d="M35.7459 26.0054C35.8216 26.0054 35.8793 26.0682 35.8793 26.1459C35.8793 26.2199 35.8216 26.2827 35.7459 26.2827H35.5044C35.4323 26.2827 35.371 26.2199 35.371 26.1459C35.371 26.0682 35.4323 26.0054 35.5044 26.0054H35.7459Z" fill="#4D4D4D"/>
<path d="M35.5729 27.3405C35.6342 27.3811 35.6486 27.4699 35.6053 27.5328C35.5801 27.5698 35.5405 27.592 35.4972 27.592C35.4684 27.592 35.4431 27.5846 35.4179 27.5661L34.8844 27.1888C34.8231 27.1444 34.8087 27.0594 34.8483 26.9965C34.8916 26.9336 34.9745 26.9189 35.0358 26.9595L35.5729 27.3405Z" fill="#4D4D4D"/>
<path d="M35.4179 44.2898C35.4756 44.3342 35.4864 44.4229 35.4395 44.4821C35.3602 44.5894 35.3566 44.7558 35.4323 44.8667C35.4756 44.9296 35.4612 45.0147 35.3999 45.059C35.3783 45.0775 35.3494 45.0849 35.3242 45.0849C35.2809 45.0849 35.2377 45.0664 35.2124 45.0258C35.0646 44.815 35.0719 44.5154 35.2269 44.312C35.2449 44.2824 35.2737 44.2676 35.3026 44.2639C35.3422 44.2528 35.3855 44.2639 35.4179 44.2898Z" fill="#4D4D4D"/>
<path d="M35.3242 45.085L35.4143 46.0058C35.3999 46.0058 35.3891 46.0095 35.3746 46.0132C35.3025 46.0391 35.2629 46.1168 35.2881 46.1907C35.5152 46.9082 35.3097 47.7403 34.7799 48.2655C34.751 48.2951 34.7402 48.3321 34.7438 48.3727C32.8549 48.6205 30.9733 48.835 29.0916 48.9904C29.3439 48.6871 29.5134 48.3062 29.553 47.9142C29.5602 47.8365 29.5062 47.7662 29.4341 47.7588L29.5819 46.8897C29.6359 46.8897 29.6864 46.8564 29.7044 46.8047C29.7981 46.5791 29.8594 46.3387 29.8883 46.0946C29.9531 45.5103 29.8306 44.9333 29.7116 44.3749C29.6612 44.1382 29.6107 43.9015 29.5746 43.6648C29.4269 42.7106 29.5206 41.7306 29.6323 40.8948C29.6936 40.4288 29.7801 39.7779 29.5638 39.249C30.5191 39.2934 31.4599 39.323 32.3899 39.323C32.9739 39.323 33.5543 39.3119 34.1346 39.2897C34.7654 39.5708 35.1043 40.3585 35.162 41.0686C35.1944 41.505 35.1547 41.9562 35.1187 42.3889C35.0863 42.7772 35.0502 43.184 35.0682 43.5834C35.0682 43.6574 35.1295 43.7166 35.2016 43.7166C35.2052 43.7166 35.2052 43.7166 35.2088 43.7166L35.3025 44.2639C35.2737 44.2676 35.2449 44.2824 35.2268 44.312C35.0718 44.5154 35.0646 44.815 35.2124 45.0258C35.2377 45.0665 35.2809 45.085 35.3242 45.085Z" fill="#DB6A6A"/>
<path d="M32.7576 27.1001V27.5624C32.7576 27.64 32.6963 27.6992 32.6206 27.6992C32.5485 27.6992 32.4872 27.64 32.4872 27.5624V27.1001C32.4872 27.0224 32.5485 26.9595 32.6206 26.9595C32.6963 26.9595 32.7576 27.0224 32.7576 27.1001Z" fill="#4D4D4D"/>
<path d="M32.5377 5.46867C32.599 6.14546 32.3539 6.85923 31.8564 7.42507C31.359 7.99091 30.6921 8.31637 30.0288 8.32376C29.863 8.32376 29.7188 8.44211 29.6828 8.60853C29.6431 8.77126 29.7188 8.94508 29.8666 9.02274C30.6741 9.44435 30.7426 10.7129 30.4506 11.7854C30.191 12.7469 29.7873 13.3572 29.2574 13.6049C29.2466 13.6086 29.2358 13.6123 29.225 13.616L29.1997 12.3956C29.1997 12.3216 29.1385 12.2588 29.0664 12.2588H29.0628C28.9871 12.2625 28.9294 12.3253 28.9294 12.403L28.9582 13.7011C28.8176 13.727 28.6771 13.727 28.5365 13.7159C28.5581 13.2277 28.5437 12.7432 28.486 12.2588C28.4752 12.1848 28.4103 12.1293 28.3346 12.1404C28.2589 12.1478 28.2084 12.2181 28.2157 12.292C28.2697 12.7506 28.2841 13.2092 28.2661 13.6678C27.8083 13.5532 27.3758 13.2684 27.073 12.9208C26.4746 12.2218 26.179 11.2417 25.9195 10.38C25.8726 10.2247 25.732 10.1174 25.5734 10.1174C25.5698 10.1174 25.5626 10.1174 25.5554 10.1174C25.3932 10.1285 25.2562 10.2506 25.2201 10.417C25.0904 11.0901 24.6722 11.6744 24.1243 12.0184C23.8395 11.545 23.6088 11.0383 23.4394 10.5058C23.4142 10.4355 23.3385 10.3948 23.27 10.417C23.1979 10.4429 23.1582 10.5206 23.1835 10.5945C23.3565 11.1382 23.5944 11.6596 23.8864 12.1478C23.753 12.2107 23.6196 12.2588 23.4791 12.292C23.133 11.7965 22.8735 11.2269 22.7365 10.6352C22.7221 10.5612 22.65 10.5169 22.5743 10.5353C22.5022 10.5501 22.4589 10.6278 22.4733 10.7018C22.6103 11.2787 22.8554 11.8372 23.1799 12.3327C22.3652 12.3808 21.5397 11.9037 21.2333 11.1567C20.8909 10.3319 21.2766 9.25204 22.0408 8.8896C22.1706 8.83043 22.2535 8.68989 22.2499 8.54196C22.2426 8.39033 22.1525 8.26089 22.0155 8.20911C21.6587 8.07227 21.2802 8.02789 20.9161 7.98351C20.3502 7.91695 19.8635 7.85777 19.604 7.50644C19.4346 7.27714 19.4526 7.01456 19.4959 6.82964C19.586 6.44872 19.878 6.07889 20.2204 5.91247C20.9161 5.57222 21.8065 5.70906 22.5238 5.82001C22.6896 5.8459 22.8554 5.74604 22.9131 5.58332C22.9744 5.41689 22.9131 5.23568 22.7653 5.13952C22.1345 4.7364 21.893 3.77115 22.2463 3.07586C22.5995 2.38798 23.4935 2.01814 24.2397 2.25114C24.975 2.48043 25.5374 3.26817 25.5482 4.0855C25.5518 4.28891 25.7104 4.43684 25.9122 4.44793C26.1105 4.44793 26.2727 4.27781 26.2691 4.07441C26.2691 3.97085 26.2619 3.871 26.2475 3.76745C26.2871 3.71937 26.316 3.65649 26.3268 3.58623C26.4241 2.87615 26.5323 2.07362 26.9324 1.47079C27.2712 0.960428 27.9525 0.575804 28.504 0.812496C29.1204 1.08247 29.3007 1.98856 29.1204 2.70973C29.0916 2.83177 29.124 2.96492 29.207 3.05367C29.2935 3.14613 29.4196 3.18681 29.5386 3.16462C30.1874 3.03888 30.9048 3.22749 31.4996 3.68239C32.0943 4.14098 32.4728 4.78818 32.5377 5.46867ZM30.757 6.4857C30.793 6.41913 30.7714 6.33777 30.7065 6.29709L30.1694 5.98273C30.1045 5.94205 30.0252 5.96794 29.9856 6.03451C29.9495 6.10108 29.9712 6.18614 30.036 6.22312L30.5731 6.53748C30.5948 6.55227 30.6164 6.55597 30.6416 6.55597C30.6885 6.55597 30.7317 6.53378 30.757 6.4857ZM30.6056 7.26605C30.6633 7.21427 30.6705 7.1292 30.62 7.07003C30.3965 6.80745 30.1081 6.59665 29.7945 6.46351C29.726 6.43392 29.6467 6.46721 29.6179 6.54118C29.5891 6.61144 29.6215 6.69281 29.69 6.7224C29.9676 6.83704 30.2199 7.02196 30.4145 7.25125C30.4434 7.28454 30.4794 7.29933 30.5191 7.29933C30.5479 7.29933 30.5804 7.28824 30.6056 7.26605ZM26.6152 5.55743C26.6801 5.52414 26.7089 5.43908 26.6728 5.37251L26.6152 5.25047C26.5827 5.1802 26.4998 5.15431 26.4349 5.18759C26.3664 5.22088 26.3412 5.30224 26.3737 5.37251L26.4313 5.49455C26.4566 5.54633 26.5034 5.57222 26.5539 5.57222C26.5755 5.57222 26.5935 5.56852 26.6152 5.55743ZM25.3103 7.27344C25.3715 7.22536 25.386 7.1403 25.3391 7.07743C25.2201 6.91101 25.0255 6.80006 24.8236 6.77787C24.7443 6.77047 24.683 6.82594 24.6758 6.90361C24.6686 6.97758 24.7227 7.04784 24.7984 7.05524C24.9246 7.06634 25.0471 7.1366 25.1228 7.24385C25.148 7.28084 25.1913 7.29933 25.231 7.29933C25.2598 7.29933 25.2886 7.29193 25.3103 7.27344ZM25.2778 8.10926C25.3247 8.05009 25.3175 7.96133 25.2598 7.91325L24.5388 7.29933C24.4812 7.24755 24.3983 7.25495 24.3478 7.31412C24.3009 7.37329 24.3081 7.46205 24.3658 7.51013L25.0868 8.12775C25.112 8.14994 25.1444 8.16104 25.1733 8.16104C25.2129 8.16104 25.2526 8.14255 25.2778 8.10926Z" fill="#DB6A6A"/>
<path d="M30.7065 6.29708C30.7714 6.33777 30.793 6.41913 30.757 6.4857C30.7317 6.53378 30.6885 6.55596 30.6416 6.55596C30.6164 6.55596 30.5948 6.55227 30.5731 6.53748L30.036 6.22312C29.9711 6.18614 29.9495 6.10108 29.9856 6.03451C30.0252 5.96794 30.1045 5.94205 30.1694 5.98273L30.7065 6.29708Z" fill="#4D4D4D"/>
<path d="M30.62 7.07003C30.6705 7.1292 30.6633 7.21427 30.6056 7.26605C30.5804 7.28824 30.5479 7.29933 30.5191 7.29933C30.4794 7.29933 30.4434 7.28454 30.4145 7.25125C30.2199 7.02196 29.9676 6.83704 29.69 6.7224C29.6215 6.69281 29.5891 6.61144 29.6179 6.54118C29.6467 6.46721 29.726 6.43392 29.7945 6.46351C30.1081 6.59665 30.3965 6.80745 30.62 7.07003Z" fill="#4D4D4D"/>
<path d="M29.4449 44.434C29.5674 44.9962 29.6792 45.525 29.6179 46.0613C29.5927 46.2832 29.5386 46.494 29.4557 46.6974C29.4268 46.7677 29.4593 46.849 29.5278 46.8786C29.5458 46.886 29.5638 46.8897 29.5818 46.8897L29.4341 47.7588C29.3548 47.7588 29.2935 47.8069 29.2863 47.8846C29.2394 48.3284 29.0087 48.75 28.6662 49.0273C26.7594 49.179 24.8489 49.2566 22.9348 49.2492C23.4142 48.713 23.6088 47.9067 23.3745 47.2115C23.3565 47.1523 23.3024 47.119 23.2484 47.119V46.3756C23.2988 46.3756 23.3457 46.3498 23.3709 46.3017L23.461 46.1168C23.4935 46.0465 23.4683 45.9651 23.3998 45.9319C23.3781 45.9208 23.3565 45.9134 23.3349 45.9134L23.4178 44.9888C23.4827 44.9888 23.5403 44.937 23.5512 44.8704L24.2252 40.2217C24.2613 39.9739 24.3478 39.36 24.1387 38.8903C24.6542 38.931 25.1697 38.9716 25.6888 39.0086C26.9144 39.1011 28.1003 39.1787 29.261 39.2379C29.4953 39.6595 29.4485 40.2439 29.3656 40.8578C29.2502 41.7121 29.1529 42.718 29.3079 43.7092C29.3439 43.9496 29.3944 44.1936 29.4449 44.434ZM27.1523 40.451C27.1847 40.3844 27.1595 40.2993 27.091 40.266L26.972 40.2032C26.9071 40.1699 26.8242 40.1958 26.7918 40.266C26.7558 40.3326 26.7846 40.4177 26.8495 40.451L26.972 40.5138C26.9901 40.5212 27.0117 40.5286 27.0297 40.5286C27.0802 40.5286 27.127 40.499 27.1523 40.451ZM26.9865 41.394C27.0081 41.3201 26.9648 41.2424 26.8927 41.2239L26.471 41.1056C26.3989 41.0871 26.3232 41.1315 26.3052 41.2054C26.2835 41.2794 26.3268 41.357 26.3989 41.3755L26.8206 41.4902C26.8351 41.4939 26.8459 41.4976 26.8567 41.4976C26.918 41.4976 26.972 41.4569 26.9865 41.394Z" fill="#DB6A6A"/>
<path d="M28.7059 26.7413C28.7492 26.8005 28.7384 26.8893 28.6771 26.9337C28.6519 26.9522 28.623 26.9595 28.5978 26.9595C28.5545 26.9595 28.5149 26.9411 28.4896 26.9041L28.3094 26.66C28.2626 26.5971 28.277 26.512 28.3346 26.464C28.3959 26.4196 28.4788 26.4307 28.5257 26.4936L28.7059 26.7413Z" fill="#4D4D4D"/>
<path d="M27.967 28.4758C28.0427 28.4943 28.0859 28.5683 28.0679 28.6423C28.0499 28.7051 27.9958 28.7495 27.9345 28.7495C27.9237 28.7495 27.9129 28.7458 27.9021 28.7458L27.6606 28.6829C27.5885 28.6645 27.5452 28.5905 27.5632 28.5128C27.5813 28.4389 27.6533 28.3945 27.729 28.413L27.967 28.4758Z" fill="#4D4D4D"/>
<path d="M28.0066 30.0402C28.0679 30.0809 28.0859 30.166 28.0462 30.2326C28.021 30.2732 27.9777 30.2954 27.9345 30.2954C27.9093 30.2954 27.8804 30.288 27.8588 30.2732C27.6641 30.1401 27.4334 30.0587 27.2027 30.0328C27.127 30.0217 27.073 29.9552 27.0802 29.8775C27.0874 29.8036 27.1487 29.7518 27.2316 29.7555C27.5055 29.7851 27.7759 29.8849 28.0066 30.0402Z" fill="#4D4D4D"/>
<path d="M27.091 40.266C27.1595 40.2993 27.1847 40.3844 27.1523 40.451C27.1271 40.499 27.0802 40.5286 27.0297 40.5286C27.0117 40.5286 26.9901 40.5212 26.9721 40.5138L26.8495 40.451C26.7846 40.4177 26.7558 40.3326 26.7918 40.266C26.8243 40.1958 26.9072 40.1699 26.9721 40.2032L27.091 40.266Z" fill="#4D4D4D"/>
<path d="M26.8927 41.2239C26.9648 41.2424 27.0081 41.3201 26.9864 41.394C26.972 41.4569 26.9179 41.4976 26.8567 41.4976C26.8459 41.4976 26.835 41.4939 26.8206 41.4902L26.3989 41.3756C26.3268 41.3571 26.2835 41.2794 26.3051 41.2054C26.3232 41.1315 26.3989 41.0871 26.471 41.1056L26.8927 41.2239Z" fill="#4D4D4D"/>
<path d="M26.6729 5.37251C26.7089 5.43908 26.6801 5.52414 26.6152 5.55742C26.5936 5.56852 26.5756 5.57222 26.5539 5.57222C26.5035 5.57222 26.4566 5.54633 26.4314 5.49455L26.3737 5.37251C26.3413 5.30224 26.3665 5.22088 26.435 5.18759C26.4999 5.15431 26.5828 5.1802 26.6152 5.25046L26.6729 5.37251Z" fill="#4D4D4D"/>
<path d="M25.3391 7.07743C25.3859 7.1403 25.3715 7.22536 25.3102 7.27344C25.2886 7.29193 25.2598 7.29933 25.2309 7.29933C25.1913 7.29933 25.148 7.28084 25.1228 7.24385C25.0471 7.1366 24.9245 7.06634 24.7984 7.05524C24.7227 7.04784 24.6686 6.97757 24.6758 6.90361C24.683 6.82594 24.7443 6.77047 24.8236 6.77787C25.0255 6.80006 25.2201 6.91101 25.3391 7.07743Z" fill="#4D4D4D"/>
<path d="M25.2598 7.91326C25.3175 7.96133 25.3247 8.05009 25.2779 8.10927C25.2526 8.14255 25.213 8.16104 25.1733 8.16104C25.1445 8.16104 25.112 8.14994 25.0868 8.12775L24.3659 7.51014C24.3082 7.46206 24.301 7.3733 24.3478 7.31413C24.3983 7.25495 24.4812 7.24756 24.5389 7.29934L25.2598 7.91326Z" fill="#4D4D4D"/>
<path d="M23.8107 38.8644C24.0018 39.1196 24.0486 39.5523 23.9585 40.181L23.2844 44.8298C23.2736 44.9037 23.3241 44.974 23.3962 44.9851C23.4034 44.9888 23.4106 44.9888 23.4178 44.9888L23.3349 45.9134C23.288 45.9134 23.2412 45.943 23.2196 45.991L23.1294 46.176C23.097 46.2462 23.1222 46.3276 23.1907 46.3646C23.2087 46.372 23.2304 46.3757 23.2484 46.3757V47.119C23.234 47.119 23.2159 47.119 23.2015 47.1264C23.1294 47.1523 23.0934 47.23 23.1186 47.3039C23.3529 47.9918 23.097 48.8054 22.5383 49.2492C22.3616 49.2492 22.185 49.2529 22.0084 49.2492C20.3105 49.2197 18.6704 49.1087 17.0879 48.9238C17.0771 48.9016 17.0663 48.8831 17.0555 48.8609C16.9473 48.5983 16.9654 48.2877 16.9798 48.0103L17.0843 45.9688C17.0879 45.8912 17.0303 45.8283 16.9582 45.8246C16.8861 45.8098 16.8176 45.8764 16.814 45.9541L16.7094 47.9955C16.695 48.2618 16.6842 48.5872 16.7815 48.8868C14.9503 48.6575 13.1984 48.3284 11.5259 47.892C11.1906 47.3742 11.0933 46.6937 11.3132 46.1094C11.342 46.0391 11.306 45.9578 11.2375 45.9319C11.2231 45.9245 11.205 45.9208 11.187 45.9208L11.3024 44.974C11.3564 44.974 11.4069 44.9407 11.4285 44.8815C11.7998 43.8608 11.9512 42.7439 11.8719 41.6566C11.8503 41.4199 11.8214 41.1795 11.7926 40.9391C11.7097 40.2254 11.6196 39.4857 11.8395 38.82C12.0233 38.2653 12.427 37.7956 12.9353 37.5256C14.5718 37.84 16.2264 38.0877 17.899 38.2912C17.3042 39.1455 16.9257 40.1847 16.8392 41.2276C16.832 41.3053 16.8861 41.3718 16.9618 41.3792C16.9654 41.3792 16.969 41.3792 16.9726 41.3792C17.0411 41.3792 17.1023 41.3238 17.106 41.2535C17.1961 40.2143 17.5818 39.1824 18.191 38.3466C18.1946 38.3429 18.1982 38.3355 18.1982 38.3281C20.051 38.5463 21.9219 38.7165 23.8107 38.8644ZM17.0591 43.184C17.1817 43.0176 17.2177 42.792 17.1528 42.5923C17.1276 42.5183 17.0519 42.4776 16.9798 42.5035C16.9113 42.5294 16.8716 42.6071 16.8969 42.6773C16.9329 42.792 16.9113 42.9251 16.8428 43.0176C16.7959 43.0805 16.8104 43.1692 16.868 43.2136C16.8933 43.2321 16.9221 43.2395 16.951 43.2395C16.9906 43.2395 17.0339 43.221 17.0591 43.184Z" fill="#DB6A6A"/>
<path d="M23.3998 45.9319C23.4683 45.9651 23.4935 46.0465 23.4611 46.1168L23.371 46.3017C23.3457 46.3498 23.2989 46.3756 23.2484 46.3756C23.2304 46.3756 23.2087 46.372 23.1907 46.3646C23.1222 46.3276 23.097 46.2462 23.1294 46.1759L23.2196 45.991C23.2412 45.943 23.2881 45.9134 23.3349 45.9134C23.3565 45.9134 23.3782 45.9208 23.3998 45.9319Z" fill="#4D4D4D"/>
<path d="M21.0639 24.3226C21.1144 24.3744 21.1144 24.4632 21.0603 24.5186C21.0351 24.5445 21.0026 24.5556 20.9666 24.5556C20.9306 24.5556 20.8981 24.5445 20.8693 24.515L20.689 24.3337C20.6386 24.2783 20.6386 24.1895 20.689 24.1377C20.7431 24.0822 20.8296 24.0823 20.8801 24.134L21.0639 24.3226Z" fill="#4D4D4D"/>
<path d="M20.4331 25.4136C20.498 25.4543 20.516 25.5394 20.48 25.606C20.4547 25.6466 20.4079 25.6725 20.3646 25.6725C20.3394 25.6725 20.3142 25.6651 20.2925 25.6503L19.9933 25.4654C19.9285 25.4247 19.9068 25.3397 19.9465 25.2768C19.9861 25.2102 20.069 25.188 20.1339 25.2287L20.4331 25.4136Z" fill="#4D4D4D"/>
<path d="M17.1528 42.5923C17.2177 42.792 17.1816 43.0176 17.0591 43.184C17.0338 43.221 16.9906 43.2395 16.9509 43.2395C16.9221 43.2395 16.8933 43.2321 16.868 43.2136C16.8104 43.1692 16.7959 43.0805 16.8428 43.0176C16.9113 42.9251 16.9329 42.792 16.8969 42.6773C16.8716 42.6071 16.9113 42.5294 16.9798 42.5035C17.0519 42.4776 17.1276 42.5183 17.1528 42.5923Z" fill="#4D4D4D"/>
<path d="M15.6388 25.9536C15.7073 25.9795 15.7434 26.0572 15.7181 26.1311C15.61 26.4455 15.5487 26.7709 15.5415 27.1038C15.5379 27.1777 15.4766 27.2369 15.4045 27.2369H15.4009C15.3252 27.2369 15.2676 27.174 15.2712 27.0964C15.2784 26.7339 15.3469 26.3789 15.4658 26.0387C15.491 25.9647 15.5667 25.9277 15.6388 25.9536Z" fill="#4D4D4D"/>
<path d="M12.9389 29.1157C12.9966 29.1637 13.0074 29.2488 12.9642 29.3117C12.9389 29.345 12.8957 29.3634 12.856 29.3634C12.8272 29.3634 12.7983 29.3561 12.7731 29.3376L12.5352 29.1526C12.4739 29.1083 12.4631 29.0195 12.5064 28.9603C12.5532 28.8975 12.6361 28.8827 12.6974 28.9307L12.9389 29.1157Z" fill="#4D4D4D"/>
<path d="M12.51 30.4692C12.582 30.4803 12.6361 30.5506 12.6253 30.6246C12.6181 30.6948 12.5604 30.7466 12.4919 30.7466C12.4883 30.7466 12.4811 30.7466 12.4775 30.7466C12.2793 30.7207 12.1098 30.558 12.0774 30.3546C12.0666 30.2806 12.117 30.2104 12.1891 30.1956C12.2612 30.1845 12.3333 30.2362 12.3441 30.3102C12.3586 30.3916 12.4306 30.4618 12.51 30.4692Z" fill="#4D4D4D"/>
<path d="M12.5351 37.4479C12.099 37.7586 11.7565 38.2135 11.5835 38.7313C11.342 39.4598 11.4357 40.2291 11.5258 40.9724C11.5547 41.2091 11.5835 41.4458 11.6015 41.6788C11.6808 42.7254 11.533 43.8016 11.1762 44.7854C11.1509 44.8594 11.1834 44.937 11.2555 44.9629C11.2699 44.9703 11.2879 44.974 11.3023 44.974L11.187 45.9208C11.1329 45.9208 11.0824 45.9541 11.0608 46.0095C10.8445 46.5865 10.8986 47.2448 11.1617 47.7958C9.71265 47.4038 8.32123 46.9341 6.9983 46.3831C6.40352 45.514 6.61259 44.2787 6.73876 43.761C6.82888 43.3948 6.94783 43.025 7.06318 42.67C7.26505 42.0486 7.47412 41.4088 7.53901 40.7431C7.56784 40.4251 7.56424 40.0922 7.56424 39.7742C7.55703 39.0567 7.55342 38.3799 7.88506 37.8104C7.92111 37.7438 7.89948 37.6587 7.8382 37.6181C7.81657 37.607 7.79494 37.5996 7.76971 37.5996L8.31762 36.9265C8.32844 36.9339 8.33925 36.9413 8.35367 36.945C8.36809 36.9524 8.38611 36.9561 8.40053 36.9561C8.4546 36.9561 8.50507 36.9228 8.5267 36.8673C8.56996 36.7601 8.66368 36.6713 8.78624 36.6232C8.82949 36.6047 8.87636 36.6047 8.92322 36.601C10.1164 36.9265 11.3204 37.2039 12.5351 37.4479Z" fill="#DB6A6A"/>
<path d="M8.31762 36.9265L7.7697 37.5996C7.72284 37.5996 7.67598 37.6255 7.65075 37.6661C7.28307 38.306 7.28667 39.053 7.29388 39.7779C7.29388 40.0885 7.29749 40.4103 7.26865 40.7173C7.20737 41.3534 7.00551 41.9784 6.80725 42.5812C6.6919 42.9436 6.56933 43.3172 6.47561 43.6944C6.32782 44.3009 6.18002 45.3364 6.58375 46.2018C6.09351 45.991 5.61048 45.7728 5.14187 45.5398C4.29115 45.1182 3.37916 44.6079 2.59694 43.9348C2.12112 42.9029 2.09588 41.6566 2.57531 40.6248C2.70147 40.3474 2.86729 40.0811 3.0295 39.8223C3.1773 39.5782 3.3359 39.3267 3.46207 39.0604C3.7901 38.391 3.94871 37.6403 3.91987 36.8932C3.91626 36.8155 3.85138 36.7675 3.77928 36.7601C3.70359 36.7638 3.64591 36.8266 3.64951 36.9043C3.67475 37.6033 3.52696 38.306 3.22055 38.9347C3.09799 39.1898 2.9466 39.4339 2.7988 39.6743C2.63659 39.9369 2.46717 40.2143 2.33019 40.5064C1.89762 41.4347 1.85076 42.5331 2.14995 43.5132C1.91565 43.2765 1.69576 43.0213 1.50111 42.7402C0.751324 41.6455 0.333177 39.8703 1.19831 38.5648C1.33889 38.3503 1.51192 38.1506 1.69215 37.9435C2.00576 37.5811 2.33019 37.2113 2.51763 36.7268C2.81683 35.9575 2.67624 35.1661 2.54287 34.4005C2.46717 33.9604 2.39507 33.5499 2.39868 33.1468C2.4131 32.2814 2.90334 31.4382 3.7144 30.8835C4.49662 30.3472 5.41222 30.2067 6.18002 30.4877C6.01421 31.9671 5.97095 33.4575 6.05746 34.9368C5.65013 34.7852 5.27885 34.5928 5.15268 34.2748C5.07338 34.0862 4.8643 33.9974 4.68046 34.0751C4.49662 34.1528 4.41011 34.371 4.48581 34.5596C4.53988 34.6927 4.61197 34.8074 4.69488 34.9109C4.44616 34.9812 4.21185 35.1143 4.02801 35.2992C3.97394 35.351 3.97394 35.4398 4.02441 35.4952C4.05324 35.5248 4.08569 35.5359 4.12173 35.5359C4.15778 35.5359 4.19022 35.5248 4.21545 35.4989C4.4065 35.3066 4.65884 35.1883 4.92558 35.1513C5.21757 35.3991 5.59967 35.5618 5.98177 35.6949C6.81085 35.9834 7.64714 36.246 8.49065 36.4827C8.39332 36.5603 8.31762 36.6528 8.27437 36.7675C8.25274 36.8229 8.27076 36.8895 8.31762 36.9265Z" fill="#DB6A6A"/>
</svg>
