<svg width="60" height="60" viewBox="0 0 60 60" fill="none" xmlns="http://www.w3.org/2000/svg">
<path d="M59.9858 43.4375C60.0593 44.334 59.8344 45.1816 59.6138 46.0026C59.4364 46.6639 59.272 47.2897 59.2547 47.9198C59.2461 48.3814 59.3153 48.8518 59.3932 49.3489C59.5013 50.0634 59.6138 50.8001 59.4754 51.5545C59.3023 52.4865 58.7703 53.3652 57.8489 54.2395C55.1497 56.8047 51.3734 57.5458 47.4111 58.136C40.7885 59.1213 34.2914 60 27.6947 60C27.2622 60 26.8296 59.9956 26.3927 59.9867C18.5071 59.8447 11.573 58.318 5.79394 55.4466C4.14587 54.6256 2.29881 53.5561 1.09628 51.7986C-0.210071 49.8947 -0.365794 47.4183 0.719946 45.7763C0.923252 45.4701 1.15684 45.1994 1.3861 44.9375C1.72783 44.547 2.04792 44.1786 2.21662 43.7437C2.48481 43.0558 2.34639 42.2703 2.19932 41.436C2.10416 40.8945 2.00467 40.3309 2.01332 39.7584C2.03495 38.4315 2.77031 37.1489 3.97717 36.3234C5.08453 35.5645 6.39088 35.3426 7.52853 35.6932C8.09952 31.6236 9.43182 27.6561 11.4606 24.1279C14.4409 18.9443 18.8315 14.9147 24.5067 12.1454C24.5933 11.5329 24.8528 10.9471 25.2551 10.4944C25.1686 10.4856 25.0821 10.4723 24.9955 10.4634C24.2342 10.3702 23.3691 10.2681 22.8327 9.54028C22.5169 9.11423 22.4174 8.55949 22.5559 7.98699C22.7246 7.27248 23.2523 6.60678 23.8968 6.29169C24.5673 5.96328 25.2983 5.9189 25.9904 5.96328C25.5579 5.15557 25.5016 4.12152 25.9299 3.2783C26.5485 2.07561 28.0451 1.44986 29.3385 1.84928C29.9744 2.04898 30.5281 2.47947 30.9174 3.03866C31.0428 2.42622 31.2418 1.81377 31.6051 1.2679C32.1978 0.371433 33.4306 -0.325328 34.5423 0.158411C35.5588 0.602208 35.9568 1.77827 35.8789 2.86557C35.8962 2.86557 35.9135 2.86557 35.9308 2.86557C36.757 2.86557 37.6005 3.15848 38.3186 3.70879C39.2226 4.40555 39.8023 5.41296 39.9061 6.47364C40.0056 7.53431 39.6292 8.63937 38.8679 9.50034C38.63 9.77549 38.3575 10.0107 38.072 10.206C40.6458 10.7652 43.2239 12.4205 45.7414 15.1499C51.421 21.3009 54.4792 29.733 54.2889 38.1519C55.4914 38.5912 56.7286 39.0528 57.8057 39.856C59.0817 40.8058 59.8733 42.1105 59.9858 43.4375ZM58.7789 45.7719C58.9866 44.9908 59.1855 44.2496 59.125 43.5129C59.0341 42.4434 58.368 41.3738 57.2996 40.575C56.3912 39.9004 55.3184 39.4744 54.2543 39.0838C54.1851 40.433 54.0337 41.7821 53.7914 43.1224C54.2283 42.8872 54.6479 42.6387 55.0589 42.3768C55.2622 42.2481 55.5304 42.3102 55.6558 42.5188C55.7812 42.7274 55.7207 43.0026 55.5174 43.1313C54.8685 43.544 54.1764 43.9212 53.467 44.2718C53.4194 44.3118 53.3632 44.3384 53.3026 44.3562C53.1166 44.4449 52.9306 44.5381 52.736 44.6269C52.7619 44.6269 52.7836 44.6269 52.8052 44.6269C52.9869 44.6357 53.1772 44.6446 53.3589 44.6934C53.8174 44.8221 54.2154 45.2304 54.4143 45.7852C54.5874 46.2645 54.6047 46.7704 54.622 47.2586C54.6263 47.3518 54.5528 47.4272 54.4662 47.4317C54.4619 47.4317 54.4619 47.4317 54.4576 47.4317C54.3711 47.4317 54.3019 47.3606 54.2975 47.2719C54.2802 46.8103 54.2629 46.331 54.1115 45.9006C53.9472 45.4479 53.6314 45.115 53.2724 45.0174C53.1253 44.9775 52.9609 44.9686 52.7922 44.9597C52.5803 44.9508 52.3683 44.9375 52.1693 44.8665C50.7592 45.4612 49.2408 45.9405 47.6231 46.3044C48.2027 46.4686 48.6655 47.0677 48.8861 47.6802C49.4182 49.158 49.1414 50.8356 48.9208 52.1847C48.9078 52.2646 48.8386 52.3223 48.7607 52.3223C48.7521 52.3223 48.7434 52.3223 48.7347 52.3223C48.6439 52.3045 48.5834 52.2202 48.6007 52.127C48.8256 50.7513 49.0808 49.1891 48.5833 47.7956C48.3411 47.121 47.7744 46.4908 47.1689 46.6018C47.0823 46.6195 46.9958 46.5574 46.9829 46.4686C46.9829 46.4642 46.9829 46.4553 46.9829 46.4509C45.8495 46.6817 44.6686 46.8592 43.4445 46.979C42.8086 47.0411 42.177 47.0855 41.5455 47.1166C42.1338 47.6225 42.4582 48.479 42.5188 49.2557C42.5577 49.806 42.5101 50.3607 42.4669 50.8933C42.4279 51.3548 42.3847 51.8253 42.4063 52.2868C42.4063 52.38 42.3371 52.4554 42.2506 52.4599C42.2463 52.4599 42.2463 52.4599 42.2419 52.4599C42.1554 52.4599 42.0819 52.3889 42.0819 52.3001C42.0603 51.8208 42.1035 51.3326 42.1424 50.8666C42.1857 50.3474 42.2333 49.806 42.1944 49.2823C42.1251 48.4302 41.7185 47.4849 40.9615 47.1476C40.2651 47.1743 39.5687 47.1876 38.8679 47.1876C37.7519 47.1876 36.6229 47.1521 35.4766 47.0988C35.7361 47.7334 35.6323 48.5145 35.5588 49.0737C35.4247 50.0767 35.3122 51.2528 35.4896 52.3978C35.5328 52.6818 35.5934 52.9658 35.654 53.2498C35.7967 53.92 35.9438 54.6123 35.8659 55.3135C35.8313 55.6064 35.7578 55.8949 35.6453 56.1656C35.6237 56.2277 35.5631 56.2677 35.4982 56.2677C35.4766 56.2677 35.455 56.2632 35.4334 56.2543C35.3512 56.2188 35.3122 56.1212 35.3468 56.0369C35.4463 55.7928 35.5112 55.5398 35.5415 55.2735C35.615 54.63 35.4809 53.9954 35.3339 53.3208C35.2733 53.0324 35.2127 52.7395 35.1695 52.451C34.9835 51.2616 35.1003 50.0545 35.2387 49.0293C35.3382 48.2926 35.3944 47.5914 35.1133 47.0855C33.7204 47.0145 32.2972 46.9213 30.8265 46.8104C30.2036 46.766 29.5851 46.7172 28.9665 46.6683C29.2174 47.232 29.1136 47.9687 29.0703 48.266L28.2614 53.8445C28.2484 53.9244 28.1792 53.9865 28.1014 53.9865C28.0927 53.9865 28.0841 53.9865 28.0754 53.9821C27.9889 53.9688 27.9283 53.8845 27.9413 53.7957L28.7502 48.2172C28.8584 47.4627 28.8021 46.9435 28.5729 46.6373C26.3062 46.4597 24.0612 46.2556 21.8378 45.9938C21.8378 46.0026 21.8335 46.0115 21.8292 46.016C21.0981 47.0189 20.6353 48.2571 20.5271 49.5042C20.5228 49.5885 20.4493 49.6551 20.3671 49.6551C20.3628 49.6551 20.3584 49.6551 20.3541 49.6551C20.2633 49.6462 20.1984 49.5663 20.207 49.4731C20.3109 48.2216 20.765 46.9746 21.4788 45.9494C19.4717 45.7053 17.4862 45.4079 15.5223 45.0307C14.9124 45.3547 14.428 45.9183 14.2073 46.584C13.9435 47.3828 14.0516 48.2704 14.1511 49.127C14.1857 49.4154 14.2203 49.7039 14.2463 49.9879C14.3414 51.2927 14.1598 52.633 13.7142 53.8578C13.6883 53.9289 13.6277 53.9688 13.5628 53.9688C13.5455 53.9688 13.5239 53.9644 13.5066 53.9555C13.4201 53.9244 13.3811 53.8312 13.4114 53.7425C13.8397 52.562 14.017 51.2705 13.9219 50.0146C13.9002 49.735 13.8656 49.4509 13.831 49.1669C13.7229 48.2749 13.6104 47.3518 13.9002 46.4775C14.1079 45.8562 14.5188 45.3103 15.0422 44.9375C13.5845 44.6446 12.1397 44.3118 10.7079 43.9212C10.6517 43.9257 10.5954 43.9257 10.5435 43.9479C10.3964 44.0055 10.284 44.1121 10.2321 44.2408C10.2061 44.3073 10.1456 44.3473 10.0807 44.3473C10.0634 44.3473 10.0417 44.3428 10.0244 44.334C10.0071 44.3295 9.99416 44.3206 9.98118 44.3118C9.92495 44.2674 9.90332 44.1875 9.92927 44.1209C9.98118 43.9834 10.072 43.8724 10.1888 43.7792C9.17661 43.4952 8.17305 43.1801 7.17815 42.8339C6.71963 42.6742 6.26111 42.4789 5.91074 42.1815C5.59064 42.2259 5.28784 42.3679 5.05858 42.5987C5.0283 42.6298 4.98937 42.6431 4.94611 42.6431C4.90286 42.6431 4.86393 42.6298 4.82932 42.5943C4.76876 42.5277 4.76876 42.4212 4.83365 42.3591C5.05425 42.1372 5.33542 41.9774 5.63389 41.8931C5.5344 41.7688 5.44789 41.6312 5.38301 41.4715C5.29217 41.2451 5.39598 40.9833 5.61659 40.8901C5.8372 40.7969 6.08809 40.9034 6.18325 41.1297C6.33465 41.5114 6.78019 41.7422 7.26899 41.9241C7.16518 40.149 7.21708 38.3605 7.41606 36.5853C6.4947 36.248 5.39598 36.4166 4.45731 37.0601C3.48404 37.7258 2.89575 38.7377 2.87845 39.7762C2.87412 40.2599 2.96064 40.7525 3.05148 41.2806C3.21152 42.1993 3.38023 43.149 3.0212 44.0721C2.79626 44.6535 2.40695 45.0973 2.03062 45.5322C1.81434 45.7807 1.60671 46.0204 1.43801 46.2778C0.399848 47.8444 0.901624 49.9746 1.80136 51.2883C2.03495 51.6255 2.29881 51.9318 2.57998 52.2158C2.22095 51.0397 2.27718 49.7217 2.79626 48.6077C2.96064 48.2571 3.16394 47.9243 3.3586 47.6092C3.53595 47.3207 3.71763 47.0278 3.8647 46.7216C4.23238 45.9671 4.40973 45.1239 4.37945 44.2851C4.37513 44.1919 4.44434 44.1165 4.53518 44.1121C4.62169 44.1209 4.69955 44.1786 4.70388 44.2718C4.73848 45.1683 4.54815 46.0692 4.15452 46.8725C4.00312 47.192 3.81279 47.4938 3.63544 47.7867C3.44079 48.0974 3.2418 48.4169 3.09041 48.7497C2.51509 49.9879 2.54537 51.4835 3.11636 52.7217C4.05503 53.5294 5.14942 54.1419 6.17027 54.6478C6.73261 54.9274 7.31225 55.1892 7.90054 55.4422C7.41606 54.4037 7.59342 53.1611 7.77077 52.4333C7.88323 51.9806 8.03031 51.5324 8.16873 51.0974C8.40664 50.374 8.64888 49.624 8.72241 48.8607C8.75702 48.4923 8.75269 48.1062 8.75269 47.7334C8.74404 46.8636 8.73972 45.9671 9.18093 45.1994C9.21121 45.1505 9.26745 45.1195 9.32368 45.1195C9.35396 45.1195 9.37991 45.1284 9.40587 45.1417C9.4794 45.1905 9.50536 45.2926 9.4621 45.3724C9.06414 46.0559 9.06847 46.868 9.07712 47.729C9.07712 48.1107 9.08144 48.5101 9.04684 48.8918C8.96898 49.6906 8.71809 50.4584 8.47585 51.2039C8.33743 51.63 8.19468 52.0738 8.08654 52.5131C7.93514 53.1345 7.68426 54.6167 8.39799 55.6597C9.98551 56.3209 11.6552 56.8845 13.3941 57.355C13.0783 56.6937 13.0135 55.9037 13.273 55.2114C13.299 55.1449 13.3595 55.1049 13.4244 55.1049C13.446 55.1049 13.4677 55.1094 13.485 55.1182C13.5671 55.1493 13.6104 55.2469 13.5758 55.3312C13.3119 56.0324 13.4287 56.849 13.831 57.4704C15.8381 57.994 17.9404 58.389 20.1378 58.6642C20.021 58.3047 20.034 57.9141 20.0513 57.5946L20.1768 55.1449C20.1811 55.0517 20.2633 54.9718 20.3498 54.9895C20.4363 54.994 20.5055 55.0694 20.5012 55.1626L20.3757 57.6124C20.3584 57.9452 20.3368 58.318 20.4666 58.6331C20.4796 58.6597 20.4925 58.6819 20.5055 58.7085C22.4045 58.9304 24.3726 59.0636 26.41 59.0991C26.622 59.1035 26.8339 59.0991 27.0459 59.0991C27.7164 58.5665 28.0235 57.5902 27.7423 56.7647C27.7121 56.676 27.7553 56.5828 27.8418 56.5517C27.8591 56.5428 27.8808 56.5428 27.8981 56.5428C27.9629 56.5428 28.0278 56.5828 28.0495 56.6538C28.3306 57.4881 28.097 58.4556 27.5217 59.0991C29.8186 59.108 32.1112 59.0148 34.3995 58.8328C34.8105 58.5 35.0873 57.994 35.1435 57.4615C35.1522 57.3683 35.2257 57.3106 35.3209 57.3106C35.4074 57.3195 35.4723 57.4038 35.4636 57.497C35.416 57.9674 35.2127 58.4245 34.9099 58.7884C37.1679 58.602 39.4259 58.3446 41.6926 58.0473C41.6883 57.9985 41.7012 57.9541 41.7358 57.9186C42.3717 57.2884 42.6183 56.2898 42.3458 55.4289C42.3155 55.3401 42.3631 55.2469 42.4496 55.2159C42.4669 55.2114 42.4798 55.207 42.4972 55.207C42.5664 55.207 42.6312 55.2558 42.6529 55.3224C42.9427 56.2366 42.7178 57.2795 42.1035 57.994C43.8251 57.7677 45.5511 57.5147 47.2857 57.2573C47.6014 57.2085 47.9172 57.1597 48.2286 57.1109C48.5141 56.8801 48.7045 56.5251 48.7131 56.1478C48.7131 56.0591 48.8083 55.9836 48.8775 55.9836C48.9683 55.9881 49.0375 56.0635 49.0375 56.1567C49.0289 56.4718 48.9207 56.7736 48.7434 57.0266C50.9581 56.6582 53.0604 56.1656 54.8729 55.2469C55.0286 54.9496 55.0502 54.4925 54.9421 53.8623L54.3235 50.2986C54.3062 50.2098 54.3668 50.1211 54.4533 50.1078C54.4619 50.1078 54.4749 50.1033 54.4835 50.1033C54.5571 50.1033 54.6263 50.161 54.6393 50.2409L55.2578 53.8046C55.3011 54.0354 55.3876 54.5502 55.2881 55.025C56.0019 54.6256 56.6637 54.1552 57.2649 53.5871C58.0306 52.8549 58.4891 52.1182 58.6232 51.3903C58.7357 50.7868 58.6405 50.1566 58.5367 49.4864C58.4588 48.9716 58.381 48.4391 58.3896 47.8976C58.4112 47.1565 58.5973 46.4509 58.7789 45.7719ZM52.8138 43.6106C54.8166 33.7361 51.8752 23.085 45.1142 15.7579C42.4928 12.922 39.8369 11.3066 37.2155 10.9516C37.1939 10.9516 37.1723 10.9382 37.1506 10.9294C37.4578 11.4575 37.5875 12.0965 37.5919 12.7534C42.2117 14.8436 45.8149 19.255 47.0002 24.2921C47.0218 24.3808 46.9699 24.4696 46.8834 24.4918C46.8704 24.4962 46.8574 24.4962 46.8444 24.4962C46.7709 24.4962 46.706 24.4474 46.6887 24.372C45.5338 19.4769 42.0516 15.1898 37.5789 13.1173C37.5529 13.5522 37.4837 13.9871 37.3756 14.3821C37.1809 15.0966 36.917 15.6913 36.5926 16.1529C37.4794 17.5242 37.9682 19.0775 38.3272 20.4355C39.1794 23.6885 39.5903 27.0436 39.5471 30.4076C39.5471 30.5008 39.4735 30.5718 39.387 30.5718C39.3827 30.5718 39.3827 30.5718 39.3827 30.5718C39.2918 30.5718 39.2226 30.4964 39.2226 30.4032C39.2659 27.0703 38.8593 23.7462 38.0114 20.5243C37.6697 19.2195 37.2069 17.7372 36.3807 16.4236C36.1125 16.7342 35.8097 16.9739 35.468 17.1337C35.1219 17.2934 34.7629 17.3644 34.4125 17.3644C33.4089 17.3644 32.44 16.7875 31.8387 16.0907C31.6657 15.8866 31.5143 15.6647 31.3759 15.4428C30.7962 16.9961 30.3334 18.6071 30.0176 20.2402C30.0046 20.3201 29.9354 20.3734 29.8576 20.3734C29.8489 20.3734 29.8403 20.3734 29.8273 20.3689C29.7408 20.3512 29.6846 20.2668 29.7019 20.1737C30.0349 18.4384 30.5324 16.7254 31.1639 15.0789C30.9606 14.6928 30.7919 14.2889 30.6492 13.8895C30.1214 14.7815 29.252 15.4472 28.2744 15.638C27.2492 15.8422 26.1721 15.4872 25.4238 14.7904C22.2012 19.2639 19.9821 24.5096 19.0088 29.986C18.9959 30.0659 18.9266 30.1191 18.8488 30.1191C18.8401 30.1191 18.8315 30.1191 18.8228 30.1191C18.732 30.1014 18.6758 30.0171 18.6887 29.9239C19.675 24.3808 21.9243 19.073 25.1902 14.5463C24.9826 14.3067 24.8052 14.0315 24.6841 13.7342C24.6019 13.5389 24.55 13.3347 24.5154 13.1262C19.1775 15.8111 15.0335 19.6589 12.2046 24.5806C9.18526 29.8262 7.74481 36.066 8.14277 42.1416C8.1471 42.1682 8.13845 42.1949 8.13412 42.217C11.3567 43.291 14.6615 44.0322 18.0356 44.5692C17.9144 41.4448 17.9231 38.285 18.0745 35.174C18.0788 35.0808 18.1437 35.0187 18.2432 35.0142C18.334 35.0187 18.4032 35.0985 18.3989 35.1873C18.2475 38.3161 18.2389 41.4848 18.3643 44.6224C21.2495 45.0707 24.1823 45.3813 27.154 45.6343C26.968 37.6814 27.725 29.7153 29.412 21.9533C29.4293 21.8645 29.5115 21.8113 29.6067 21.829C29.6932 21.8468 29.7451 21.9355 29.7278 22.0287C28.0451 29.773 27.2881 37.7258 27.4785 45.6609C28.6118 45.7541 29.7494 45.8429 30.8914 45.9272C33.2965 46.1047 35.5761 46.2512 37.7995 46.2867C37.7995 46.2733 37.7995 46.26 37.8038 46.2423C38.5997 42.47 38.9761 38.6001 38.9198 34.7391C38.9198 34.6503 38.9934 34.5749 39.0842 34.5704C39.175 34.5704 39.2443 34.6459 39.2443 34.7346C39.3005 38.6134 38.9242 42.5011 38.1239 46.2911C39.7158 46.3133 41.286 46.2689 42.8519 46.1358C42.7351 45.7008 42.5361 45.2881 42.2722 44.9286C42.216 44.8532 42.229 44.7511 42.3025 44.6934C42.3717 44.6402 42.4755 44.6535 42.5274 44.7289C42.8346 45.1372 43.0508 45.6121 43.1806 46.1091C43.2412 46.1047 43.3017 46.1003 43.3623 46.0958C43.4099 46.0914 43.4618 46.0825 43.5137 46.0781C43.4099 45.6343 43.2066 45.2171 42.9167 44.8665C42.8605 44.7955 42.8692 44.6934 42.9384 44.6313C43.0032 44.5736 43.1071 44.5825 43.1676 44.6535C43.492 45.0485 43.7256 45.5278 43.8381 46.0381C44.0501 46.0159 44.262 45.9893 44.474 45.9627C44.4091 45.9583 44.3485 45.9139 44.3269 45.8473L43.8295 44.2141C43.8035 44.1298 43.8511 44.0366 43.9376 44.0056C44.0241 43.9834 44.1149 44.0277 44.1409 44.1165L44.634 45.7497C44.66 45.834 44.6167 45.9272 44.5302 45.9538C45.6462 45.8074 46.7147 45.6121 47.7442 45.3724C48.7607 40.2732 48.8083 34.8811 47.8826 29.773C47.8653 29.6798 47.9215 29.5955 48.0124 29.5777C48.0989 29.56 48.1854 29.6221 48.1984 29.7109C49.1284 34.8145 49.0851 40.1978 48.0902 45.2926C49.2798 44.9952 50.4088 44.6269 51.4772 44.1964L50.7938 43.544C50.7289 43.4819 50.7245 43.3754 50.7851 43.3088C50.8457 43.2422 50.9495 43.2378 51.0144 43.2999L51.8103 44.0588C51.9141 44.0144 52.0179 43.9701 52.1217 43.9257L51.2999 43.0913C51.235 43.0292 51.235 42.9227 51.2999 42.8561C51.3604 42.7895 51.4642 42.794 51.5291 42.8561L52.4462 43.7881C52.5716 43.7304 52.6927 43.6727 52.8138 43.6106ZM38.2277 8.91009C38.8247 8.23108 39.1188 7.37455 39.0453 6.5624C38.9674 5.74582 38.5132 4.96917 37.7995 4.41886C37.0858 3.87299 36.2249 3.64665 35.4463 3.79754C35.3036 3.82417 35.1522 3.77536 35.0484 3.66441C34.9489 3.5579 34.9099 3.39813 34.9446 3.25168C35.1608 2.38627 34.9446 1.29897 34.2049 0.974995C33.543 0.690965 32.7255 1.15251 32.3189 1.76495C31.8387 2.48834 31.709 3.45138 31.5922 4.30347C31.5792 4.38779 31.5446 4.46324 31.497 4.52094C31.5143 4.6452 31.523 4.76502 31.523 4.88929C31.5273 5.13338 31.3326 5.33752 31.0947 5.33752C30.8525 5.32421 30.6622 5.14669 30.6578 4.9026C30.6448 3.92181 29.97 2.97652 29.0876 2.70137C28.1922 2.42177 27.1194 2.86558 26.6955 3.69104C26.2716 4.52538 26.5614 5.68369 27.3184 6.16743C27.4958 6.28281 27.5693 6.50027 27.4958 6.69998C27.4266 6.89525 27.2276 7.01508 27.0286 6.98401C26.1678 6.85087 25.0994 6.68667 24.2645 7.09496C23.8536 7.29467 23.5032 7.73846 23.395 8.19557C23.3431 8.41747 23.3215 8.73257 23.5248 9.00772C23.8363 9.42933 24.4202 9.50033 25.0994 9.58022C25.5362 9.63347 25.9904 9.68673 26.4187 9.85093C26.5831 9.91307 26.6912 10.0684 26.6998 10.2504C26.7042 10.4279 26.6047 10.5965 26.449 10.6675C25.5319 11.1024 25.0691 12.3983 25.48 13.388C25.8477 14.2845 26.8383 14.857 27.8159 14.7993C27.4266 14.2046 27.1324 13.5345 26.968 12.8421C26.9507 12.7534 27.0026 12.6602 27.0892 12.6424C27.18 12.6202 27.2665 12.6735 27.2838 12.7622C27.4482 13.4723 27.7596 14.1558 28.1749 14.7505C28.3436 14.7105 28.5036 14.6528 28.6637 14.5774C28.3133 13.9916 28.0278 13.3658 27.8202 12.7134C27.7899 12.6247 27.8375 12.5315 27.924 12.5004C28.0062 12.4738 28.097 12.5226 28.1273 12.6069C28.3306 13.246 28.6075 13.854 28.9492 14.422C29.6067 14.0093 30.1085 13.3081 30.2642 12.5004C30.3074 12.3007 30.4718 12.1542 30.6665 12.1409C30.6751 12.1409 30.6838 12.1409 30.6881 12.1409C30.8784 12.1409 31.0471 12.2696 31.1034 12.456C31.4148 13.4901 31.7695 14.6661 32.4876 15.5049C32.8509 15.9221 33.37 16.2638 33.9194 16.4014C33.941 15.8511 33.9237 15.3008 33.8588 14.7505C33.8502 14.6617 33.9107 14.5774 34.0016 14.5685C34.0924 14.5552 34.1703 14.6218 34.1832 14.7105C34.2524 15.2919 34.2698 15.8733 34.2438 16.4591C34.4125 16.4724 34.5812 16.4724 34.7499 16.4413L34.7153 14.8836C34.7153 14.7904 34.7845 14.7149 34.8753 14.7105H34.8797C34.9662 14.7105 35.0397 14.786 35.0397 14.8747L35.07 16.3393C35.083 16.3348 35.096 16.3304 35.1089 16.3259C35.7448 16.0286 36.2293 15.2963 36.5407 14.1425C36.8911 12.8554 36.8089 11.3332 35.84 10.8273C35.6626 10.7341 35.5718 10.5255 35.6194 10.3302C35.6626 10.1305 35.8356 9.98852 36.0346 9.98852C36.8305 9.97964 37.6308 9.5891 38.2277 8.91009Z" fill="#665151"/>
<path d="M59.125 43.5129C59.1856 44.2496 58.9866 44.9908 58.779 45.7719C58.5973 46.4509 58.4113 47.1565 58.3897 47.8976C58.381 48.4391 58.4589 48.9716 58.5367 49.4864C58.6405 50.1566 58.7357 50.7867 58.6232 51.3903C58.4891 52.1181 58.0306 52.8548 57.265 53.5871C56.6637 54.1552 56.0019 54.6256 55.2882 55.025C55.3876 54.5501 55.3011 54.0353 55.2579 53.8046L54.6393 50.2409C54.6263 50.161 54.5571 50.1033 54.4836 50.1033L54.5009 48.9938C54.5917 48.9938 54.6653 48.9228 54.6653 48.8296V48.6077C54.6653 48.5145 54.5917 48.4391 54.5009 48.4391L54.4663 47.4317C54.5528 47.4272 54.6263 47.3518 54.622 47.2586C54.6047 46.7704 54.5874 46.2645 54.4144 45.7852C54.2154 45.2304 53.8174 44.8221 53.3589 44.6934C53.1772 44.6446 52.9869 44.6357 52.8052 44.6269C52.7836 44.6269 52.762 44.6269 52.736 44.6269C52.9307 44.5381 53.1167 44.4449 53.3027 44.3561C53.3632 44.3384 53.4195 44.3118 53.4671 44.2718C54.1765 43.9212 54.8686 43.544 55.5174 43.1313C55.7207 43.0026 55.7813 42.7274 55.6558 42.5188C55.5304 42.3102 55.2622 42.2481 55.0589 42.3768C54.648 42.6386 54.2284 42.8872 53.7915 43.1224C54.0337 41.7821 54.1851 40.433 54.2543 39.0838C55.3184 39.4744 56.3912 39.9004 57.2996 40.575C58.368 41.3738 59.0342 42.4434 59.125 43.5129Z" fill="#A07CA0"/>
<path d="M54.9421 53.8623C55.0502 54.4925 55.0286 54.9496 54.8729 55.2469C53.0604 56.1656 50.9582 56.6582 48.7434 57.0266C48.9208 56.7736 49.0289 56.4718 49.0376 56.1567C49.0376 56.0635 48.9684 55.9881 48.8775 55.9836C48.8083 55.9836 48.7132 56.0591 48.7132 56.1478C48.7045 56.5251 48.5142 56.8801 48.2287 57.1109C47.9172 57.1597 47.6015 57.2085 47.2857 57.2573C45.5511 57.5147 43.8252 57.7677 42.1035 57.994C42.7178 57.2795 42.9427 56.2366 42.6529 55.3224C42.6313 55.2558 42.5664 55.207 42.4972 55.207L42.389 54.1019C42.4193 54.1019 42.4539 54.0931 42.4799 54.0709C42.5534 54.0176 42.5707 53.9155 42.5188 53.8401C42.428 53.707 42.4323 53.5072 42.5275 53.3785C42.5837 53.3075 42.5707 53.201 42.5015 53.1478C42.4626 53.1167 42.4107 53.1034 42.3631 53.1167L42.2506 52.4599C42.3371 52.4554 42.4063 52.38 42.4063 52.2868C42.3847 51.8253 42.428 51.3548 42.4669 50.8933C42.5102 50.3607 42.5577 49.806 42.5188 49.2557C42.4582 48.479 42.1338 47.6225 41.5455 47.1166C42.1771 47.0855 42.8086 47.0411 43.4445 46.979C44.6687 46.8592 45.8496 46.6816 46.9829 46.4509C46.9829 46.4553 46.9829 46.4642 46.9829 46.4686C46.9959 46.5574 47.0824 46.6195 47.1689 46.6018C47.7745 46.4908 48.3411 47.121 48.5834 47.7956C49.0808 49.1891 48.8256 50.7513 48.6007 52.127C48.5834 52.2202 48.6439 52.3045 48.7348 52.3223C48.7434 52.3223 48.7521 52.3223 48.7607 52.3223C48.8386 52.3223 48.9078 52.2646 48.9208 52.1847C49.1414 50.8356 49.4182 49.158 48.8862 47.6802C48.6656 47.0677 48.2027 46.4686 47.6231 46.3044C49.2409 45.9405 50.7592 45.4612 52.1694 44.8665C52.3683 44.9375 52.5803 44.9508 52.7922 44.9597C52.9609 44.9686 53.1253 44.9775 53.2724 45.0174C53.6314 45.115 53.9472 45.4479 54.1116 45.9006C54.263 46.331 54.2803 46.8103 54.2976 47.2719C54.3019 47.3606 54.3711 47.4317 54.4576 47.4317C54.4619 47.4317 54.462 47.4317 54.4663 47.4317L54.5009 48.4391C54.4144 48.4391 54.3408 48.5145 54.3408 48.6077V48.8296C54.3408 48.9228 54.4144 48.9938 54.5009 48.9938L54.4836 50.1033C54.4749 50.1033 54.462 50.1078 54.4533 50.1078C54.3668 50.1211 54.3062 50.2098 54.3235 50.2986L54.9421 53.8623ZM48.8386 54.3283C48.9597 53.9821 48.9857 53.6049 48.9208 53.241C48.9035 53.1478 48.8213 53.0901 48.7305 53.1034C48.6439 53.1211 48.5877 53.2099 48.6007 53.2987C48.6569 53.6049 48.6353 53.9244 48.5315 54.2173C48.5012 54.3061 48.5444 54.3993 48.631 54.4303C48.6483 54.4392 48.6656 54.4392 48.6829 54.4392C48.7521 54.4392 48.8126 54.3993 48.8386 54.3283Z" fill="#A07CA0"/>
<path d="M54.6652 48.6077V48.8296C54.6652 48.9228 54.5917 48.9938 54.5008 48.9938C54.4143 48.9938 54.3408 48.9228 54.3408 48.8296V48.6077C54.3408 48.5145 54.4143 48.4391 54.5008 48.4391C54.5917 48.4391 54.6652 48.5145 54.6652 48.6077Z" fill="#665151"/>
<path d="M45.1141 15.7579C51.8751 23.085 54.8165 33.7361 52.8138 43.6106C52.6926 43.6727 52.5715 43.7304 52.4461 43.7881L51.529 42.8561C51.4642 42.794 51.3603 42.7895 51.2998 42.8561C51.2349 42.9227 51.2349 43.0292 51.2998 43.0913L52.1217 43.9257C52.0178 43.97 51.914 44.0144 51.8102 44.0588L51.0143 43.2999C50.9494 43.2378 50.8456 43.2422 50.785 43.3088C50.7245 43.3753 50.7288 43.4819 50.7937 43.544L51.4771 44.1964C50.4087 44.6269 49.2797 44.9952 48.0901 45.2925C49.0851 40.1978 49.1283 34.8145 48.1983 29.7108C48.1853 29.6221 48.0988 29.5599 48.0123 29.5777C47.9215 29.5954 47.8652 29.6798 47.8825 29.773C48.8082 34.8811 48.7606 40.2732 47.7441 45.3724C46.7146 45.6121 45.6462 45.8073 44.5301 45.9538C44.6166 45.9272 44.6599 45.834 44.6339 45.7497L44.1408 44.1165C44.1149 44.0277 44.024 43.9833 43.9375 44.0055C43.851 44.0366 43.8034 44.1298 43.8294 44.2141L44.3268 45.8473C44.3485 45.9139 44.409 45.9582 44.4739 45.9627C44.2619 45.9893 44.05 46.0159 43.838 46.0381C43.7256 45.5278 43.492 45.0485 43.1675 44.6535C43.107 44.5825 43.0032 44.5736 42.9383 44.6313C42.8691 44.6934 42.8604 44.7955 42.9167 44.8665C43.2065 45.2171 43.4098 45.6343 43.5136 46.0781C43.4617 46.0825 43.4098 46.0914 43.3622 46.0958C43.3016 46.1003 43.2411 46.1047 43.1805 46.1091C43.0508 45.6121 42.8345 45.1372 42.5274 44.7289C42.4754 44.6535 42.3716 44.6402 42.3024 44.6934C42.2289 44.7511 42.2159 44.8532 42.2721 44.9286C42.536 45.2881 42.735 45.7008 42.8518 46.1358C41.2859 46.2689 39.7157 46.3133 38.1238 46.2911C38.9241 42.5011 39.3004 38.6134 39.2442 34.7346C39.2442 34.6459 39.175 34.5704 39.0841 34.5704C38.9933 34.5748 38.9198 34.6503 38.9198 34.7391C38.976 38.6001 38.5997 42.47 37.8037 46.2423C37.7994 46.26 37.7994 46.2733 37.7994 46.2866C35.576 46.2511 33.2964 46.1047 30.8913 45.9272C29.7494 45.8429 28.6117 45.7541 27.4784 45.6609C27.2881 37.7258 28.0451 29.773 29.7277 22.0287C29.745 21.9355 29.6931 21.8468 29.6066 21.829C29.5115 21.8113 29.4293 21.8645 29.412 21.9533C27.725 29.7153 26.968 37.6814 27.154 45.6343C24.1822 45.3813 21.2494 45.0706 18.3642 44.6224C18.2388 41.4848 18.2474 38.3161 18.3988 35.1873C18.4032 35.0985 18.334 35.0186 18.2431 35.0142C18.1436 35.0186 18.0787 35.0808 18.0744 35.174C17.923 38.285 17.9144 41.4448 18.0355 44.5692C14.6615 44.0322 11.3567 43.291 8.13405 42.217C8.13838 42.1948 8.14703 42.1682 8.1427 42.1416C7.74474 36.066 9.18518 29.8262 12.2045 24.5806C15.0335 19.6588 19.1775 15.8111 24.5153 13.1262C24.5499 13.3347 24.6018 13.5389 24.684 13.7342C24.8051 14.0315 24.9825 14.3066 25.1901 14.5463C21.9242 19.073 19.6749 24.3808 18.6887 29.9239C18.6757 30.0171 18.7319 30.1014 18.8228 30.1191C18.8314 30.1191 18.8401 30.1191 18.8487 30.1191C18.9266 30.1191 18.9958 30.0659 19.0088 29.986C19.982 24.5095 22.2011 19.2639 25.4237 14.7904C26.172 15.4872 27.2491 15.8422 28.2743 15.638C29.2519 15.4472 30.1214 14.7815 30.6491 13.8895C30.7918 14.2889 30.9605 14.6928 31.1639 15.0789C30.5323 16.7253 30.0349 18.4384 29.7018 20.1736C29.6845 20.2668 29.7407 20.3512 29.8272 20.3689C29.8402 20.3733 29.8489 20.3734 29.8575 20.3734C29.9354 20.3734 30.0046 20.3201 30.0176 20.2402C30.3333 18.607 30.7962 16.996 31.3758 15.4428C31.5142 15.6647 31.6656 15.8866 31.8387 16.0907C32.4399 16.7875 33.4089 17.3644 34.4124 17.3644C34.7628 17.3644 35.1218 17.2934 35.4679 17.1336C35.8096 16.9739 36.1124 16.7342 36.3806 16.4236C37.2068 17.7372 37.6696 19.2195 38.0114 20.5242C38.8592 23.7462 39.2658 27.0702 39.2226 30.4032C39.2226 30.4964 39.2918 30.5718 39.3826 30.5718C39.3826 30.5718 39.3826 30.5718 39.3869 30.5718C39.4734 30.5718 39.547 30.5008 39.547 30.4076C39.5902 27.0436 39.1793 23.6885 38.3271 20.4355C37.9681 19.0775 37.4793 17.5242 36.5926 16.1528C36.917 15.6913 37.1808 15.0966 37.3755 14.3821C37.4836 13.9871 37.5528 13.5522 37.5788 13.1173C42.0515 15.1898 45.5337 19.4769 46.6886 24.372C46.7059 24.4474 46.7708 24.4962 46.8444 24.4962C46.8573 24.4962 46.8703 24.4962 46.8833 24.4918C46.9698 24.4696 47.0217 24.3808 47.0001 24.2921C45.8149 19.255 42.2116 14.8436 37.5918 12.7534C37.5875 12.0965 37.4577 11.4575 37.1506 10.9294C37.1722 10.9382 37.1938 10.9515 37.2154 10.9515C39.8368 11.3066 42.4927 12.922 45.1141 15.7579ZM52.0611 36.0128C52.0871 35.924 52.0438 35.8308 51.9573 35.7997L51.741 35.7287C51.6588 35.6977 51.5637 35.7465 51.5377 35.8308C51.5074 35.9196 51.555 36.0128 51.6372 36.0438L51.8578 36.1193C51.8708 36.1237 51.8881 36.1237 51.9054 36.1237C51.9746 36.1237 52.0395 36.0838 52.0611 36.0128ZM51.7064 39.2125C51.7713 39.1504 51.7756 39.0439 51.7151 38.9773C51.4123 38.6534 50.8759 38.6178 50.5385 38.9019C50.4693 38.9596 50.4563 39.0661 50.5168 39.1371C50.5731 39.2081 50.6769 39.217 50.7418 39.1593C50.9494 38.9862 51.2911 39.0084 51.4771 39.2081C51.5074 39.2436 51.5507 39.2569 51.5939 39.2569C51.6372 39.2569 51.6761 39.2436 51.7064 39.2125ZM51.6545 38.0808C51.7194 38.0187 51.7237 37.9122 51.6631 37.8456C51.4988 37.6592 51.2306 37.5838 50.997 37.6548C50.9105 37.6814 50.8629 37.7746 50.8889 37.8634C50.9148 37.9477 51.0013 38.001 51.0878 37.9743C51.209 37.9388 51.343 37.9788 51.4252 38.0675C51.4555 38.103 51.5031 38.1252 51.5464 38.1252C51.5853 38.1252 51.6242 38.1075 51.6545 38.0808ZM47.597 27.0259C47.6879 27.0259 47.7571 26.9549 47.7614 26.8617C47.7614 26.4045 47.6273 25.9386 47.3894 25.5569C47.3375 25.477 47.238 25.4548 47.1645 25.5036C47.0866 25.5569 47.065 25.659 47.1126 25.7344C47.3202 26.0673 47.437 26.4667 47.437 26.8617C47.4327 26.9549 47.5062 27.0259 47.597 27.0259ZM46.3123 34.2731C46.3988 34.2598 46.4594 34.1754 46.4464 34.0822C46.4031 33.816 46.2301 33.5719 45.9922 33.4476C45.9143 33.4077 45.8149 33.4432 45.7759 33.5231C45.7327 33.6074 45.7673 33.705 45.8495 33.7494C45.9922 33.8204 46.1003 33.9713 46.1263 34.1355C46.1393 34.2198 46.2085 34.2775 46.2864 34.2775C46.295 34.2775 46.3037 34.2775 46.3123 34.2731ZM45.9143 35.8308C45.9533 35.7465 45.9143 35.6488 45.8322 35.6089C45.6375 35.5201 45.4601 35.3737 45.339 35.1962C45.2871 35.1207 45.1876 35.103 45.1141 35.1562C45.0406 35.205 45.0233 35.3116 45.0752 35.387C45.2309 35.6178 45.4472 35.7997 45.7024 35.9151C45.724 35.924 45.7456 35.9284 45.7673 35.9284C45.8278 35.9284 45.8884 35.8929 45.9143 35.8308ZM43.0551 31.3751C43.0551 31.2819 42.9859 31.2064 42.895 31.2064H42.6052C42.5187 31.2064 42.4452 31.2819 42.4452 31.3751C42.4452 31.4638 42.5187 31.5393 42.6052 31.5393H42.895C42.9859 31.5393 43.0551 31.4638 43.0551 31.3751ZM42.7263 33.0393C42.7782 32.9639 42.7609 32.8574 42.6874 32.8085L42.0429 32.3514C41.9693 32.3026 41.8699 32.3204 41.8179 32.3958C41.7704 32.4713 41.7877 32.5733 41.8612 32.6266L42.5014 33.0793C42.5317 33.1014 42.562 33.1103 42.5966 33.1103C42.6485 33.1103 42.6961 33.0837 42.7263 33.0393ZM39.3091 33.0748V32.5201C39.3091 32.4269 39.2355 32.3514 39.1447 32.3514C39.0582 32.3514 38.9846 32.4269 38.9846 32.5201V33.0748C38.9846 33.168 39.0582 33.239 39.1447 33.239C39.2355 33.239 39.3091 33.168 39.3091 33.0748ZM34.4124 32.3204C34.486 32.2671 34.4989 32.1606 34.447 32.0896L34.2307 31.7923C34.1745 31.7168 34.075 31.7035 34.0015 31.7567C33.9323 31.8144 33.915 31.9165 33.9712 31.992L34.1875 32.2849C34.2178 32.3292 34.2654 32.3514 34.3173 32.3514C34.3475 32.3514 34.3821 32.3426 34.4124 32.3204ZM33.6814 34.3707C33.703 34.282 33.6511 34.1932 33.5603 34.171L33.2748 34.0956C33.1839 34.0734 33.0974 34.1266 33.0758 34.2154C33.0542 34.3086 33.1061 34.3973 33.1926 34.4195L33.4824 34.495C33.4954 34.495 33.5084 34.4994 33.5213 34.4994C33.5949 34.4994 33.6598 34.4462 33.6814 34.3707ZM33.6554 36.279C33.703 36.1991 33.6814 36.0971 33.6079 36.0483C33.331 35.8619 33.0066 35.742 32.6778 35.7065C32.5783 35.7021 32.5048 35.7642 32.4962 35.853C32.4875 35.9462 32.5524 36.0261 32.6432 36.0394C32.9201 36.0704 33.1969 36.1681 33.4305 36.3279C33.4565 36.3456 33.4911 36.3545 33.5213 36.3545C33.5732 36.3545 33.6252 36.3278 33.6554 36.279ZM25.2723 29.4224C25.3372 29.3558 25.3372 29.2493 25.2766 29.1872L25.056 28.9608C24.9955 28.8987 24.8916 28.8987 24.8268 28.9653C24.7662 29.0274 24.7662 29.1339 24.8268 29.2005L25.043 29.4179C25.0777 29.4534 25.1166 29.4667 25.1598 29.4667C25.2031 29.4667 25.242 29.4534 25.2723 29.4224ZM24.5759 30.7271C24.6191 30.6472 24.5975 30.5452 24.5196 30.4964L24.1606 30.2745C24.0828 30.2256 23.9833 30.2523 23.9357 30.3322C23.8881 30.4076 23.9141 30.5097 23.9919 30.5585L24.3509 30.7804C24.3769 30.7981 24.4072 30.807 24.4375 30.807C24.4894 30.807 24.5456 30.7759 24.5759 30.7271ZM18.8617 31.3573C18.892 31.2686 18.8487 31.1754 18.7665 31.1443C18.68 31.1132 18.5892 31.1576 18.5589 31.2464C18.4161 31.6547 18.334 32.0807 18.3253 32.5156C18.321 32.6088 18.3902 32.6843 18.481 32.6843H18.4854C18.5719 32.6843 18.6454 32.6133 18.6497 32.5245C18.6584 32.1251 18.7319 31.7346 18.8617 31.3573ZM15.5569 35.174C15.6088 35.0985 15.5958 34.9965 15.5266 34.9388L15.2368 34.7169C15.1632 34.6592 15.0638 34.6769 15.0075 34.7524C14.9556 34.8234 14.9686 34.9299 15.0421 34.9832L15.3276 35.2051C15.3579 35.2272 15.3925 35.2361 15.4271 35.2361C15.4747 35.2361 15.5266 35.2139 15.5569 35.174ZM15.1503 36.7495C15.1632 36.6607 15.0984 36.5764 15.0118 36.5631C14.9167 36.5542 14.8302 36.4699 14.8129 36.3722C14.7999 36.2835 14.7134 36.2213 14.6269 36.2346C14.5403 36.2524 14.4798 36.3367 14.4928 36.4255C14.5317 36.6696 14.735 36.8649 14.9729 36.8959C14.9772 36.8959 14.9859 36.8959 14.9902 36.8959C15.0724 36.8959 15.1416 36.8338 15.1503 36.7495Z" fill="#A998A1"/>
<path d="M51.9574 35.7998C52.0439 35.8308 52.0872 35.924 52.0612 36.0128C52.0396 36.0838 51.9747 36.1237 51.9055 36.1237C51.8882 36.1237 51.8709 36.1237 51.8579 36.1193L51.6373 36.0439C51.5551 36.0128 51.5075 35.9196 51.5378 35.8308C51.5638 35.7465 51.6589 35.6977 51.7411 35.7288L51.9574 35.7998Z" fill="#665151"/>
<path d="M51.7152 38.9774C51.7757 39.0439 51.7714 39.1504 51.7065 39.2126C51.6763 39.2436 51.6373 39.2569 51.5941 39.2569C51.5508 39.2569 51.5076 39.2436 51.4773 39.2081C51.2913 39.0084 50.9495 38.9862 50.7419 39.1593C50.677 39.217 50.5732 39.2081 50.517 39.1371C50.4564 39.0661 50.4694 38.9596 50.5386 38.9019C50.876 38.6179 51.4124 38.6534 51.7152 38.9774Z" fill="#665151"/>
<path d="M51.6633 37.8457C51.7238 37.9122 51.7195 38.0187 51.6546 38.0809C51.6243 38.1075 51.5854 38.1253 51.5465 38.1253C51.5032 38.1253 51.4556 38.1031 51.4254 38.0676C51.3432 37.9788 51.2091 37.9389 51.088 37.9744C51.0014 38.001 50.9149 37.9477 50.889 37.8634C50.863 37.7747 50.9106 37.6815 50.9971 37.6548C51.2307 37.5838 51.4989 37.6593 51.6633 37.8457Z" fill="#665151"/>
<path d="M48.9208 53.241C48.9857 53.6049 48.9597 53.9821 48.8386 54.3283C48.8126 54.3993 48.7521 54.4392 48.6829 54.4392C48.6656 54.4392 48.6483 54.4392 48.631 54.4304C48.5445 54.3993 48.5012 54.3061 48.5315 54.2173C48.6353 53.9244 48.6569 53.6049 48.6007 53.2987C48.5877 53.2099 48.6439 53.1212 48.7305 53.1034C48.8213 53.0901 48.9035 53.1478 48.9208 53.241Z" fill="#665151"/>
<path d="M47.7615 26.8617C47.7572 26.9549 47.688 27.0259 47.5971 27.0259C47.5063 27.0259 47.4328 26.9549 47.4371 26.8617C47.4371 26.4667 47.3203 26.0673 47.1127 25.7344C47.0651 25.659 47.0867 25.5569 47.1646 25.5036C47.2381 25.4548 47.3376 25.477 47.3895 25.5569C47.6274 25.9386 47.7615 26.4046 47.7615 26.8617Z" fill="#665151"/>
<path d="M46.4464 34.0823C46.4594 34.1755 46.3988 34.2598 46.3123 34.2731C46.3037 34.2775 46.295 34.2775 46.2864 34.2775C46.2085 34.2775 46.1393 34.2199 46.1263 34.1355C46.1004 33.9713 45.9922 33.8204 45.8495 33.7494C45.7673 33.705 45.7327 33.6074 45.7759 33.5231C45.8149 33.4432 45.9144 33.4077 45.9922 33.4476C46.2301 33.5719 46.4031 33.816 46.4464 34.0823Z" fill="#665151"/>
<path d="M45.8322 35.6089C45.9144 35.6488 45.9533 35.7465 45.9144 35.8308C45.8884 35.8929 45.8279 35.9284 45.7673 35.9284C45.7457 35.9284 45.7241 35.924 45.7024 35.9151C45.4472 35.7997 45.2309 35.6178 45.0752 35.387C45.0233 35.3116 45.0406 35.2051 45.1141 35.1562C45.1877 35.103 45.2872 35.1207 45.3391 35.1962C45.4602 35.3737 45.6375 35.5201 45.8322 35.6089Z" fill="#665151"/>
<path d="M42.8951 31.2064C42.9859 31.2064 43.0551 31.2819 43.0551 31.3751C43.0551 31.4638 42.9859 31.5393 42.8951 31.5393H42.6052C42.5187 31.5393 42.4452 31.4638 42.4452 31.3751C42.4452 31.2819 42.5187 31.2064 42.6052 31.2064H42.8951Z" fill="#665151"/>
<path d="M42.6875 32.8085C42.761 32.8574 42.7784 32.9639 42.7264 33.0393C42.6962 33.0837 42.6486 33.1103 42.5967 33.1103C42.5621 33.1103 42.5318 33.1015 42.5015 33.0793L41.8613 32.6266C41.7878 32.5733 41.7705 32.4713 41.8181 32.3958C41.87 32.3204 41.9695 32.3026 42.043 32.3514L42.6875 32.8085Z" fill="#665151"/>
<path d="M42.5015 53.1478C42.5708 53.201 42.5837 53.3075 42.5275 53.3785C42.4323 53.5072 42.428 53.7069 42.5188 53.8401C42.5707 53.9155 42.5534 54.0176 42.4799 54.0708C42.454 54.093 42.4194 54.1019 42.3891 54.1019C42.3372 54.1019 42.2853 54.0797 42.255 54.0309C42.0776 53.7779 42.0863 53.4185 42.2723 53.1744C42.2939 53.1389 42.3285 53.1211 42.3631 53.1167C42.4107 53.1034 42.4626 53.1167 42.5015 53.1478Z" fill="#665151"/>
<path d="M42.389 54.1019L42.4972 55.207C42.4799 55.207 42.4669 55.2114 42.4496 55.2159C42.3631 55.2469 42.3155 55.3401 42.3458 55.4289C42.6183 56.2898 42.3717 57.2884 41.7359 57.9186C41.7013 57.9541 41.6883 57.9985 41.6926 58.0473C39.426 58.3446 37.168 58.602 34.91 58.7884C35.2128 58.4245 35.4161 57.9674 35.4637 57.497C35.4723 57.4038 35.4074 57.3195 35.3209 57.3106L35.4983 56.2677C35.5631 56.2677 35.6237 56.2277 35.6453 56.1656C35.7578 55.8949 35.8313 55.6064 35.8659 55.3135C35.9438 54.6123 35.7967 53.92 35.654 53.2498C35.5934 52.9658 35.5329 52.6818 35.4896 52.3978C35.3123 51.2528 35.4247 50.0767 35.5588 49.0737C35.6324 48.5145 35.7362 47.7334 35.4766 47.0988C36.6229 47.1521 37.7519 47.1876 38.868 47.1876C39.5687 47.1876 40.2651 47.1743 40.9616 47.1476C41.7186 47.4849 42.1252 48.4302 42.1944 49.2823C42.2333 49.806 42.1857 50.3474 42.1425 50.8666C42.1035 51.3326 42.0603 51.8208 42.0819 52.3001C42.0819 52.3889 42.1554 52.4599 42.242 52.4599C42.2463 52.4599 42.2463 52.4599 42.2506 52.4599L42.3631 53.1167C42.3285 53.1211 42.2939 53.1389 42.2722 53.1744C42.0862 53.4185 42.0776 53.778 42.2549 54.0309C42.2852 54.0797 42.3371 54.1019 42.389 54.1019Z" fill="#A07CA0"/>
<path d="M39.3092 32.5201V33.0748C39.3092 33.168 39.2356 33.239 39.1448 33.239C39.0583 33.239 38.9847 33.168 38.9847 33.0748V32.5201C38.9847 32.4269 39.0583 32.3514 39.1448 32.3514C39.2356 32.3514 39.3092 32.4269 39.3092 32.5201Z" fill="#665151"/>
<path d="M39.0453 6.56242C39.1188 7.37456 38.8247 8.23109 38.2277 8.9101C37.6308 9.58911 36.8306 9.97965 36.0346 9.98853C35.8357 9.98853 35.6626 10.1305 35.6194 10.3302C35.5718 10.5255 35.6626 10.7341 35.84 10.8273C36.8089 11.3332 36.8911 12.8555 36.5407 14.1425C36.2293 15.2963 35.7448 16.0286 35.1089 16.3259C35.096 16.3304 35.083 16.3348 35.07 16.3393L35.0397 14.8747C35.0397 14.786 34.9662 14.7105 34.8797 14.7105H34.8754C34.7845 14.715 34.7153 14.7904 34.7153 14.8836L34.7499 16.4413C34.5812 16.4724 34.4125 16.4724 34.2438 16.4591C34.2698 15.8733 34.2525 15.2919 34.1832 14.7105C34.1703 14.6218 34.0924 14.5552 34.0016 14.5685C33.9107 14.5774 33.8502 14.6617 33.8588 14.7505C33.9237 15.3008 33.941 15.8511 33.9194 16.4014C33.37 16.2638 32.8509 15.9221 32.4876 15.5049C31.7695 14.6661 31.4148 13.4901 31.1034 12.456C31.0471 12.2696 30.8784 12.1409 30.6881 12.1409C30.6838 12.1409 30.6751 12.1409 30.6665 12.1409C30.4718 12.1543 30.3075 12.3007 30.2642 12.5004C30.1085 13.3081 29.6067 14.0093 28.9492 14.4221C28.6075 13.854 28.3306 13.246 28.1273 12.6069C28.097 12.5226 28.0062 12.4738 27.924 12.5004C27.8375 12.5315 27.7899 12.6247 27.8202 12.7134C28.0278 13.3658 28.3133 13.9916 28.6637 14.5774C28.5037 14.6528 28.3436 14.7105 28.1749 14.7505C27.7596 14.1558 27.4482 13.4723 27.2838 12.7623C27.2665 12.6735 27.18 12.6202 27.0892 12.6424C27.0027 12.6602 26.9508 12.7534 26.9681 12.8421C27.1324 13.5345 27.4266 14.2046 27.8159 14.7993C26.8383 14.857 25.8477 14.2845 25.48 13.388C25.0691 12.3983 25.5319 11.1025 26.449 10.6675C26.6047 10.5965 26.7042 10.4279 26.6999 10.2504C26.6912 10.0684 26.5831 9.91308 26.4187 9.85095C25.9905 9.68674 25.5363 9.63349 25.0994 9.58023C24.4202 9.50035 23.8363 9.42934 23.5248 9.00773C23.3215 8.73258 23.3432 8.41748 23.3951 8.19559C23.5032 7.73847 23.8536 7.29468 24.2645 7.09497C25.0994 6.68668 26.1678 6.85088 27.0286 6.98402C27.2276 7.01509 27.4266 6.89526 27.4958 6.69999C27.5693 6.50028 27.4958 6.28282 27.3184 6.16744C26.5614 5.6837 26.2716 4.52539 26.6955 3.69105C27.1195 2.86559 28.1922 2.42178 29.0876 2.70138C29.9701 2.97653 30.6449 3.92182 30.6578 4.90261C30.6622 5.1467 30.8525 5.32422 31.0947 5.33753C31.3326 5.33753 31.5273 5.13339 31.523 4.8893C31.523 4.76504 31.5143 4.64521 31.497 4.52095C31.5446 4.46325 31.5792 4.38781 31.5922 4.30348C31.709 3.45139 31.8387 2.48835 32.3189 1.76497C32.7255 1.15253 33.5431 0.690977 34.2049 0.975007C34.9446 1.29898 35.1608 2.38628 34.9446 3.25169C34.91 3.39814 34.9489 3.55791 35.0484 3.66442C35.1522 3.77537 35.3036 3.82418 35.4463 3.79756C36.225 3.64666 37.0858 3.87301 37.7995 4.41888C38.5132 4.96918 38.9674 5.74583 39.0453 6.56242ZM36.9084 7.78286C36.9517 7.70297 36.9257 7.60533 36.8479 7.55652L36.2033 7.17929C36.1255 7.13048 36.0303 7.16154 35.9827 7.24142C35.9395 7.32131 35.9654 7.42338 36.0433 7.46776L36.6878 7.84499C36.7138 7.86274 36.7397 7.86717 36.77 7.86717C36.8262 7.86717 36.8781 7.84055 36.9084 7.78286ZM36.7267 8.71927C36.7959 8.65714 36.8046 8.55506 36.744 8.48405C36.4759 8.16895 36.1298 7.91599 35.7535 7.75622C35.6713 7.72072 35.5761 7.76066 35.5415 7.84942C35.5069 7.93375 35.5458 8.03138 35.628 8.06689C35.9611 8.20446 36.2639 8.42636 36.4975 8.70151C36.5321 8.74146 36.5753 8.75921 36.6229 8.75921C36.6575 8.75921 36.6965 8.7459 36.7267 8.71927ZM31.9382 6.66892C32.0161 6.62898 32.0507 6.52691 32.0074 6.44702L31.9382 6.30057C31.8993 6.21625 31.7998 6.18518 31.722 6.22513C31.6398 6.26507 31.6095 6.3627 31.6484 6.44702L31.7176 6.59348C31.7479 6.65561 31.8041 6.68668 31.8647 6.68668C31.8907 6.68668 31.9123 6.68224 31.9382 6.66892ZM30.3723 8.72814C30.4459 8.67045 30.4632 8.56837 30.407 8.49293C30.2642 8.29322 30.0306 8.16008 29.7884 8.13345C29.6932 8.12458 29.6197 8.19115 29.611 8.28434C29.6024 8.3731 29.6673 8.45743 29.7581 8.4663C29.9095 8.47962 30.0566 8.56393 30.1474 8.69264C30.1777 8.73702 30.2296 8.75921 30.2772 8.75921C30.3118 8.75921 30.3464 8.75033 30.3723 8.72814ZM30.3334 9.73113C30.3897 9.66012 30.381 9.55361 30.3118 9.49591L29.4467 8.75921C29.3774 8.69708 29.278 8.70595 29.2174 8.77696C29.1612 8.84797 29.1698 8.95448 29.239 9.01217L30.1042 9.75331C30.1344 9.77994 30.1734 9.79326 30.208 9.79326C30.2556 9.79326 30.3031 9.77107 30.3334 9.73113Z" fill="#A07CA0"/>
<path d="M36.8478 7.55649C36.9256 7.60531 36.9516 7.70295 36.9083 7.78283C36.878 7.84052 36.8261 7.86715 36.7699 7.86715C36.7396 7.86715 36.7137 7.86271 36.6877 7.84496L36.0432 7.46773C35.9653 7.42335 35.9394 7.32128 35.9826 7.2414C36.0302 7.16151 36.1254 7.13045 36.2032 7.17927L36.8478 7.55649Z" fill="#665151"/>
<path d="M36.744 8.48403C36.8046 8.55504 36.7959 8.65712 36.7267 8.71925C36.6965 8.74588 36.6575 8.75919 36.6229 8.75919C36.5753 8.75919 36.5321 8.74143 36.4975 8.70149C36.2639 8.42634 35.9611 8.20444 35.628 8.06687C35.5458 8.03136 35.5069 7.93372 35.5415 7.8494C35.5761 7.76064 35.6713 7.7207 35.7535 7.7562C36.1298 7.91597 36.4759 8.16893 36.744 8.48403Z" fill="#665151"/>
<path d="M35.3338 53.3208C35.4809 53.9954 35.615 54.63 35.5414 55.2735C35.5112 55.5398 35.4463 55.7928 35.3468 56.0369C35.3122 56.1212 35.3511 56.2188 35.4333 56.2543C35.4549 56.2632 35.4765 56.2676 35.4982 56.2676L35.3208 57.3106C35.2257 57.3106 35.1521 57.3683 35.1435 57.4615C35.0872 57.994 34.8104 58.4999 34.3995 58.8328C32.1112 59.0148 29.8186 59.108 27.5217 59.0991C28.097 58.4556 28.3306 57.4881 28.0494 56.6538C28.0278 56.5827 27.9629 56.5428 27.898 56.5428V55.6508C27.9586 55.6508 28.0148 55.6197 28.0451 55.562L28.1532 55.3401C28.1921 55.2558 28.1619 55.1582 28.0797 55.1182C28.0537 55.1049 28.0278 55.096 28.0018 55.096L28.1013 53.9865C28.1792 53.9865 28.2484 53.9244 28.2614 53.8445L29.0703 48.266C29.1135 47.9686 29.2173 47.2319 28.9664 46.6683C29.585 46.7171 30.2036 46.766 30.8265 46.8103C32.2972 46.9213 33.7203 47.0145 35.1132 47.0855C35.3944 47.5914 35.3381 48.2926 35.2386 49.0293C35.1002 50.0545 34.9834 51.2616 35.1694 52.451C35.2127 52.7395 35.2732 53.0324 35.3338 53.3208ZM32.5827 48.5411C32.6216 48.4613 32.5913 48.3592 32.5092 48.3192L32.3664 48.2438C32.2885 48.2039 32.1891 48.2349 32.1501 48.3192C32.1069 48.3991 32.1415 48.5012 32.2193 48.5411L32.3664 48.6166C32.388 48.6255 32.414 48.6343 32.4356 48.6343C32.4962 48.6343 32.5524 48.5988 32.5827 48.5411ZM32.3837 49.6728C32.4097 49.5841 32.3578 49.4909 32.2712 49.4687L31.7651 49.3267C31.6786 49.3045 31.5878 49.3577 31.5662 49.4465C31.5402 49.5353 31.5921 49.6284 31.6786 49.6506L32.1847 49.7882C32.202 49.7926 32.215 49.7971 32.228 49.7971C32.3015 49.7971 32.3664 49.7483 32.3837 49.6728Z" fill="#A07CA0"/>
<path d="M34.4471 32.0896C34.499 32.1606 34.486 32.2671 34.4125 32.3204C34.3822 32.3426 34.3476 32.3515 34.3173 32.3515C34.2654 32.3515 34.2178 32.3293 34.1875 32.2849L33.9713 31.992C33.915 31.9165 33.9323 31.8145 34.0015 31.7568C34.0751 31.7035 34.1746 31.7168 34.2308 31.7923L34.4471 32.0896Z" fill="#665151"/>
<path d="M33.5603 34.171C33.6511 34.1932 33.703 34.282 33.6814 34.3707C33.6598 34.4462 33.5949 34.4994 33.5214 34.4994C33.5084 34.4994 33.4954 34.495 33.4824 34.495L33.1926 34.4195C33.1061 34.3973 33.0542 34.3086 33.0758 34.2154C33.0975 34.1266 33.184 34.0734 33.2748 34.0956L33.5603 34.171Z" fill="#665151"/>
<path d="M33.608 36.0483C33.6815 36.0971 33.7031 36.1992 33.6555 36.2791C33.6253 36.3279 33.5733 36.3545 33.5214 36.3545C33.4912 36.3545 33.4566 36.3456 33.4306 36.3279C33.197 36.1681 32.9202 36.0705 32.6433 36.0394C32.5525 36.0261 32.4876 35.9462 32.4963 35.853C32.5049 35.7643 32.5784 35.7021 32.6779 35.7066C33.0067 35.7421 33.3311 35.8619 33.608 36.0483Z" fill="#665151"/>
<path d="M32.5092 48.3193C32.5914 48.3592 32.6217 48.4613 32.5828 48.5412C32.5525 48.5989 32.4962 48.6344 32.4357 48.6344C32.4141 48.6344 32.3881 48.6255 32.3665 48.6166L32.2194 48.5412C32.1415 48.5012 32.1069 48.3991 32.1502 48.3193C32.1891 48.2349 32.2886 48.2039 32.3665 48.2438L32.5092 48.3193Z" fill="#665151"/>
<path d="M32.2713 49.4687C32.3578 49.4909 32.4097 49.5841 32.3838 49.6728C32.3665 49.7483 32.3016 49.7971 32.228 49.7971C32.2151 49.7971 32.2021 49.7927 32.1848 49.7882L31.6787 49.6507C31.5922 49.6285 31.5403 49.5353 31.5662 49.4465C31.5878 49.3578 31.6787 49.3045 31.7652 49.3267L32.2713 49.4687Z" fill="#665151"/>
<path d="M32.0075 6.44702C32.0508 6.52691 32.0162 6.62898 31.9383 6.66892C31.9123 6.68223 31.8907 6.68668 31.8648 6.68668C31.8042 6.68668 31.748 6.65561 31.7177 6.59348L31.6485 6.44702C31.6096 6.3627 31.6398 6.26506 31.722 6.22512C31.7999 6.18518 31.8994 6.21625 31.9383 6.30057L32.0075 6.44702Z" fill="#665151"/>
<path d="M30.4069 8.49293C30.4631 8.56837 30.4458 8.67045 30.3723 8.72814C30.3463 8.75033 30.3117 8.75921 30.2771 8.75921C30.2295 8.75921 30.1776 8.73701 30.1473 8.69264C30.0565 8.56393 29.9094 8.47961 29.758 8.4663C29.6672 8.45743 29.6023 8.3731 29.6109 8.28434C29.6196 8.19115 29.6931 8.12458 29.7883 8.13345C30.0305 8.16008 30.2641 8.29322 30.4069 8.49293Z" fill="#665151"/>
<path d="M30.3118 9.49591C30.3811 9.5536 30.3897 9.66011 30.3335 9.73112C30.3032 9.77106 30.2556 9.79325 30.208 9.79325C30.1734 9.79325 30.1345 9.77993 30.1042 9.7533L29.2391 9.01216C29.1699 8.95447 29.1612 8.84796 29.2175 8.77695C29.278 8.70594 29.3775 8.69707 29.4467 8.7592L30.3118 9.49591Z" fill="#665151"/>
<path d="M28.5728 46.6373C28.8021 46.9435 28.8583 47.4627 28.7502 48.2172L27.9413 53.7957C27.9283 53.8845 27.9889 53.9688 28.0754 53.9821C28.084 53.9865 28.0927 53.9865 28.1013 53.9865L28.0018 55.096C27.9456 55.096 27.8894 55.1315 27.8634 55.1892L27.7553 55.4111C27.7164 55.4955 27.7466 55.5931 27.8288 55.6375C27.8504 55.6463 27.8764 55.6508 27.898 55.6508V56.5428C27.8807 56.5428 27.8591 56.5428 27.8418 56.5517C27.7553 56.5827 27.712 56.676 27.7423 56.7647C28.0235 57.5902 27.7163 58.5665 27.0459 59.0991C26.8339 59.0991 26.622 59.1035 26.41 59.0991C24.3726 59.0636 22.4044 58.9304 20.5055 58.7085C20.4925 58.6819 20.4795 58.6597 20.4665 58.6331C20.3368 58.318 20.3584 57.9452 20.3757 57.6124L20.5012 55.1626C20.5055 55.0694 20.4363 54.994 20.3498 54.9895C20.2632 54.9718 20.1811 55.0517 20.1767 55.1449L20.0513 57.5946C20.034 57.9141 20.021 58.3047 20.1378 58.6642C17.9404 58.389 15.8381 57.994 13.831 57.4703C13.4287 56.849 13.3119 56.0324 13.5758 55.3312C13.6104 55.2469 13.5671 55.1493 13.4849 55.1182C13.4676 55.1094 13.446 55.1049 13.4244 55.1049L13.5628 53.9688C13.6277 53.9688 13.6882 53.9289 13.7142 53.8578C14.1597 52.633 14.3414 51.2927 14.2463 49.9879C14.2203 49.7039 14.1857 49.4154 14.1511 49.127C14.0516 48.2704 13.9435 47.3828 14.2073 46.584C14.4279 45.9183 14.9124 45.3547 15.5223 45.0307C17.4862 45.4079 19.4716 45.7053 21.4788 45.9494C20.765 46.9745 20.3108 48.2216 20.207 49.4731C20.1984 49.5663 20.2632 49.6462 20.3541 49.6551C20.3584 49.6551 20.3627 49.6551 20.3671 49.6551C20.4492 49.6551 20.5228 49.5885 20.5271 49.5042C20.6352 48.2571 21.0981 47.0189 21.8291 46.0159C21.8335 46.0115 21.8378 46.0026 21.8378 45.9938C24.0612 46.2556 26.3062 46.4597 28.5728 46.6373ZM20.4709 51.8208C20.6179 51.6211 20.6612 51.3504 20.5833 51.1107C20.5531 51.022 20.4622 50.9732 20.3757 51.0042C20.2935 51.0353 20.2459 51.1285 20.2762 51.2128C20.3195 51.3504 20.2935 51.5102 20.2113 51.6211C20.1551 51.6965 20.1724 51.8031 20.2416 51.8563C20.2719 51.8785 20.3065 51.8874 20.3411 51.8874C20.3887 51.8874 20.4406 51.8652 20.4709 51.8208Z" fill="#A07CA0"/>
<path d="M28.0797 55.1182C28.1619 55.1582 28.1922 55.2558 28.1533 55.3401L28.0451 55.562C28.0148 55.6197 27.9586 55.6508 27.898 55.6508C27.8764 55.6508 27.8505 55.6463 27.8288 55.6375C27.7466 55.5931 27.7164 55.4955 27.7553 55.4111L27.8634 55.1892C27.8894 55.1315 27.9456 55.096 28.0019 55.096C28.0278 55.096 28.0538 55.1049 28.0797 55.1182Z" fill="#665151"/>
<path d="M25.2767 29.1872C25.3372 29.2493 25.3372 29.3558 25.2723 29.4224C25.2421 29.4534 25.2031 29.4668 25.1599 29.4668C25.1166 29.4668 25.0777 29.4535 25.0431 29.418L24.8268 29.2005C24.7662 29.1339 24.7662 29.0274 24.8268 28.9653C24.8917 28.8987 24.9955 28.8987 25.0561 28.9608L25.2767 29.1872Z" fill="#665151"/>
<path d="M24.5198 30.4964C24.5976 30.5452 24.6193 30.6473 24.576 30.7272C24.5457 30.776 24.4895 30.807 24.4376 30.807C24.4073 30.807 24.377 30.7982 24.3511 30.7804L23.992 30.5585C23.9142 30.5097 23.8882 30.4076 23.9358 30.3322C23.9834 30.2523 24.0829 30.2257 24.1607 30.2745L24.5198 30.4964Z" fill="#665151"/>
<path d="M20.5833 51.1107C20.6612 51.3504 20.6179 51.6211 20.4708 51.8208C20.4406 51.8652 20.3887 51.8874 20.3411 51.8874C20.3065 51.8874 20.2719 51.8785 20.2416 51.8563C20.1724 51.8031 20.1551 51.6965 20.2113 51.6211C20.2935 51.5102 20.3195 51.3504 20.2762 51.2128C20.2459 51.1285 20.2935 51.0353 20.3757 51.0042C20.4622 50.9732 20.553 51.022 20.5833 51.1107Z" fill="#665151"/>
<path d="M18.7666 31.1443C18.8488 31.1754 18.892 31.2686 18.8618 31.3573C18.732 31.7346 18.6585 32.1251 18.6498 32.5245C18.6455 32.6133 18.572 32.6843 18.4854 32.6843H18.4811C18.3903 32.6843 18.3211 32.6088 18.3254 32.5156C18.334 32.0807 18.4162 31.6547 18.559 31.2464C18.5893 31.1576 18.6801 31.1132 18.7666 31.1443Z" fill="#665151"/>
<path d="M15.5267 34.9388C15.5959 34.9965 15.6089 35.0986 15.557 35.174C15.5267 35.2139 15.4748 35.2361 15.4272 35.2361C15.3926 35.2361 15.358 35.2273 15.3277 35.2051L15.0422 34.9832C14.9687 34.9299 14.9557 34.8234 15.0076 34.7524C15.0639 34.6769 15.1633 34.6592 15.2369 34.7169L15.5267 34.9388Z" fill="#665151"/>
<path d="M15.012 36.5631C15.0985 36.5764 15.1634 36.6607 15.1504 36.7495C15.1417 36.8338 15.0725 36.8959 14.9904 36.8959C14.986 36.8959 14.9774 36.8959 14.973 36.8959C14.7351 36.8649 14.5318 36.6696 14.4929 36.4255C14.4799 36.3367 14.5405 36.2524 14.627 36.2347C14.7135 36.2213 14.8 36.2835 14.813 36.3722C14.8303 36.4699 14.9168 36.5542 15.012 36.5631Z" fill="#665151"/>
<path d="M15.0421 44.9375C14.5187 45.3103 14.1078 45.8562 13.9001 46.4775C13.6103 47.3518 13.7228 48.2749 13.8309 49.1669C13.8655 49.4509 13.9001 49.735 13.9218 50.0146C14.0169 51.2705 13.8396 52.562 13.4113 53.7425C13.3811 53.8312 13.42 53.9244 13.5065 53.9555C13.5238 53.9644 13.5454 53.9688 13.5627 53.9688L13.4243 55.1049C13.3594 55.1049 13.2989 55.1449 13.2729 55.2114C13.0134 55.9038 13.0783 56.6937 13.394 57.355C11.6551 56.8845 9.98543 56.3209 8.39791 55.6597C7.68418 54.6167 7.93506 53.1345 8.08646 52.5132C8.1946 52.0738 8.33735 51.63 8.47577 51.2039C8.71801 50.4584 8.9689 49.6906 9.04676 48.8918C9.08136 48.5101 9.07704 48.1107 9.07704 47.729C9.06839 46.868 9.06406 46.0559 9.46202 45.3724C9.50528 45.2926 9.47933 45.1905 9.40579 45.1417C9.37984 45.1284 9.35388 45.1195 9.3236 45.1195L9.9811 44.3118C9.99408 44.3207 10.0071 44.3295 10.0244 44.334C10.0417 44.3428 10.0633 44.3473 10.0806 44.3473C10.1455 44.3473 10.206 44.3073 10.232 44.2408C10.2839 44.1121 10.3964 44.0056 10.5434 43.9479C10.5953 43.9257 10.6516 43.9257 10.7078 43.9212C12.1396 44.3118 13.5844 44.6446 15.0421 44.9375Z" fill="#A07CA0"/>
<path d="M9.98118 44.3118L9.32368 45.1195C9.26745 45.1195 9.21122 45.1506 9.18094 45.1994C8.73972 45.9671 8.74404 46.8636 8.7527 47.7335C8.7527 48.1062 8.75702 48.4924 8.72242 48.8607C8.64888 49.624 8.40664 50.3741 8.16873 51.0974C8.03031 51.5324 7.88324 51.9806 7.77077 52.4333C7.59342 53.1611 7.41607 54.4037 7.90054 55.4422C7.31225 55.1892 6.73261 54.9274 6.17028 54.6478C5.14942 54.1419 4.05503 53.5294 3.11636 52.7217C2.54538 51.4835 2.5151 49.9879 3.09041 48.7498C3.24181 48.4169 3.44079 48.0974 3.63544 47.7867C3.81279 47.4938 4.00312 47.192 4.15452 46.8725C4.54816 46.0692 4.73848 45.1683 4.70388 44.2718C4.69955 44.1786 4.62169 44.1209 4.53518 44.1121C4.44434 44.1165 4.37513 44.192 4.37945 44.2852C4.40973 45.1239 4.23238 45.9671 3.8647 46.7216C3.71763 47.0278 3.53595 47.3207 3.3586 47.6092C3.16394 47.9243 2.96064 48.2571 2.79626 48.6077C2.27718 49.7217 2.22095 51.0397 2.57998 52.2158C2.29881 51.9318 2.03495 51.6256 1.80136 51.2883C0.901626 49.9746 0.399849 47.8444 1.43801 46.2778C1.60671 46.0204 1.81434 45.7808 2.03062 45.5322C2.40695 45.0973 2.79626 44.6535 3.0212 44.0721C3.38023 43.149 3.21153 42.1993 3.05148 41.2806C2.96064 40.7525 2.87413 40.2599 2.87845 39.7762C2.89576 38.7377 3.48404 37.7258 4.45732 37.0601C5.39598 36.4166 6.4947 36.248 7.41607 36.5853C7.21709 38.3605 7.16518 40.149 7.26899 41.9242C6.78019 41.7422 6.33465 41.5114 6.18325 41.1298C6.08809 40.9034 5.8372 40.7969 5.61659 40.8901C5.39598 40.9833 5.29217 41.2451 5.38301 41.4715C5.44789 41.6313 5.53441 41.7688 5.6339 41.8931C5.33543 41.9774 5.05426 42.1372 4.83365 42.3591C4.76876 42.4212 4.76876 42.5277 4.82932 42.5943C4.86393 42.6298 4.90286 42.6431 4.94612 42.6431C4.98937 42.6431 5.0283 42.6298 5.05858 42.5987C5.28784 42.3679 5.59064 42.2259 5.91074 42.1815C6.26112 42.4789 6.71964 42.6742 7.17816 42.8339C8.17306 43.1801 9.17661 43.4952 10.1888 43.7792C10.072 43.8724 9.98118 43.9834 9.92928 44.121C9.90332 44.1875 9.92495 44.2674 9.98118 44.3118Z" fill="#A07CA0"/>
</svg>
