<svg width="31" height="27" viewBox="0 0 31 27" fill="none" xmlns="http://www.w3.org/2000/svg">
<path d="M30.25 5.53311C29.769 4.45035 29.0755 3.46916 28.2082 2.64446C27.3403 1.81731 26.317 1.15999 25.194 0.708232C24.0295 0.23793 22.7805 -0.0027972 21.5195 2.45217e-05C19.7504 2.45217e-05 18.0244 0.471 16.5245 1.36062C16.1656 1.57343 15.8247 1.80717 15.5018 2.06185C15.1788 1.80717 14.8379 1.57343 14.4791 1.36062C12.9791 0.471 11.2531 2.45217e-05 9.48407 2.45217e-05C8.2102 2.45217e-05 6.9758 0.237257 5.80958 0.708232C4.68283 1.16176 3.66732 1.81415 2.79534 2.64446C1.92694 3.46823 1.23324 4.44965 0.753559 5.53311C0.254775 6.65997 0 7.85659 0 9.08811C0 10.2498 0.24401 11.4604 0.72844 12.6919C1.13393 13.7211 1.71524 14.7887 2.45804 15.8667C3.63502 17.5726 5.25338 19.3519 7.26287 21.1555C10.5929 24.1454 13.8906 26.2107 14.0305 26.2944L14.881 26.8247C15.2578 27.0584 15.7422 27.0584 16.119 26.8247L16.9694 26.2944C17.1094 26.2072 20.4035 24.1454 23.7371 21.1555C25.7466 19.3519 27.3649 17.5726 28.5419 15.8667C29.2847 14.7887 29.8696 13.7211 30.2715 12.6919C30.756 11.4604 31 10.2498 31 9.08811C31.0036 7.85659 30.7488 6.65997 30.25 5.53311V5.53311Z" fill="#F8F8F8"/>
</svg>
