<svg width="18" height="19" viewBox="0 0 18 19" fill="none" xmlns="http://www.w3.org/2000/svg">
<path d="M18 4.83573V17.1724C18 18.1801 17.0528 19 15.8886 19H6.25552C5.09133 19 4.14416 18.1801 4.14416 17.1724V9.15084C4.44533 9.19421 4.75257 9.22233 5.06787 9.22233C5.29147 9.22233 5.51093 9.20795 5.72769 9.18575V17.1724C5.72769 17.4242 5.96442 17.6292 6.25552 17.6292H15.8886C16.1796 17.6292 16.4164 17.4242 16.4164 17.1724V4.83573C16.4164 4.58374 16.1796 4.37883 15.8886 4.37883H10.6633C10.6633 3.9023 10.5806 3.44302 10.4323 3.00812H15.8886C17.0528 3.00808 18 3.82798 18 4.83573ZM4.9797 8.62098C2.23381 8.62098 0 6.68734 0 4.31055C4.36043e-05 1.93363 2.23381 0 4.9797 0C7.72551 0 9.9594 1.93363 9.9594 4.31055C9.9594 6.68734 7.72551 8.62098 4.9797 8.62098ZM4.9797 7.70714C7.14326 7.70714 8.90361 6.1836 8.90361 4.31055C8.90361 2.43738 7.14352 0.913842 4.9797 0.913842C2.81579 0.913842 1.0557 2.43738 1.0557 4.31055C1.0557 6.1836 2.81606 7.70714 4.9797 7.70714ZM7.96621 4.76749C8.25757 4.76749 8.49404 4.56279 8.49404 4.31058C8.49404 4.05837 8.25757 3.85368 7.96621 3.85368H5.50753V2.06004C5.50753 1.80783 5.27107 1.60314 4.9797 1.60314C4.68834 1.60314 4.45187 1.80783 4.45187 2.06004V4.31058C4.45187 4.56279 4.68834 4.76749 4.9797 4.76749H7.96621ZM14.0584 8.47207H8.34016C8.04879 8.47207 7.81233 8.67676 7.81233 8.92898C7.81233 9.18123 8.04879 9.38588 8.34016 9.38588H14.0584C14.3499 9.38588 14.5863 9.18119 14.5863 8.92898C14.5863 8.67676 14.3499 8.47207 14.0584 8.47207ZM14.0677 11.2436H8.34945C8.05808 11.2436 7.82161 11.4482 7.82161 11.7005C7.82161 11.9529 8.05808 12.1575 8.34945 12.1575H14.0677C14.3592 12.1575 14.5955 11.9529 14.5955 11.7005C14.5955 11.4482 14.3595 11.2436 14.0677 11.2436ZM14.0677 14.1299H8.34945C8.05808 14.1299 7.82161 14.3347 7.82161 14.5868C7.82161 14.8392 8.05808 15.0437 8.34945 15.0437H14.0677C14.3592 15.0437 14.5955 14.8391 14.5955 14.5868C14.5955 14.3347 14.3595 14.1299 14.0677 14.1299Z" fill="#9B9B9B"/>
</svg>
