<svg width="19" height="20" viewBox="0 0 19 20" fill="none" xmlns="http://www.w3.org/2000/svg">
<path d="M19 5.09024V18.0762C19 19.1369 18.0002 20 16.7713 20H6.60305C5.37418 20 4.37439 19.1369 4.37439 18.0762V9.63246C4.69229 9.67812 5.0166 9.70772 5.34942 9.70772C5.58544 9.70772 5.8171 9.69258 6.0459 9.66922V18.0762C6.0459 18.3413 6.29578 18.5571 6.60305 18.5571H16.7713C17.0785 18.5571 17.3284 18.3413 17.3284 18.0762V5.09024C17.3284 4.82499 17.0784 4.60929 16.7713 4.60929H11.2557C11.2557 4.10768 11.1684 3.62423 11.0119 3.16644H16.7713C18.0002 3.1664 19 4.02945 19 5.09024ZM5.25635 9.07471C2.35791 9.07471 0 7.03931 0 4.53742C4.60268e-05 2.0354 2.35791 0 5.25635 0C8.15471 0 10.5127 2.0354 10.5127 4.53742C10.5127 7.03931 8.15471 9.07471 5.25635 9.07471ZM5.25635 8.11277C7.54011 8.11277 9.39826 6.50905 9.39826 4.53742C9.39826 2.56566 7.54039 0.961939 5.25635 0.961939C2.97223 0.961939 1.11435 2.56566 1.11435 4.53742C1.11435 6.50905 2.9725 8.11277 5.25635 8.11277ZM8.40877 5.01841C8.71632 5.01841 8.96593 4.80294 8.96593 4.53746C8.96593 4.27197 8.71632 4.05651 8.40877 4.05651H5.81351V2.16847C5.81351 1.90298 5.5639 1.68752 5.25635 1.68752C4.9488 1.68752 4.6992 1.90298 4.6992 2.16847V4.53746C4.6992 4.80294 4.9488 5.01841 5.25635 5.01841H8.40877ZM14.8395 8.91797H8.8035C8.49595 8.91797 8.24634 9.13344 8.24634 9.39892C8.24634 9.66445 8.49595 9.87987 8.8035 9.87987H14.8395C15.1471 9.87987 15.3966 9.66441 15.3966 9.39892C15.3967 9.13344 15.1471 8.91797 14.8395 8.91797ZM14.8493 11.8354H8.8133C8.50575 11.8354 8.25615 12.0508 8.25615 12.3164C8.25615 12.582 8.50575 12.7973 8.8133 12.7973H14.8493C15.1569 12.7973 15.4064 12.582 15.4064 12.3164C15.4064 12.0508 15.1572 11.8354 14.8493 11.8354ZM14.8493 14.8736H8.8133C8.50575 14.8736 8.25615 15.0892 8.25615 15.3546C8.25615 15.6202 8.50575 15.8355 8.8133 15.8355H14.8493C15.1569 15.8355 15.4064 15.6201 15.4064 15.3546C15.4064 15.0891 15.1572 14.8736 14.8493 14.8736Z" fill="#9B9B9B"/>
</svg>
