<svg width="226" height="248" viewBox="0 0 226 248" fill="none" xmlns="http://www.w3.org/2000/svg">
<path d="M193.295 205.336C209.45 200.136 226 194.868 226 194.868C212.447 169.711 189.98 153.642 168.496 143.483C182.016 132.541 191.172 116.891 195.127 104.644C198.066 95.5065 199.287 85.7064 197.962 76.0984C193.428 43.0835 164.605 22.8677 140.92 11.6615C118.593 1.04161 94.0371 -2.72377 70.1573 2.0223C4.08531 15.0671 0.204727 75.8165 0.204727 75.8165C-3.78625 134.138 51.7362 148.187 65.2628 150.756C67.743 151.237 70.1925 151.707 72.619 152.404C76.205 153.392 79.742 154.44 83.1977 155.54C106.7 163.1 126.542 173.121 126.542 173.121C128.694 174.232 130.755 175.429 132.737 176.676C157.865 192.782 168.568 219.887 168.568 219.887C173.039 217.064 185.702 213.648 185.702 213.648C183.883 209.981 187.946 200.313 187.946 200.313C189.721 203.89 193.295 205.336 193.295 205.336ZM131.418 89.5324C128.263 93.9308 123.683 98.6872 116.986 102.885C116.986 102.885 104.783 111.158 98.4545 122.767C64.5297 111.04 56.6827 96.3073 56.6827 96.3073C51.7914 86.4519 56.583 76.7453 63.5971 68.8288C76.2311 54.5958 94.4789 48.2862 112.026 52.0204C116.865 53.0599 121.752 54.7307 126.022 57.3632C136.392 63.7904 138.85 79.1235 131.418 89.5324Z" fill="#09386A"/>
<path d="M114.676 242.522C99.5067 243.097 91.7671 246.807 91.7671 246.807C89.5829 242.406 90.0922 235.312 90.0922 235.312C86.4739 237.595 84.4861 248 84.4861 248C66.6387 242.318 56.0569 240.839 56.0569 240.839C51.5828 205.258 73.8062 168.989 83.1977 155.538C106.7 163.098 126.542 173.12 126.542 173.12C128.694 174.23 130.755 175.427 132.737 176.674C104.577 206.577 114.676 242.522 114.676 242.522Z" fill="#0D477C"/>
<path d="M114.676 242.522C99.5067 243.097 91.7671 246.807 91.7671 246.807C89.5829 242.406 90.0922 235.312 90.0922 235.312C86.4739 237.595 84.4861 248 84.4861 248C66.6387 242.318 56.0569 240.839 56.0569 240.839C51.5828 205.258 73.8062 168.989 83.1977 155.538C106.7 163.098 126.542 173.12 126.542 173.12C128.694 174.23 130.755 175.427 132.737 176.674C104.577 206.577 114.676 242.522 114.676 242.522Z" fill="#042E54"/>
<path d="M216.368 197.938C213.949 198.711 211.16 199.598 208.145 200.569C194.114 178.964 161.661 163.268 138.982 154.464C127.071 149.822 114.688 146.921 102.149 145.053C85.3297 142.516 71.645 136.614 63.298 132.221C56.583 128.694 50.3894 123.903 45.4582 117.625C37.8444 107.984 34.8535 98.1926 34.2231 89.5013C33.1418 74.6836 39.1696 60.314 49.4002 51.0294C79.3815 23.8311 106.84 25.4345 124.517 31.5245C140.752 37.08 153.481 52.1312 155.859 71.067C160.146 104.66 130.467 124.775 124.242 128.582C118.926 127.12 114.385 125.984 110.659 125.145C123.098 119.071 131.56 111.383 137.376 104.009C153.008 84.091 146.374 52.7624 124.075 44.0815C122.888 43.6266 121.724 43.2167 120.575 42.8898C109.757 39.4842 98.2965 39.7333 87.3328 42.6494C64.0128 48.8484 52.6534 64.4149 48.417 71.9041C47.2007 74.0264 46.1899 76.2905 45.5181 78.6998C34.0866 120.256 96.9713 134.565 96.9713 134.565C128.997 141.442 157.517 153.841 157.517 153.841C196.95 167.633 216.368 197.938 216.368 197.938Z" fill="#79A280"/>
<mask id="mask0_35_614" style="mask-type:luminance" maskUnits="userSpaceOnUse" x="0" y="0" width="226" height="220">
<path d="M193.295 205.336C209.45 200.136 226 194.868 226 194.868C212.447 169.711 189.98 153.642 168.496 143.483C182.016 132.541 191.172 116.891 195.127 104.644C198.066 95.5065 199.287 85.7064 197.962 76.0984C193.428 43.0835 164.605 22.8677 140.92 11.6615C118.593 1.04161 94.0371 -2.72377 70.1573 2.0223C4.08531 15.0671 0.204727 75.8165 0.204727 75.8165C-3.78625 134.138 51.7362 148.187 65.2628 150.756C67.743 151.237 70.1925 151.707 72.619 152.404C76.205 153.392 79.742 154.44 83.1977 155.54C106.7 163.1 126.542 173.121 126.542 173.121C128.694 174.232 130.755 175.429 132.737 176.676C157.865 192.782 168.568 219.887 168.568 219.887C173.039 217.064 185.702 213.648 185.702 213.648C183.883 209.981 187.946 200.313 187.946 200.313C189.721 203.89 193.295 205.336 193.295 205.336ZM131.418 89.5324C128.263 93.9308 123.683 98.6872 116.986 102.885C116.986 102.885 104.783 111.158 98.4545 122.767C64.5297 111.04 56.6827 96.3073 56.6827 96.3073C51.7914 86.4519 56.583 76.7453 63.5971 68.8288C76.2311 54.5958 94.4789 48.2862 112.026 52.0204C116.865 53.0599 121.752 54.7307 126.022 57.3632C136.392 63.7904 138.85 79.1235 131.418 89.5324Z" fill="white"/>
</mask>
<g mask="url(#mask0_35_614)">
<path d="M119.917 88.3026C119.917 88.3026 158.084 111.62 197.355 112.957" stroke="#E68D6F" stroke-width="2.1475" stroke-miterlimit="10"/>
</g>
<mask id="mask1_35_614" style="mask-type:luminance" maskUnits="userSpaceOnUse" x="0" y="0" width="226" height="220">
<path d="M193.295 205.336C209.45 200.136 226 194.868 226 194.868C212.447 169.711 189.98 153.642 168.496 143.483C182.016 132.541 191.172 116.891 195.127 104.644C198.066 95.5065 199.287 85.7064 197.962 76.0984C193.428 43.0835 164.605 22.8677 140.92 11.6615C118.593 1.04161 94.0371 -2.72377 70.1573 2.0223C4.08531 15.0671 0.204727 75.8165 0.204727 75.8165C-3.78625 134.138 51.7362 148.187 65.2628 150.756C67.743 151.237 70.1925 151.707 72.619 152.404C76.205 153.392 79.742 154.44 83.1977 155.54C106.7 163.1 126.542 173.121 126.542 173.121C128.694 174.232 130.755 175.429 132.737 176.676C157.865 192.782 168.568 219.887 168.568 219.887C173.039 217.064 185.702 213.648 185.702 213.648C183.883 209.981 187.946 200.313 187.946 200.313C189.721 203.89 193.295 205.336 193.295 205.336ZM131.418 89.5324C128.263 93.9308 123.683 98.6872 116.986 102.885C116.986 102.885 104.783 111.158 98.4545 122.767C64.5297 111.04 56.6827 96.3073 56.6827 96.3073C51.7914 86.4519 56.583 76.7453 63.5971 68.8288C76.2311 54.5958 94.4789 48.2862 112.026 52.0204C116.865 53.0599 121.752 54.7307 126.022 57.3632C136.392 63.7904 138.85 79.1235 131.418 89.5324Z" fill="white"/>
</mask>
<g mask="url(#mask1_35_614)">
<path d="M125.966 82.3718C125.966 82.3718 175.008 104.808 203.971 86.5299" stroke="#E68D6F" stroke-width="2.1475" stroke-miterlimit="10"/>
</g>
<mask id="mask2_35_614" style="mask-type:luminance" maskUnits="userSpaceOnUse" x="0" y="0" width="226" height="220">
<path d="M193.295 205.336C209.45 200.136 226 194.868 226 194.868C212.447 169.711 189.98 153.642 168.496 143.483C182.016 132.541 191.172 116.891 195.127 104.644C198.066 95.5065 199.287 85.7064 197.962 76.0984C193.428 43.0835 164.605 22.8677 140.92 11.6615C118.593 1.04161 94.0371 -2.72377 70.1573 2.0223C4.08531 15.0671 0.204727 75.8165 0.204727 75.8165C-3.78625 134.138 51.7362 148.187 65.2628 150.756C67.743 151.237 70.1925 151.707 72.619 152.404C76.205 153.392 79.742 154.44 83.1977 155.54C106.7 163.1 126.542 173.121 126.542 173.121C128.694 174.232 130.755 175.429 132.737 176.676C157.865 192.782 168.568 219.887 168.568 219.887C173.039 217.064 185.702 213.648 185.702 213.648C183.883 209.981 187.946 200.313 187.946 200.313C189.721 203.89 193.295 205.336 193.295 205.336ZM131.418 89.5324C128.263 93.9308 123.683 98.6872 116.986 102.885C116.986 102.885 104.783 111.158 98.4545 122.767C64.5297 111.04 56.6827 96.3073 56.6827 96.3073C51.7914 86.4519 56.583 76.7453 63.5971 68.8288C76.2311 54.5958 94.4789 48.2862 112.026 52.0204C116.865 53.0599 121.752 54.7307 126.022 57.3632C136.392 63.7904 138.85 79.1235 131.418 89.5324Z" fill="white"/>
</mask>
<g mask="url(#mask2_35_614)">
<path d="M126.032 70.8127C126.032 70.8127 157.661 50.3288 165.674 18.3274" stroke="#E68D6F" stroke-width="2.1475" stroke-miterlimit="10"/>
</g>
<mask id="mask3_35_614" style="mask-type:luminance" maskUnits="userSpaceOnUse" x="0" y="0" width="226" height="220">
<path d="M193.295 205.336C209.45 200.136 226 194.868 226 194.868C212.447 169.711 189.98 153.642 168.496 143.483C182.016 132.541 191.172 116.891 195.127 104.644C198.066 95.5065 199.287 85.7064 197.962 76.0984C193.428 43.0835 164.605 22.8677 140.92 11.6615C118.593 1.04161 94.0371 -2.72377 70.1573 2.0223C4.08531 15.0671 0.204727 75.8165 0.204727 75.8165C-3.78625 134.138 51.7362 148.187 65.2628 150.756C67.743 151.237 70.1925 151.707 72.619 152.404C76.205 153.392 79.742 154.44 83.1977 155.54C106.7 163.1 126.542 173.121 126.542 173.121C128.694 174.232 130.755 175.429 132.737 176.676C157.865 192.782 168.568 219.887 168.568 219.887C173.039 217.064 185.702 213.648 185.702 213.648C183.883 209.981 187.946 200.313 187.946 200.313C189.721 203.89 193.295 205.336 193.295 205.336ZM131.418 89.5324C128.263 93.9308 123.683 98.6872 116.986 102.885C116.986 102.885 104.783 111.158 98.4545 122.767C64.5297 111.04 56.6827 96.3073 56.6827 96.3073C51.7914 86.4519 56.583 76.7453 63.5971 68.8288C76.2311 54.5958 94.4789 48.2862 112.026 52.0204C116.865 53.0599 121.752 54.7307 126.022 57.3632C136.392 63.7904 138.85 79.1235 131.418 89.5324Z" fill="white"/>
</mask>
<g mask="url(#mask3_35_614)">
<path d="M150.139 8.60352C150.139 8.60352 139.959 43.4069 120.767 62.936" stroke="#E68D6F" stroke-width="2.1475" stroke-miterlimit="10"/>
</g>
<mask id="mask4_35_614" style="mask-type:luminance" maskUnits="userSpaceOnUse" x="0" y="0" width="226" height="220">
<path d="M193.295 205.336C209.45 200.136 226 194.868 226 194.868C212.447 169.711 189.98 153.642 168.496 143.483C182.016 132.541 191.172 116.891 195.127 104.644C198.066 95.5065 199.287 85.7064 197.962 76.0984C193.428 43.0835 164.605 22.8677 140.92 11.6615C118.593 1.04161 94.0371 -2.72377 70.1573 2.0223C4.08531 15.0671 0.204727 75.8165 0.204727 75.8165C-3.78625 134.138 51.7362 148.187 65.2628 150.756C67.743 151.237 70.1925 151.707 72.619 152.404C76.205 153.392 79.742 154.44 83.1977 155.54C106.7 163.1 126.542 173.121 126.542 173.121C128.694 174.232 130.755 175.429 132.737 176.676C157.865 192.782 168.568 219.887 168.568 219.887C173.039 217.064 185.702 213.648 185.702 213.648C183.883 209.981 187.946 200.313 187.946 200.313C189.721 203.89 193.295 205.336 193.295 205.336ZM131.418 89.5324C128.263 93.9308 123.683 98.6872 116.986 102.885C116.986 102.885 104.783 111.158 98.4545 122.767C64.5297 111.04 56.6827 96.3073 56.6827 96.3073C51.7914 86.4519 56.583 76.7453 63.5971 68.8288C76.2311 54.5958 94.4789 48.2862 112.026 52.0204C116.865 53.0599 121.752 54.7307 126.022 57.3632C136.392 63.7904 138.85 79.1235 131.418 89.5324Z" fill="white"/>
</mask>
<g mask="url(#mask4_35_614)">
<path d="M84.1273 -4.55713C84.1273 -4.55713 101.757 24.6267 100.051 56.3392" stroke="#E68D6F" stroke-width="2.1475" stroke-miterlimit="10"/>
</g>
<mask id="mask5_35_614" style="mask-type:luminance" maskUnits="userSpaceOnUse" x="0" y="0" width="226" height="220">
<path d="M193.295 205.336C209.45 200.136 226 194.868 226 194.868C212.447 169.711 189.98 153.642 168.496 143.483C182.016 132.541 191.172 116.891 195.127 104.644C198.066 95.5065 199.287 85.7064 197.962 76.0984C193.428 43.0835 164.605 22.8677 140.92 11.6615C118.593 1.04161 94.0371 -2.72377 70.1573 2.0223C4.08531 15.0671 0.204727 75.8165 0.204727 75.8165C-3.78625 134.138 51.7362 148.187 65.2628 150.756C67.743 151.237 70.1925 151.707 72.619 152.404C76.205 153.392 79.742 154.44 83.1977 155.54C106.7 163.1 126.542 173.121 126.542 173.121C128.694 174.232 130.755 175.429 132.737 176.676C157.865 192.782 168.568 219.887 168.568 219.887C173.039 217.064 185.702 213.648 185.702 213.648C183.883 209.981 187.946 200.313 187.946 200.313C189.721 203.89 193.295 205.336 193.295 205.336ZM131.418 89.5324C128.263 93.9308 123.683 98.6872 116.986 102.885C116.986 102.885 104.783 111.158 98.4545 122.767C64.5297 111.04 56.6827 96.3073 56.6827 96.3073C51.7914 86.4519 56.583 76.7453 63.5971 68.8288C76.2311 54.5958 94.4789 48.2862 112.026 52.0204C116.865 53.0599 121.752 54.7307 126.022 57.3632C136.392 63.7904 138.85 79.1235 131.418 89.5324Z" fill="white"/>
</mask>
<g mask="url(#mask5_35_614)">
<path d="M65.4607 -0.989014C65.4607 -0.989014 88.8129 25.0539 91.3744 57.2974" stroke="#E68D6F" stroke-width="2.1475" stroke-miterlimit="10"/>
</g>
<mask id="mask6_35_614" style="mask-type:luminance" maskUnits="userSpaceOnUse" x="0" y="0" width="226" height="220">
<path d="M193.295 205.336C209.45 200.136 226 194.868 226 194.868C212.447 169.711 189.98 153.642 168.496 143.483C182.016 132.541 191.172 116.891 195.127 104.644C198.066 95.5065 199.287 85.7064 197.962 76.0984C193.428 43.0835 164.605 22.8677 140.92 11.6615C118.593 1.04161 94.0371 -2.72377 70.1573 2.0223C4.08531 15.0671 0.204727 75.8165 0.204727 75.8165C-3.78625 134.138 51.7362 148.187 65.2628 150.756C67.743 151.237 70.1925 151.707 72.619 152.404C76.205 153.392 79.742 154.44 83.1977 155.54C106.7 163.1 126.542 173.121 126.542 173.121C128.694 174.232 130.755 175.429 132.737 176.676C157.865 192.782 168.568 219.887 168.568 219.887C173.039 217.064 185.702 213.648 185.702 213.648C183.883 209.981 187.946 200.313 187.946 200.313C189.721 203.89 193.295 205.336 193.295 205.336ZM131.418 89.5324C128.263 93.9308 123.683 98.6872 116.986 102.885C116.986 102.885 104.783 111.158 98.4545 122.767C64.5297 111.04 56.6827 96.3073 56.6827 96.3073C51.7914 86.4519 56.583 76.7453 63.5971 68.8288C76.2311 54.5958 94.4789 48.2862 112.026 52.0204C116.865 53.0599 121.752 54.7307 126.022 57.3632C136.392 63.7904 138.85 79.1235 131.418 89.5324Z" fill="white"/>
</mask>
<g mask="url(#mask6_35_614)">
<path d="M-0.654175 49.9155C-0.654175 49.9155 36.9012 44.9187 70.079 69.1264" stroke="#E68D6F" stroke-width="2.1475" stroke-miterlimit="10"/>
</g>
<mask id="mask7_35_614" style="mask-type:luminance" maskUnits="userSpaceOnUse" x="0" y="0" width="226" height="220">
<path d="M193.295 205.336C209.45 200.136 226 194.868 226 194.868C212.447 169.711 189.98 153.642 168.496 143.483C182.016 132.541 191.172 116.891 195.127 104.644C198.066 95.5065 199.287 85.7064 197.962 76.0984C193.428 43.0835 164.605 22.8677 140.92 11.6615C118.593 1.04161 94.0371 -2.72377 70.1573 2.0223C4.08531 15.0671 0.204727 75.8165 0.204727 75.8165C-3.78625 134.138 51.7362 148.187 65.2628 150.756C67.743 151.237 70.1925 151.707 72.619 152.404C76.205 153.392 79.742 154.44 83.1977 155.54C106.7 163.1 126.542 173.121 126.542 173.121C128.694 174.232 130.755 175.429 132.737 176.676C157.865 192.782 168.568 219.887 168.568 219.887C173.039 217.064 185.702 213.648 185.702 213.648C183.883 209.981 187.946 200.313 187.946 200.313C189.721 203.89 193.295 205.336 193.295 205.336ZM131.418 89.5324C128.263 93.9308 123.683 98.6872 116.986 102.885C116.986 102.885 104.783 111.158 98.4545 122.767C64.5297 111.04 56.6827 96.3073 56.6827 96.3073C51.7914 86.4519 56.583 76.7453 63.5971 68.8288C76.2311 54.5958 94.4789 48.2862 112.026 52.0204C116.865 53.0599 121.752 54.7307 126.022 57.3632C136.392 63.7904 138.85 79.1235 131.418 89.5324Z" fill="white"/>
</mask>
<g mask="url(#mask7_35_614)">
<path d="M-3.84601 69.9876C-3.84601 69.9876 29.9131 63.3666 65.2337 80.815" stroke="#E68D6F" stroke-width="2.1475" stroke-miterlimit="10"/>
</g>
<mask id="mask8_35_614" style="mask-type:luminance" maskUnits="userSpaceOnUse" x="0" y="0" width="226" height="220">
<path d="M193.295 205.336C209.45 200.136 226 194.868 226 194.868C212.447 169.711 189.98 153.642 168.496 143.483C182.016 132.541 191.172 116.891 195.127 104.644C198.066 95.5065 199.287 85.7064 197.962 76.0984C193.428 43.0835 164.605 22.8677 140.92 11.6615C118.593 1.04161 94.0371 -2.72377 70.1573 2.0223C4.08531 15.0671 0.204727 75.8165 0.204727 75.8165C-3.78625 134.138 51.7362 148.187 65.2628 150.756C67.743 151.237 70.1925 151.707 72.619 152.404C76.205 153.392 79.742 154.44 83.1977 155.54C106.7 163.1 126.542 173.121 126.542 173.121C128.694 174.232 130.755 175.429 132.737 176.676C157.865 192.782 168.568 219.887 168.568 219.887C173.039 217.064 185.702 213.648 185.702 213.648C183.883 209.981 187.946 200.313 187.946 200.313C189.721 203.89 193.295 205.336 193.295 205.336ZM131.418 89.5324C128.263 93.9308 123.683 98.6872 116.986 102.885C116.986 102.885 104.783 111.158 98.4545 122.767C64.5297 111.04 56.6827 96.3073 56.6827 96.3073C51.7914 86.4519 56.583 76.7453 63.5971 68.8288C76.2311 54.5958 94.4789 48.2862 112.026 52.0204C116.865 53.0599 121.752 54.7307 126.022 57.3632C136.392 63.7904 138.85 79.1235 131.418 89.5324Z" fill="white"/>
</mask>
<g mask="url(#mask8_35_614)">
<path d="M75.4488 100.403C75.4488 100.403 55.0445 123.68 51.6011 153.909" stroke="#E68D6F" stroke-width="2.1475" stroke-miterlimit="10"/>
</g>
<mask id="mask9_35_614" style="mask-type:luminance" maskUnits="userSpaceOnUse" x="0" y="0" width="226" height="220">
<path d="M193.295 205.336C209.45 200.136 226 194.868 226 194.868C212.447 169.711 189.98 153.642 168.496 143.483C182.016 132.541 191.172 116.891 195.127 104.644C198.066 95.5065 199.287 85.7064 197.962 76.0984C193.428 43.0835 164.605 22.8677 140.92 11.6615C118.593 1.04161 94.0371 -2.72377 70.1573 2.0223C4.08531 15.0671 0.204727 75.8165 0.204727 75.8165C-3.78625 134.138 51.7362 148.187 65.2628 150.756C67.743 151.237 70.1925 151.707 72.619 152.404C76.205 153.392 79.742 154.44 83.1977 155.54C106.7 163.1 126.542 173.121 126.542 173.121C128.694 174.232 130.755 175.429 132.737 176.676C157.865 192.782 168.568 219.887 168.568 219.887C173.039 217.064 185.702 213.648 185.702 213.648C183.883 209.981 187.946 200.313 187.946 200.313C189.721 203.89 193.295 205.336 193.295 205.336ZM131.418 89.5324C128.263 93.9308 123.683 98.6872 116.986 102.885C116.986 102.885 104.783 111.158 98.4545 122.767C64.5297 111.04 56.6827 96.3073 56.6827 96.3073C51.7914 86.4519 56.583 76.7453 63.5971 68.8288C76.2311 54.5958 94.4789 48.2862 112.026 52.0204C116.865 53.0599 121.752 54.7307 126.022 57.3632C136.392 63.7904 138.85 79.1235 131.418 89.5324Z" fill="white"/>
</mask>
<g mask="url(#mask9_35_614)">
<path d="M81.104 107.477C81.104 107.477 68.4194 131.041 66.3948 157.069" stroke="#E68D6F" stroke-width="2.1475" stroke-miterlimit="10"/>
</g>
<mask id="mask10_35_614" style="mask-type:luminance" maskUnits="userSpaceOnUse" x="0" y="0" width="226" height="220">
<path d="M193.295 205.336C209.45 200.136 226 194.868 226 194.868C212.447 169.711 189.98 153.642 168.496 143.483C182.016 132.541 191.172 116.891 195.127 104.644C198.066 95.5065 199.287 85.7064 197.962 76.0984C193.428 43.0835 164.605 22.8677 140.92 11.6615C118.593 1.04161 94.0371 -2.72377 70.1573 2.0223C4.08531 15.0671 0.204727 75.8165 0.204727 75.8165C-3.78625 134.138 51.7362 148.187 65.2628 150.756C67.743 151.237 70.1925 151.707 72.619 152.404C76.205 153.392 79.742 154.44 83.1977 155.54C106.7 163.1 126.542 173.121 126.542 173.121C128.694 174.232 130.755 175.429 132.737 176.676C157.865 192.782 168.568 219.887 168.568 219.887C173.039 217.064 185.702 213.648 185.702 213.648C183.883 209.981 187.946 200.313 187.946 200.313C189.721 203.89 193.295 205.336 193.295 205.336ZM131.418 89.5324C128.263 93.9308 123.683 98.6872 116.986 102.885C116.986 102.885 104.783 111.158 98.4545 122.767C64.5297 111.04 56.6827 96.3073 56.6827 96.3073C51.7914 86.4519 56.583 76.7453 63.5971 68.8288C76.2311 54.5958 94.4789 48.2862 112.026 52.0204C116.865 53.0599 121.752 54.7307 126.022 57.3632C136.392 63.7904 138.85 79.1235 131.418 89.5324Z" fill="white"/>
</mask>
<g mask="url(#mask10_35_614)">
<path d="M190.982 150.863C190.982 150.863 162.624 161.964 143.55 193.109" stroke="#E68D6F" stroke-width="2.1475" stroke-miterlimit="10"/>
</g>
<mask id="mask11_35_614" style="mask-type:luminance" maskUnits="userSpaceOnUse" x="0" y="0" width="226" height="220">
<path d="M193.295 205.336C209.45 200.136 226 194.868 226 194.868C212.447 169.711 189.98 153.642 168.496 143.483C182.016 132.541 191.172 116.891 195.127 104.644C198.066 95.5065 199.287 85.7064 197.962 76.0984C193.428 43.0835 164.605 22.8677 140.92 11.6615C118.593 1.04161 94.0371 -2.72377 70.1573 2.0223C4.08531 15.0671 0.204727 75.8165 0.204727 75.8165C-3.78625 134.138 51.7362 148.187 65.2628 150.756C67.743 151.237 70.1925 151.707 72.619 152.404C76.205 153.392 79.742 154.44 83.1977 155.54C106.7 163.1 126.542 173.121 126.542 173.121C128.694 174.232 130.755 175.429 132.737 176.676C157.865 192.782 168.568 219.887 168.568 219.887C173.039 217.064 185.702 213.648 185.702 213.648C183.883 209.981 187.946 200.313 187.946 200.313C189.721 203.89 193.295 205.336 193.295 205.336ZM131.418 89.5324C128.263 93.9308 123.683 98.6872 116.986 102.885C116.986 102.885 104.783 111.158 98.4545 122.767C64.5297 111.04 56.6827 96.3073 56.6827 96.3073C51.7914 86.4519 56.583 76.7453 63.5971 68.8288C76.2311 54.5958 94.4789 48.2862 112.026 52.0204C116.865 53.0599 121.752 54.7307 126.022 57.3632C136.392 63.7904 138.85 79.1235 131.418 89.5324Z" fill="white"/>
</mask>
<g mask="url(#mask11_35_614)">
<path d="M198.902 159.867C198.902 159.867 164.979 172.327 151.07 204.806" stroke="#E68D6F" stroke-width="2.1475" stroke-miterlimit="10"/>
</g>
<mask id="mask12_35_614" style="mask-type:luminance" maskUnits="userSpaceOnUse" x="0" y="0" width="226" height="220">
<path d="M193.295 205.336C209.45 200.136 226 194.868 226 194.868C212.447 169.711 189.98 153.642 168.496 143.483C182.016 132.541 191.172 116.891 195.127 104.644C198.066 95.5065 199.287 85.7064 197.962 76.0984C193.428 43.0835 164.605 22.8677 140.92 11.6615C118.593 1.04161 94.0371 -2.72377 70.1573 2.0223C4.08531 15.0671 0.204727 75.8165 0.204727 75.8165C-3.78625 134.138 51.7362 148.187 65.2628 150.756C67.743 151.237 70.1925 151.707 72.619 152.404C76.205 153.392 79.742 154.44 83.1977 155.54C106.7 163.1 126.542 173.121 126.542 173.121C128.694 174.232 130.755 175.429 132.737 176.676C157.865 192.782 168.568 219.887 168.568 219.887C173.039 217.064 185.702 213.648 185.702 213.648C183.883 209.981 187.946 200.313 187.946 200.313C189.721 203.89 193.295 205.336 193.295 205.336ZM131.418 89.5324C128.263 93.9308 123.683 98.6872 116.986 102.885C116.986 102.885 104.783 111.158 98.4545 122.767C64.5297 111.04 56.6827 96.3073 56.6827 96.3073C51.7914 86.4519 56.583 76.7453 63.5971 68.8288C76.2311 54.5958 94.4789 48.2862 112.026 52.0204C116.865 53.0599 121.752 54.7307 126.022 57.3632C136.392 63.7904 138.85 79.1235 131.418 89.5324Z" fill="white"/>
</mask>
<g mask="url(#mask12_35_614)">
<path d="M109.532 170.793C114.929 149.239 122.207 135.886 126.465 129.407" stroke="#E68D6F" stroke-width="2.1475" stroke-miterlimit="10"/>
</g>
<mask id="mask13_35_614" style="mask-type:luminance" maskUnits="userSpaceOnUse" x="0" y="0" width="226" height="220">
<path d="M193.295 205.336C209.45 200.136 226 194.868 226 194.868C212.447 169.711 189.98 153.642 168.496 143.483C182.016 132.541 191.172 116.891 195.127 104.644C198.066 95.5065 199.287 85.7064 197.962 76.0984C193.428 43.0835 164.605 22.8677 140.92 11.6615C118.593 1.04161 94.0371 -2.72377 70.1573 2.0223C4.08531 15.0671 0.204727 75.8165 0.204727 75.8165C-3.78625 134.138 51.7362 148.187 65.2628 150.756C67.743 151.237 70.1925 151.707 72.619 152.404C76.205 153.392 79.742 154.44 83.1977 155.54C106.7 163.1 126.542 173.121 126.542 173.121C128.694 174.232 130.755 175.429 132.737 176.676C157.865 192.782 168.568 219.887 168.568 219.887C173.039 217.064 185.702 213.648 185.702 213.648C183.883 209.981 187.946 200.313 187.946 200.313C189.721 203.89 193.295 205.336 193.295 205.336ZM131.418 89.5324C128.263 93.9308 123.683 98.6872 116.986 102.885C116.986 102.885 104.783 111.158 98.4545 122.767C64.5297 111.04 56.6827 96.3073 56.6827 96.3073C51.7914 86.4519 56.583 76.7453 63.5971 68.8288C76.2311 54.5958 94.4789 48.2862 112.026 52.0204C116.865 53.0599 121.752 54.7307 126.022 57.3632C136.392 63.7904 138.85 79.1235 131.418 89.5324Z" fill="white"/>
</mask>
<g mask="url(#mask13_35_614)">
<path d="M121.472 176.139C124.56 157.517 132.132 140.127 135.991 132.093" stroke="#E68D6F" stroke-width="2.1475" stroke-miterlimit="10"/>
</g>
<path d="M73.685 244.793C70.2892 243.866 67.3596 243.128 64.8963 242.574C62.7321 206.107 87.2209 167.898 93.3178 158.994C95.8578 159.919 98.3272 160.858 100.66 161.794C93.9421 171.272 71.4518 206.143 73.685 244.793Z" fill="#79A280"/>
<mask id="mask14_35_614" style="mask-type:luminance" maskUnits="userSpaceOnUse" x="55" y="155" width="78" height="93">
<path d="M114.676 242.522C99.5067 243.097 91.7671 246.807 91.7671 246.807C89.5829 242.406 90.0922 235.312 90.0922 235.312C86.4739 237.595 84.4861 248 84.4861 248C66.6387 242.318 56.0569 240.839 56.0569 240.839C51.5828 205.258 73.8062 168.989 83.1977 155.538C106.7 163.098 126.542 173.12 126.542 173.12C128.694 174.23 130.755 175.427 132.737 176.674C104.577 206.577 114.676 242.522 114.676 242.522Z" fill="white"/>
</mask>
<g mask="url(#mask14_35_614)">
<path d="M58.4743 190.214C58.4743 190.214 97.1079 188.557 120.213 208.32" stroke="#E68D6F" stroke-width="2.1475" stroke-miterlimit="10"/>
</g>
<mask id="mask15_35_614" style="mask-type:luminance" maskUnits="userSpaceOnUse" x="55" y="155" width="78" height="93">
<path d="M114.676 242.522C99.5067 243.097 91.7671 246.807 91.7671 246.807C89.5829 242.406 90.0922 235.312 90.0922 235.312C86.4739 237.595 84.4861 248 84.4861 248C66.6387 242.318 56.0569 240.839 56.0569 240.839C51.5828 205.258 73.8062 168.989 83.1977 155.538C106.7 163.098 126.542 173.12 126.542 173.12C128.694 174.23 130.755 175.427 132.737 176.674C104.577 206.577 114.676 242.522 114.676 242.522Z" fill="white"/>
</mask>
<g mask="url(#mask15_35_614)">
<path d="M63.2214 177.26C63.2214 177.26 101.855 178.942 123.551 200.64" stroke="#E68D6F" stroke-width="2.1475" stroke-miterlimit="10"/>
</g>
<path d="M53.0752 15.1484C53.5875 14.953 54.0998 14.7696 54.6106 14.5967" stroke="white" stroke-width="2.3586" stroke-miterlimit="10" stroke-linecap="round" stroke-linejoin="round"/>
<path d="M35.5775 25.1715C37.9533 23.4176 41.7894 20.7557 46.1531 18.381" stroke="white" stroke-width="2.3586" stroke-miterlimit="10" stroke-linecap="round" stroke-linejoin="round"/>
<path d="M168.735 148.78C169.117 148.964 169.504 149.154 169.892 149.346" stroke="white" stroke-width="2.3586" stroke-miterlimit="10" stroke-linecap="round" stroke-linejoin="round"/>
<path d="M153.032 142.851C153.032 142.851 156.814 143.785 162.305 145.963" stroke="white" stroke-width="2.3586" stroke-miterlimit="10" stroke-linecap="round" stroke-linejoin="round"/>
<path d="M144.318 125.716C143.891 125.579 143.547 125.181 143.46 124.657L142.725 120.223C142.602 119.484 143.035 118.773 143.69 118.635C144.345 118.496 144.973 118.986 145.098 119.723L145.832 124.158C145.955 124.896 145.523 125.607 144.869 125.745C144.679 125.783 144.492 125.771 144.318 125.716Z" fill="#125189"/>
<path d="M148.461 125.927C148.314 125.88 148.171 125.802 148.046 125.688C147.521 125.225 147.429 124.37 147.84 123.779L150.253 120.307C150.664 119.716 151.425 119.61 151.946 120.076C152.471 120.539 152.561 121.394 152.152 121.983L149.739 125.455C149.428 125.904 148.918 126.072 148.461 125.927Z" fill="#125189"/>
<path d="M147.268 170.837C146.84 170.7 146.497 170.302 146.409 169.778L145.674 165.343C145.552 164.605 145.984 163.894 146.639 163.755C147.294 163.617 147.923 164.107 148.047 164.843L148.782 169.278C148.905 170.017 148.472 170.728 147.819 170.866C147.628 170.904 147.44 170.892 147.268 170.837Z" fill="#125189"/>
<path d="M151.411 171.048C151.264 171.001 151.121 170.923 150.995 170.809C150.471 170.345 150.379 169.491 150.79 168.899L153.202 165.428C153.613 164.836 154.374 164.731 154.896 165.196C155.42 165.66 155.511 166.514 155.101 167.106L152.688 170.577C152.377 171.025 151.866 171.193 151.411 171.048Z" fill="#125189"/>
<path d="M171.01 208.994C170.582 208.857 170.238 208.459 170.151 207.935L169.416 203.5C169.293 202.762 169.726 202.051 170.381 201.913C171.036 201.774 171.665 202.264 171.789 203L172.524 207.435C172.646 208.174 172.214 208.885 171.559 209.023C171.37 209.061 171.182 209.047 171.01 208.994Z" fill="#125189"/>
<path d="M175.153 209.203C175.005 209.157 174.863 209.079 174.737 208.965C174.212 208.501 174.12 207.647 174.531 207.055L176.944 203.584C177.355 202.992 178.116 202.887 178.637 203.352C179.162 203.816 179.253 204.67 178.843 205.261L176.43 208.733C176.119 209.181 175.608 209.349 175.153 209.203Z" fill="#125189"/>
<path d="M108.818 186.252C108.39 186.116 108.047 185.718 107.959 185.194L107.225 180.759C107.102 180.021 107.535 179.31 108.19 179.171C108.844 179.033 109.473 179.522 109.598 180.259L110.332 184.694C110.455 185.433 110.022 186.143 109.369 186.282C109.179 186.32 108.992 186.308 108.818 186.252Z" fill="#125189"/>
<path d="M112.961 186.464C112.814 186.417 112.671 186.339 112.546 186.225C112.021 185.761 111.931 184.907 112.34 184.315L114.753 180.844C115.164 180.252 115.925 180.147 116.446 180.612C116.971 181.076 117.063 181.93 116.652 182.522L114.239 185.993C113.928 186.441 113.418 186.609 112.961 186.464Z" fill="#125189"/>
<path d="M104.137 239.414C103.709 239.278 103.366 238.88 103.278 238.356L102.544 233.921C102.421 233.182 102.853 232.472 103.508 232.333C104.163 232.195 104.792 232.684 104.916 233.421L105.651 237.856C105.774 238.594 105.341 239.305 104.688 239.444C104.496 239.482 104.309 239.47 104.137 239.414Z" fill="#125189"/>
<path d="M108.279 239.625C108.131 239.579 107.989 239.501 107.863 239.387C107.338 238.923 107.248 238.069 107.657 237.477L110.07 234.006C110.481 233.414 111.242 233.309 111.763 233.774C112.288 234.238 112.378 235.092 111.969 235.684L109.556 239.155C109.245 239.603 108.736 239.771 108.279 239.625Z" fill="#125189"/>
<path d="M79.7526 221.533C79.3247 221.397 78.9811 220.999 78.8937 220.475L78.159 216.04C78.0363 215.302 78.4689 214.591 79.1223 214.452C79.7772 214.314 80.4061 214.803 80.5303 215.54L81.265 219.975C81.3877 220.714 80.9551 221.424 80.3002 221.563C80.1115 221.601 79.9244 221.587 79.7526 221.533Z" fill="#125189"/>
<path d="M83.8939 221.743C83.7467 221.696 83.604 221.618 83.4783 221.504C82.9537 221.04 82.8617 220.186 83.2727 219.594L85.6854 216.123C86.0965 215.532 86.8573 215.426 87.3788 215.891C87.9033 216.355 87.9953 217.209 87.5843 217.801L85.1716 221.272C84.8602 221.722 84.351 221.89 83.8939 221.743Z" fill="#125189"/>
<path d="M206.07 183.809C205.642 183.672 205.298 183.274 205.211 182.75L204.476 178.316C204.353 177.577 204.786 176.866 205.441 176.728C206.096 176.589 206.725 177.079 206.849 177.816L207.584 182.25C207.706 182.989 207.274 183.7 206.619 183.838C206.43 183.876 206.241 183.864 206.07 183.809Z" fill="#125189"/>
<path d="M210.212 184.02C210.065 183.973 209.923 183.895 209.797 183.781C209.272 183.317 209.18 182.463 209.591 181.871L212.004 178.4C212.415 177.809 213.176 177.703 213.697 178.168C214.22 178.632 214.312 179.486 213.901 180.078L211.489 183.549C211.179 183.997 210.668 184.165 210.212 184.02Z" fill="#125189"/>
<path d="M96.6921 156.265C96.2642 156.128 95.9206 155.73 95.8332 155.206L95.0985 150.771C94.9758 150.033 95.4083 149.322 96.0633 149.184C96.7182 149.045 97.3471 149.535 97.4713 150.271L98.206 154.706C98.3287 155.445 97.8962 156.156 97.2412 156.294C97.0526 156.332 96.8639 156.318 96.6921 156.265Z" fill="#125189"/>
<path d="M100.835 156.474C100.688 156.427 100.545 156.349 100.419 156.235C99.8947 155.772 99.8027 154.917 100.214 154.326L102.626 150.854C103.037 150.263 103.798 150.157 104.32 150.623C104.844 151.086 104.936 151.941 104.525 152.532L102.113 156.003C101.801 156.453 101.29 156.621 100.835 156.474Z" fill="#125189"/>
<path d="M20.6658 105.922C20.2378 105.786 19.8942 105.388 19.8068 104.864L19.0721 100.429C18.9494 99.6904 19.382 98.9795 20.0369 98.8412C20.6918 98.7028 21.3207 99.1923 21.4449 99.9291L22.1796 104.364C22.3023 105.102 21.8698 105.813 21.2164 105.952C21.0262 105.991 20.8391 105.978 20.6658 105.922Z" fill="#125189"/>
<path d="M24.8085 106.133C24.6613 106.087 24.5187 106.009 24.3929 105.895C23.8683 105.431 23.7763 104.577 24.1873 103.985L26.6 100.514C27.0111 99.9223 27.7719 99.8168 28.2934 100.282C28.8179 100.746 28.9084 101.6 28.4989 102.192L26.0862 105.663C25.7749 106.111 25.2641 106.279 24.8085 106.133Z" fill="#125189"/>
<path d="M56.7792 53.6792C56.3513 53.5425 56.0077 53.1447 55.9203 52.6206L55.1856 48.1859C55.0629 47.4474 55.4954 46.7365 56.1488 46.5981C56.8038 46.4597 57.4326 46.9492 57.5569 47.686L58.2916 52.1208C58.4143 52.8593 57.9817 53.5702 57.3268 53.7086C57.1381 53.7466 56.951 53.7345 56.7792 53.6792Z" fill="#95BC9A"/>
<path d="M60.9207 53.8902C60.7734 53.8435 60.6308 53.7656 60.505 53.6515C59.9804 53.1879 59.8884 52.3335 60.2995 51.742L62.7122 48.2706C63.1232 47.6791 63.884 47.5736 64.4055 48.0389C64.93 48.5024 65.0221 49.3568 64.611 49.9483L62.1983 53.4197C61.8869 53.8677 61.3777 54.0355 60.9207 53.8902Z" fill="#95BC9A"/>
<path d="M114.483 38.8616C114.055 38.7249 113.711 38.3271 113.624 37.8031L112.889 33.3683C112.767 32.6297 113.199 31.9189 113.854 31.7805C114.509 31.6421 115.138 32.1316 115.262 32.8684L115.997 37.3032C116.119 38.0417 115.687 38.7526 115.032 38.891C114.842 38.929 114.655 38.9169 114.483 38.8616Z" fill="#95BC9A"/>
<path d="M118.624 39.0724C118.477 39.0257 118.334 38.9479 118.208 38.8337C117.684 38.3702 117.592 37.5158 118.003 36.9242L120.416 33.4529C120.827 32.8614 121.587 32.7559 122.109 33.2211C122.633 33.6847 122.725 34.5391 122.314 35.1289L119.902 38.6003C119.59 39.05 119.081 39.2177 118.624 39.0724Z" fill="#95BC9A"/>
<path d="M77.7266 11.7133C77.2987 11.5767 76.9551 11.1789 76.8677 10.6548L76.133 6.22009C76.0103 5.48154 76.4428 4.77067 77.0978 4.6323C77.7527 4.49393 78.3816 4.98339 78.5058 5.71848L79.2405 10.1532C79.3632 10.8918 78.9307 11.6026 78.2757 11.741C78.0855 11.7808 77.8984 11.7687 77.7266 11.7133Z" fill="#125189"/>
<path d="M81.8679 11.9243C81.7206 11.8776 81.578 11.7998 81.4522 11.6857C80.9277 11.2221 80.8372 10.3677 81.2467 9.77615L83.6594 6.30483C84.0704 5.7133 84.8312 5.60779 85.3527 6.07305C85.8773 6.53659 85.9693 7.39103 85.5582 7.98256L83.1456 11.4539C82.8342 11.9019 82.325 12.0696 81.8679 11.9243Z" fill="#125189"/>
<path d="M184.161 104.781C183.733 104.644 183.389 104.246 183.302 103.722L182.567 99.2875C182.444 98.5489 182.877 97.838 183.532 97.6997C184.187 97.5613 184.816 98.0508 184.94 98.7877L185.675 103.222C185.797 103.961 185.365 104.672 184.71 104.81C184.521 104.85 184.332 104.836 184.161 104.781Z" fill="#125189"/>
<path d="M188.303 104.992C188.156 104.945 188.014 104.867 187.888 104.753C187.363 104.289 187.271 103.435 187.682 102.843L190.095 99.3721C190.506 98.7806 191.267 98.675 191.788 99.1403C192.313 99.6039 192.403 100.458 191.994 101.05L189.581 104.521C189.268 104.971 188.759 105.137 188.303 104.992Z" fill="#125189"/>
<path d="M166.652 47.9784C166.224 47.8417 165.881 47.4439 165.793 46.9198L165.059 42.4851C164.936 41.7466 165.368 41.0357 166.022 40.8973C166.677 40.7589 167.306 41.2484 167.43 41.9852L168.165 46.42C168.287 47.1585 167.855 47.8694 167.2 48.0078C167.013 48.0458 166.824 48.0337 166.652 47.9784Z" fill="#125189"/>
<path d="M170.795 48.1892C170.648 48.1425 170.505 48.0647 170.379 47.9506C169.855 47.487 169.763 46.6326 170.174 46.0411L172.586 42.5697C172.998 41.9782 173.758 41.8727 174.28 42.3379C174.804 42.8015 174.896 43.6559 174.485 44.2475L172.073 47.7188C171.76 48.1668 171.251 48.3345 170.795 48.1892Z" fill="#125189"/>
</svg>
