<svg width="229" height="206" viewBox="0 0 229 206" fill="none" xmlns="http://www.w3.org/2000/svg">
<path d="M51.9253 174.849C51.9253 174.849 52.0723 175.048 52.3943 175.395" stroke="#125189" stroke-width="1.4502" stroke-linecap="round" stroke-linejoin="round"/>
<path d="M55.7043 178.215C60.9093 181.897 72.1693 187.311 93.5463 187.529C109.833 187.695 125.989 184.645 141.249 178.951C158.537 172.5 180.341 161.393 182.114 145.984" stroke="#125189" stroke-width="1.4502" stroke-linecap="round" stroke-linejoin="round" stroke-dasharray="1.45 4.36"/>
<path d="M182.23 143.805C182.228 143.565 182.221 143.324 182.209 143.082" stroke="#125189" stroke-width="1.4502" stroke-linecap="round" stroke-linejoin="round"/>
<path d="M181.683 175.351C176.553 181.504 169.17 186.7 161.481 190.914C140.301 202.532 115.984 207.211 91.9213 205.08C78.8803 203.929 70.2043 201.268 65.0833 199.152C61.5693 197.692 59.4003 194.128 59.6903 190.333L59.7793 189.147C60.8443 189.605 61.9363 189.957 63.0783 190.243C74.2493 193.224 131.042 205.543 180.03 163.868C180.03 163.868 180.371 163.598 180.891 163.052L182.178 165.017C184.263 168.211 184.124 172.424 181.683 175.351Z" fill="#125189"/>
<mask id="mask0_35_21" style="mask-type:luminance" maskUnits="userSpaceOnUse" x="59" y="163" width="125" height="43">
<path d="M181.683 175.351C176.553 181.504 169.17 186.7 161.481 190.914C140.301 202.532 115.984 207.211 91.9213 205.08C78.8803 203.929 70.2043 201.268 65.0833 199.152C61.5693 197.692 59.4003 194.128 59.6903 190.333L59.7793 189.147C60.8443 189.605 61.9363 189.957 63.0783 190.243C74.2493 193.224 131.042 205.543 180.03 163.868C180.03 163.868 180.371 163.598 180.891 163.052L182.178 165.017C184.263 168.211 184.124 172.424 181.683 175.351Z" fill="white"/>
</mask>
<g mask="url(#mask0_35_21)">
<path d="M126.587 187.191L131.196 206.417" stroke="#09386A" stroke-width="1.4502" stroke-miterlimit="10"/>
<path d="M139.138 184.04L146.001 202.58" stroke="#09386A" stroke-width="1.4502" stroke-miterlimit="10"/>
<path d="M149.606 179.783L157.252 196.441" stroke="#09386A" stroke-width="1.4502" stroke-miterlimit="10"/>
<path d="M159.943 172.601L169.539 190.502" stroke="#09386A" stroke-width="1.4502" stroke-miterlimit="10"/>
<path d="M170.173 166.776L179.524 182.273" stroke="#09386A" stroke-width="1.4502" stroke-miterlimit="10"/>
<path d="M114.713 188.946L116.671 208.564" stroke="#09386A" stroke-width="1.4502" stroke-miterlimit="10"/>
<path d="M103.386 191.209L103.636 208.842" stroke="#09386A" stroke-width="1.4502" stroke-miterlimit="10"/>
<path d="M92.6233 190.915L90.5133 207.719" stroke="#09386A" stroke-width="1.4502" stroke-miterlimit="10"/>
<path d="M82.0263 190.95L78.8363 206.028" stroke="#09386A" stroke-width="1.4502" stroke-miterlimit="10"/>
<path d="M70.9403 188.466L67.6383 204.385" stroke="#09386A" stroke-width="1.4502" stroke-miterlimit="10"/>
</g>
<path d="M70.2774 26.9746C70.2774 26.9746 48.1694 43.1706 38.0994 53.1406C38.0994 53.1406 48.6924 71.6786 43.8624 106.476C43.8624 106.476 44.8034 146.326 44.0044 160.005C43.7544 164.276 44.1764 168.578 45.5124 172.643C47.4284 178.473 51.4154 185.471 59.7144 189.119C60.7994 189.596 61.9274 189.94 63.0734 190.245C74.2484 193.225 131.039 205.55 180.037 163.86C180.037 163.86 189.505 156.131 186.504 142.262C185.897 139.457 184.752 136.798 183.297 134.324C178.936 126.908 165.651 103.87 155.655 81.7856C155.655 81.7856 141.723 62.4446 144.274 36.6626C144.274 36.6626 126.366 26.0166 112.394 20.7496L70.2774 26.9746Z" fill="#09386A"/>
<mask id="mask1_35_21" style="mask-type:luminance" maskUnits="userSpaceOnUse" x="38" y="20" width="150" height="175">
<path d="M70.2774 26.9746C70.2774 26.9746 48.1694 43.1706 38.0994 53.1406C38.0994 53.1406 49.1944 70.8196 43.8624 106.476C43.8624 106.476 44.8034 146.326 44.0044 160.005C43.7544 164.276 44.1764 168.578 45.5124 172.643C47.4284 178.473 51.4154 185.471 59.7144 189.119C60.7994 189.596 61.9274 189.94 63.0734 190.245C74.2484 193.225 131.039 205.55 180.037 163.86C180.037 163.86 189.505 156.131 186.504 142.262C185.897 139.457 184.752 136.798 183.297 134.324C178.936 126.908 165.651 103.87 155.655 81.7856C155.655 81.7856 141.723 62.4446 144.274 36.6626C144.274 36.6626 126.366 26.0166 112.394 20.7496L70.2774 26.9746Z" fill="white"/>
</mask>
<g mask="url(#mask1_35_21)">
<path d="M148.451 57.8367L139.962 66.7387C138.608 68.1587 136.484 68.5237 134.734 67.6377L127.284 63.8657C125.551 62.9877 123.449 63.3367 122.092 64.7267L114.796 72.2027C113.479 73.5527 111.453 73.9247 109.742 73.1307L97.7544 67.5717C96.1464 66.8257 94.2484 67.1067 92.9254 68.2857L83.0574 77.0747C81.6494 78.3297 79.6024 78.5587 77.9504 77.6477L68.8034 72.6027C67.1024 71.6647 64.9894 71.9387 63.5844 73.2797L57.5444 79.0457C56.1254 80.4007 53.9864 80.6657 52.2794 79.6977L41.5784 73.6317" stroke="white" stroke-width="2.9003" stroke-miterlimit="10"/>
<path d="M59.3354 86.6076C57.8564 87.6096 57.9854 89.3566 57.9854 89.3566C57.9854 89.3566 57.6044 87.6466 55.8984 87.1156C54.0474 86.5396 52.1084 88.0966 52.3224 89.8876C52.4184 90.6876 52.7814 91.6057 53.6734 92.5377L59.2144 97.6726L63.0334 91.1536C63.6174 90.0026 63.7004 89.0196 63.5604 88.2256C63.2474 86.4496 60.9404 85.5206 59.3354 86.6076Z" fill="#E6A087"/>
<path d="M85.1195 85.8956C83.6395 86.8976 83.7694 88.6446 83.7694 88.6446C83.7694 88.6446 83.3884 86.9346 81.6824 86.4036C79.8314 85.8276 77.8924 87.3836 78.1064 89.1756C78.2014 89.9756 78.5654 90.8936 79.4574 91.8256L84.9984 96.9606L88.8174 90.4416C89.4014 89.2906 89.4834 88.3076 89.3444 87.5136C89.0304 85.7376 86.7245 84.8086 85.1195 85.8956Z" fill="#E6A087"/>
<path d="M138.075 74.9696C139.781 75.5006 140.162 77.2106 140.162 77.2106C140.162 77.2106 140.032 75.4627 141.512 74.4617C143.117 73.3747 145.424 74.3036 145.737 76.0796C145.877 76.8726 145.794 77.8566 145.21 79.0076L141.391 85.5266L135.85 80.3917C134.958 79.4587 134.595 78.5417 134.499 77.7417C134.284 75.9507 136.223 74.3936 138.075 74.9696Z" fill="#E6A087"/>
<path d="M113.187 81.7476C114.893 82.2786 115.274 83.9886 115.274 83.9886C115.274 83.9886 115.144 82.2416 116.624 81.2396C118.229 80.1526 120.536 81.0816 120.849 82.8576C120.989 83.6506 120.906 84.6346 120.322 85.7856L116.503 92.3046L110.962 87.1696C110.07 86.2366 109.706 85.3196 109.611 84.5196C109.397 82.7276 111.336 81.1716 113.187 81.7476Z" fill="#E6A087"/>
<path d="M156.467 85.1196C156.467 85.1196 139.925 96.5176 100.426 102.356C60.9273 108.194 41.7953 102.069 41.7953 102.069" stroke="#F69D0D" stroke-width="1.4502" stroke-miterlimit="10"/>
<path d="M102.294 114.99C55.6343 121.886 32.8653 114.848 31.9183 114.545L33.6873 109.021C33.9023 109.089 56.3093 115.923 101.445 109.252C146.784 102.551 166.051 89.5587 166.24 89.4287L169.531 94.2047C168.713 94.7687 148.954 108.093 102.294 114.99Z" fill="#79A280"/>
<path d="M101.494 123.48L108.385 122.461C109.079 122.358 109.598 123.086 109.274 123.708L106.533 128.984C106.263 129.504 105.563 129.608 105.154 129.188L101.004 124.93C100.514 124.429 100.799 123.583 101.494 123.48Z" fill="#FFEEE7"/>
<path d="M78.3483 126.611L85.3013 126.188C86.0023 126.145 86.4553 126.915 86.0803 127.507L82.8963 132.528C82.5823 133.023 81.8763 133.066 81.5043 132.613L77.7353 128.015C77.2903 127.472 77.6473 126.654 78.3483 126.611Z" fill="#FFEEE7"/>
<path d="M56.6923 126.693L63.6563 126.874C64.3583 126.892 64.7433 127.698 64.3183 128.256L60.7113 132.983C60.3553 133.449 59.6483 133.431 59.3173 132.947L55.9603 128.039C55.5633 127.46 55.9903 126.675 56.6923 126.693Z" fill="#FFEEE7"/>
<path d="M131.446 118.763L124.667 120.37C123.984 120.532 123.772 121.399 124.303 121.858L128.804 125.744C129.248 126.127 129.936 125.964 130.161 125.422L132.439 119.93C132.708 119.281 132.129 118.601 131.446 118.763Z" fill="#FFEEE7"/>
<path d="M152.201 112.577L145.587 114.765C144.921 114.985 144.785 115.868 145.354 116.279L150.174 119.76C150.649 120.103 151.321 119.881 151.498 119.322L153.292 113.653C153.502 112.984 152.867 112.356 152.201 112.577Z" fill="#FFEEE7"/>
</g>
<path d="M197.249 138.463C197.249 138.463 198.056 139.96 199.398 141.683C201.184 143.975 204.241 144.845 207.005 143.946C212.377 142.199 221.672 138.23 227.59 130.43C229.32 128.149 229.458 125.018 227.935 122.593C227.298 121.578 226.436 120.444 225.271 119.242C225.271 119.242 211.101 134.657 197.249 138.463Z" fill="#125189"/>
<mask id="mask2_35_21" style="mask-type:luminance" maskUnits="userSpaceOnUse" x="197" y="119" width="32" height="26">
<path d="M197.249 138.463C197.249 138.463 198.056 139.96 199.398 141.683C201.184 143.975 204.241 144.845 207.005 143.946C212.377 142.199 221.672 138.23 227.59 130.43C229.32 128.149 229.458 125.018 227.935 122.593C227.298 121.578 226.436 120.444 225.271 119.242C225.271 119.243 211.101 134.657 197.249 138.463Z" fill="white"/>
</mask>
<g mask="url(#mask2_35_21)">
<path d="M200.389 134.818C200.389 134.818 205.125 142.952 210.076 147.757" stroke="#09386A" stroke-width="1.4502" stroke-miterlimit="10"/>
<path d="M205.671 130.307C205.671 130.307 212.376 142.195 215.639 144.618" stroke="#09386A" stroke-width="1.4502" stroke-miterlimit="10"/>
<path d="M215.774 124.652C215.774 124.652 222.827 133.583 225.486 138.295" stroke="#09386A" stroke-width="1.4502" stroke-miterlimit="10"/>
<path d="M219.928 120.816C219.928 120.816 225.619 127.438 230.899 134.47" stroke="#09386A" stroke-width="1.4502" stroke-miterlimit="10"/>
<path d="M211.469 128.586C211.469 128.586 218.143 138.673 219.685 141.664" stroke="#09386A" stroke-width="1.4502" stroke-miterlimit="10"/>
</g>
<path d="M144.272 36.6626C144.272 36.6626 160.335 41.1996 172.473 52.1276C172.473 52.1276 203.904 83.0196 220.668 97.0586C224.888 100.593 227.584 105.698 227.856 111.196C227.861 111.288 227.865 111.38 227.869 111.473C228.112 117.47 225.517 123.218 221.049 127.226C216.624 131.194 209.148 136.837 199.336 140.354C199.336 140.354 189.578 144.466 179.671 131.638C179.671 131.638 167.045 108.694 155.654 81.7856C155.654 81.7856 140.159 63.0286 144.272 36.6626Z" fill="#09386A"/>
<mask id="mask3_35_21" style="mask-type:luminance" maskUnits="userSpaceOnUse" x="143" y="36" width="85" height="105">
<path d="M144.272 36.6626C144.272 36.6626 160.335 41.1996 172.473 52.1276C172.473 52.1276 203.904 83.0196 220.668 97.0586C224.888 100.593 227.584 105.698 227.856 111.196C227.861 111.288 227.865 111.38 227.869 111.473C228.112 117.47 225.517 123.218 221.049 127.226C216.624 131.194 209.148 136.837 199.336 140.354C199.336 140.354 189.578 144.466 179.671 131.638C179.671 131.638 167.045 108.694 155.654 81.7856C155.653 81.7846 140.159 63.0286 144.272 36.6626Z" fill="white"/>
</mask>
<g mask="url(#mask3_35_21)">
<path d="M182.474 139.211C182.474 139.211 217.057 129.644 227.426 102.667" stroke="#F69D0D" stroke-width="1.4502" stroke-miterlimit="10"/>
<path d="M177.102 133.98L180.302 126.965C180.848 125.769 182.22 125.192 183.456 125.638L188.137 127.326C189.693 127.887 191.359 126.826 191.509 125.179L192.001 119.75C192.148 118.132 193.762 117.072 195.305 117.579L200.284 119.218C201.996 119.782 203.731 118.421 203.591 116.624L203.269 112.479C203.138 110.792 204.67 109.457 206.324 109.816L210.913 110.814C212.688 111.2 214.278 109.642 213.928 107.859L212.759 101.913C212.447 100.328 213.684 98.8615 215.298 98.9005L223.615 99.1035" stroke="#79A280" stroke-width="1.4502" stroke-miterlimit="10"/>
<path d="M212.311 116.734C212.357 117.956 211.404 118.984 210.183 119.031C208.961 119.077 207.933 118.124 207.886 116.902C207.84 115.68 208.793 114.652 210.015 114.606C211.237 114.559 212.265 115.512 212.311 116.734Z" fill="#E6A087"/>
<path d="M200.282 124.916C200.328 126.138 199.375 127.166 198.153 127.212C196.931 127.258 195.903 126.305 195.857 125.083C195.811 123.861 196.764 122.833 197.985 122.787C199.208 122.741 200.236 123.694 200.282 124.916Z" fill="#E6A087"/>
<path d="M221.83 105.142C221.876 106.364 220.923 107.392 219.701 107.438C218.479 107.484 217.451 106.531 217.405 105.31C217.359 104.088 218.312 103.06 219.534 103.013C220.755 102.968 221.784 103.921 221.83 105.142Z" fill="#E6A087"/>
<path d="M187.842 132.147C187.888 133.369 186.935 134.397 185.713 134.443C184.491 134.489 183.463 133.536 183.417 132.314C183.371 131.092 184.324 130.064 185.545 130.018C186.767 129.972 187.795 130.925 187.842 132.147Z" fill="#E6A087"/>
</g>
<mask id="mask4_35_21" style="mask-type:luminance" maskUnits="userSpaceOnUse" x="143" y="36" width="85" height="105">
<path d="M144.272 36.6626C144.272 36.6626 160.335 41.1996 172.473 52.1276C172.473 52.1276 203.904 83.0196 220.668 97.0586C224.888 100.593 227.584 105.698 227.856 111.196C227.861 111.288 227.865 111.38 227.869 111.473C228.112 117.47 225.517 123.218 221.049 127.226C216.624 131.194 209.148 136.837 199.336 140.354C199.336 140.354 189.578 144.466 179.671 131.638C179.671 131.638 167.045 108.694 155.654 81.7856C155.653 81.7846 140.159 63.0286 144.272 36.6626Z" fill="white"/>
</mask>
<g mask="url(#mask4_35_21)">
<path d="M192.655 139.259C192.655 139.259 217.796 130.831 226.319 114.376" stroke="#125189" stroke-width="1.4502" stroke-miterlimit="10" stroke-linecap="round" stroke-linejoin="round" stroke-dasharray="1.45 4.35"/>
</g>
<path d="M187.691 71.4026C187.323 71.1156 187.323 71.1186 186.956 70.8406" stroke="white" stroke-width="2.1753" stroke-miterlimit="10" stroke-linecap="round" stroke-linejoin="round"/>
<path d="M196.359 78.6416C196.359 78.6416 193.758 76.3086 190.579 73.7046" stroke="white" stroke-width="2.1753" stroke-miterlimit="10" stroke-linecap="round" stroke-linejoin="round"/>
<path d="M54.5524 45.0256C54.9564 44.7056 55.3624 44.3916 55.7664 44.0896" stroke="white" stroke-width="2.1753" stroke-miterlimit="10" stroke-linecap="round" stroke-linejoin="round"/>
<path d="M45.0233 53.7666C45.0233 53.7666 47.9103 50.7466 51.4903 47.5946" stroke="white" stroke-width="2.1753" stroke-miterlimit="10" stroke-linecap="round" stroke-linejoin="round"/>
<path d="M5.77839 171.593C5.77839 171.593 5.04239 175.644 4.55639 178.981C4.25339 181.06 5.23539 183.131 7.06939 184.155C10.6664 186.163 17.6514 188.918 28.2844 188.341C31.7964 188.15 34.7584 185.635 35.6054 182.221C35.9934 180.659 36.3264 178.834 36.4744 176.834C36.4744 176.834 18.8084 179.522 5.77839 171.593Z" fill="#125189"/>
<mask id="mask5_35_21" style="mask-type:luminance" maskUnits="userSpaceOnUse" x="4" y="171" width="33" height="18">
<path d="M5.77839 171.593C5.77839 171.593 5.04239 175.644 4.55639 178.981C4.25339 181.06 5.23539 183.131 7.06939 184.155C10.6664 186.163 17.6514 188.918 28.2844 188.341C31.7964 188.15 34.7584 185.635 35.6054 182.221C35.9934 180.659 36.3264 178.834 36.4744 176.834C36.4734 176.833 18.8084 179.522 5.77839 171.593Z" fill="white"/>
</mask>
<g mask="url(#mask5_35_21)">
<path d="M32.0514 172.421C32.0514 172.421 30.7144 185.694 27.6414 197.575" stroke="#09386A" stroke-width="1.4502" stroke-miterlimit="10"/>
</g>
<mask id="mask6_35_21" style="mask-type:luminance" maskUnits="userSpaceOnUse" x="4" y="171" width="33" height="18">
<path d="M5.77839 171.593C5.77839 171.593 5.04239 175.644 4.55639 178.981C4.25339 181.06 5.23539 183.131 7.06939 184.155C10.6664 186.163 17.6514 188.918 28.2844 188.341C31.7964 188.15 34.7584 185.635 35.6054 182.221C35.9934 180.659 36.3264 178.834 36.4744 176.834C36.4734 176.833 18.8084 179.522 5.77839 171.593Z" fill="white"/>
</mask>
<g mask="url(#mask6_35_21)">
<path d="M24.8554 171.934C24.8554 171.934 23.6024 185.788 20.2584 194.693" stroke="#09386A" stroke-width="1.4502" stroke-miterlimit="10"/>
</g>
<mask id="mask7_35_21" style="mask-type:luminance" maskUnits="userSpaceOnUse" x="4" y="171" width="33" height="18">
<path d="M5.77839 171.593C5.77839 171.593 5.04239 175.644 4.55639 178.981C4.25339 181.06 5.23539 183.131 7.06939 184.155C10.6664 186.163 17.6514 188.918 28.2844 188.341C31.7964 188.15 34.7584 185.635 35.6054 182.221C35.9934 180.659 36.3264 178.834 36.4744 176.834C36.4734 176.833 18.8084 179.522 5.77839 171.593Z" fill="white"/>
</mask>
<g mask="url(#mask7_35_21)">
<path d="M20.5554 169.774C20.5554 169.774 16.1154 181.974 13.6954 192.698" stroke="#09386A" stroke-width="1.4502" stroke-miterlimit="10"/>
</g>
<mask id="mask8_35_21" style="mask-type:luminance" maskUnits="userSpaceOnUse" x="4" y="171" width="33" height="18">
<path d="M5.77839 171.593C5.77839 171.593 5.04239 175.644 4.55639 178.981C4.25339 181.06 5.23539 183.131 7.06939 184.155C10.6664 186.163 17.6514 188.918 28.2844 188.341C31.7964 188.15 34.7584 185.635 35.6054 182.221C35.9934 180.659 36.3264 178.834 36.4744 176.834C36.4734 176.833 18.8084 179.522 5.77839 171.593Z" fill="white"/>
</mask>
<g mask="url(#mask8_35_21)">
<path d="M13.0264 168.99C13.0264 168.99 9.25039 180.904 7.39539 191.462" stroke="#09386A" stroke-width="1.4502" stroke-miterlimit="10"/>
</g>
<path d="M38.0983 53.1406C38.0983 53.1406 33.4743 56.0716 27.8523 63.8806C22.9893 70.6356 19.8993 78.4906 18.5153 86.6986C15.5043 104.552 6.77434 142.319 0.877341 159.59C-0.544659 163.753 -0.276657 168.394 1.96434 172.18C2.12334 172.449 2.29434 172.718 2.47634 172.986C4.05534 175.307 6.35034 177.035 8.93334 178.135C13.0863 179.903 21.5953 182.751 31.8663 181.904C37.0523 181.477 41.7923 178.547 44.0483 173.858C44.2163 173.508 44.3773 173.143 44.5283 172.761C45.2233 171.003 45.5263 169.126 45.5943 167.237C45.8303 160.707 46.2803 139.429 43.8623 106.477C43.8623 106.477 50.3723 76.1426 38.0983 53.1406Z" fill="#09386A"/>
<mask id="mask9_35_21" style="mask-type:luminance" maskUnits="userSpaceOnUse" x="0" y="53" width="46" height="130">
<path d="M38.0983 53.1406C38.0983 53.1406 33.4743 56.0716 27.8523 63.8806C22.9893 70.6356 19.8993 78.4906 18.5153 86.6986C15.5043 104.552 6.77434 142.319 0.877341 159.59C-0.544659 163.753 -0.276657 168.394 1.96434 172.18C2.12334 172.449 2.29434 172.718 2.47634 172.986C4.05534 175.307 6.35034 177.035 8.93334 178.135C13.0863 179.903 21.5953 182.751 31.8663 181.904C37.0523 181.477 41.7923 178.547 44.0483 173.858C44.2163 173.508 44.3773 173.143 44.5283 172.761C45.2233 171.003 45.5263 169.126 45.5943 167.237C45.8303 160.707 46.2803 139.429 43.8623 106.477C43.8613 106.476 50.3723 76.1426 38.0983 53.1406Z" fill="white"/>
</mask>
<g mask="url(#mask9_35_21)">
<path d="M-6.40564 161.294C-6.40564 161.294 23.2304 181.524 50.5244 172.023" stroke="#F69D0D" stroke-width="1.4502" stroke-miterlimit="10"/>
<path d="M-5.87866 153.814L1.54434 151.728C2.81034 151.372 4.13634 152.047 4.59434 153.279L6.32734 157.943C6.90334 159.494 8.79034 160.081 10.1443 159.131L14.6083 156.001C15.9383 155.068 17.7903 155.616 18.3993 157.123L20.3633 161.983C21.0383 163.654 23.1973 164.1 24.4793 162.833L27.4363 159.911C28.6393 158.722 30.6493 159.029 31.4423 160.524L33.6433 164.673C34.4943 166.278 36.7113 166.486 37.8463 165.067L41.6313 160.335C42.6403 159.074 44.5583 159.071 45.5713 160.329L50.7863 166.811" stroke="#79A280" stroke-width="1.4502" stroke-miterlimit="10"/>
<path d="M30.0253 169.564C29.1223 170.388 27.7213 170.324 26.8973 169.421C26.0733 168.518 26.1373 167.117 27.0403 166.293C27.9433 165.469 29.3443 165.532 30.1683 166.436C30.9923 167.339 30.9283 168.739 30.0253 169.564Z" fill="#E6A087"/>
<path d="M16.0094 165.662C15.1064 166.486 13.7054 166.423 12.8814 165.519C12.0574 164.616 12.1204 163.216 13.0234 162.391C13.9264 161.567 15.3274 161.63 16.1514 162.534C16.9764 163.437 16.9124 164.838 16.0094 165.662Z" fill="#E6A087"/>
<path d="M45.0224 169.348C44.1194 170.172 42.7184 170.108 41.8944 169.205C41.0704 168.302 41.1344 166.901 42.0374 166.077C42.9404 165.253 44.3414 165.316 45.1654 166.219C45.9894 167.123 45.9254 168.523 45.0224 169.348Z" fill="#E6A087"/>
<path d="M2.45631 160.831C1.55331 161.655 0.152312 161.591 -0.671688 160.688C-1.49569 159.785 -1.43269 158.385 -0.528686 157.56C0.374314 156.736 1.77531 156.799 2.59931 157.703C3.42331 158.606 3.35931 160.006 2.45631 160.831Z" fill="#E6A087"/>
</g>
<mask id="mask10_35_21" style="mask-type:luminance" maskUnits="userSpaceOnUse" x="0" y="53" width="46" height="130">
<path d="M38.0983 53.1406C38.0983 53.1406 33.4743 56.0716 27.8523 63.8806C22.9893 70.6356 19.8993 78.4906 18.5153 86.6986C15.5043 104.552 6.77434 142.319 0.877341 159.59C-0.544659 163.753 -0.276657 168.394 1.96434 172.18C2.12334 172.449 2.29434 172.718 2.47634 172.986C4.05534 175.307 6.35034 177.035 8.93334 178.135C13.0863 179.903 21.5953 182.751 31.8663 181.904C37.0523 181.477 41.7923 178.547 44.0483 173.858C44.2163 173.508 44.3773 173.143 44.5283 172.761C45.2233 171.003 45.5263 169.126 45.5943 167.237C45.8303 160.707 46.2803 139.429 43.8623 106.477C43.8613 106.476 50.3723 76.1426 38.0983 53.1406Z" fill="white"/>
</mask>
<g mask="url(#mask10_35_21)">
<path d="M3.89539 171.871C3.89539 171.871 14.5144 181.021 37.3534 178.274" stroke="#125189" stroke-width="1.4502" stroke-miterlimit="10" stroke-linecap="round" stroke-linejoin="round" stroke-dasharray="1.45 4.35"/>
</g>
<path d="M13.4033 131.442C13.5183 130.99 13.5153 130.991 13.6233 130.544" stroke="white" stroke-width="2.1753" stroke-miterlimit="10" stroke-linecap="round" stroke-linejoin="round"/>
<path d="M10.2463 142.286C10.2463 142.286 11.3403 138.968 12.4513 135.011" stroke="white" stroke-width="2.1753" stroke-miterlimit="10" stroke-linecap="round" stroke-linejoin="round"/>
<path d="M175.836 107.16C175.572 107.199 175.296 107.09 175.133 106.856L173.761 104.879C173.533 104.55 173.615 104.098 173.944 103.87C174.272 103.64 174.724 103.724 174.953 104.053L176.325 106.03C176.553 106.358 176.471 106.811 176.142 107.039C176.048 107.105 175.943 107.145 175.836 107.16Z" fill="#125189"/>
<path d="M178.155 106.243C178.064 106.257 177.969 106.253 177.875 106.229C177.486 106.133 177.249 105.739 177.346 105.351L177.912 103.068C178.008 102.679 178.405 102.44 178.79 102.539C179.179 102.635 179.416 103.028 179.319 103.417L178.753 105.7C178.68 105.994 178.437 106.201 178.155 106.243Z" fill="#125189"/>
<path d="M170.655 152.332C170.391 152.371 170.115 152.262 169.952 152.028L168.58 150.051C168.352 149.722 168.434 149.27 168.762 149.041C169.092 148.812 169.543 148.894 169.772 149.223L171.144 151.2C171.372 151.529 171.29 151.981 170.962 152.21C170.868 152.276 170.762 152.316 170.655 152.332Z" fill="#125189"/>
<path d="M172.973 151.415C172.882 151.428 172.787 151.425 172.692 151.401C172.303 151.304 172.066 150.911 172.163 150.523L172.729 148.24C172.825 147.852 173.221 147.612 173.607 147.711C173.996 147.807 174.233 148.201 174.136 148.589L173.57 150.872C173.498 151.166 173.255 151.373 172.973 151.415Z" fill="#125189"/>
<path d="M115.684 180.85C115.42 180.889 115.144 180.78 114.981 180.547L113.609 178.57C113.381 178.241 113.463 177.789 113.791 177.56C114.119 177.33 114.573 177.414 114.801 177.742L116.173 179.719C116.401 180.048 116.319 180.5 115.991 180.729C115.896 180.794 115.79 180.834 115.684 180.85Z" fill="#125189"/>
<path d="M118.001 179.932C117.91 179.946 117.815 179.942 117.72 179.918C117.331 179.821 117.094 179.428 117.191 179.04L117.757 176.757C117.853 176.368 118.248 176.13 118.635 176.228C119.024 176.324 119.261 176.717 119.164 177.106L118.598 179.389C118.526 179.683 118.284 179.891 118.001 179.932Z" fill="#125189"/>
<path d="M81.5894 146.011C81.3254 146.05 81.0494 145.941 80.8874 145.708L79.5154 143.732C79.2864 143.403 79.3674 142.951 79.6974 142.723C80.0244 142.494 80.4784 142.576 80.7064 142.905L82.0784 144.881C82.3074 145.21 82.2254 145.662 81.8964 145.89C81.8014 145.955 81.6964 145.995 81.5894 146.011Z" fill="#125189"/>
<path d="M83.9064 145.093C83.8154 145.106 83.7204 145.103 83.6264 145.079C83.2374 144.983 83.0004 144.59 83.0974 144.201L83.6634 141.918C83.7594 141.529 84.1554 141.292 84.5414 141.389C84.9304 141.485 85.1674 141.878 85.0704 142.267L84.5044 144.55C84.4324 144.845 84.1894 145.052 83.9064 145.093Z" fill="#125189"/>
<path d="M56.3494 169.227C56.0854 169.266 55.8094 169.157 55.6464 168.924L54.2744 166.947C54.0464 166.618 54.1284 166.166 54.4564 165.937C54.7844 165.708 55.2374 165.79 55.4664 166.119L56.8384 168.096C57.0664 168.425 56.9844 168.877 56.6564 169.106C56.5624 169.171 56.4564 169.211 56.3494 169.227Z" fill="#125189"/>
<path d="M58.6674 168.31C58.5764 168.324 58.4814 168.32 58.3864 168.296C57.9974 168.2 57.7604 167.807 57.8574 167.418L58.4234 165.135C58.5204 164.746 58.9144 164.507 59.3014 164.606C59.6904 164.702 59.9274 165.095 59.8304 165.484L59.2644 167.767C59.1924 168.061 58.9494 168.268 58.6674 168.31Z" fill="#125189"/>
<path d="M141.1 142.719C140.836 142.758 140.56 142.649 140.397 142.416L139.025 140.44C138.797 140.111 138.879 139.658 139.207 139.43C139.536 139.202 139.988 139.284 140.217 139.612L141.588 141.588C141.816 141.917 141.734 142.37 141.406 142.598C141.312 142.663 141.207 142.703 141.1 142.719Z" fill="#125189"/>
<path d="M143.418 141.801C143.327 141.815 143.232 141.811 143.138 141.787C142.749 141.691 142.512 141.297 142.609 140.909L143.175 138.626C143.272 138.237 143.666 137.999 144.053 138.097C144.442 138.193 144.679 138.586 144.582 138.975L144.016 141.258C143.943 141.553 143.7 141.76 143.418 141.801Z" fill="#125189"/>
<path d="M176.833 74.3157C176.569 74.3547 176.293 74.2457 176.13 74.0117L174.758 72.0347C174.53 71.7067 174.612 71.2537 174.941 71.0257C175.27 70.7977 175.72 70.8787 175.95 71.2087L177.322 73.1857C177.55 73.5137 177.468 73.9667 177.139 74.1947C177.044 74.2597 176.939 74.2997 176.833 74.3157Z" fill="#125189"/>
<path d="M179.151 73.3977C179.06 73.4107 178.965 73.4077 178.87 73.3837C178.481 73.2877 178.244 72.8947 178.341 72.5057L178.906 70.2227C179.002 69.8347 179.397 69.5947 179.784 69.6937C180.173 69.7897 180.41 70.1837 180.313 70.5717L179.748 72.8537C179.676 73.1497 179.433 73.3557 179.151 73.3977Z" fill="#125189"/>
<path d="M152.627 60.3736C152.363 60.4126 152.087 60.3036 151.924 60.0706L150.552 58.0936C150.324 57.7646 150.406 57.3126 150.734 57.0836C151.062 56.8556 151.514 56.9386 151.744 57.2656L153.116 59.2426C153.344 59.5716 153.262 60.0236 152.934 60.2526C152.839 60.3176 152.733 60.3576 152.627 60.3736Z" fill="#125189"/>
<path d="M154.944 59.4566C154.853 59.4696 154.758 59.4666 154.663 59.4426C154.274 59.3466 154.037 58.9526 154.134 58.5646L154.7 56.2816C154.796 55.8936 155.192 55.6556 155.578 55.7526C155.967 55.8486 156.204 56.2416 156.107 56.6306L155.541 58.9136C155.469 59.2076 155.226 59.4146 154.944 59.4566Z" fill="#125189"/>
<path d="M108.258 107.067C107.994 107.106 107.718 106.997 107.555 106.764L106.183 104.787C105.955 104.458 106.037 104.006 106.365 103.777C106.693 103.547 107.146 103.631 107.375 103.959L108.747 105.936C108.975 106.265 108.893 106.717 108.565 106.946C108.47 107.011 108.364 107.051 108.258 107.067Z" fill="#125189"/>
<path d="M110.576 106.15C110.485 106.164 110.39 106.16 110.295 106.136C109.906 106.04 109.669 105.647 109.766 105.258L110.331 102.976C110.427 102.587 110.824 102.35 111.209 102.447C111.597 102.543 111.835 102.936 111.738 103.325L111.173 105.607C111.101 105.901 110.858 106.108 110.576 106.15Z" fill="#125189"/>
<path d="M89.7713 80.8937C89.5073 80.9327 89.2313 80.8237 89.0683 80.5897L87.6973 78.6127C87.4693 78.2847 87.5513 77.8317 87.8803 77.6037C88.2103 77.3757 88.6603 77.4567 88.8893 77.7867L90.2613 79.7637C90.4893 80.0917 90.4073 80.5447 90.0783 80.7727C89.9833 80.8387 89.8783 80.8777 89.7713 80.8937Z" fill="#125189"/>
<path d="M92.0893 79.9767C91.9983 79.9897 91.9033 79.9867 91.8083 79.9627C91.4193 79.8657 91.1823 79.4727 91.2793 79.0847L91.8453 76.8027C91.9413 76.4137 92.3383 76.1747 92.7233 76.2737C93.1123 76.3707 93.3493 76.7637 93.2523 77.1517L92.6863 79.4337C92.6143 79.7277 92.3713 79.9347 92.0893 79.9767Z" fill="#125189"/>
<path d="M52.0063 100.612C51.7423 100.651 51.4663 100.542 51.3033 100.308L49.9313 98.3307C49.7033 98.0027 49.7853 97.5497 50.1143 97.3217C50.4433 97.0917 50.8953 97.1757 51.1233 97.5047L52.4953 99.4817C52.7233 99.8097 52.6413 100.263 52.3123 100.491C52.2183 100.556 52.1133 100.596 52.0063 100.612Z" fill="#125189"/>
<path d="M54.3244 99.6937C54.2334 99.7067 54.1384 99.7037 54.0434 99.6797C53.6544 99.5837 53.4174 99.1897 53.5144 98.8017L54.0804 96.5187C54.1764 96.1297 54.5714 95.8917 54.9584 95.9897C55.3474 96.0857 55.5844 96.4797 55.4874 96.8677L54.9214 99.1507C54.8494 99.4447 54.6064 99.6517 54.3244 99.6937Z" fill="#125189"/>
<path d="M147.605 85.3817C147.341 85.4207 147.065 85.3117 146.902 85.0777L145.53 83.1007C145.302 82.7727 145.384 82.3197 145.713 82.0917C146.043 81.8627 146.493 81.9447 146.722 82.2747L148.094 84.2517C148.322 84.5797 148.24 85.0327 147.911 85.2607C147.817 85.3267 147.712 85.3667 147.605 85.3817Z" fill="#125189"/>
<path d="M149.923 84.4637C149.832 84.4767 149.737 84.4737 149.642 84.4497C149.253 84.3537 149.016 83.9607 149.113 83.5717L149.679 81.2887C149.775 80.9007 150.172 80.6617 150.557 80.7597C150.946 80.8557 151.183 81.2497 151.086 81.6377L150.52 83.9207C150.448 84.2157 150.206 84.4227 149.923 84.4637Z" fill="#125189"/>
<path d="M114.528 54.4607C114.264 54.4997 113.988 54.3907 113.825 54.1567L112.453 52.1797C112.225 51.8517 112.307 51.3987 112.636 51.1707C112.965 50.9427 113.416 51.0247 113.645 51.3537L115.017 53.3307C115.245 53.6587 115.163 54.1117 114.834 54.3397C114.74 54.4047 114.635 54.4447 114.528 54.4607Z" fill="#125189"/>
<path d="M116.846 53.5437C116.755 53.5567 116.66 53.5537 116.566 53.5297C116.177 53.4337 115.94 53.0407 116.037 52.6517L116.602 50.3687C116.698 49.9797 117.094 49.7417 117.48 49.8397C117.869 49.9357 118.106 50.3287 118.009 50.7177L117.444 52.9997C117.371 53.2947 117.129 53.5017 116.846 53.5437Z" fill="#125189"/>
<path d="M65.5933 61.6937C65.3293 61.7327 65.0533 61.6237 64.8903 61.3907L63.5183 59.4137C63.2903 59.0847 63.3723 58.6327 63.7003 58.4037C64.0283 58.1757 64.4823 58.2577 64.7103 58.5857L66.0823 60.5627C66.3103 60.8917 66.2283 61.3437 65.9003 61.5727C65.8053 61.6377 65.6993 61.6777 65.5933 61.6937Z" fill="#125189"/>
<path d="M67.9103 60.7767C67.8193 60.7897 67.7243 60.7867 67.6293 60.7627C67.2403 60.6667 67.0033 60.2737 67.1003 59.8847L67.6663 57.6017C67.7623 57.2127 68.1583 56.9747 68.5443 57.0727C68.9333 57.1687 69.1703 57.5617 69.0733 57.9507L68.5073 60.2337C68.4353 60.5277 68.1933 60.7347 67.9103 60.7767Z" fill="#125189"/>
<path d="M208.576 97.8096C208.312 97.8486 208.036 97.7396 207.873 97.5056L206.501 95.5286C206.273 95.1996 206.355 94.7476 206.684 94.5196C207.014 94.2896 207.463 94.3736 207.693 94.7026L209.065 96.6796C209.293 97.0076 209.211 97.4606 208.882 97.6886C208.788 97.7536 208.683 97.7936 208.576 97.8096Z" fill="#125189"/>
<path d="M210.894 96.8916C210.803 96.9056 210.708 96.9016 210.614 96.8776C210.225 96.7816 209.988 96.3876 210.085 95.9996L210.651 93.7166C210.747 93.3276 211.144 93.0906 211.529 93.1876C211.918 93.2836 212.155 93.6766 212.058 94.0656L211.492 96.3486C211.42 96.6426 211.177 96.8496 210.894 96.8916Z" fill="#125189"/>
<path d="M37.0014 153.176C36.7374 153.215 36.4614 153.106 36.2984 152.873L34.9274 150.897C34.6994 150.568 34.7814 150.116 35.1094 149.887C35.4374 149.658 35.8894 149.74 36.1194 150.069L37.4904 152.045C37.7184 152.374 37.6364 152.826 37.3084 153.055C37.2144 153.12 37.1084 153.16 37.0014 153.176Z" fill="#125189"/>
<path d="M39.3204 152.258C39.2294 152.271 39.1344 152.268 39.0394 152.244C38.6504 152.148 38.4134 151.755 38.5104 151.366L39.0764 149.083C39.1724 148.694 39.5674 148.455 39.9544 148.554C40.3434 148.65 40.5804 149.043 40.4834 149.432L39.9174 151.715C39.8454 152.01 39.6024 152.217 39.3204 152.258Z" fill="#125189"/>
<path d="M18.5124 125.307C18.2484 125.346 17.9724 125.237 17.8094 125.004L16.4374 123.027C16.2094 122.698 16.2914 122.246 16.6194 122.017C16.9474 121.787 17.4004 121.871 17.6294 122.199L19.0014 124.176C19.2294 124.505 19.1474 124.957 18.8194 125.186C18.7244 125.252 18.6184 125.292 18.5124 125.307Z" fill="#125189"/>
<path d="M20.8294 124.39C20.7384 124.403 20.6434 124.4 20.5494 124.376C20.1604 124.28 19.9234 123.887 20.0204 123.498L20.5864 121.215C20.6824 120.827 21.0784 120.588 21.4644 120.686C21.8534 120.782 22.0904 121.176 21.9934 121.564L21.4274 123.847C21.3544 124.141 21.1114 124.348 20.8294 124.39Z" fill="#125189"/>
<path d="M33.5063 87.1237C33.2423 87.1627 32.9663 87.0537 32.8033 86.8197L31.4313 84.8427C31.2033 84.5147 31.2853 84.0617 31.6143 83.8337C31.9443 83.6037 32.3943 83.6877 32.6233 84.0167L33.9953 85.9937C34.2233 86.3217 34.1413 86.7747 33.8123 87.0027C33.7173 87.0677 33.6123 87.1077 33.5063 87.1237Z" fill="#125189"/>
<path d="M35.8244 86.2067C35.7334 86.2197 35.6384 86.2167 35.5444 86.1927C35.1554 86.0967 34.9184 85.7027 35.0154 85.3147L35.5814 83.0317C35.6774 82.6427 36.0744 82.4037 36.4594 82.5027C36.8484 82.5987 37.0854 82.9917 36.9884 83.3807L36.4224 85.6637C36.3494 85.9577 36.1064 86.1647 35.8244 86.2067Z" fill="#125189"/>
<path d="M61.2664 29.7696C61.2664 29.7696 59.7534 28.0026 58.4914 25.1996C55.9474 19.5506 57.7484 12.8516 62.6744 9.09461C66.8854 5.88261 74.0994 2.46861 86.4114 0.648613C86.4114 0.648613 102.498 -1.51039 113.98 2.04961C120.966 4.21561 125.136 11.6696 122.955 18.6506C122.52 20.0426 121.868 21.5006 120.931 22.9936C120.931 22.9936 122.9 23.6316 124.802 27.3496C126.456 30.5836 125.641 34.5796 122.895 36.9566C120.497 39.0326 116.596 41.4986 110.29 43.7496C102.034 46.6966 93.2454 47.9166 84.4914 47.4566C77.9214 47.1106 69.9804 45.9416 63.5934 42.7376C59.7924 40.8306 57.9964 36.2506 59.7354 32.3696C60.1104 31.5276 60.6094 30.6536 61.2664 29.7696Z" fill="#125189"/>
<mask id="mask11_35_21" style="mask-type:luminance" maskUnits="userSpaceOnUse" x="57" y="0" width="69" height="48">
<path d="M120.932 22.9906C121.87 21.5036 122.52 20.0436 122.958 18.6456C125.137 11.6686 120.973 4.22158 113.981 2.04458C102.506 -1.50742 86.4073 0.652582 86.4073 0.652582C74.0983 2.47158 66.8923 5.88258 62.6763 9.10058C57.7473 12.8486 55.9533 19.5496 58.4883 25.1996C59.7533 28.0036 61.2603 29.7736 61.2603 29.7736C60.6143 30.6606 60.1123 31.5266 59.7383 32.3736C57.9953 36.2516 59.7853 40.8246 63.5863 42.7406C69.9823 45.9436 77.9243 47.1156 84.4853 47.4646C93.2443 47.9146 102.037 46.7026 110.294 43.7526C116.588 41.5036 120.489 39.0356 122.892 36.9506C125.635 34.5806 126.452 30.5896 124.8 27.3456C122.904 23.6366 120.932 22.9906 120.932 22.9906Z" fill="white"/>
</mask>
<g mask="url(#mask11_35_21)">
<path d="M111.323 11.3955C111.323 11.3955 117.49 30.8045 115.932 42.5795" stroke="#09386A" stroke-width="1.4502" stroke-miterlimit="10"/>
<path d="M100.455 15.2996C100.455 15.2996 104.739 31.0406 105.883 47.2446" stroke="#09386A" stroke-width="1.4502" stroke-miterlimit="10"/>
<path d="M68.4804 17.7275C68.4804 17.7275 68.1914 38.0915 73.0894 48.9115" stroke="#09386A" stroke-width="1.4502" stroke-miterlimit="10"/>
<path d="M80.0133 18.3206C80.0133 18.3206 80.4653 34.6276 84.0583 50.4706" stroke="#09386A" stroke-width="1.4502" stroke-miterlimit="10"/>
<path d="M90.3353 18.4446L95.1603 49.3006" stroke="#09386A" stroke-width="1.4502" stroke-miterlimit="10"/>
<path d="M67.5333 16.2786C67.5333 16.2786 58.5383 20.0816 58.6163 29.3766" stroke="#09386A" stroke-width="1.4502" stroke-miterlimit="10"/>
<path d="M111.921 11.3065C111.921 11.3065 121.631 12.3455 124.245 21.2645" stroke="#09386A" stroke-width="1.4502" stroke-miterlimit="10"/>
<path d="M72.1563 14.1935C72.1563 14.1935 69.0633 10.5785 61.9803 7.33752" stroke="#09386A" stroke-width="1.4502" stroke-miterlimit="10"/>
<path d="M75.6013 0.83252C75.6013 0.83252 77.9723 8.31552 78.6713 13.0415" stroke="#09386A" stroke-width="1.4502" stroke-miterlimit="10"/>
<path d="M105.935 9.2006C105.935 9.2006 107.851 4.8456 113.692 -0.306396" stroke="#09386A" stroke-width="1.4502" stroke-miterlimit="10"/>
<path d="M98.7723 -2.59241C98.7723 -2.59241 98.6673 5.25659 99.3653 9.98259" stroke="#09386A" stroke-width="1.4502" stroke-miterlimit="10"/>
<path d="M86.8804 -2.95544L88.9584 11.1086" stroke="#09386A" stroke-width="1.4502" stroke-miterlimit="10"/>
</g>
<path d="M113.169 11.8216C113.545 15.0176 103.486 18.8266 90.7034 20.3306C77.9194 21.8346 67.2524 20.4626 66.8764 17.2666C66.5004 14.0706 76.5594 10.2606 89.3424 8.75765C102.125 7.25365 112.793 8.62565 113.169 11.8216Z" fill="#09386A"/>
</svg>
