<svg width="40" height="40" viewBox="0 0 40 40" fill="none" xmlns="http://www.w3.org/2000/svg">
<path d="M32.5879 4.99515C32.168 5.01468 31.7724 5.13675 31.4209 5.27347H31.416C31.0596 5.41507 29.3652 6.12796 26.792 7.20706C24.2187 8.29105 20.8789 9.6973 17.5635 11.0938C10.9424 13.8819 4.43358 16.626 4.43358 16.626L4.51171 16.5967C4.51171 16.5967 4.06249 16.7432 3.59374 17.0655C3.35448 17.2217 3.09081 17.4366 2.86132 17.7735C2.63183 18.1104 2.44628 18.628 2.51464 19.1602C2.62694 20.0635 3.21288 20.6055 3.6328 20.9034C4.05761 21.2061 4.46288 21.3477 4.46288 21.3477H4.47265L10.5762 23.4034C10.8496 24.2823 12.4365 29.4971 12.8174 30.6983C13.042 31.416 13.2617 31.8653 13.5351 32.2071C13.667 32.3828 13.8232 32.5293 14.0088 32.6465C14.082 32.6905 14.1601 32.7246 14.2383 32.7539C14.2627 32.7686 14.2871 32.7735 14.3164 32.7784L14.2529 32.7637C14.2724 32.7686 14.2871 32.7832 14.3017 32.7881C14.3506 32.8028 14.3848 32.8077 14.4482 32.8174C15.415 33.1104 16.1914 32.5098 16.1914 32.5098L16.2353 32.4756L19.8389 29.1944L25.8789 33.8282L26.0156 33.8868C27.2754 34.4385 28.5498 34.1309 29.2236 33.5889C29.9023 33.042 30.166 32.3438 30.166 32.3438L30.2099 32.2315L34.8779 8.32035C35.0098 7.72953 35.0439 7.17777 34.8974 6.64066C34.751 6.10355 34.375 5.60062 33.9209 5.33206C33.4619 5.05863 33.0078 4.97562 32.5879 4.99515ZM32.4609 7.55863C32.456 7.63675 32.4707 7.62699 32.4365 7.77835V7.793L27.8125 31.4551C27.793 31.4893 27.7588 31.5625 27.666 31.6358C27.5683 31.7139 27.4902 31.7627 27.0849 31.6016L19.6973 25.9375L15.2344 30.0049L16.1719 24.0186C16.1719 24.0186 27.7441 13.2325 28.2422 12.7686C28.7402 12.3047 28.5742 12.2071 28.5742 12.2071C28.6084 11.6407 27.8223 12.041 27.8223 12.041L12.6025 21.4698L12.5976 21.4453L5.30272 18.9893V18.9844C5.29784 18.9844 5.28808 18.9795 5.28319 18.9795C5.28808 18.9795 5.32226 18.9649 5.32226 18.9649L5.36132 18.9453L5.40038 18.9307C5.40038 18.9307 11.9141 16.1866 18.5351 13.3985C21.8506 12.002 25.1904 10.5957 27.7588 9.51175C30.3271 8.43265 32.2265 7.64163 32.334 7.59769C32.4365 7.55863 32.3877 7.55863 32.4609 7.55863Z" fill="#9B9B9B"/>
</svg>
