<svg width="289" height="300" viewBox="0 0 289 300" fill="none" xmlns="http://www.w3.org/2000/svg">
<path d="M152.31 121.565C144.089 111.269 149.456 105.904 156.329 106.096C156.545 106.1 156.747 106.116 156.962 106.148C158.659 106.259 160.446 106.719 162.171 107.31C163.526 107.762 164.834 108.305 166.019 108.871C169.434 110.451 171.992 112.143 171.992 112.143C171.852 111.969 171.715 111.767 171.579 111.537C170.793 110.345 169.902 108.607 168.964 106.484C168.364 105.11 167.733 103.55 167.121 101.896C164.503 94.7055 162.062 85.2804 161.578 76.9111C161.44 74.5164 161.446 72.2119 161.686 70.0832C162.235 64.549 164.143 60.1242 168.093 58.1385C173.085 55.6503 178.637 55.7599 184.093 57.5861C185.846 58.1524 187.604 58.9017 189.298 59.8082C191.651 61.0361 193.948 62.5215 196.126 64.2405C196.347 64.3988 196.581 64.5733 196.789 64.7438C198.719 66.2725 200.547 67.9396 202.248 69.713C204.654 72.1915 206.804 74.884 208.602 77.5819C209.091 78.2832 209.538 78.992 209.959 79.6956C210.54 80.6901 211.144 81.7426 211.745 82.8792C218.9 96.3126 226.887 118.432 228.583 123.222C223.576 124.744 216.134 128.993 209.569 131.555C203.253 134.015 195.201 138.034 189.898 140.783C188.018 141.776 186.471 142.594 185.481 143.132C179.418 133.911 168.236 131.935 159.711 127.363C157.806 126.369 156.043 125.229 154.496 123.855C153.697 123.151 152.98 122.403 152.31 121.565Z" fill="#09386A"/>
<path d="M235.386 146.408C233.727 142.168 232.537 137.773 231.029 133.486C229.873 130.173 228.54 126.874 226.718 123.881C227.368 123.627 227.988 123.398 228.581 123.22C230.081 122.757 231.35 122.54 232.329 122.698C232.898 123.648 233.466 124.627 233.965 125.636C236.839 131.369 238.059 137.696 239.079 143.951C238.16 144.667 236.884 145.499 235.386 146.408Z" fill="#F9EDD8"/>
<path d="M229.623 149.62C228.45 141.485 225.432 133.44 220.87 126.423C222.952 125.446 224.935 124.553 226.717 123.881C228.54 126.874 229.872 130.171 231.027 133.487C232.535 137.773 233.725 142.168 235.384 146.408C233.721 147.405 231.754 148.496 229.623 149.62Z" fill="#F9EDD8"/>
<path d="M224.751 152.14C224.686 151.851 224.619 151.59 224.552 151.329C222.601 143.554 219.147 136.058 214.496 129.435C216.646 128.454 218.802 127.39 220.869 126.425C225.432 133.442 228.449 141.486 229.622 149.622C228.076 150.468 226.447 151.301 224.751 152.14Z" fill="#F9EDD8"/>
<path d="M219.552 154.695C216.938 146.683 214.14 138.586 209.372 131.637C209.441 131.605 209.496 131.585 209.566 131.554C211.17 130.926 212.832 130.193 214.498 129.435C219.149 136.06 222.602 143.554 224.553 151.329C224.619 151.59 224.687 151.851 224.752 152.14C223.054 153.006 221.303 153.865 219.552 154.695Z" fill="#F9EDD8"/>
<path d="M216.289 156.238C212.071 148.854 207.993 141.407 204.028 133.892C205.873 133.062 207.672 132.293 209.372 131.638C214.14 138.586 216.938 146.683 219.552 154.695C218.456 155.217 217.358 155.74 216.289 156.238Z" fill="#F9EDD8"/>
<path d="M211.962 158.197C210.963 156.945 209.994 155.643 209.096 154.281C208.023 152.642 207.103 150.927 206.157 149.209C204.329 145.823 202.501 142.438 200.647 139.049C200.13 138.107 199.63 137.125 199.268 136.108C200.838 135.348 202.447 134.608 204.028 133.893C207.995 141.408 212.073 148.856 216.289 156.24C214.805 156.926 213.347 157.59 211.962 158.197Z" fill="#F9EDD8"/>
<path d="M201.916 153.289C200.469 150.589 199.328 147.766 198.006 145.014C196.939 142.789 195.736 140.571 194.779 138.306C196.212 137.582 197.727 136.842 199.269 136.108C199.631 137.124 200.132 138.106 200.648 139.049C202.502 142.438 204.33 145.823 206.158 149.208C207.104 150.926 208.024 152.641 209.097 154.281C209.995 155.643 210.964 156.945 211.963 158.197C210.077 159.036 208.332 159.783 206.782 160.42C204.929 158.217 203.277 155.822 201.916 153.289Z" fill="#F9EDD8"/>
<path d="M197.946 155.397C196.963 153.604 196.188 151.715 195.414 149.826C194.08 146.556 192.76 143.274 191.551 139.952C192.554 139.43 193.64 138.864 194.766 138.29C194.78 138.306 194.78 138.306 194.78 138.306C195.736 140.571 196.939 142.789 198.006 145.014C199.328 147.766 200.47 150.589 201.916 153.289C203.277 155.823 204.931 158.217 206.783 160.42C205.98 160.748 205.233 161.058 204.557 161.306C203.907 161.56 203.273 161.773 202.668 161.962C200.916 159.887 199.247 157.768 197.946 155.397Z" fill="#F9EDD8"/>
<path d="M198.425 162.87C196.246 160.201 194.227 157.347 192.401 154.409C190.081 150.644 188.094 146.705 186.204 142.737C187.5 142.049 189.353 141.052 191.551 139.952C192.759 143.273 194.08 146.556 195.413 149.826C196.188 151.715 196.962 153.603 197.946 155.397C199.248 157.768 200.916 159.887 202.667 161.962C201.099 162.457 199.69 162.737 198.439 162.859L198.425 162.87Z" fill="#F9EDD8"/>
<path d="M183.963 147.783C183.59 145.744 183.719 144.129 184.682 143.587C184.878 143.475 185.156 143.322 185.478 143.131C185.688 143.009 185.937 142.878 186.203 142.735C188.092 146.702 190.079 150.641 192.4 154.408C194.226 157.345 196.244 160.2 198.423 162.869C196.874 163.003 195.541 162.904 194.38 162.606C190.429 158.042 186.932 153.069 183.963 147.783Z" fill="#F9EDD8"/>
<path d="M187.967 157.567C186.257 154.982 184.508 150.895 183.964 147.784C186.93 153.069 190.428 158.042 194.382 162.609C191.395 161.858 189.489 159.887 187.967 157.567Z" fill="#F9EDD8"/>
<path d="M239.079 143.951C238.058 137.696 236.839 131.371 233.964 125.636C233.465 124.627 232.898 123.649 232.328 122.699C232.73 122.758 233.075 122.893 233.362 123.076C236.74 125.322 243.429 138.882 240.517 142.643C240.225 143.017 239.728 143.461 239.079 143.951Z" fill="#F9EDD8"/>
<path d="M168.963 106.482C168.363 105.107 167.733 103.548 167.121 101.893C168.405 101.398 169.818 101.062 171.09 100.524C174.371 99.1522 176.942 96.4168 178.712 93.2713C179.387 92.0442 179.988 90.7232 181 89.7694C183.369 87.5215 187.21 88.0059 190.326 86.9307C195.125 85.2664 197.865 79.9582 202.652 78.2494C204.514 77.5885 206.533 77.5104 208.598 77.5781C209.088 78.2794 209.535 78.9882 209.955 79.6918C210.536 80.6849 211.14 81.7388 211.741 82.8754C210.895 82.7927 210.012 82.606 209.165 82.4949C205.995 82.1093 202.804 83.0907 200.486 85.1356C197.685 87.6123 196.072 91.5782 192.665 93.058C190.213 94.106 187.303 93.661 184.701 94.2552C181.949 94.8948 179.547 96.7469 178.229 99.3039C177.626 100.443 177.242 101.742 176.457 102.743C174.727 104.96 171.528 105.34 168.963 106.482Z" fill="#F9EDD8"/>
<path d="M154.494 123.855C154.697 123.368 154.939 122.901 155.22 122.482C156.623 120.33 158.675 118.692 159.857 116.38C161.223 113.677 161.293 110.208 162.17 107.308C163.525 107.759 164.833 108.302 166.019 108.868L166.004 108.881C164.321 111.691 165.77 115.816 164.359 118.82C163.667 120.324 162.352 121.372 161.413 122.714C160.472 124.083 159.992 125.674 159.709 127.365C157.803 126.369 156.04 125.229 154.494 123.855Z" fill="#F9EDD8"/>
<path d="M161.576 76.9086C161.438 74.5139 161.443 72.2094 161.683 70.0807C164.121 68.3042 166.524 66.8999 168.387 66.4765C172.973 65.4656 179.625 61.5879 184.092 57.5834C185.846 58.1496 187.604 58.899 189.297 59.8055C187.558 60.2053 185.705 61.1741 183.932 63.1609C178.527 69.2186 174.583 70.8286 168.04 72.5004C165.738 73.0835 163.516 74.8637 161.576 76.9086Z" fill="#F9EDD8"/>
<path d="M196.582 70.1728C195.153 68.3831 195.035 66.1022 196.283 65.0581C196.439 64.9268 196.607 64.8133 196.787 64.7414C198.717 66.27 200.546 67.9371 202.246 69.7106C202.207 70.4303 201.929 71.06 201.418 71.4882C200.169 72.5339 197.998 71.9465 196.582 70.1728Z" fill="#79A280"/>
<path d="M182.84 78.8599C181.377 77.0287 181.521 74.4311 183.16 73.0579C184.799 71.6848 187.314 72.0575 188.777 73.8887C190.24 75.7199 190.096 78.3176 188.457 79.6907C186.817 81.0624 184.303 80.6911 182.84 78.8599Z" fill="#79A280"/>
<path d="M165.389 89.8062C163.926 87.975 164.07 85.3773 165.709 84.0042C167.348 82.6311 169.863 83.0038 171.326 84.835C172.789 86.6662 172.645 89.2638 171.006 90.637C169.365 92.0103 166.851 91.639 165.389 89.8062Z" fill="#79A280"/>
<path opacity="0.4" d="M235.387 146.41C233.728 142.17 232.538 137.775 231.03 133.488C229.874 130.174 228.542 126.877 226.72 123.882C227.37 123.63 227.99 123.4 228.582 123.221C230.081 122.759 231.352 122.542 232.33 122.7C232.727 123.346 233.11 124.002 233.465 124.684C232.825 124.771 232.112 124.945 231.355 125.183C230.764 125.361 230.143 125.59 229.493 125.844C231.316 128.837 232.648 132.134 233.803 135.449C234.948 138.72 235.913 142.061 237.056 145.359C236.549 145.702 235.976 146.05 235.387 146.41Z" fill="#C3B297"/>
<path opacity="0.4" d="M229.625 149.623C228.452 141.487 225.434 133.443 220.872 126.426C222.954 125.448 224.937 124.555 226.718 123.882C227.213 124.71 227.681 125.533 228.108 126.393C226.696 126.967 225.198 127.666 223.643 128.386C227.62 134.491 230.418 141.372 231.854 148.415C231.143 148.827 230.39 149.219 229.625 149.623Z" fill="#C3B297"/>
<path opacity="0.4" d="M224.752 152.142C224.687 151.852 224.621 151.591 224.554 151.33C222.603 143.555 219.15 136.059 214.498 129.437C216.648 128.455 218.802 127.391 220.871 126.426C221.419 127.261 221.927 128.105 222.421 128.961C220.74 129.76 219.003 130.606 217.269 131.397C221.481 137.412 224.72 144.134 226.74 151.137C226.088 151.474 225.434 151.81 224.752 152.142Z" fill="#C3B297"/>
<path opacity="0.4" d="M219.554 154.698C216.941 146.686 214.143 138.589 209.374 131.64C209.444 131.608 209.499 131.588 209.569 131.558C211.172 130.929 212.835 130.196 214.5 129.438C215.078 130.249 215.613 131.07 216.149 131.917C214.859 132.495 213.585 133.033 212.342 133.519C212.272 133.55 212.217 133.57 212.147 133.602C216.352 139.727 219.021 146.742 221.402 153.814C220.79 154.113 220.166 154.398 219.554 154.698Z" fill="#C3B297"/>
<path opacity="0.4" d="M216.291 156.241C212.075 148.857 207.995 141.41 204.03 133.894C205.874 133.064 207.674 132.297 209.374 131.64C209.912 132.432 210.447 133.252 210.93 134.063C209.601 134.621 208.216 135.226 206.801 135.855C210.315 142.507 213.9 149.099 217.622 155.627C217.167 155.825 216.722 156.039 216.291 156.241Z" fill="#C3B297"/>
<path opacity="0.4" d="M211.964 158.198C210.965 156.946 209.996 155.644 209.097 154.282C208.025 152.644 207.105 150.928 206.159 149.21C204.331 145.825 202.503 142.439 200.648 139.05C200.132 138.108 199.632 137.126 199.27 136.109C200.84 135.349 202.449 134.61 204.03 133.895C204.483 134.758 204.948 135.637 205.415 136.488C204.291 137.007 203.152 137.536 202.041 138.071C202.404 139.089 202.904 140.07 203.42 141.012C205.274 144.401 207.102 147.786 208.93 151.172C209.877 152.89 210.797 154.604 211.869 156.244C212.219 156.771 212.569 157.269 212.948 157.773C212.615 157.917 212.283 158.063 211.964 158.198Z" fill="#C3B297"/>
<path opacity="0.4" d="M201.916 153.29C200.47 150.59 199.328 147.767 198.006 145.015C196.939 142.79 195.736 140.572 194.78 138.308C196.212 137.584 197.727 136.844 199.269 136.108C199.61 137.038 200.046 137.941 200.513 138.792C199.498 139.298 198.51 139.78 197.551 140.266C198.507 142.531 199.71 144.749 200.777 146.974C202.099 149.726 203.241 152.549 204.687 155.249C205.583 156.904 206.603 158.507 207.708 160.041C207.389 160.176 207.086 160.298 206.781 160.42C204.931 158.219 203.279 155.824 201.916 153.29Z" fill="#C3B297"/>
<path opacity="0.4" d="M197.946 155.398C196.963 153.605 196.188 151.716 195.414 149.827C194.08 146.557 192.759 143.274 191.551 139.953C192.553 139.431 193.64 138.866 194.766 138.291C194.78 138.307 194.78 138.307 194.78 138.307C195.162 139.23 195.599 140.133 196.036 141.035C195.438 141.323 194.88 141.632 194.324 141.913C195.532 145.236 196.853 148.517 198.186 151.787C198.961 153.676 199.735 155.565 200.719 157.358C201.554 158.878 202.531 160.281 203.605 161.654C203.274 161.772 202.971 161.868 202.669 161.962C200.917 159.888 199.249 157.77 197.946 155.398Z" fill="#C3B297"/>
<path opacity="0.4" d="M198.426 162.871C196.247 160.202 194.229 157.348 192.403 154.41C190.082 150.645 188.095 146.706 186.206 142.738C187.502 142.05 189.354 141.053 191.552 139.953C191.905 140.899 192.246 141.829 192.599 142.775C191.151 143.539 189.925 144.196 188.977 144.698C190.866 148.665 192.853 152.604 195.174 156.37C196.529 158.54 197.98 160.655 199.544 162.702C199.161 162.785 198.794 162.828 198.441 162.86L198.426 162.871Z" fill="#C3B297"/>
<path opacity="0.4" d="M183.965 147.786C183.592 145.747 183.721 144.132 184.684 143.59C184.88 143.48 185.158 143.325 185.48 143.134C185.69 143.012 185.939 142.881 186.205 142.738C186.64 143.668 187.089 144.588 187.553 145.494C187.524 145.518 187.483 145.527 187.456 145.55C186.493 146.092 186.363 147.707 186.737 149.746C189.335 154.363 192.338 158.745 195.696 162.831C195.239 162.792 194.797 162.713 194.384 162.609C190.43 158.044 186.932 153.071 183.965 147.786Z" fill="#C3B297"/>
<path opacity="0.4" d="M187.968 157.568C186.258 154.983 184.509 150.896 183.965 147.785C185.269 150.129 186.684 152.406 188.2 154.599C188.938 156.412 189.841 158.166 190.739 159.528C191.326 160.411 191.955 161.258 192.686 161.994C190.63 161.048 189.179 159.409 187.968 157.568Z" fill="#C3B297"/>
<path opacity="0.4" d="M239.08 143.954C238.059 137.699 236.841 131.373 233.966 125.639C233.466 124.63 232.899 123.651 232.329 122.702C232.731 122.761 233.076 122.896 233.363 123.077C234.028 123.525 234.818 124.396 235.62 125.549L235.658 125.595C236.029 126.237 236.398 126.907 236.738 127.599C238.931 131.974 240.156 136.709 241.069 141.496C240.95 141.938 240.765 142.331 240.519 142.644C240.227 143.02 239.729 143.463 239.08 143.954Z" fill="#C3B297"/>
<path d="M200.783 112.882C199.992 111.285 199.758 109.506 199.316 107.794C198.845 105.967 198.127 104.19 197.189 102.532C199.782 102.13 202.429 101.964 205.089 102.04C206.221 102.071 207.382 102.153 208.464 102.613C211.655 103.972 211.168 105.764 209.386 106.952C208.224 107.726 205.331 107.823 205.034 108.333C204.578 109.115 206.076 114.078 204.971 115.172C203.584 116.548 201.528 114.389 200.783 112.882Z" fill="#79A280"/>
<path d="M192.728 126.34C193.192 125.125 194.071 124.169 194.794 123.116C195.568 121.993 196.174 120.74 196.593 119.407C198.266 120.819 199.831 122.371 201.27 124.041C201.883 124.752 202.483 125.504 202.824 126.378C203.831 128.961 202.544 129.479 200.879 128.925C199.795 128.564 198.129 126.828 197.673 126.879C196.976 126.956 194.998 130.142 193.762 129.962C192.211 129.736 192.288 127.487 192.728 126.34Z" fill="#79A280"/>
<path d="M33.8061 218.558C31.495 217.703 29.2118 216.68 26.993 215.502C24.2301 214.06 21.6087 212.386 19.2216 210.506C17.6379 209.286 16.1578 207.94 14.8304 206.519C10.6475 202.125 7.85633 196.909 7.50877 191.118C7.24837 186.528 10.0211 182.835 14.384 179.957C16.0493 178.822 17.9734 177.837 20.0435 176.947C21.6357 176.257 23.3155 175.648 25.0447 175.11C31.1804 173.155 37.9522 172.01 43.6388 171.556C45.3206 171.43 46.9319 171.364 48.3731 171.347C50.6238 171.336 52.5306 171.447 53.9099 171.683C54.1483 171.709 54.3653 171.749 54.5787 171.805C54.5787 171.805 51.9203 170.102 48.9374 167.539C47.8875 166.656 46.7964 165.648 45.759 164.556C44.2496 163.008 42.8685 161.303 41.9032 159.535C38.5562 153.378 40.1346 146.348 51.3484 148.76C51.8363 148.872 52.3434 148.99 52.8875 149.138C53.9162 149.416 54.8898 149.776 55.8686 150.232C57.7706 151.112 59.5825 152.297 61.3403 153.679C69.3102 159.81 76.4012 169.567 87.0642 171.385C87.1874 175.821 87.7203 189.621 89.0966 199.148C89.8681 204.454 90.0988 210.581 90.6312 215.612C90.806 217.514 91.0493 219.239 91.3739 220.719C86.5415 221.151 64.1536 223.005 49.4362 221.945C48.1938 221.86 47.018 221.736 45.9048 221.609C45.1111 221.51 44.2995 221.388 43.4764 221.223C40.3465 220.673 37.0482 219.782 33.8061 218.558Z" fill="#09386A"/>
<path d="M114.077 217.301C109.723 217.536 105.468 218.279 101.148 218.676C97.8147 218.992 94.4082 219.135 91.0176 218.683C91.1219 219.406 91.2318 220.092 91.3711 220.729C91.7145 222.347 92.1493 223.643 92.7573 224.503C93.8287 224.638 94.9235 224.759 96.0098 224.803C102.203 225.085 108.088 223.545 113.817 221.848C113.97 220.671 114.044 219.108 114.077 217.301Z" fill="#F9EDD8"/>
<path d="M113.961 210.471C106.585 212.824 98.388 213.392 90.3005 212.058C90.4954 214.447 90.7127 216.708 91.0177 218.683C94.4083 219.135 97.8148 218.992 101.148 218.676C105.468 218.279 109.723 217.535 114.077 217.301C114.101 215.299 114.057 212.969 113.961 210.471Z" fill="#F9EDD8"/>
<path d="M113.699 204.78C113.426 204.841 113.174 204.89 112.924 204.938C105.471 206.401 97.5218 206.321 89.7189 204.735C89.944 207.19 90.1029 209.687 90.3011 212.058C98.3886 213.393 106.586 212.825 113.962 210.472C113.917 208.644 113.823 206.745 113.699 204.78Z" fill="#F9EDD8"/>
<path d="M113.307 198.764C105.334 199.701 97.2006 200.498 89.0672 198.939C89.074 199.018 89.085 199.078 89.0919 199.158C89.3465 200.946 89.5427 202.834 89.7172 204.734C97.5202 206.32 105.47 206.4 112.922 204.936C113.173 204.889 113.424 204.84 113.698 204.779C113.598 202.802 113.464 200.776 113.307 198.764Z" fill="#F9EDD8"/>
<path d="M113.011 195.014C104.783 194.162 96.5699 193.469 88.3551 192.912C88.5569 195.014 88.7922 197.047 89.0682 198.938C97.1996 200.497 105.334 199.701 113.308 198.763C113.21 197.502 113.114 196.239 113.011 195.014Z" fill="#F9EDD8"/>
<path d="M112.544 190.078C111.011 189.664 109.45 189.301 107.874 189.029C105.98 188.711 104.1 188.57 102.201 188.405C98.4797 188.115 94.7594 187.823 91.0216 187.51C89.9827 187.422 88.9181 187.367 87.8895 187.456C88.0171 189.267 88.1817 191.108 88.3519 192.911C96.5678 193.47 104.78 194.162 113.008 195.013C112.864 193.313 112.712 191.649 112.544 190.078Z" fill="#F9EDD8"/>
<path d="M103.552 182.648C100.589 182.427 97.6729 182.546 94.7275 182.466C92.3476 182.404 89.9069 182.207 87.547 182.265C87.6387 183.932 87.7561 185.682 87.8905 187.457C88.918 187.367 89.9829 187.424 91.0226 187.511C94.7596 187.825 98.4807 188.116 102.202 188.406C104.099 188.571 105.981 188.712 107.875 189.03C109.451 189.302 111.012 189.665 112.545 190.079C112.328 187.935 112.105 185.963 111.884 184.223C109.14 183.405 106.332 182.858 103.552 182.648Z" fill="#F9EDD8"/>
<path d="M103.384 177.986C101.405 177.819 99.4487 177.889 97.4923 177.958C94.1084 178.088 90.7207 178.234 87.3546 178.504C87.4059 179.677 87.4607 180.947 87.5287 182.259C87.5479 182.264 87.5479 182.264 87.5479 182.264C89.9077 182.206 92.3473 182.401 94.7284 182.465C97.6729 182.546 100.59 182.426 103.553 182.647C106.335 182.857 109.142 183.403 111.884 184.221C111.769 183.321 111.663 182.48 111.543 181.733C111.439 181.01 111.31 180.318 111.173 179.664C108.584 178.888 106.001 178.211 103.384 177.986Z" fill="#F9EDD8"/>
<path d="M109.868 175.257C106.577 174.329 103.206 173.632 99.8611 173.153C95.5833 172.558 91.3214 172.353 87.0829 172.251C87.1375 173.773 87.2053 175.954 87.354 178.505C90.7212 178.236 94.1086 178.088 97.4917 177.959C99.448 177.89 101.405 177.819 103.383 177.987C105.999 178.211 108.583 178.889 111.171 179.666C110.821 177.968 110.372 176.514 109.864 175.276L109.868 175.257Z" fill="#F9EDD8"/>
<path d="M90.2142 167.979C88.3265 168.493 87.0399 169.304 87.0542 170.447C87.0563 170.679 87.063 171.01 87.0616 171.395C87.0603 171.645 87.0738 171.94 87.0827 172.251C91.3201 172.352 95.5821 172.557 99.8609 173.154C103.207 173.633 106.577 174.33 109.868 175.257C109.227 173.732 108.496 172.511 107.683 171.538C101.94 169.736 96.0793 168.54 90.2142 167.979Z" fill="#F9EDD8"/>
<path d="M100.345 167.605C97.3502 167.086 93.0814 167.169 90.2142 167.979C96.0793 168.54 101.94 169.736 107.683 171.538C105.603 169.025 103.025 168.058 100.345 167.605Z" fill="#F9EDD8"/>
<path d="M113.818 221.847C108.089 223.544 102.205 225.084 96.0109 224.801C94.9238 224.759 93.8298 224.637 92.7584 224.502C93.0044 224.858 93.2833 225.127 93.5767 225.322C97.0982 227.567 111.694 228.129 113.424 223.769C113.595 223.332 113.723 222.67 113.818 221.847Z" fill="#F9EDD8"/>
<path d="M48.3704 171.356C46.9292 171.373 45.3179 171.438 43.6361 171.565C43.8482 172.993 44.2534 174.474 44.4228 175.911C44.8703 179.605 43.8347 183.208 42.0629 186.224C41.3653 187.387 40.5521 188.519 40.2469 189.885C39.5185 193.088 41.7927 196.522 42.4078 199.933C43.3492 205.189 40.2424 210.048 41.1423 215.313C41.4958 217.359 42.4124 219.306 43.4731 221.234C44.2971 221.398 45.1078 221.522 45.9024 221.619C47.0164 221.746 48.1914 221.871 49.4337 221.956C48.9527 221.188 48.3662 220.431 47.8617 219.677C45.9977 216.838 45.2657 213.395 45.8491 210.326C46.5587 206.617 49.0916 203.4 48.6712 199.538C48.3562 196.769 46.5684 194.2 45.798 191.481C44.9951 188.598 45.375 185.533 46.8734 183.196C47.5326 182.138 48.4323 181.222 48.888 180.051C49.9006 177.466 48.6627 174.273 48.3704 171.356Z" fill="#F9EDD8"/>
<path d="M55.865 150.241C55.5557 150.64 55.2835 151.069 55.0697 151.513C53.9513 153.76 53.5784 156.402 52.2208 158.508C50.6246 160.955 47.7573 162.499 45.7575 164.565C46.7948 165.657 47.884 166.666 48.9359 167.548L48.9393 167.53C50.4714 164.738 54.6269 164.354 56.4534 161.737C57.3746 160.44 57.6125 158.747 58.2774 157.285C58.9648 155.809 60.0625 154.677 61.3388 153.688C59.5778 152.306 57.767 151.122 55.865 150.241Z" fill="#F9EDD8"/>
<path d="M20.0403 176.953C17.9703 177.843 16.0453 178.83 14.3808 179.963C14.0807 183.03 14.0753 185.907 14.6276 187.852C16.0122 192.629 16.0041 200.585 14.8281 206.524C16.1555 207.945 17.6356 209.291 19.2193 210.511C18.7062 208.692 18.6159 206.524 19.4161 203.998C21.8549 196.293 21.2831 191.871 19.4989 184.957C18.8636 182.526 19.2725 179.661 20.0403 176.953Z" fill="#F9EDD8"/>
<path d="M31.4326 212.999C29.2405 212.407 27.2751 213.266 27.009 214.893C26.9752 215.097 26.9616 215.305 26.9896 215.506C29.2064 216.684 31.4905 217.707 33.8027 218.563C34.3863 218.218 34.7767 217.686 34.886 217.021C35.152 215.394 33.6055 213.585 31.4326 212.999Z" fill="#79A280"/>
<path d="M32.0144 196.274C29.7702 195.668 27.6684 196.911 27.3169 199.049C26.9665 201.188 28.5007 203.412 30.744 204.019C32.9881 204.625 35.0899 203.382 35.4415 201.244C35.7919 199.104 34.2576 196.88 32.0144 196.274Z" fill="#79A280"/>
<path d="M32.6837 175.07C30.4395 174.464 28.3377 175.707 27.9862 177.845C27.6358 179.985 29.17 182.209 31.4133 182.815C33.6574 183.421 35.7592 182.179 36.1108 180.04C36.4612 177.901 34.9269 175.677 32.6837 175.07Z" fill="#79A280"/>
<path opacity="0.4" d="M114.08 217.302C109.727 217.535 105.471 218.28 101.152 218.677C97.818 218.993 94.4115 219.135 91.0209 218.683C91.1252 219.407 91.2352 220.093 91.3744 220.73C91.7169 222.349 92.1525 223.644 92.7606 224.504C93.4936 224.606 94.2299 224.688 94.9719 224.734C94.7328 224.091 94.5317 223.34 94.3621 222.522C94.2229 221.885 94.1129 221.199 94.0086 220.475C97.3992 220.927 100.806 220.785 104.139 220.469C107.432 220.161 110.695 219.652 114.01 219.33C114.052 218.704 114.064 218.012 114.08 217.302Z" fill="#C3B297"/>
<path opacity="0.4" d="M113.963 210.471C106.587 212.825 98.3901 213.392 90.3026 212.058C90.4986 214.448 90.7148 216.708 91.0198 218.683C91.9529 218.8 92.8691 218.892 93.7954 218.93C93.589 217.347 93.4456 215.628 93.2912 213.849C100.332 215.017 107.449 214.737 114.039 213.098C114.037 212.25 113.999 211.369 113.963 210.471Z" fill="#C3B297"/>
<path opacity="0.4" d="M113.701 204.78C113.428 204.841 113.176 204.889 112.925 204.937C105.473 206.401 97.5234 206.321 89.7205 204.735C89.9456 207.19 90.1044 209.687 90.3026 212.058C91.2683 212.222 92.2206 212.344 93.1772 212.448C93.0283 210.515 92.8918 208.508 92.7093 206.528C99.7894 207.957 106.987 208.163 113.828 207.094C113.791 206.33 113.756 205.567 113.701 204.78Z" fill="#C3B297"/>
<path opacity="0.4" d="M113.31 198.764C105.336 199.701 97.2027 200.498 89.0693 198.939C89.0761 199.018 89.0871 199.078 89.0939 199.158C89.3485 200.946 89.5448 202.834 89.7184 204.735C90.6784 204.936 91.624 205.095 92.593 205.241C92.4483 203.772 92.2792 202.337 92.0817 200.95C92.0748 200.87 92.0638 200.81 92.057 200.731C99.227 202.107 106.393 201.647 113.465 200.893C113.421 200.185 113.355 199.472 113.31 198.764Z" fill="#C3B297"/>
<path opacity="0.4" d="M113.014 195.015C104.786 194.163 96.5722 193.472 88.3583 192.913C88.56 195.015 88.7942 197.047 89.0714 198.939C89.9955 199.111 90.9419 199.27 91.8559 199.381C91.6754 197.884 91.5074 196.313 91.346 194.705C98.6187 195.201 105.877 195.79 113.149 196.537C113.091 196.021 113.054 195.509 113.014 195.015Z" fill="#C3B297"/>
<path opacity="0.4" d="M112.546 190.08C111.014 189.666 109.452 189.303 107.876 189.031C105.983 188.712 104.102 188.571 102.203 188.407C98.482 188.116 94.7618 187.825 91.0239 187.512C89.985 187.424 88.9205 187.369 87.8918 187.458C88.0205 189.27 88.184 191.11 88.3553 192.914C89.2975 192.975 90.2588 193.042 91.1975 193.122C91.0844 191.836 90.9746 190.531 90.8806 189.251C91.9081 189.161 92.973 189.218 94.0128 189.305C97.7497 189.619 101.471 189.909 105.191 190.2C107.089 190.364 108.971 190.506 110.864 190.825C111.474 190.931 112.062 191.052 112.667 191.196C112.628 190.816 112.588 190.439 112.546 190.08Z" fill="#C3B297"/>
<path opacity="0.4" d="M103.553 182.648C100.591 182.427 97.6744 182.547 94.729 182.467C92.3479 182.403 89.9083 182.208 87.5494 182.265C87.6399 183.931 87.7585 185.682 87.8928 187.457C88.8371 187.383 89.8052 187.414 90.7439 187.493C90.6735 186.315 90.5974 185.174 90.5383 184.058C92.8981 184 95.3376 184.195 97.7167 184.259C100.661 184.34 103.579 184.219 106.541 184.44C108.361 184.585 110.198 184.868 112.018 185.262C111.975 184.903 111.929 184.562 111.885 184.223C109.143 183.405 106.336 182.859 103.553 182.648Z" fill="#C3B297"/>
<path opacity="0.4" d="M103.386 177.988C101.408 177.821 99.4513 177.891 97.495 177.96C94.111 178.09 90.7233 178.236 87.3561 178.505C87.4074 179.677 87.4621 180.948 87.5313 182.26C87.5505 182.266 87.5505 182.266 87.5505 182.266C88.5084 182.235 89.4753 182.265 90.4422 182.294C90.3929 181.604 90.3798 180.945 90.345 180.297C93.7122 180.029 97.0996 179.881 100.483 179.752C102.439 179.682 104.396 179.612 106.374 179.78C108.051 179.924 109.7 180.253 111.371 180.685C111.309 180.321 111.242 179.994 111.173 179.666C108.588 178.889 106.003 178.211 103.386 177.988Z" fill="#C3B297"/>
<path opacity="0.4" d="M109.872 175.258C106.58 174.33 103.209 173.633 99.8631 173.153C95.5853 172.558 91.3234 172.353 87.0861 172.252C87.1407 173.773 87.2085 175.955 87.3572 178.506C88.3207 178.437 89.265 178.364 90.2276 178.296C90.1618 176.598 90.114 175.156 90.0738 174.044C94.3111 174.145 98.5731 174.35 102.852 174.946C105.325 175.305 107.8 175.781 110.273 176.391C110.156 175.992 110.013 175.625 109.867 175.277L109.872 175.258Z" fill="#C3B297"/>
<path opacity="0.4" d="M90.2174 167.98C88.3296 168.494 87.043 169.304 87.0573 170.448C87.0595 170.68 87.0662 171.011 87.0648 171.396C87.0635 171.646 87.077 171.94 87.0859 172.252C88.0763 172.268 89.0624 172.303 90.0471 172.356C90.0527 172.318 90.0403 172.276 90.0459 172.239C90.0316 171.095 91.3182 170.284 93.206 169.771C98.3324 170.267 103.459 171.246 108.511 172.688C108.255 172.271 107.974 171.886 107.687 171.538C101.943 169.737 96.0813 168.539 90.2174 167.98Z" fill="#C3B297"/>
<path opacity="0.4" d="M100.349 167.606C97.3539 167.087 93.0859 167.169 90.2179 167.98C92.8127 168.217 95.4061 168.589 97.9782 169.091C99.8536 169.018 101.761 169.127 103.338 169.399C104.361 169.579 105.376 169.814 106.348 170.193C104.554 168.645 102.477 167.969 100.349 167.606Z" fill="#C3B297"/>
<path opacity="0.4" d="M113.821 221.848C108.092 223.545 102.208 225.085 96.014 224.802C94.9268 224.76 93.8329 224.637 92.7615 224.503C93.0075 224.859 93.2864 225.128 93.5797 225.323C94.2778 225.763 95.3905 226.14 96.7442 226.409L96.8026 226.425C97.5187 226.502 98.2583 226.566 99.0037 226.594C103.73 226.809 108.287 225.954 112.734 224.78C113.047 224.478 113.285 224.137 113.427 223.769C113.597 223.332 113.726 222.671 113.821 221.848Z" fill="#C3B297"/>
<path d="M69.2012 198.786C67.4801 198.718 65.878 199.253 64.2329 199.563C62.4759 199.895 60.6388 199.972 58.7966 199.789C59.7219 202.419 60.8717 204.997 62.2274 207.486C62.8052 208.545 63.4381 209.612 64.3484 210.441C67.0384 212.886 68.3007 211.661 68.4267 209.467C68.509 208.036 67.1815 205.253 67.4647 204.754C67.8977 203.989 72.7774 203.294 73.1564 201.782C73.6311 199.88 70.8251 198.852 69.2012 198.786Z" fill="#79A280"/>
<path d="M76.5413 185.42C75.7509 186.379 75.3777 187.617 74.8504 188.752C74.2874 189.963 73.5351 191.073 72.6232 192.037C74.618 193.02 76.6775 193.843 78.7736 194.495C79.6667 194.774 80.5869 195.022 81.4849 194.973C84.1362 194.826 83.943 193.386 82.6683 192.044C81.8379 191.17 79.576 190.33 79.3971 189.877C79.1228 189.184 80.8247 185.952 80.0724 184.857C79.1304 183.483 77.2866 184.515 76.5413 185.42Z" fill="#79A280"/>
</svg>
