<svg width="240" height="232" viewBox="0 0 240 232" fill="none" xmlns="http://www.w3.org/2000/svg">
<path d="M125.543 143.175C118.628 134.512 123.148 129.993 128.933 130.152C129.114 130.155 129.284 130.168 129.465 130.195C130.893 130.288 132.398 130.674 133.849 131.171C134.989 131.55 136.09 132.007 137.087 132.483C139.96 133.812 142.113 135.235 142.113 135.235C141.995 135.088 141.88 134.919 141.765 134.725C141.104 133.722 140.355 132.259 139.567 130.473C139.062 129.316 138.532 128.003 138.018 126.611C135.817 120.559 133.767 112.626 133.364 105.58C133.249 103.565 133.254 101.625 133.457 99.8325C133.922 95.1734 135.53 91.4476 138.855 89.7742C143.058 87.6774 147.731 87.7671 152.322 89.302C153.798 89.7779 155.277 90.4079 156.702 91.1702C158.682 92.2029 160.615 93.4523 162.448 94.8984C162.634 95.0315 162.83 95.1783 163.005 95.3218C164.629 96.6078 166.167 98.0104 167.598 99.5026C169.621 101.588 171.43 103.854 172.942 106.124C173.353 106.714 173.729 107.311 174.083 107.903C174.571 108.74 175.079 109.625 175.584 110.582C181.601 121.887 188.313 140.504 189.738 144.536C185.524 145.82 179.258 149.4 173.731 151.56C168.414 153.634 161.635 157.02 157.17 159.337C155.588 160.174 154.285 160.863 153.452 161.317C148.353 153.556 138.942 151.898 131.77 148.053C130.166 147.217 128.683 146.258 127.381 145.102C126.709 144.51 126.106 143.881 125.543 143.175Z" fill="#09386A"/>
<path d="M195.454 164.052C194.059 160.483 193.06 156.784 191.792 153.176C190.821 150.387 189.701 147.61 188.169 145.091C188.716 144.877 189.238 144.684 189.737 144.534C190.999 144.144 192.068 143.961 192.891 144.093C193.371 144.893 193.848 145.716 194.267 146.566C196.684 151.39 197.707 156.716 198.564 161.981C197.789 162.585 196.715 163.285 195.454 164.052Z" fill="#F9EDD8"/>
<path d="M190.602 166.758C189.618 159.91 187.082 153.139 183.245 147.234C184.999 146.411 186.668 145.658 188.167 145.092C189.701 147.61 190.82 150.386 191.791 153.176C193.058 156.784 194.058 160.483 195.452 164.052C194.052 164.892 192.396 165.811 190.602 166.758Z" fill="#F9EDD8"/>
<path d="M186.5 168.882C186.445 168.638 186.39 168.419 186.333 168.199C184.695 161.655 181.791 155.346 177.88 149.773C179.689 148.946 181.505 148.049 183.245 147.236C187.082 153.141 189.618 159.911 190.601 166.759C189.299 167.472 187.928 168.175 186.5 168.882Z" fill="#F9EDD8"/>
<path d="M182.123 171.035C179.927 164.291 177.576 157.476 173.565 151.629C173.624 151.602 173.67 151.585 173.729 151.559C175.079 151.029 176.479 150.412 177.881 149.773C181.792 155.347 184.696 161.655 186.334 168.199C186.39 168.419 186.446 168.638 186.501 168.882C185.072 169.612 183.597 170.335 182.123 171.035Z" fill="#F9EDD8"/>
<path d="M179.376 172.335C175.83 166.121 172.401 159.854 169.067 153.529C170.62 152.829 172.134 152.182 173.565 151.629C177.576 157.476 179.927 164.291 182.123 171.035C181.2 171.475 180.276 171.915 179.376 172.335Z" fill="#F9EDD8"/>
<path d="M175.734 173.986C174.893 172.933 174.078 171.837 173.323 170.691C172.421 169.312 171.647 167.868 170.852 166.422C169.315 163.573 167.778 160.724 166.218 157.872C165.784 157.079 165.364 156.253 165.059 155.397C166.381 154.757 167.736 154.133 169.067 153.53C172.402 159.855 175.831 166.122 179.376 172.337C178.127 172.915 176.9 173.475 175.734 173.986Z" fill="#F9EDD8"/>
<path d="M167.28 169.859C166.064 167.587 165.104 165.211 163.993 162.895C163.096 161.022 162.085 159.156 161.28 157.249C162.486 156.64 163.762 156.016 165.06 155.397C165.365 156.252 165.785 157.079 166.219 157.872C167.779 160.724 169.316 163.573 170.853 166.422C171.648 167.868 172.422 169.311 173.324 170.691C174.079 171.837 174.894 172.933 175.735 173.986C174.147 174.693 172.678 175.323 171.373 175.86C169.814 174.007 168.424 171.991 167.28 169.859Z" fill="#F9EDD8"/>
<path d="M163.938 171.635C163.111 170.126 162.46 168.537 161.809 166.947C160.688 164.194 159.578 161.433 158.562 158.636C159.407 158.196 160.321 157.72 161.27 157.236C161.281 157.25 161.281 157.25 161.281 157.25C162.085 159.156 163.096 161.022 163.993 162.895C165.105 165.211 166.064 167.587 167.281 169.859C168.425 171.992 169.816 174.007 171.373 175.86C170.698 176.137 170.069 176.398 169.499 176.607C168.952 176.821 168.419 177 167.909 177.16C166.436 175.414 165.032 173.631 163.938 171.635Z" fill="#F9EDD8"/>
<path d="M164.338 177.927C162.505 175.681 160.807 173.279 159.272 170.807C157.32 167.638 155.65 164.323 154.061 160.983C155.152 160.404 156.712 159.563 158.562 158.636C159.578 161.432 160.688 164.194 161.809 166.947C162.46 168.537 163.111 170.126 163.938 171.635C165.033 173.631 166.436 175.414 167.909 177.16C166.589 177.578 165.403 177.814 164.35 177.917L164.338 177.927Z" fill="#F9EDD8"/>
<path d="M152.173 165.232C151.859 163.516 151.968 162.156 152.78 161.699C152.944 161.605 153.179 161.476 153.45 161.316C153.626 161.212 153.836 161.102 154.06 160.982C155.648 164.32 157.319 167.636 159.27 170.805C160.806 173.277 162.504 175.679 164.336 177.925C163.032 178.039 161.91 177.956 160.934 177.706C157.61 173.866 154.669 169.681 152.173 165.232Z" fill="#F9EDD8"/>
<path d="M155.538 173.466C154.1 171.291 152.629 167.852 152.173 165.233C154.667 169.681 157.609 173.866 160.935 177.708C158.421 177.078 156.818 175.419 155.538 173.466Z" fill="#F9EDD8"/>
<path d="M198.563 161.982C197.706 156.717 196.683 151.392 194.266 146.566C193.847 145.717 193.37 144.893 192.89 144.094C193.229 144.144 193.519 144.257 193.761 144.411C196.603 146.3 202.227 157.712 199.774 160.879C199.528 161.195 199.11 161.569 198.563 161.982Z" fill="#F9EDD8"/>
<path d="M139.566 130.47C139.062 129.314 138.532 128.001 138.017 126.608C139.099 126.191 140.288 125.908 141.359 125.454C144.121 124.298 146.287 121.994 147.777 119.345C148.346 118.312 148.852 117.2 149.705 116.396C151.7 114.503 154.932 114.909 157.555 114.002C161.595 112.599 163.904 108.129 167.933 106.688C169.501 106.131 171.201 106.065 172.939 106.121C173.35 106.711 173.726 107.307 174.08 107.899C174.568 108.735 175.076 109.622 175.582 110.579C174.869 110.509 174.126 110.353 173.414 110.26C170.745 109.936 168.06 110.764 166.107 112.486C163.748 114.573 162.39 117.912 159.521 119.159C157.457 120.043 155.008 119.669 152.818 120.171C150.501 120.71 148.479 122.271 147.368 124.424C146.86 125.383 146.536 126.477 145.875 127.32C144.418 129.186 141.726 129.508 139.566 130.47Z" fill="#F9EDD8"/>
<path d="M127.38 145.103C127.551 144.692 127.755 144.3 127.991 143.946C129.173 142.134 130.902 140.754 131.897 138.807C133.049 136.531 133.109 133.611 133.848 131.169C134.989 131.548 136.089 132.005 137.087 132.481L137.075 132.491C135.657 134.858 136.874 138.33 135.686 140.859C135.102 142.126 133.995 143.008 133.204 144.139C132.411 145.292 132.006 146.631 131.768 148.055C130.164 147.218 128.681 146.259 127.38 145.103Z" fill="#F9EDD8"/>
<path d="M133.362 105.578C133.247 103.563 133.252 101.623 133.455 99.8304C135.507 98.3338 137.531 97.1506 139.1 96.7933C142.96 95.9402 148.56 92.6729 152.322 89.2998C153.797 89.7757 155.277 90.4057 156.702 91.168C155.237 91.5054 153.678 92.3218 152.185 93.9951C147.632 99.0971 144.312 100.454 138.805 101.865C136.866 102.356 134.996 103.856 133.362 105.578Z" fill="#F9EDD8"/>
<path d="M162.828 99.8922C161.627 98.3862 161.528 96.4661 162.579 95.5866C162.71 95.4761 162.852 95.3804 163.003 95.3198C164.627 96.6057 166.165 98.0084 167.596 99.5005C167.563 100.106 167.328 100.637 166.898 100.997C165.847 101.878 164.019 101.385 162.828 99.8922Z" fill="#79A280"/>
<path d="M151.258 107.211C150.027 105.671 150.15 103.484 151.53 102.327C152.91 101.17 155.027 101.483 156.258 103.024C157.488 104.565 157.366 106.752 155.985 107.908C154.605 109.064 152.488 108.752 151.258 107.211Z" fill="#79A280"/>
<path d="M136.565 116.434C135.334 114.893 135.457 112.706 136.837 111.55C138.218 110.393 140.334 110.706 141.565 112.247C142.795 113.787 142.673 115.974 141.292 117.131C139.911 118.288 137.795 117.976 136.565 116.434Z" fill="#79A280"/>
<path opacity="0.4" d="M195.455 164.053C194.061 160.484 193.061 156.785 191.794 153.177C190.822 150.388 189.702 147.613 188.17 145.093C188.718 144.88 189.239 144.686 189.738 144.535C191 144.145 192.069 143.962 192.893 144.095C193.227 144.638 193.548 145.191 193.847 145.764C193.308 145.838 192.708 145.985 192.071 146.185C191.574 146.336 191.05 146.529 190.503 146.743C192.036 149.261 193.156 152.037 194.127 154.827C195.089 157.58 195.9 160.391 196.86 163.168C196.433 163.457 195.95 163.749 195.455 164.053Z" fill="#C3B297"/>
<path opacity="0.4" d="M190.604 166.76C189.62 159.912 187.084 153.141 183.247 147.237C185 146.413 186.67 145.66 188.169 145.092C188.585 145.789 188.979 146.482 189.338 147.206C188.149 147.69 186.888 148.279 185.579 148.886C188.923 154.023 191.275 159.814 192.481 165.743C191.882 166.09 191.248 166.42 190.604 166.76Z" fill="#C3B297"/>
<path opacity="0.4" d="M186.501 168.883C186.447 168.639 186.391 168.42 186.334 168.2C184.696 161.656 181.793 155.347 177.881 149.774C179.691 148.947 181.505 148.05 183.246 147.237C183.707 147.939 184.134 148.649 184.55 149.37C183.135 150.043 181.672 150.757 180.212 151.423C183.755 156.484 186.478 162.142 188.175 168.036C187.626 168.32 187.075 168.604 186.501 168.883Z" fill="#C3B297"/>
<path opacity="0.4" d="M182.125 171.038C179.929 164.294 177.578 157.479 173.567 151.632C173.626 151.604 173.672 151.588 173.731 151.562C175.081 151.032 176.481 150.414 177.883 149.775C178.368 150.458 178.819 151.148 179.269 151.861C178.184 152.348 177.111 152.802 176.064 153.212C176.005 153.238 175.959 153.254 175.9 153.282C179.437 158.436 181.68 164.34 183.681 170.292C183.166 170.544 182.64 170.784 182.125 171.038Z" fill="#C3B297"/>
<path opacity="0.4" d="M179.378 172.338C175.833 166.123 172.402 159.856 169.068 153.531C170.621 152.832 172.136 152.185 173.567 151.631C174.02 152.297 174.47 152.987 174.876 153.67C173.757 154.141 172.591 154.65 171.4 155.18C174.355 160.778 177.369 166.326 180.499 171.82C180.115 171.987 179.741 172.168 179.378 172.338Z" fill="#C3B297"/>
<path opacity="0.4" d="M175.735 173.987C174.895 172.934 174.08 171.838 173.324 170.692C172.423 169.313 171.649 167.869 170.853 166.424C169.316 163.575 167.779 160.726 166.22 157.873C165.786 157.08 165.365 156.254 165.061 155.398C166.383 154.758 167.737 154.134 169.068 153.532C169.449 154.258 169.84 154.998 170.233 155.714C169.286 156.151 168.328 156.598 167.393 157.048C167.697 157.905 168.118 158.73 168.552 159.524C170.111 162.376 171.648 165.225 173.185 168.074C173.981 169.519 174.754 170.962 175.656 172.342C175.95 172.786 176.245 173.205 176.563 173.629C176.283 173.751 176.004 173.874 175.735 173.987Z" fill="#C3B297"/>
<path opacity="0.4" d="M167.281 169.86C166.064 167.588 165.104 165.212 163.993 162.896C163.096 161.023 162.085 159.157 161.281 157.251C162.487 156.641 163.762 156.017 165.06 155.397C165.347 156.179 165.713 156.939 166.106 157.656C165.252 158.082 164.42 158.489 163.612 158.898C164.416 160.805 165.427 162.671 166.324 164.544C167.436 166.86 168.396 169.235 169.612 171.508C170.366 172.9 171.223 174.249 172.152 175.54C171.884 175.654 171.628 175.757 171.372 175.86C169.816 174.008 168.426 171.993 167.281 169.86Z" fill="#C3B297"/>
<path opacity="0.4" d="M163.938 171.636C163.111 170.127 162.46 168.538 161.809 166.948C160.688 164.195 159.578 161.433 158.562 158.637C159.406 158.197 160.321 157.721 161.27 157.237C161.281 157.251 161.281 157.251 161.281 157.251C161.602 158.027 161.969 158.787 162.337 159.546C161.833 159.789 161.364 160.049 160.895 160.286C161.911 163.083 163.021 165.844 164.142 168.597C164.793 170.186 165.444 171.776 166.271 173.285C166.973 174.565 167.795 175.745 168.698 176.9C168.42 177 168.164 177.081 167.91 177.16C166.437 175.415 165.033 173.633 163.938 171.636Z" fill="#C3B297"/>
<path opacity="0.4" d="M164.339 177.928C162.506 175.682 160.808 173.279 159.273 170.807C157.322 167.639 155.651 164.324 154.062 160.984C155.153 160.405 156.713 159.564 158.563 158.637C158.86 159.434 159.147 160.216 159.444 161.013C158.224 161.656 157.192 162.21 156.394 162.633C157.982 165.971 159.653 169.287 161.605 172.456C162.744 174.282 163.964 176.062 165.28 177.784C164.957 177.854 164.648 177.891 164.351 177.918L164.339 177.928Z" fill="#C3B297"/>
<path opacity="0.4" d="M152.174 165.234C151.861 163.519 151.97 162.159 152.781 161.702C152.946 161.609 153.181 161.479 153.451 161.318C153.628 161.215 153.838 161.105 154.061 160.985C154.428 161.767 154.805 162.541 155.195 163.304C155.17 163.324 155.136 163.331 155.113 163.351C154.303 163.807 154.192 165.168 154.506 166.883C156.691 170.769 159.216 174.457 162.041 177.895C161.656 177.862 161.284 177.796 160.936 177.708C157.611 173.867 154.669 169.682 152.174 165.234Z" fill="#C3B297"/>
<path opacity="0.4" d="M155.539 173.467C154.1 171.292 152.631 167.852 152.174 165.234C153.27 167.206 154.461 169.123 155.735 170.968C156.356 172.494 157.115 173.97 157.87 175.116C158.364 175.859 158.893 176.572 159.508 177.191C157.777 176.396 156.557 175.017 155.539 173.467Z" fill="#C3B297"/>
<path opacity="0.4" d="M198.564 161.984C197.708 156.719 196.686 151.394 194.268 146.568C193.848 145.719 193.371 144.895 192.892 144.096C193.23 144.146 193.521 144.259 193.762 144.412C194.321 144.789 194.986 145.521 195.661 146.491L195.693 146.531C196.005 147.071 196.314 147.634 196.601 148.217C198.444 151.899 199.473 155.884 200.239 159.914C200.139 160.286 199.984 160.617 199.776 160.88C199.53 161.197 199.111 161.57 198.564 161.984Z" fill="#C3B297"/>
<path d="M166.345 135.844C165.68 134.5 165.484 133.003 165.112 131.562C164.717 130.023 164.113 128.528 163.325 127.132C165.508 126.793 167.735 126.652 169.974 126.715C170.927 126.741 171.904 126.809 172.814 127.196C175.5 128.339 175.089 129.847 173.589 130.848C172.61 131.5 170.175 131.583 169.925 132.012C169.541 132.671 170.799 136.849 169.869 137.77C168.701 138.929 166.971 137.112 166.345 135.844Z" fill="#79A280"/>
<path d="M159.559 147.177C159.951 146.153 160.69 145.349 161.299 144.462C161.951 143.516 162.462 142.461 162.815 141.339C164.223 142.526 165.539 143.832 166.75 145.238C167.265 145.836 167.77 146.469 168.056 147.204C168.903 149.378 167.82 149.815 166.419 149.35C165.506 149.046 164.105 147.585 163.721 147.628C163.134 147.693 161.468 150.376 160.428 150.225C159.122 150.036 159.188 148.142 159.559 147.177Z" fill="#79A280"/>
<path d="M44.555 72.0616C44.5672 69.9872 44.7204 67.8863 45.0148 65.7917C45.361 63.1908 45.932 60.6348 46.7331 58.2047C47.2429 56.6004 47.882 55.0417 48.6247 53.5821C50.898 49.0068 54.2222 45.2952 58.7033 43.3505C62.2593 41.8211 65.9775 42.9492 69.5087 45.5699C70.8847 46.5599 72.2176 47.7974 73.5164 49.1781C74.5197 50.2386 75.4845 51.3914 76.4071 52.6039C79.7172 56.893 82.5697 61.9186 84.5631 66.2854C85.1463 67.5792 85.6615 68.8346 86.0893 69.9695C86.7447 71.7465 87.2057 73.2864 87.4149 74.4455C87.4628 74.6416 87.4937 74.8247 87.5107 75.0096C87.5107 75.0096 88.0942 72.4158 89.264 69.3177C89.6605 68.2328 90.1448 67.079 90.7104 65.9437C91.5008 64.3036 92.4528 62.7196 93.5735 61.4465C97.4822 57.0239 103.497 56.2452 104.813 65.8097C104.864 66.228 104.916 66.6631 104.956 67.1359C105.032 68.0296 105.027 68.9035 104.948 69.8091C104.797 71.5674 104.381 73.342 103.793 75.1308C101.234 83.202 95.5539 91.6238 97.1811 100.581C93.7073 101.958 82.9438 106.358 75.8032 110.194C71.8269 112.334 67.0465 114.284 63.2199 116.155C61.7657 116.842 60.4705 117.532 59.3935 118.215C57.6624 114.518 49.7611 97.3456 46.3686 85.4C46.0786 84.393 45.8387 83.4273 45.6197 82.5101C45.4694 81.8539 45.3329 81.1768 45.2271 80.4781C44.7622 77.8442 44.5191 74.9786 44.555 72.0616Z" fill="#09386A"/>
<path d="M68.6227 135.185C67.1856 131.809 65.3746 128.659 63.8188 125.357C62.6106 122.811 61.5187 120.158 60.9017 117.346C60.3593 117.637 59.8481 117.922 59.3843 118.216C58.203 118.954 57.3027 119.672 56.7973 120.4C56.9987 121.287 57.2177 122.187 57.4955 123.059C59.0521 128.039 61.9618 132.249 64.9512 136.291C65.9263 136.072 67.1842 135.68 68.6227 135.185Z" fill="#F9EDD8"/>
<path d="M73.9924 133.124C70.0107 127.969 67.2053 121.65 65.9362 114.869C64.1019 115.712 62.3759 116.536 60.9019 117.346C61.5188 120.158 62.6107 122.811 63.819 125.357C65.3748 128.659 67.1868 131.81 68.6228 135.185C70.2134 134.627 72.0438 133.921 73.9924 133.124Z" fill="#F9EDD8"/>
<path d="M78.4192 131.276C78.2927 131.078 78.1817 130.893 78.0718 130.708C74.772 125.236 72.5504 118.926 71.5619 112.297C69.6843 113.183 67.7551 114.029 65.9362 114.869C67.2054 121.65 70.0107 127.97 73.9924 133.125C75.4254 132.563 76.9006 131.941 78.4192 131.276Z" fill="#F9EDD8"/>
<path d="M83.0653 129.232C80.0327 123.195 77.0643 116.993 75.9597 110.11C75.8988 110.139 75.8543 110.165 75.7934 110.193C74.4523 110.91 73.015 111.61 71.5622 112.296C72.5506 118.924 74.7723 125.235 78.072 130.707C78.182 130.891 78.293 131.076 78.4194 131.275C79.9551 130.626 81.5192 129.936 83.0653 129.232Z" fill="#F9EDD8"/>
<path d="M85.9472 127.916C84.2557 121.162 82.443 114.467 80.5227 107.809C78.9179 108.575 77.3769 109.347 75.961 110.111C77.0649 116.992 80.0329 123.195 83.0666 129.232C84.0361 128.791 85.0078 128.35 85.9472 127.916Z" fill="#F9EDD8"/>
<path d="M89.7171 126.123C89.6044 124.792 89.4429 123.452 89.2049 122.127C88.9125 120.538 88.4834 119.01 88.068 117.461C87.228 114.434 86.389 111.407 85.5622 108.361C85.3333 107.514 85.0709 106.656 84.7048 105.868C83.3086 106.491 81.8998 107.152 80.5224 107.807C82.4422 114.466 84.255 121.161 85.9469 127.913C87.2504 127.309 88.5225 126.709 89.7171 126.123Z" fill="#F9EDD8"/>
<path d="M93.0105 116.869C92.3339 114.462 91.4009 112.19 90.6177 109.837C89.9831 107.937 89.4367 105.95 88.7126 104.1C87.4203 104.654 86.0696 105.251 84.7042 105.869C85.0708 106.656 85.3317 107.514 85.5616 108.362C86.3874 111.408 87.2275 114.435 88.0675 117.462C88.4823 119.009 88.912 120.539 89.2044 122.128C89.4423 123.453 89.6039 124.793 89.7166 126.124C91.3504 125.335 92.8464 124.59 94.1596 123.913C94.0178 121.507 93.6431 119.129 93.0105 116.869Z" fill="#F9EDD8"/>
<path d="M96.6499 115.392C96.2131 113.779 95.5957 112.251 94.9782 110.724C93.9029 108.085 92.8136 105.448 91.6328 102.864C90.7198 103.242 89.7305 103.652 88.7125 104.084C88.7136 104.101 88.7136 104.101 88.7136 104.101C89.4378 105.95 89.9846 107.936 90.6187 109.838C91.4008 112.19 92.3349 114.462 93.0116 116.869C93.6448 119.131 94.0199 121.508 94.1611 123.912C94.8397 123.562 95.4743 123.236 96.031 122.925C96.5734 122.634 97.0834 122.333 97.5615 122.036C97.4308 119.765 97.2244 117.526 96.6499 115.392Z" fill="#F9EDD8"/>
<path d="M100.673 119.734C100.46 116.863 100.043 113.995 99.4604 111.212C98.7019 107.657 97.6387 104.227 96.5013 100.846C95.3133 101.328 93.6074 102.01 91.6321 102.863C92.8124 105.449 93.9031 108.085 94.9774 110.724C95.5949 112.251 96.2135 113.779 96.6492 115.391C97.224 117.525 97.43 119.765 97.5597 122.035C98.802 121.269 99.8231 120.494 100.656 119.736L100.673 119.734Z" fill="#F9EDD8"/>
<path d="M100.781 102.091C99.8316 100.746 98.8203 99.9619 97.9198 100.303C97.7369 100.371 97.4773 100.472 97.1721 100.582C96.9738 100.653 96.7449 100.749 96.5011 100.846C97.6389 104.226 98.7021 107.656 99.4602 111.212C100.043 113.997 100.46 116.863 100.672 119.734C101.695 118.786 102.451 117.857 102.986 116.933C102.761 111.871 102.023 106.891 100.781 102.091Z" fill="#F9EDD8"/>
<path d="M103.988 109.995C103.538 107.477 102.245 104.125 100.781 102.09C102.023 106.891 102.761 111.871 102.986 116.933C104.377 114.563 104.4 112.246 103.988 109.995Z" fill="#F9EDD8"/>
<path d="M64.9525 136.291C61.9631 132.25 59.0534 128.04 57.4968 123.06C57.2179 122.187 57 121.287 56.7986 120.401C56.5879 120.698 56.4552 120.996 56.3851 121.284C55.6213 124.717 59.3722 136.423 63.319 136.534C63.7132 136.543 64.2738 136.454 64.9525 136.291Z" fill="#F9EDD8"/>
<path d="M86.0817 69.9697C85.654 68.8348 85.1388 67.5794 84.5556 66.2856C83.4862 66.8653 82.4316 67.6127 81.3435 68.1611C78.5497 69.5802 75.4022 69.8 72.5068 69.2683C71.3864 69.052 70.2567 68.7353 69.0887 68.8877C66.3454 69.2353 64.2832 72.0239 61.7612 73.4942C57.8739 75.7543 53.1376 74.6979 49.2311 76.9279C47.7137 77.7976 46.4376 79.0838 45.217 80.4788C45.3238 81.1778 45.4593 81.8545 45.6106 82.5111C45.8307 83.4287 46.0696 84.394 46.3595 85.4011C46.8282 84.7994 47.2588 84.1171 47.71 83.5008C49.4205 81.2077 51.9337 79.6361 54.5286 79.2127C57.6667 78.7045 60.9401 79.78 63.8738 78.334C65.9744 77.2862 67.4922 75.1317 69.4222 73.7382C71.4714 72.2721 74.0053 71.6888 76.2851 72.1998C77.3115 72.4161 78.2947 72.8636 79.3518 72.8865C81.6879 72.9419 83.8578 71.0422 86.0817 69.9697Z" fill="#F9EDD8"/>
<path d="M104.939 69.8087C104.534 69.6793 104.117 69.5876 103.704 69.5466C101.605 69.31 99.4077 69.7769 97.3516 69.3104C94.9571 68.7536 92.9118 66.9309 90.7026 65.9449C90.1371 67.0802 89.6521 68.2325 89.2562 69.319L89.2717 69.3164C91.9209 69.7231 93.4189 72.899 96.0144 73.5889C97.305 73.9436 98.7123 73.6436 100.06 73.7478C101.425 73.8661 102.637 74.4075 103.785 75.1321C104.373 73.3405 104.789 71.567 104.939 69.8087Z" fill="#F9EDD8"/>
<path d="M73.5105 49.1774C72.2117 47.7967 70.8777 46.5588 69.5027 45.5692C66.9902 46.2162 64.7128 47.0414 63.3333 48.039C59.9519 50.5117 53.6561 52.7992 48.6198 53.5817C47.877 55.0413 47.238 56.6 46.7282 58.2043C48.0193 57.2742 49.7086 56.5775 51.937 56.4819C58.733 56.1891 62.067 54.4617 67.0234 51.0571C68.7636 49.8537 71.1476 49.3509 73.5105 49.1774Z" fill="#F9EDD8"/>
<path d="M48.2708 68.5809C48.109 66.6765 46.8639 65.3699 45.5005 65.6286C45.3298 65.6606 45.1612 65.7098 45.0102 65.7899C44.7153 67.883 44.5631 69.9842 44.5505 72.0599C44.9911 72.4219 45.5238 72.5774 46.0817 72.472C47.4451 72.2133 48.4315 70.4686 48.2708 68.5809Z" fill="#79A280"/>
<path d="M61.6685 64.2186C61.5027 62.2691 59.9156 60.965 58.1229 61.3036C56.3298 61.6433 55.0116 63.498 55.1765 65.4472C55.3423 67.3967 56.9294 68.7008 58.7221 68.3622C60.5152 68.0225 61.8334 66.1678 61.6685 64.2186Z" fill="#79A280"/>
<path d="M78.6342 58.634C78.4684 56.6845 76.8813 55.3804 75.0886 55.719C73.2955 56.0588 71.9773 57.9134 72.1422 59.8626C72.308 61.8122 73.8951 63.1162 75.6878 62.7777C77.4809 62.4379 78.7991 60.5832 78.6342 58.634Z" fill="#79A280"/>
<path opacity="0.4" d="M68.6229 135.188C67.1869 131.812 65.3748 128.661 63.8191 125.359C62.6108 122.814 61.5189 120.161 60.9019 117.349C60.3595 117.64 59.8484 117.925 59.3846 118.219C58.2022 118.956 57.303 119.674 56.7976 120.403C56.9275 121.012 57.0744 121.618 57.251 122.218C57.6912 121.844 58.227 121.468 58.8259 121.098C59.2897 120.804 59.8008 120.52 60.3432 120.228C60.9602 123.04 62.0521 125.694 63.2604 128.239C64.4506 130.755 65.7911 133.189 66.9982 135.717C67.5061 135.57 68.0563 135.38 68.6229 135.188Z" fill="#C3B297"/>
<path opacity="0.4" d="M73.9928 133.126C70.0112 127.971 67.2058 121.651 65.9367 114.87C64.102 115.715 62.3764 116.537 60.9023 117.348C61.0779 118.119 61.2682 118.871 61.5047 119.614C62.6971 118.995 64.0158 118.386 65.379 117.75C66.4791 123.656 68.746 129.204 71.9366 133.943C72.6072 133.697 73.2928 133.413 73.9928 133.126Z" fill="#C3B297"/>
<path opacity="0.4" d="M78.4196 131.278C78.2932 131.079 78.1822 130.894 78.0723 130.709C74.7725 125.237 72.5509 118.927 71.5624 112.298C69.6848 113.184 67.7556 114.03 65.9368 114.87C66.0848 115.681 66.2615 116.47 66.4547 117.256C67.9409 116.581 69.4891 115.895 71.0033 115.179C71.908 121.191 73.8136 126.943 76.626 132.046C77.2195 131.796 77.8125 131.548 78.4196 131.278Z" fill="#C3B297"/>
<path opacity="0.4" d="M83.066 129.233C80.0334 123.197 77.065 116.994 75.9604 110.112C75.8995 110.14 75.855 110.166 75.7941 110.195C74.453 110.912 73.0157 111.611 71.5618 112.297C71.6787 113.114 71.8245 113.908 71.988 114.716C73.1085 114.178 74.1951 113.63 75.2354 113.074C75.2963 113.046 75.3408 113.02 75.4017 112.992C76.374 119.059 78.7974 124.594 81.4271 129.97C81.9746 129.731 82.5192 129.474 83.066 129.233Z" fill="#C3B297"/>
<path opacity="0.4" d="M85.9472 127.918C84.2557 121.165 82.4419 114.47 80.5227 107.812C78.9179 108.578 77.3774 109.349 75.961 110.114C76.09 110.894 76.2369 111.689 76.4114 112.444C77.5439 111.869 78.7385 111.283 79.964 110.692C81.6621 116.587 83.2823 122.497 84.7816 128.465C85.1731 128.27 85.5679 128.093 85.9472 127.918Z" fill="#C3B297"/>
<path opacity="0.4" d="M89.7162 126.125C89.6035 124.794 89.442 123.454 89.2041 122.129C88.9117 120.54 88.4826 119.012 88.0672 117.463C87.2271 114.436 86.3881 111.41 85.5613 108.363C85.3324 107.516 85.0701 106.658 84.7039 105.87C83.3073 106.495 81.899 107.154 80.5211 107.81C80.7433 108.573 80.9667 109.353 81.1735 110.118C82.1584 109.658 83.1587 109.195 84.1448 108.751C84.5114 109.538 84.7722 110.396 85.0022 111.244C85.8279 114.29 86.668 117.317 87.507 120.343C87.9228 121.891 88.3514 123.421 88.6439 125.01C88.7352 125.523 88.8086 126.023 88.8687 126.543C89.1573 126.402 89.4445 126.263 89.7162 126.125Z" fill="#C3B297"/>
<path opacity="0.4" d="M93.0103 116.87C92.3337 114.464 91.4007 112.191 90.6175 109.839C89.9834 107.937 89.4365 105.951 88.7135 104.102C87.4216 104.654 86.0705 105.253 84.7051 105.871C85.0349 106.596 85.2891 107.371 85.4959 108.136C86.4078 107.741 87.2884 107.352 88.1543 106.983C88.8785 108.833 89.4253 110.819 90.0588 112.718C90.8409 115.071 91.7749 117.343 92.4516 119.75C92.8604 121.231 93.1643 122.766 93.3759 124.319C93.6476 124.182 93.904 124.047 94.1599 123.914C94.0187 121.509 93.6436 119.132 93.0103 116.87Z" fill="#C3B297"/>
<path opacity="0.4" d="M96.6491 115.394C96.2123 113.781 95.5949 112.254 94.9774 110.727C93.902 108.088 92.8128 105.451 91.6324 102.865C90.7195 103.244 89.7301 103.653 88.7117 104.086C88.7128 104.103 88.7128 104.103 88.7128 104.103C89.0125 104.852 89.2671 105.625 89.5217 106.398C90.0531 106.161 90.5709 105.96 91.0733 105.746C92.2536 108.331 93.3444 110.968 94.4187 113.606C95.0362 115.134 95.6547 116.661 96.0904 118.274C96.4585 119.642 96.6717 121.041 96.8103 122.487C97.0809 122.333 97.3203 122.186 97.5601 122.037C97.4311 119.768 97.2251 117.528 96.6491 115.394Z" fill="#C3B297"/>
<path opacity="0.4" d="M100.673 119.736C100.46 116.866 100.043 113.998 99.4607 111.214C98.7022 107.659 97.639 104.229 96.5012 100.848C95.3132 101.33 93.6073 102.013 91.6319 102.866C91.9629 103.608 92.2927 104.334 92.6226 105.076C93.9469 104.534 95.074 104.081 95.9425 103.728C97.0803 107.109 98.1435 110.538 98.9015 114.095C99.3286 116.154 99.6636 118.248 99.892 120.38C100.174 120.173 100.423 119.954 100.656 119.739L100.673 119.736Z" fill="#C3B297"/>
<path opacity="0.4" d="M100.781 102.093C99.8317 100.748 98.8204 99.9646 97.9199 100.306C97.7371 100.374 97.4774 100.475 97.1722 100.585C96.9739 100.656 96.7451 100.751 96.5012 100.848C96.7734 101.636 97.0292 102.426 97.2701 103.22C97.3013 103.214 97.331 103.192 97.3623 103.186C98.2627 102.845 99.274 103.628 100.223 104.973C101.304 109.171 102.003 113.508 102.315 117.919C102.571 117.596 102.795 117.263 102.987 116.936C102.761 111.874 102.024 106.892 100.781 102.093Z" fill="#C3B297"/>
<path opacity="0.4" d="M103.988 109.998C103.538 107.48 102.246 104.128 100.781 102.094C101.339 104.214 101.79 106.373 102.133 108.552C102.729 110.014 103.191 111.554 103.429 112.879C103.581 113.741 103.687 114.611 103.667 115.489C104.375 113.624 104.313 111.786 103.988 109.998Z" fill="#C3B297"/>
<path opacity="0.4" d="M64.9526 136.294C61.9632 132.252 59.0535 128.042 57.4969 123.062C57.2181 122.19 57.0002 121.29 56.7988 120.403C56.588 120.701 56.4553 120.999 56.3852 121.287C56.2379 121.966 56.2597 122.955 56.4355 124.103L56.4399 124.154C56.5846 124.742 56.7468 125.346 56.9388 125.943C58.1275 129.743 60.1137 133.101 62.3207 136.28C62.6491 136.44 62.9875 136.53 63.3191 136.536C63.7138 136.545 64.2739 136.456 64.9526 136.294Z" fill="#C3B297"/>
<path d="M70.37 94.3543C69.9295 92.9733 69.0453 91.8607 68.3273 90.6489C67.5598 89.355 66.9711 87.9241 66.5858 86.4145C64.7713 87.9046 63.0627 89.5573 61.4837 91.3472C60.8117 92.1096 60.1496 92.9179 59.7556 93.8768C58.5946 96.7093 59.9264 97.3545 61.6983 96.8215C62.8543 96.4738 64.6742 94.6215 65.15 94.7017C65.8793 94.8237 67.8317 98.4826 69.1373 98.3462C70.778 98.1734 70.7846 95.6577 70.37 94.3543Z" fill="#79A280"/>
<path d="M83.0532 96.3056C82.0678 95.9568 80.981 96.0187 79.9313 95.929C78.8117 95.8329 77.7175 95.5579 76.693 95.1145C76.4885 96.9758 76.4292 98.8421 76.516 100.688C76.5524 101.475 76.6202 102.274 76.9175 102.97C77.796 105.024 78.8791 104.457 79.5743 103.062C80.0272 102.153 80.0417 100.121 80.3481 99.8494C80.8182 99.4325 83.8637 99.8467 84.5137 98.9359C85.3297 97.7948 83.9832 96.6342 83.0532 96.3056Z" fill="#79A280"/>
</svg>
