<svg width="187" height="192" viewBox="0 0 187 192" fill="none" xmlns="http://www.w3.org/2000/svg">
<path d="M95.447 80.1606C85.8021 78.0826 86.2972 72.0452 90.3209 68.6348C90.4459 68.5264 90.5695 68.4323 90.7076 68.3419C91.7318 67.5387 92.9751 66.9024 94.2456 66.3788C95.2372 65.9593 96.246 65.6201 97.1961 65.358C99.908 64.572 102.183 64.2939 102.183 64.2939C102.02 64.259 101.845 64.2061 101.656 64.1351C100.634 63.8092 99.2903 63.2035 97.7349 62.3866C96.732 61.8538 95.6228 61.2232 94.4781 60.5252C89.5288 57.4708 83.6086 52.9577 79.3144 48.0861C78.086 46.692 76.9829 45.2795 76.0984 43.854C73.756 40.1865 72.7237 36.5001 74.0299 33.2578C75.6915 29.173 78.9199 26.3902 82.918 24.7065C84.1928 24.1528 85.5582 23.7088 86.9621 23.394C88.8977 22.9373 90.9247 22.6668 92.9959 22.6004C93.1983 22.5837 93.4154 22.5708 93.6164 22.5682C95.4545 22.5124 97.3006 22.5939 99.1248 22.8057C101.691 23.087 104.213 23.6306 106.536 24.3581C107.153 24.5359 107.749 24.74 108.327 24.9545C109.137 25.2648 109.988 25.5985 110.877 25.9855C121.419 30.5304 136.605 39.9621 139.875 42.0223C137.741 45.5233 135.523 51.943 132.998 56.8802C130.565 61.6273 127.888 68.2189 126.174 72.623C125.575 74.1959 125.083 75.4902 124.775 76.3277C116.88 73.7985 109.535 78.3299 102.464 79.9088C100.897 80.2787 99.3412 80.486 97.7964 80.4399C97.0015 80.4197 96.2324 80.33 95.447 80.1606Z" fill="#09386A"/>
<path d="M154.896 52.7141C151.911 50.9719 149.121 48.8942 146.201 47.0457C143.949 45.6121 141.603 44.2779 139.124 43.382C139.374 42.8931 139.619 42.4349 139.872 42.0217C140.508 40.9684 141.13 40.1843 141.766 39.7789C142.548 40.0674 143.342 40.3747 144.112 40.7359C148.508 42.7676 152.243 46.0121 155.829 49.3148C155.647 50.2253 155.316 51.3888 154.896 52.7141Z" fill="#F9EDD8"/>
<path d="M153.141 57.637C148.565 53.2625 142.977 49.89 136.999 47.9396C137.721 46.2725 138.427 44.7081 139.123 43.3829C141.603 44.278 143.948 45.6114 146.2 47.0466C149.12 48.8951 151.911 50.9727 154.895 52.715C154.422 54.1787 153.821 55.8559 153.141 57.637Z" fill="#F9EDD8"/>
<path d="M151.563 61.6801C151.387 61.5364 151.224 61.4107 151.06 61.2858C146.212 57.5307 140.638 54.7184 134.799 53.0539C135.557 51.3502 136.28 49.5924 136.999 47.9411C142.977 49.8915 148.565 53.264 153.141 57.6385C152.663 58.95 152.131 60.296 151.563 61.6801Z" fill="#F9EDD8"/>
<path d="M149.816 65.9115C144.475 62.3515 138.988 58.8345 132.924 57.0315C132.949 56.9761 132.971 56.9357 132.996 56.881C133.611 55.6733 134.211 54.3718 134.8 53.053C140.64 54.7181 146.213 57.5297 151.061 61.2849C151.224 61.4106 151.388 61.5354 151.564 61.6791C151.009 63.0805 150.419 64.505 149.816 65.9115Z" fill="#F9EDD8"/>
<path d="M148.69 68.5306C142.733 66.1784 136.825 63.716 130.949 61.154C131.607 59.6989 132.267 58.3054 132.924 57.0317C138.988 58.8347 144.475 62.3517 149.816 65.9117C149.439 66.7939 149.062 67.6769 148.69 68.5306Z" fill="#F9EDD8"/>
<path d="M147.155 71.9499C145.982 71.6971 144.803 71.3977 143.636 71.0257C142.236 70.5736 140.886 69.9964 139.52 69.4311C136.849 68.2986 134.178 67.166 131.491 66.0446C130.743 65.7329 129.985 65.389 129.29 64.953C129.824 63.682 130.389 62.4037 130.95 61.1546C136.827 63.7158 142.735 66.1782 148.691 68.5313C148.171 69.713 147.656 70.8678 147.155 71.9499Z" fill="#F9EDD8"/>
<path d="M139.052 74.104C136.929 73.1949 134.92 72.0543 132.843 71.0492C131.165 70.2357 129.412 69.4962 127.778 68.6019C128.25 67.4238 128.762 66.1932 129.291 64.9523C129.986 65.3883 130.744 65.7322 131.491 66.0438C134.179 67.1652 136.85 68.2978 139.52 69.4304C140.886 69.9956 142.235 70.5721 143.636 71.0249C144.804 71.397 145.983 71.6963 147.156 71.9491C146.48 73.4304 145.84 74.7835 145.259 75.9689C143.142 75.5726 141.046 74.9552 139.052 74.104Z" fill="#F9EDD8"/>
<path d="M137.793 77.4319C136.369 76.8395 135.02 76.0816 133.67 75.3237C131.337 74.0075 129.007 72.678 126.721 71.266C127.044 70.4316 127.394 69.5283 127.763 68.5988C127.778 68.6018 127.778 68.6018 127.778 68.6018C129.412 69.4962 131.165 70.2357 132.843 71.0492C134.921 72.0542 136.929 73.1948 139.052 74.104C141.047 74.9558 143.142 75.5717 145.259 75.9688C144.958 76.5813 144.679 77.1542 144.411 77.6536C144.161 78.1425 143.901 78.5977 143.645 79.0244C141.647 78.6539 139.675 78.2145 137.793 77.4319Z" fill="#F9EDD8"/>
<path d="M141.654 81.7579C139.126 81.2436 136.601 80.5335 134.147 79.6737C131.012 78.5616 127.985 77.1716 124.999 75.7143C125.41 74.6282 125.991 73.0673 126.721 71.266C129.006 72.6772 131.337 74.0075 133.67 75.3237C135.02 76.0816 136.369 76.8395 137.793 77.4318C139.676 78.2137 141.647 78.6538 143.645 79.0243C142.986 80.1322 142.314 81.0264 141.657 81.7437L141.654 81.7579Z" fill="#F9EDD8"/>
<path d="M126.139 79.9514C124.947 78.8962 124.245 77.8417 124.536 77.0154C124.594 76.8469 124.68 76.6102 124.773 76.3285C124.834 76.1457 124.914 75.9376 124.997 75.7143C127.982 77.171 131.01 78.5609 134.145 79.6737C136.6 80.5335 139.125 81.2437 141.652 81.758C140.83 82.6353 140.02 83.2592 139.213 83.6724C134.762 82.9091 130.374 81.6617 126.139 79.9514Z" fill="#F9EDD8"/>
<path d="M133.126 83.8818C130.907 83.1777 127.945 81.5758 126.14 79.9521C130.374 81.6625 134.762 82.9092 139.216 83.6731C137.147 84.7472 135.11 84.5199 133.126 83.8818Z" fill="#F9EDD8"/>
<path d="M155.829 49.3157C152.242 46.013 148.509 42.7692 144.112 40.7368C143.342 40.3756 142.548 40.0683 141.766 39.7798C142.024 39.6095 142.286 39.515 142.538 39.4797C145.549 39.1196 155.884 43.9811 156.023 47.7769C156.037 48.1555 155.965 48.6824 155.829 49.3157Z" fill="#F9EDD8"/>
<path d="M97.7332 62.3852C96.7303 61.8524 95.6211 61.2218 94.4764 60.5237C94.9736 59.5616 95.6206 58.6313 96.0902 57.649C97.3083 55.1255 97.4664 52.132 96.9686 49.2995C96.766 48.2021 96.4755 47.0857 96.597 45.9823C96.8732 43.3911 99.3029 41.7158 100.569 39.4586C102.515 35.9774 101.535 31.3231 103.453 27.8208C104.201 26.4605 105.319 25.3763 106.533 24.3576C107.149 24.5354 107.745 24.7395 108.323 24.954C109.132 25.2636 109.984 25.598 110.873 25.985C110.349 26.3689 109.755 26.7077 109.217 27.0745C107.218 28.466 105.864 30.7041 105.519 33.1453C105.106 36.0984 106.087 39.352 104.848 42.0066C103.949 43.9064 102.07 45.1281 100.867 46.8268C99.5998 48.631 99.115 50.9968 99.5884 53.2377C99.7899 54.2444 100.194 55.236 100.225 56.2513C100.3 58.4955 98.6524 60.37 97.7332 62.3852Z" fill="#F9EDD8"/>
<path d="M97.7956 80.4408C97.6774 80.0386 97.5923 79.629 97.5514 79.2285C97.321 77.1915 97.7088 75.1359 97.275 73.1148C96.7593 70.7599 95.1343 68.6022 94.2437 66.3774C95.2353 65.9579 96.2441 65.6188 97.1942 65.3567L97.192 65.3717C97.5784 67.9549 100.387 69.735 101.022 72.2964C101.348 73.572 101.099 74.8879 101.206 76.1913C101.325 77.5119 101.813 78.7316 102.464 79.9113C100.895 80.2805 99.3397 80.4877 97.7956 80.4408Z" fill="#F9EDD8"/>
<path d="M79.312 48.0856C78.0836 46.6915 76.9805 45.2789 76.096 43.8534C76.6374 41.5156 77.3385 39.4226 78.201 38.2072C80.339 35.2349 82.283 29.448 82.9163 24.7051C84.1911 24.1515 85.5565 23.7074 86.9604 23.3926C86.1573 24.5301 85.5625 26.0738 85.502 28.1993C85.3177 34.6799 83.8342 37.6893 80.894 42.0706C79.8566 43.6093 79.4402 45.8388 79.312 48.0856Z" fill="#F9EDD8"/>
<path d="M96.1041 25.9955C94.4276 25.6341 93.2651 24.2994 93.4778 23.02C93.5041 22.8597 93.5458 22.7038 93.6141 22.5676C95.4522 22.5118 97.2983 22.5932 99.1225 22.805C99.4455 23.2655 99.5885 23.7937 99.5021 24.3175C99.2896 25.5984 97.7653 26.3539 96.1041 25.9955Z" fill="#79A280"/>
<path d="M92.4126 38.3643C90.6967 37.995 89.5323 36.3318 89.8109 34.6504C90.0895 32.9689 91.7071 31.9059 93.423 32.2752C95.1389 32.6444 96.3033 34.3076 96.0247 35.9891C95.7453 37.6698 94.1285 38.7335 92.4126 38.3643Z" fill="#79A280"/>
<path d="M87.6839 54.0188C85.968 53.6495 84.8036 51.9864 85.0822 50.3049C85.3607 48.6235 86.9784 47.5605 88.6943 47.9297C90.4102 48.299 91.5746 49.9621 91.296 51.6436C91.0167 53.3259 89.3999 54.3896 87.6839 54.0188Z" fill="#79A280"/>
<path opacity="0.4" d="M154.897 52.7142C151.913 50.972 149.123 48.8943 146.202 47.0458C143.95 45.6122 141.606 44.2788 139.126 43.3821C139.377 42.8939 139.621 42.435 139.874 42.0218C140.509 40.9693 141.132 40.1844 141.768 39.779C142.305 39.9701 142.839 40.1755 143.369 40.4101C143.045 40.7916 142.72 41.2646 142.402 41.7983C142.149 42.2107 141.904 42.6697 141.654 43.1587C144.133 44.0538 146.478 45.3872 148.73 46.8223C150.955 48.2356 153.111 49.7837 155.348 51.215C155.222 51.6848 155.061 52.192 154.897 52.7142Z" fill="#C3B297"/>
<path opacity="0.4" d="M153.143 57.6377C148.567 53.2632 142.979 49.8908 137.001 47.9403C137.724 46.2733 138.429 44.7089 139.125 43.3829C139.805 43.6352 140.468 43.8986 141.125 44.2055C140.593 45.2816 140.071 46.4783 139.528 47.717C144.733 49.4104 149.636 52.1835 153.839 55.7547C153.63 56.3719 153.388 56.9981 153.143 57.6377Z" fill="#C3B297"/>
<path opacity="0.4" d="M151.565 61.6799C151.389 61.5363 151.226 61.4106 151.062 61.2857C146.214 57.5306 140.641 54.7174 134.8 53.0538C135.559 51.3501 136.281 49.5931 137.001 47.941C137.716 48.1701 138.411 48.4254 139.104 48.6957C138.527 50.0475 137.939 51.457 137.327 52.8304C142.623 54.3479 147.703 56.7976 152.22 60.045C152.008 60.5857 151.796 61.1272 151.565 61.6799Z" fill="#C3B297"/>
<path opacity="0.4" d="M149.819 65.9123C144.477 62.3523 138.99 58.8354 132.927 57.0324C132.951 56.977 132.973 56.9365 132.998 56.8818C133.614 55.6741 134.214 54.3726 134.802 53.0538C135.522 53.2537 136.222 53.4805 136.935 53.7238C136.475 54.7393 136.004 55.7225 135.526 56.6584C135.501 56.7131 135.479 56.7535 135.455 56.8089C140.801 58.397 145.694 61.3193 150.451 64.4227C150.245 64.92 150.024 65.4143 149.819 65.9123Z" fill="#C3B297"/>
<path opacity="0.4" d="M148.692 68.5311C142.736 66.1781 136.828 63.7165 130.952 61.1545C131.608 59.7002 132.27 58.3066 132.927 57.0323C133.614 57.2403 134.315 57.4671 134.98 57.7155C134.488 58.7392 133.986 59.8205 133.478 60.9311C138.681 63.1966 143.897 65.3894 149.159 67.4722C148.994 67.8271 148.842 68.1866 148.692 68.5311Z" fill="#C3B297"/>
<path opacity="0.4" d="M147.156 71.9499C145.984 71.6971 144.804 71.3977 143.637 71.0257C142.237 70.5735 140.887 69.9964 139.521 69.4311C136.85 68.2986 134.18 67.166 131.492 66.0446C130.745 65.7329 129.987 65.389 129.292 64.953C129.825 63.682 130.39 62.4037 130.952 61.1546C131.625 61.4503 132.313 61.7498 132.989 62.0305C132.595 62.9247 132.198 63.8332 131.819 64.7303C132.515 65.1671 133.272 65.5103 134.019 65.822C136.707 66.9434 139.378 68.0759 142.048 69.2085C143.414 69.7738 144.763 70.3502 146.164 70.803C146.617 70.9459 147.057 71.0709 147.515 71.1845C147.394 71.4436 147.274 71.7035 147.156 71.9499Z" fill="#C3B297"/>
<path opacity="0.4" d="M139.053 74.1048C136.929 73.1956 134.921 72.055 132.844 71.05C131.166 70.2365 129.413 69.497 127.779 68.6026C128.251 67.4245 128.762 66.194 129.291 64.9523C129.932 65.3461 130.615 65.6749 131.291 65.9556C130.953 66.7862 130.62 67.5884 130.304 68.3785C131.939 69.2729 133.691 70.0124 135.369 70.8259C137.447 71.8309 139.455 72.9715 141.578 73.8807C142.885 74.433 144.238 74.8903 145.607 75.2614C145.489 75.5078 145.374 75.7383 145.259 75.9697C143.143 75.5725 141.049 74.9558 139.053 74.1048Z" fill="#C3B297"/>
<path opacity="0.4" d="M137.794 77.4326C136.37 76.8402 135.021 76.0823 133.671 75.3244C131.338 74.0083 129.007 72.678 126.721 71.2667C127.044 70.4331 127.395 69.529 127.763 68.5996C127.779 68.6026 127.779 68.6025 127.779 68.6025C128.44 68.971 129.124 69.2989 129.806 69.6262C129.603 70.1092 129.432 70.5849 129.248 71.0425C131.535 72.4545 133.865 73.7841 136.198 75.1002C137.548 75.8582 138.897 76.616 140.321 77.2084C141.528 77.7095 142.76 78.066 144.034 78.3543C143.901 78.5968 143.774 78.811 143.646 79.0235C141.648 78.6538 139.678 78.2151 137.794 77.4326Z" fill="#C3B297"/>
<path opacity="0.4" d="M141.656 81.7579C139.128 81.2436 136.603 80.5335 134.148 79.6737C131.014 78.5616 127.986 77.1716 125 75.7143C125.412 74.6282 125.993 73.0673 126.722 71.266C127.378 71.6636 128.02 72.0575 128.676 72.4551C128.214 73.6655 127.828 74.6969 127.527 75.4909C130.512 76.9475 133.539 78.3375 136.675 79.4503C138.491 80.082 140.336 80.6313 142.214 81.0802C142.034 81.3279 141.845 81.5425 141.659 81.7437L141.656 81.7579Z" fill="#C3B297"/>
<path opacity="0.4" d="M126.142 79.9521C124.949 78.8969 124.248 77.8424 124.539 77.0161C124.598 76.8483 124.683 76.6109 124.775 76.3293C124.837 76.1465 124.916 75.9383 125 75.7151C125.696 76.0603 126.394 76.3921 127.094 76.7089C127.089 76.7382 127.07 76.7643 127.065 76.7928C126.775 77.6182 127.476 78.6736 128.668 79.7288C132.371 81.2195 136.192 82.3589 140.074 83.1348C139.794 83.3455 139.503 83.5239 139.217 83.6723C134.764 82.9091 130.375 81.6625 126.142 79.9521Z" fill="#C3B297"/>
<path opacity="0.4" d="M133.127 83.8817C130.908 83.1785 127.946 81.5758 126.141 79.9521C128.012 80.7167 129.915 81.3831 131.834 81.9468C133.127 82.6768 134.486 83.2863 135.653 83.6584C136.413 83.8973 137.179 84.0929 137.951 84.1676C136.32 84.6445 134.704 84.3868 133.127 83.8817Z" fill="#C3B297"/>
<path opacity="0.4" d="M155.831 49.3163C152.245 46.0137 148.512 42.769 144.114 40.7374C143.344 40.3762 142.55 40.0689 141.768 39.7804C142.027 39.6101 142.289 39.5156 142.54 39.4796C143.135 39.4122 144.005 39.539 145.017 39.8326L145.062 39.8417C145.582 40.044 146.114 40.2644 146.641 40.5132C149.996 42.0637 152.969 44.3316 155.789 46.7916C155.934 47.1234 156.016 47.4581 156.026 47.7759C156.039 48.1562 155.967 48.6823 155.831 49.3163Z" fill="#C3B297"/>
<path d="M119.008 49.9665C117.789 49.3956 116.801 48.4277 115.727 47.6074C114.58 46.731 113.316 46.0126 111.984 45.4798C113.275 43.9026 114.709 42.4429 116.267 41.1237C116.93 40.5617 117.633 40.0154 118.473 39.7418C120.951 38.9353 121.532 40.2817 121.083 41.9225C120.79 42.9929 119.181 44.5373 119.256 45.0016C119.371 45.7138 122.61 47.9815 122.504 49.2178C122.371 50.7717 120.158 50.5062 119.008 49.9665Z" fill="#79A280"/>
<path d="M120.86 62.3345C120.542 61.3526 120.586 60.3172 120.494 59.3016C120.398 58.2175 120.143 57.1396 119.743 56.1094C121.378 56.1142 123.018 56.2602 124.643 56.5433C125.335 56.6635 126.04 56.8157 126.654 57.1752C128.47 58.2388 127.982 59.2159 126.764 59.7318C125.97 60.0675 124.184 59.8606 123.948 60.1257C123.586 60.5305 123.984 63.4949 123.19 64.0192C122.194 64.6776 121.159 63.2619 120.86 62.3345Z" fill="#79A280"/>
<path d="M50.8568 158.207C49.1033 157.601 47.3754 156.864 45.7011 156.005C43.6155 154.955 41.6445 153.721 39.8588 152.32C38.6733 151.413 37.5706 150.405 36.5873 149.334C33.4861 146.026 31.4752 142.043 31.356 137.552C31.273 133.991 33.4972 131.05 36.9222 128.702C38.2304 127.778 39.7336 126.963 41.3465 126.218C42.5872 125.642 43.8931 125.125 45.2352 124.663C49.9984 122.987 55.2296 121.924 59.6095 121.427C60.9047 121.286 62.1441 121.193 63.2516 121.143C64.9808 121.078 66.4428 121.115 67.4963 121.263C67.6788 121.278 67.8445 121.303 68.0069 121.341C68.0069 121.341 66.0083 120.085 63.7823 118.169C62.9983 117.51 62.1858 116.754 61.4168 115.932C60.2968 114.768 59.2794 113.478 58.583 112.129C56.169 107.429 57.5609 101.925 66.1136 103.513C66.4856 103.588 66.8721 103.667 67.2863 103.767C68.0694 103.957 68.8081 104.212 69.5483 104.542C70.9869 105.178 72.3485 106.052 73.6636 107.081C79.6295 111.642 84.8276 119.045 92.9723 120.185C92.9537 123.63 93.011 134.341 93.8251 141.71C94.2824 145.815 94.3032 150.57 94.5838 154.467C94.6696 155.94 94.8124 157.275 95.024 158.417C91.3008 158.876 74.0556 160.888 62.777 160.44C61.8248 160.406 60.9247 160.339 60.0729 160.269C59.4657 160.212 58.8454 160.138 58.2173 160.031C55.827 159.683 53.316 159.075 50.8568 158.207Z" fill="#09386A"/>
<path d="M112.551 155.181C109.2 155.475 105.913 156.161 102.585 156.58C100.016 156.91 97.3952 157.108 94.8022 156.843C94.8639 157.403 94.9308 157.933 95.0215 158.425C95.244 159.674 95.5449 160.67 95.99 161.322C96.8096 161.4 97.6475 161.466 98.4809 161.472C103.231 161.534 107.791 160.187 112.235 158.721C112.383 157.803 112.479 156.586 112.551 155.181Z" fill="#F9EDD8"/>
<path d="M112.636 149.876C106.91 151.893 100.599 152.544 94.4204 151.713C94.5091 153.565 94.6183 155.317 94.8022 156.843C97.3953 157.108 100.016 156.91 102.585 156.58C105.913 156.161 109.201 155.474 112.551 155.181C112.621 153.625 112.646 151.815 112.636 149.876Z" fill="#F9EDD8"/>
<path d="M112.581 145.46C112.369 145.514 112.175 145.558 111.981 145.602C106.219 146.929 100.114 147.07 94.1605 146.037C94.2707 147.939 94.3291 149.875 94.4208 151.713C100.599 152.544 106.911 151.893 112.637 149.876C112.649 148.457 112.626 146.984 112.581 145.46Z" fill="#F9EDD8"/>
<path d="M112.433 140.794C106.284 141.726 100.016 142.553 93.8078 141.548C93.811 141.61 93.8179 141.657 93.8211 141.718C93.9711 143.101 94.0736 144.564 94.1592 146.036C100.113 147.069 106.217 146.928 111.979 145.601C112.173 145.557 112.368 145.513 112.579 145.459C112.553 143.925 112.502 142.354 112.433 140.794Z" fill="#F9EDD8"/>
<path d="M112.301 137.887C106.002 137.435 99.7109 137.106 93.4147 136.883C93.516 138.511 93.6449 140.086 93.8087 141.548C100.015 142.552 106.284 141.725 112.434 140.793C112.391 139.816 112.349 138.836 112.301 137.887Z" fill="#F9EDD8"/>
<path d="M112.068 134.063C110.901 133.78 109.711 133.538 108.507 133.367C107.061 133.168 105.62 133.106 104.166 133.027C101.315 132.896 98.4641 132.765 95.6008 132.617C94.805 132.575 93.9886 132.559 93.1961 132.654C93.2479 134.059 93.3274 135.485 93.4122 136.882C99.7092 137.107 106 137.435 112.298 137.886C112.232 136.569 112.157 135.28 112.068 134.063Z" fill="#F9EDD8"/>
<path d="M105.35 128.518C103.08 128.422 100.837 128.589 98.5763 128.602C96.7496 128.614 94.8797 128.524 93.0655 128.629C93.0934 129.922 93.1389 131.279 93.1968 132.655C93.9884 132.559 94.805 132.576 95.6015 132.617C98.4641 132.766 101.315 132.897 104.166 133.027C105.619 133.107 107.062 133.169 108.508 133.368C109.712 133.539 110.902 133.781 112.069 134.064C111.957 132.403 111.836 130.876 111.711 129.529C109.624 128.964 107.481 128.61 105.35 128.518Z" fill="#F9EDD8"/>
<path d="M105.34 124.899C103.824 124.82 102.32 124.924 100.815 125.028C98.2123 125.215 95.6062 125.415 93.0136 125.711C93.0231 126.621 93.0327 127.607 93.0515 128.624C93.0661 128.628 93.0661 128.628 93.0661 128.628C94.8803 128.523 96.7494 128.612 98.5769 128.601C100.837 128.589 103.081 128.421 105.351 128.517C107.483 128.61 109.625 128.962 111.711 129.528C111.645 128.831 111.585 128.181 111.512 127.603C111.45 127.043 111.369 126.509 111.281 126.004C109.312 125.468 107.345 125.007 105.34 124.899Z" fill="#F9EDD8"/>
<path d="M110.391 122.613C107.886 121.976 105.314 121.52 102.757 121.233C99.4865 120.879 96.2178 120.829 92.9645 120.858C92.9676 122.039 92.964 123.732 93.0131 125.711C95.6066 125.417 98.2125 125.215 100.815 125.029C102.319 124.925 103.825 124.82 105.339 124.9C107.343 125.007 109.311 125.468 111.279 126.006C111.054 124.695 110.746 123.577 110.387 122.628L110.391 122.613Z" fill="#F9EDD8"/>
<path d="M95.479 117.458C94.0157 117.905 93.0067 118.569 92.9885 119.457C92.9842 119.637 92.9809 119.894 92.97 120.193C92.9626 120.388 92.9655 120.616 92.9644 120.858C96.2168 120.829 99.4856 120.879 102.757 121.233C105.315 121.521 107.886 121.976 110.391 122.613C109.937 121.444 109.407 120.513 108.807 119.778C104.441 118.524 99.9701 117.744 95.479 117.458Z" fill="#F9EDD8"/>
<path d="M103.271 116.909C100.984 116.582 97.7022 116.756 95.479 117.458C99.9701 117.744 104.441 118.524 108.807 119.778C107.273 117.878 105.318 117.193 103.271 116.909Z" fill="#F9EDD8"/>
<path d="M112.236 158.721C107.792 160.186 103.232 161.533 98.4817 161.471C97.6476 161.466 96.8104 161.399 95.9908 161.322C96.1707 161.592 96.3781 161.794 96.5984 161.938C99.2463 163.593 110.444 163.657 111.884 160.224C112.027 159.881 112.142 159.363 112.236 158.721Z" fill="#F9EDD8"/>
<path d="M63.2493 121.15C62.1417 121.2 60.9023 121.292 59.6072 121.433C59.7336 122.538 60.0071 123.678 60.1006 124.791C60.35 127.651 59.4626 130.477 58.0245 132.866C57.459 133.788 56.8054 134.689 56.5361 135.758C55.8948 138.266 57.5542 140.876 57.9397 143.512C58.5287 147.573 56.0181 151.428 56.575 155.497C56.7944 157.079 57.4488 158.568 58.2144 160.039C58.8432 160.146 59.4628 160.221 60.0707 160.277C60.9232 160.347 61.8226 160.414 62.7748 160.448C62.4249 159.864 61.9936 159.29 61.6254 158.718C60.2659 156.558 59.7915 153.901 60.3179 151.502C60.9577 148.601 62.9855 146.036 62.7611 143.045C62.5898 140.901 61.282 138.95 60.7596 136.856C60.2164 134.637 60.5865 132.245 61.7971 130.39C62.3305 129.551 63.045 128.816 63.425 127.895C64.2688 125.86 63.3993 123.41 63.2493 121.15Z" fill="#F9EDD8"/>
<path d="M69.5452 104.549C69.2974 104.867 69.0774 105.207 68.9018 105.558C67.9854 107.333 67.6315 109.396 66.5348 111.067C65.2462 113.01 63.0042 114.283 61.4153 115.939C62.1843 116.761 62.9952 117.517 63.7807 118.177L63.7838 118.162C65.032 115.953 68.234 115.549 69.7039 113.468C70.4446 112.437 70.6705 111.115 71.2186 109.962C71.7843 108.798 72.6564 107.889 73.6621 107.089C72.3446 106.059 70.9838 105.185 69.5452 104.549Z" fill="#F9EDD8"/>
<path d="M41.3439 126.223C39.731 126.968 38.2271 127.784 36.9195 128.707C36.6107 131.098 36.5332 133.334 36.9078 134.831C37.8495 138.509 37.6402 144.692 36.5853 149.338C37.5687 150.409 38.6714 151.417 39.8568 152.325C39.5091 150.924 39.495 149.242 40.1742 147.258C42.2442 141.208 41.9178 137.785 40.7237 132.458C40.2977 130.585 40.6849 128.348 41.3439 126.223Z" fill="#F9EDD8"/>
<path d="M49.1752 153.946C47.5064 153.542 45.9746 154.261 45.7287 155.532C45.6976 155.691 45.6818 155.853 45.6982 156.008C47.371 156.868 49.0995 157.604 50.8539 158.21C51.311 157.927 51.6244 157.504 51.7254 156.984C51.9713 155.713 50.8294 154.347 49.1752 153.946Z" fill="#79A280"/>
<path d="M50.049 140.933C48.3405 140.52 46.6943 141.539 46.3696 143.21C46.0459 144.882 47.1677 146.571 48.8754 146.985C50.5839 147.399 52.2302 146.379 52.5548 144.708C52.8785 143.037 51.7567 141.348 50.049 140.933Z" fill="#79A280"/>
<path d="M51.1043 124.437C49.3958 124.024 47.7496 125.043 47.4249 126.714C47.1012 128.386 48.223 130.075 49.9307 130.489C51.6392 130.903 53.2855 129.883 53.6101 128.212C53.9338 126.541 52.812 124.852 51.1043 124.437Z" fill="#79A280"/>
<path opacity="0.4" d="M112.553 155.182C109.203 155.474 105.915 156.161 102.587 156.58C100.018 156.911 97.3977 157.109 94.8046 156.844C94.8663 157.403 94.9332 157.934 95.024 158.425C95.2457 159.675 95.5473 160.67 95.9924 161.323C96.553 161.384 97.1164 161.428 97.6853 161.446C97.518 160.952 97.3827 160.374 97.2733 159.742C97.1826 159.25 97.1157 158.72 97.054 158.16C99.647 158.425 102.267 158.227 104.836 157.897C107.374 157.573 109.893 157.094 112.448 156.76C112.496 156.272 112.523 155.734 112.553 155.182Z" fill="#C3B297"/>
<path opacity="0.4" d="M112.638 149.876C106.912 151.893 100.601 152.544 94.4221 151.713C94.5116 153.566 94.6201 155.317 94.8039 156.843C95.5178 156.91 96.2192 156.959 96.9298 156.964C96.8116 155.74 96.7454 154.407 96.6721 153.028C102.051 153.756 107.525 153.357 112.629 151.916C112.649 151.256 112.643 150.573 112.638 149.876Z" fill="#C3B297"/>
<path opacity="0.4" d="M112.582 145.46C112.37 145.514 112.176 145.558 111.982 145.602C106.22 146.929 100.115 147.07 94.1617 146.036C94.2719 147.939 94.3302 149.875 94.422 151.713C95.1596 151.815 95.888 151.886 96.6202 151.942C96.5552 150.444 96.5015 148.888 96.4119 147.353C101.814 148.283 107.338 148.26 112.621 147.254C112.612 146.662 112.604 146.07 112.582 145.46Z" fill="#C3B297"/>
<path opacity="0.4" d="M112.435 140.794C106.286 141.725 100.018 142.553 93.8094 141.548C93.8127 141.61 93.8196 141.656 93.8228 141.718C93.9727 143.101 94.0753 144.564 94.1602 146.036C94.8925 146.168 95.6148 146.268 96.3554 146.356C96.2818 145.218 96.1886 144.107 96.0722 143.035C96.069 142.973 96.062 142.926 96.0588 142.865C101.532 143.751 107.048 143.211 112.5 142.444C112.484 141.895 112.452 141.343 112.435 140.794Z" fill="#C3B297"/>
<path opacity="0.4" d="M112.303 137.888C106.004 137.436 99.7126 137.108 93.4171 136.883C93.5184 138.512 93.6464 140.086 93.8111 141.548C94.5166 141.659 95.2396 141.758 95.9388 141.821C95.8384 140.662 95.7494 139.445 95.6665 138.2C101.241 138.4 106.801 138.672 112.369 139.068C112.337 138.668 112.322 138.271 112.303 137.888Z" fill="#C3B297"/>
<path opacity="0.4" d="M112.07 134.065C110.903 133.782 109.713 133.539 108.509 133.368C107.063 133.169 105.622 133.107 104.167 133.028C101.316 132.897 98.4658 132.766 95.6025 132.618C94.8067 132.576 93.9903 132.56 93.1978 132.656C93.2505 134.061 93.3291 135.487 93.4147 136.884C94.1369 136.908 94.8736 136.935 95.5927 136.973C95.5386 135.977 95.4876 134.966 95.4481 133.973C96.2397 133.877 97.0562 133.894 97.8527 133.935C100.715 134.084 103.566 134.214 106.417 134.346C107.87 134.425 109.312 134.487 110.759 134.686C111.225 134.753 111.673 134.832 112.134 134.928C112.114 134.635 112.093 134.342 112.07 134.065Z" fill="#C3B297"/>
<path opacity="0.4" d="M105.351 128.518C103.081 128.422 100.838 128.59 98.5773 128.602C96.7498 128.614 94.8808 128.524 93.0672 128.629C93.0942 129.921 93.1406 131.279 93.1986 132.655C93.9258 132.574 94.6687 132.572 95.3878 132.61C95.3637 131.696 95.3344 130.812 95.3174 129.946C97.1317 129.841 99.0007 129.93 100.827 129.919C103.087 129.907 105.331 129.739 107.601 129.835C108.995 129.901 110.399 130.074 111.787 130.334C111.763 130.056 111.737 129.792 111.711 129.529C109.626 128.964 107.483 128.611 105.351 128.518Z" fill="#C3B297"/>
<path opacity="0.4" d="M105.342 124.9C103.826 124.821 102.322 124.925 100.817 125.029C98.2144 125.217 95.6083 125.417 93.0148 125.711C93.0243 126.621 93.0339 127.607 93.0536 128.626C93.0682 128.629 93.0681 128.629 93.0681 128.629C93.8048 128.581 94.5468 128.579 95.2888 128.578C95.2685 128.043 95.2753 127.531 95.265 127.028C97.8585 126.734 100.464 126.532 103.067 126.346C104.571 126.242 106.076 126.137 107.591 126.217C108.876 126.286 110.135 126.5 111.407 126.793C111.369 126.511 111.325 126.259 111.281 126.006C109.315 125.468 107.347 125.007 105.342 124.9Z" fill="#C3B297"/>
<path opacity="0.4" d="M110.394 122.613C107.889 121.976 105.317 121.52 102.759 121.233C99.4881 120.879 96.2194 120.829 92.9669 120.858C92.9701 122.04 92.9665 123.733 93.0156 125.712C93.7575 125.634 94.4847 125.553 95.2259 125.476C95.2187 124.158 95.2188 123.038 95.2163 122.175C98.4687 122.145 101.737 122.196 105.009 122.55C106.9 122.766 108.789 123.072 110.673 123.483C110.593 123.177 110.493 122.895 110.39 122.629L110.394 122.613Z" fill="#C3B297"/>
<path opacity="0.4" d="M95.4814 117.459C94.0181 117.906 93.0091 118.569 92.9909 119.457C92.9866 119.638 92.9833 119.894 92.9724 120.194C92.9651 120.388 92.9679 120.617 92.9668 120.858C93.7272 120.845 94.4838 120.848 95.2389 120.864C95.2442 120.835 95.2357 120.802 95.241 120.773C95.2592 119.885 96.2682 119.222 97.7315 118.774C101.657 119.029 105.57 119.659 109.414 120.651C109.228 120.333 109.022 120.041 108.81 119.778C104.444 118.525 99.9716 117.744 95.4814 117.459Z" fill="#C3B297"/>
<path opacity="0.4" d="M103.273 116.91C100.986 116.583 97.7055 116.755 95.4817 117.458C97.4689 117.577 99.4516 117.8 101.415 118.124C102.857 118.019 104.32 118.056 105.524 118.227C106.305 118.341 107.079 118.497 107.816 118.767C106.478 117.61 104.899 117.137 103.273 116.91Z" fill="#C3B297"/>
<path opacity="0.4" d="M112.239 158.721C107.795 160.186 103.235 161.533 98.4841 161.472C97.6501 161.466 96.8128 161.399 95.9933 161.322C96.1732 161.592 96.3805 161.794 96.6009 161.939C97.1259 162.263 97.9711 162.527 99.004 162.702L99.0485 162.713C99.5966 162.755 100.163 162.785 100.735 162.788C104.36 162.834 107.883 162.053 111.329 161.028C111.577 160.785 111.768 160.514 111.887 160.225C112.028 159.881 112.145 159.364 112.239 158.721Z" fill="#C3B297"/>
<path d="M78.5511 141.937C77.2307 141.928 75.9863 142.385 74.7147 142.667C73.3565 142.97 71.9434 143.077 70.5329 142.982C71.1765 145.002 71.994 146.976 72.9719 148.876C73.3887 149.684 73.8477 150.497 74.5258 151.118C76.5298 152.95 77.5307 151.966 77.6835 150.257C77.7832 149.143 76.8346 147.014 77.0648 146.619C77.4169 146.014 81.1831 145.349 81.5129 144.164C81.9261 142.674 79.7968 141.947 78.5511 141.937Z" fill="#79A280"/>
<path d="M84.5306 131.362C83.899 132.127 83.5807 133.099 83.1466 133.994C82.6833 134.95 82.077 135.832 81.3519 136.604C82.8592 137.317 84.4203 137.904 86.0138 138.358C86.6928 138.551 87.3933 138.721 88.0844 138.66C90.1248 138.478 90.0131 137.364 89.0682 136.354C88.4526 135.695 86.7365 135.1 86.6106 134.753C86.4176 134.221 87.8075 131.666 87.2575 130.834C86.5689 129.79 85.1263 130.64 84.5306 131.362Z" fill="#79A280"/>
</svg>
