<svg width="262" height="260" viewBox="0 0 262 260" fill="none" xmlns="http://www.w3.org/2000/svg">
<path d="M137.075 136.572C129.167 126.93 133.949 122.21 140.294 122.602C140.493 122.612 140.681 122.633 140.879 122.669C142.448 122.824 144.112 123.299 145.721 123.893C146.985 124.346 148.209 124.882 149.32 125.436C152.52 126.984 154.933 128.606 154.933 128.606C154.798 128.443 154.665 128.255 154.533 128.041C153.77 126.929 152.893 125.318 151.961 123.354C151.364 122.083 150.734 120.641 150.117 119.114C147.475 112.479 144.926 103.813 144.216 96.1709C144.013 93.9842 143.946 91.8843 144.1 89.9519C144.432 84.9259 146.053 80.9537 149.633 79.2686C154.16 77.1585 159.284 77.4333 164.375 79.2696C166.01 79.8409 167.656 80.5792 169.246 81.4587C171.456 82.6519 173.621 84.0779 175.685 85.7131C175.894 85.8643 176.114 86.0307 176.312 86.1927C178.14 87.6466 179.879 89.2235 181.504 90.8933C183.801 93.2277 185.869 95.7492 187.613 98.2645C188.086 98.919 188.521 99.579 188.931 100.233C189.498 101.158 190.089 102.136 190.679 103.191C197.703 115.659 205.767 136.068 207.482 140.487C202.913 141.716 196.181 145.353 190.207 147.481C184.458 149.524 177.157 152.932 172.352 155.27C170.649 156.116 169.248 156.813 168.352 157.272C162.468 148.677 152.092 146.524 144.085 142.089C142.295 141.123 140.634 140.028 139.163 138.728C138.404 138.061 137.719 137.357 137.075 136.572Z" fill="#09386A"/>
<path d="M214.489 161.83C212.825 157.914 211.588 153.872 210.062 149.917C208.891 146.861 207.558 143.813 205.783 141.028C206.375 140.817 206.94 140.628 207.48 140.484C208.85 140.11 210.014 139.952 210.921 140.127C211.477 141.011 212.031 141.92 212.523 142.856C215.355 148.171 216.68 153.975 217.818 159.708C216.992 160.332 215.842 161.049 214.489 161.83Z" fill="#F9EDD8"/>
<path d="M209.274 164.576C207.935 157.125 204.899 149.699 200.469 143.161C202.359 142.336 204.16 141.584 205.782 141.028C207.558 143.813 208.891 146.86 210.061 149.918C211.587 153.872 212.823 157.914 214.487 161.831C212.984 162.687 211.204 163.619 209.274 164.576Z" fill="#F9EDD8"/>
<path d="M204.859 166.719C204.79 166.453 204.721 166.213 204.65 165.973C202.606 158.826 199.183 151.887 194.685 145.705C196.637 144.878 198.592 143.976 200.468 143.162C204.898 149.7 207.935 157.127 209.273 164.577C207.873 165.3 206.398 166.008 204.859 166.719Z" fill="#F9EDD8"/>
<path d="M200.144 168.883C197.481 161.499 194.645 154.032 190.027 147.55C190.09 147.523 190.14 147.506 190.204 147.48C191.663 146.958 193.174 146.343 194.686 145.704C199.185 151.888 202.607 158.826 204.651 165.973C204.721 166.213 204.791 166.453 204.86 166.719C203.322 167.455 201.733 168.182 200.144 168.883Z" fill="#F9EDD8"/>
<path d="M197.183 170.187C193.06 163.325 189.063 156.41 185.169 149.436C186.845 148.737 188.48 148.094 190.027 147.55C194.645 154.032 197.481 161.499 200.144 168.883C199.149 169.325 198.153 169.766 197.183 170.187Z" fill="#F9EDD8"/>
<path d="M193.254 171.835C192.293 170.663 191.358 169.446 190.486 168.176C189.446 166.649 188.543 165.057 187.616 163.461C185.823 160.319 184.03 157.176 182.213 154.029C181.707 153.154 181.214 152.243 180.848 151.305C182.273 150.662 183.733 150.039 185.169 149.437C189.065 156.411 193.062 163.326 197.184 170.188C195.836 170.767 194.512 171.326 193.254 171.835Z" fill="#F9EDD8"/>
<path d="M183.832 167.046C182.413 164.539 181.27 161.931 179.964 159.382C178.91 157.32 177.731 155.261 176.777 153.167C178.076 152.553 179.45 151.926 180.849 151.305C181.215 152.243 181.708 153.154 182.214 154.029C184.031 157.176 185.824 160.318 187.617 163.461C188.544 165.057 189.446 166.648 190.487 168.176C191.359 169.445 192.294 170.663 193.255 171.835C191.542 172.54 189.955 173.166 188.546 173.698C186.767 171.632 185.167 169.397 183.832 167.046Z" fill="#F9EDD8"/>
<path d="M180.237 168.842C179.273 167.176 178.499 165.431 177.725 163.685C176.392 160.663 175.071 157.631 173.851 154.565C174.76 154.121 175.744 153.64 176.765 153.152C176.777 153.167 176.777 153.167 176.777 153.167C177.731 155.261 178.91 157.32 179.965 159.382C181.271 161.931 182.413 164.54 183.833 167.046C185.168 169.398 186.769 171.632 188.546 173.698C187.816 173.972 187.137 174.23 186.521 174.435C185.929 174.646 185.352 174.82 184.799 174.973C183.118 173.027 181.512 171.044 180.237 168.842Z" fill="#F9EDD8"/>
<path d="M180.914 175.667C178.82 173.166 176.868 170.501 175.091 167.767C172.832 164.263 170.875 160.61 169.007 156.935C170.18 156.349 171.858 155.498 173.851 154.565C175.07 157.63 176.392 160.663 177.725 163.685C178.499 165.431 179.273 167.176 180.236 168.842C181.513 171.043 183.118 173.027 184.799 174.973C183.368 175.375 182.077 175.586 180.927 175.658L180.914 175.667Z" fill="#F9EDD8"/>
<path d="M167.099 161.462C166.69 159.593 166.758 158.124 167.63 157.661C167.807 157.566 168.059 157.435 168.349 157.271C168.539 157.166 168.765 157.054 169.005 156.933C170.873 160.608 172.83 164.26 175.09 167.766C176.866 170.5 178.818 173.165 180.912 175.666C179.487 175.739 178.255 175.607 177.175 175.299C173.386 171.016 170.003 166.373 167.099 161.462Z" fill="#F9EDD8"/>
<path d="M171.1 170.504C169.442 168.095 167.699 164.315 167.099 161.463C170.002 166.373 173.386 171.016 177.177 175.302C174.398 174.523 172.577 172.667 171.1 170.504Z" fill="#F9EDD8"/>
<path d="M217.817 159.708C216.679 153.976 215.355 148.173 212.522 142.856C212.03 141.921 211.476 141.011 210.92 140.128C211.293 140.195 211.615 140.328 211.886 140.504C215.073 142.657 221.67 155.225 219.103 158.561C218.846 158.893 218.401 159.282 217.817 159.708Z" fill="#F9EDD8"/>
<path d="M151.961 123.351C151.364 122.08 150.733 120.639 150.116 119.111C151.285 118.701 152.578 118.44 153.735 117.989C156.718 116.842 159.003 114.431 160.536 111.62C161.121 110.523 161.633 109.338 162.537 108.501C164.651 106.527 168.21 107.09 171.05 106.208C175.423 104.842 177.784 100.092 182.145 98.6851C183.843 98.1416 185.702 98.1341 187.61 98.2609C188.083 98.9154 188.518 99.5754 188.928 100.23C189.495 101.153 190.086 102.133 190.676 103.187C189.892 103.085 189.072 102.887 188.287 102.759C185.351 102.308 182.439 103.102 180.365 104.892C177.859 107.061 176.497 110.624 173.4 111.865C171.171 112.743 168.473 112.246 166.092 112.705C163.573 113.202 161.417 114.814 160.281 117.102C159.761 118.121 159.448 119.293 158.755 120.18C157.229 122.146 154.291 122.392 151.961 123.351Z" fill="#F9EDD8"/>
<path d="M139.162 138.728C139.333 138.29 139.542 137.873 139.787 137.5C141.014 135.582 142.855 134.154 143.873 132.085C145.048 129.664 145.003 126.506 145.721 123.89C146.984 124.344 148.208 124.88 149.319 125.433L149.307 125.444C147.843 127.953 149.309 131.758 148.102 134.45C147.512 135.799 146.332 136.712 145.507 137.906C144.683 139.124 144.29 140.559 144.082 142.091C142.293 141.124 140.631 140.029 139.162 138.728Z" fill="#F9EDD8"/>
<path d="M144.214 96.1685C144.011 93.9819 143.943 91.8819 144.098 89.9496C146.29 88.4075 148.463 87.2035 150.168 86.8764C154.366 86.0996 160.38 82.7756 164.374 79.2671C166.01 79.8384 167.655 80.5767 169.246 81.4562C167.654 81.7657 165.975 82.5902 164.402 84.3448C159.607 89.6949 156.02 91.0377 150.038 92.3551C147.932 92.8139 145.939 94.3661 144.214 96.1685Z" fill="#F9EDD8"/>
<path d="M176.292 91.1336C174.918 89.4576 174.737 87.3752 175.855 86.4631C175.995 86.3484 176.146 86.2502 176.31 86.1904C178.139 87.6443 179.878 89.2212 181.502 90.8909C181.489 91.5456 181.252 92.1107 180.795 92.4848C179.675 93.3984 177.654 92.7946 176.292 91.1336Z" fill="#79A280"/>
<path d="M163.889 98.617C162.482 96.9021 162.533 94.5394 164.002 93.3397C165.471 92.14 167.803 92.559 169.21 94.2739C170.617 95.9887 170.566 98.3515 169.097 99.5512C167.628 100.75 165.297 100.332 163.889 98.617Z" fill="#79A280"/>
<path d="M148.137 108.042C146.73 106.327 146.781 103.965 148.25 102.765C149.719 101.565 152.05 101.984 153.458 103.699C154.865 105.414 154.814 107.777 153.345 108.976C151.875 110.176 149.544 109.759 148.137 108.042Z" fill="#79A280"/>
<path opacity="0.4" d="M214.49 161.832C212.826 157.916 211.59 153.873 210.064 149.919C208.893 146.863 207.56 143.816 205.785 141.029C206.377 140.82 206.941 140.63 207.482 140.486C208.85 140.111 210.015 139.954 210.923 140.129C211.309 140.73 211.683 141.34 212.032 141.973C211.445 142.031 210.792 142.168 210.102 142.361C209.562 142.504 208.996 142.693 208.405 142.904C210.181 145.689 211.514 148.736 212.684 151.794C213.842 154.81 214.838 157.885 215.997 160.927C215.54 161.224 215.021 161.522 214.49 161.832Z" fill="#C3B297"/>
<path opacity="0.4" d="M209.276 164.578C207.937 157.127 204.9 149.701 200.471 143.163C202.361 142.338 204.162 141.586 205.783 141.029C206.266 141.799 206.724 142.564 207.145 143.361C205.861 143.84 204.5 144.43 203.089 145.037C206.949 150.726 209.747 157.084 211.294 163.548C210.651 163.901 209.969 164.235 209.276 164.578Z" fill="#C3B297"/>
<path opacity="0.4" d="M204.861 166.72C204.792 166.454 204.722 166.214 204.652 165.975C202.607 158.828 199.186 151.888 194.686 145.706C196.638 144.879 198.592 143.978 200.47 143.163C201.002 143.941 201.497 144.726 201.979 145.522C200.454 146.197 198.878 146.914 197.304 147.579C201.379 153.193 204.579 159.422 206.663 165.868C206.072 166.153 205.479 166.44 204.861 166.72Z" fill="#C3B297"/>
<path opacity="0.4" d="M200.147 168.886C197.483 161.502 194.647 154.035 190.029 147.553C190.093 147.525 190.143 147.509 190.206 147.483C191.666 146.961 193.176 146.346 194.688 145.707C195.247 146.465 195.766 147.229 196.287 148.018C195.116 148.504 193.958 148.954 192.826 149.358C192.762 149.384 192.712 149.4 192.649 149.428C196.721 155.142 199.404 161.619 201.824 168.138C201.268 168.392 200.702 168.631 200.147 168.886Z" fill="#C3B297"/>
<path opacity="0.4" d="M197.185 170.189C193.063 163.327 189.066 156.412 185.171 149.438C186.845 148.74 188.482 148.098 190.029 147.552C190.55 148.291 191.07 149.055 191.541 149.809C190.333 150.276 189.074 150.784 187.789 151.312C191.24 157.485 194.754 163.605 198.394 169.672C197.98 169.838 197.576 170.019 197.185 170.189Z" fill="#C3B297"/>
<path opacity="0.4" d="M193.255 171.836C192.294 170.664 191.359 169.447 190.488 168.178C189.447 166.65 188.544 165.058 187.617 163.462C185.824 160.32 184.031 157.177 182.214 154.03C181.708 153.155 181.216 152.244 180.85 151.306C182.274 150.664 183.735 150.04 185.171 149.438C185.616 150.239 186.072 151.056 186.53 151.846C185.509 152.283 184.476 152.729 183.468 153.182C183.835 154.121 184.327 155.03 184.833 155.905C186.65 159.052 188.443 162.195 190.236 165.338C191.163 166.933 192.065 168.524 193.106 170.053C193.445 170.544 193.785 171.009 194.15 171.48C193.847 171.601 193.545 171.723 193.255 171.836Z" fill="#C3B297"/>
<path opacity="0.4" d="M183.833 167.047C182.413 164.541 181.271 161.933 179.965 159.383C178.91 157.321 177.731 155.262 176.777 153.168C178.076 152.554 179.45 151.927 180.849 151.305C181.193 152.163 181.623 153 182.081 153.79C181.161 154.219 180.265 154.628 179.395 155.041C180.349 157.135 181.528 159.194 182.582 161.255C183.889 163.805 185.031 166.413 186.45 168.919C187.329 170.456 188.32 171.949 189.388 173.381C189.098 173.494 188.822 173.596 188.545 173.698C186.768 171.633 185.169 169.399 183.833 167.047Z" fill="#C3B297"/>
<path opacity="0.4" d="M180.237 168.843C179.273 167.178 178.499 165.432 177.725 163.686C176.392 160.664 175.07 157.631 173.851 154.566C174.759 154.122 175.744 153.641 176.765 153.153C176.777 153.168 176.777 153.168 176.777 153.168C177.159 154.021 177.591 154.858 178.022 155.693C177.48 155.937 176.975 156.201 176.47 156.44C177.69 159.506 179.011 162.538 180.345 165.56C181.119 167.306 181.893 169.051 182.856 170.716C183.674 172.128 184.62 173.437 185.654 174.722C185.353 174.82 185.076 174.897 184.8 174.973C183.119 173.028 181.513 171.046 180.237 168.843Z" fill="#C3B297"/>
<path opacity="0.4" d="M180.915 175.668C178.821 173.167 176.869 170.502 175.093 167.768C172.833 164.264 170.876 160.611 169.008 156.935C170.182 156.349 171.859 155.499 173.852 154.566C174.207 155.439 174.551 156.298 174.907 157.171C173.595 157.821 172.485 158.381 171.626 158.809C173.494 162.484 175.451 166.136 177.711 169.642C179.029 171.661 180.433 173.635 181.941 175.549C181.59 175.613 181.253 175.641 180.928 175.659L180.915 175.668Z" fill="#C3B297"/>
<path opacity="0.4" d="M167.101 161.465C166.692 159.595 166.76 158.127 167.632 157.664C167.809 157.57 168.061 157.438 168.351 157.274C168.541 157.169 168.767 157.057 169.007 156.936C169.438 157.797 169.882 158.649 170.338 159.49C170.312 159.51 170.275 159.517 170.25 159.538C169.379 160.001 169.31 161.469 169.719 163.339C172.261 167.628 175.169 171.716 178.396 175.546C177.973 175.496 177.563 175.41 177.178 175.302C173.387 171.017 170.004 166.375 167.101 161.465Z" fill="#C3B297"/>
<path opacity="0.4" d="M171.101 170.505C169.442 168.096 167.7 164.316 167.1 161.464C168.377 163.641 169.754 165.761 171.221 167.807C171.96 169.483 172.848 171.11 173.719 172.379C174.288 173.202 174.895 173.994 175.593 174.688C173.666 173.761 172.276 172.222 171.101 170.505Z" fill="#C3B297"/>
<path opacity="0.4" d="M217.819 159.71C216.68 153.978 215.358 148.175 212.524 142.859C212.032 141.923 211.477 141.014 210.922 140.13C211.295 140.197 211.617 140.331 211.887 140.505C212.515 140.934 213.271 141.753 214.047 142.828L214.084 142.872C214.446 143.469 214.807 144.091 215.143 144.732C217.304 148.788 218.583 153.142 219.576 157.533C219.48 157.933 219.322 158.284 219.105 158.562C218.847 158.895 218.403 159.283 217.819 159.71Z" fill="#C3B297"/>
<path d="M181.513 130.187C180.734 128.707 180.461 127.078 180 125.504C179.508 123.824 178.789 122.182 177.872 120.642C180.252 120.357 182.687 120.289 185.143 120.442C186.189 120.507 187.262 120.617 188.274 121.071C191.261 122.411 190.868 124.028 189.262 125.054C188.215 125.723 185.549 125.72 185.291 126.175C184.896 126.874 186.434 131.444 185.449 132.406C184.213 133.617 182.248 131.584 181.513 130.187Z" fill="#79A280"/>
<path d="M174.507 142.197C174.897 141.105 175.677 140.261 176.311 139.325C176.99 138.326 177.51 137.203 177.854 136.002C179.441 137.341 180.934 138.804 182.314 140.372C182.902 141.039 183.48 141.744 183.821 142.55C184.831 144.936 183.661 145.367 182.108 144.81C181.096 144.447 179.504 142.812 179.086 142.845C178.445 142.893 176.721 145.733 175.576 145.531C174.137 145.276 174.138 143.229 174.507 142.197Z" fill="#79A280"/>
<path d="M47.5632 103.614C47.4976 101.369 47.5857 99.1002 47.8286 96.8439C48.1091 94.0415 48.6377 91.2962 49.4232 88.6959C49.9209 86.9786 50.562 85.3155 51.3205 83.7637C53.638 78.8972 57.1401 75.0056 61.9772 73.0708C65.8163 71.5504 69.9342 72.9131 73.9039 75.8843C75.4497 77.0084 76.9576 78.3988 78.4335 79.9429C79.5734 81.1291 80.6747 82.4138 81.7319 83.7615C85.5228 88.5305 88.8402 94.0795 91.191 98.8826C91.8794 100.305 92.4918 101.684 93.0037 102.929C93.7896 104.877 94.3534 106.562 94.6268 107.825C94.6867 108.039 94.7276 108.238 94.7532 108.439C94.7532 108.439 95.2941 105.653 96.4584 102.344C96.8516 101.185 97.3385 99.954 97.9152 98.7465C98.7191 97.0011 99.7022 95.3225 100.882 93.987C104.998 89.3479 111.56 88.7337 113.366 99.1378C113.438 99.5926 113.512 100.066 113.573 100.579C113.69 101.549 113.718 102.495 113.666 103.472C113.568 105.37 113.179 107.276 112.603 109.19C110.106 117.83 104.2 126.731 106.324 136.49C102.569 137.848 90.9404 142.202 83.2604 146.083C78.9839 148.249 73.8189 150.177 69.6963 152.057C68.1286 152.746 66.7354 153.443 65.581 154.142C63.5432 150.074 54.2305 131.183 50.058 118.123C49.702 117.021 49.4023 115.967 49.1274 114.966C48.9378 114.249 48.7624 113.511 48.6198 112.751C48.0101 109.882 47.6347 106.77 47.5632 103.614Z" fill="#09386A"/>
<path d="M76.3414 172.864C74.638 169.155 72.5334 165.675 70.7028 162.041C69.2817 159.24 67.9841 156.326 67.201 153.259C66.6176 153.553 66.0682 153.842 65.5711 154.142C64.3045 154.897 63.3451 155.639 62.8189 156.409C63.0733 157.376 63.3476 158.359 63.6852 159.314C65.5805 164.764 68.9297 169.433 72.3596 173.921C73.42 173.722 74.7837 173.345 76.3414 172.864Z" fill="#F9EDD8"/>
<path d="M82.1481 170.837C77.5883 165.105 74.2733 158.157 72.6245 150.768C70.6463 151.611 68.7859 152.437 67.2012 153.259C67.9844 156.326 69.282 159.24 70.703 162.041C72.5336 165.675 74.6394 169.155 76.3417 172.864C78.0637 172.321 80.0429 171.625 82.1481 170.837Z" fill="#F9EDD8"/>
<path d="M86.9294 169.005C86.7833 168.785 86.6546 168.581 86.5271 168.377C82.7025 162.328 80.0277 155.412 78.6923 148.198C76.6681 149.086 74.586 149.928 72.6245 150.769C74.2734 158.158 77.5883 165.106 82.1481 170.838C83.6973 170.284 85.2904 169.667 86.9294 169.005Z" fill="#F9EDD8"/>
<path d="M91.9437 166.969C88.3905 160.318 84.9013 153.491 83.429 145.998C83.3633 146.027 83.3156 146.053 83.2499 146.082C81.8073 146.807 80.2587 147.509 78.6926 148.197C80.028 155.41 82.7028 162.326 86.5274 168.375C86.6549 168.579 86.7836 168.784 86.9297 169.003C88.5881 168.359 90.276 167.672 91.9437 166.969Z" fill="#F9EDD8"/>
<path d="M95.0521 165.653C92.9414 158.278 90.7001 150.961 88.3423 143.681C86.6126 144.449 84.9531 145.226 83.4304 145.999C84.9019 153.49 88.3907 160.319 91.9451 166.969C92.9909 166.528 94.0391 166.088 95.0521 165.653Z" fill="#F9EDD8"/>
<path d="M99.1155 163.856C98.9414 162.411 98.7134 160.954 98.4022 159.511C98.0213 157.779 97.493 156.109 96.9788 154.416C95.943 151.107 94.9084 147.799 93.8863 144.47C93.6032 143.544 93.2831 142.605 92.8518 141.738C91.3454 142.36 89.8266 143.022 88.3418 143.678C90.6992 150.96 92.9405 158.277 95.0516 165.65C96.4572 165.047 97.8286 164.445 99.1155 163.856Z" fill="#F9EDD8"/>
<path d="M102.373 153.963C101.54 151.332 100.431 148.837 99.4832 146.26C98.7154 144.179 98.041 142.007 97.177 139.977C95.7817 140.527 94.3242 141.122 92.8513 141.739C93.283 142.605 93.6015 143.545 93.8858 144.471C94.9066 147.8 95.9424 151.108 96.9782 154.417C97.4917 156.108 98.0208 157.78 98.4017 159.512C98.7129 160.955 98.9408 162.412 99.115 163.857C100.876 163.065 102.487 162.315 103.9 161.633C103.653 159.023 103.152 156.434 102.373 153.963Z" fill="#F9EDD8"/>
<path d="M106.306 152.502C105.766 150.74 105.031 149.063 104.296 147.386C103.017 144.488 101.723 141.592 100.33 138.749C99.3443 139.125 98.2756 139.53 97.1763 139.959C97.1782 139.978 97.1782 139.978 97.1782 139.978C98.0422 142.008 98.717 144.178 99.4843 146.261C100.431 148.837 101.541 151.333 102.374 153.964C103.154 156.436 103.656 159.024 103.902 161.632C104.632 161.278 105.315 160.95 105.914 160.635C106.497 160.34 107.045 160.033 107.557 159.73C107.328 157.267 107.016 154.835 106.306 152.502Z" fill="#F9EDD8"/>
<path d="M110.879 157.356C110.538 154.24 109.971 151.12 109.227 148.085C108.26 144.208 106.965 140.454 105.589 136.75C104.306 137.227 102.462 137.901 100.33 138.749C101.722 141.593 103.017 144.489 104.295 147.386C105.03 149.063 105.766 150.74 106.305 152.502C107.016 154.834 107.327 157.266 107.555 159.729C108.888 158.947 109.977 158.147 110.861 157.358L110.879 157.356Z" fill="#F9EDD8"/>
<path d="M110.327 138.26C109.235 136.768 108.097 135.882 107.123 136.216C106.926 136.284 106.645 136.383 106.315 136.49C106.1 136.56 105.853 136.654 105.589 136.75C106.965 140.453 108.26 144.206 109.227 148.085C109.971 151.121 110.537 154.24 110.879 157.356C111.964 156.369 112.757 155.392 113.309 154.412C112.869 148.923 111.871 143.504 110.327 138.26Z" fill="#F9EDD8"/>
<path d="M114.143 146.94C113.554 144.196 112.009 140.518 110.327 138.26C111.871 143.504 112.87 148.923 113.309 154.412C114.742 151.899 114.68 149.392 114.143 146.94Z" fill="#F9EDD8"/>
<path d="M72.361 173.922C68.9311 169.433 65.582 164.765 63.6866 159.314C63.3478 158.36 63.0747 157.377 62.8203 156.41C62.6007 156.723 62.4665 157.041 62.4007 157.35C61.6942 161.037 66.2503 173.852 70.58 174.122C71.0125 174.148 71.6234 174.072 72.361 173.922Z" fill="#F9EDD8"/>
<path d="M92.9955 102.929C92.4836 101.684 91.8712 100.305 91.1828 98.8826C90.0328 99.4695 88.9055 100.238 87.7338 100.791C84.7259 102.221 81.2847 102.339 78.0912 101.653C76.855 101.376 75.6049 100.991 74.3306 101.111C71.3373 101.383 69.1832 104.324 66.4751 105.819C62.3007 108.118 57.0697 106.794 52.8731 109.06C51.2432 109.944 49.8935 111.287 48.6088 112.751C48.7526 113.512 48.9268 114.25 49.1176 114.966C49.3937 115.968 49.6922 117.022 50.0482 118.123C50.539 117.49 50.985 116.768 51.456 116.118C53.2435 113.7 55.9381 112.094 58.7659 111.735C62.1858 111.304 65.8142 112.593 68.9746 111.139C71.2368 110.085 72.8183 107.81 74.8805 106.375C77.0707 104.866 79.8256 104.331 82.3436 104.97C83.4767 105.244 84.5712 105.765 85.7307 105.83C88.2931 105.979 90.5989 104.005 92.9955 102.929Z" fill="#F9EDD8"/>
<path d="M113.657 103.472C113.208 103.316 112.747 103.201 112.293 103.141C109.984 102.805 107.593 103.227 105.322 102.644C102.676 101.95 100.365 99.8991 97.9067 98.7477C97.3301 99.9552 96.8425 101.184 96.4499 102.345L96.4667 102.343C99.3857 102.884 101.148 106.379 104.019 107.225C105.447 107.658 106.978 107.387 108.459 107.551C109.96 107.731 111.308 108.363 112.594 109.191C113.17 107.274 113.559 105.37 113.657 103.472Z" fill="#F9EDD8"/>
<path d="M78.427 79.942C76.9511 78.3979 75.442 77.007 73.8974 75.8834C71.1684 76.4883 68.7039 77.2951 67.2299 78.3225C63.618 80.8707 56.8051 83.1077 51.3152 83.7632C50.5567 85.3151 49.9156 86.9781 49.4179 88.6954C50.7975 87.7376 52.6224 87.0477 55.0611 87.029C62.498 86.9705 66.0863 85.2273 71.3889 81.7301C73.2503 80.4936 75.844 80.04 78.427 79.942Z" fill="#F9EDD8"/>
<path d="M51.5033 99.9875C51.2535 97.9196 49.8393 96.4579 48.3549 96.686C48.1689 96.7142 47.986 96.761 47.8237 96.8421C47.58 99.0966 47.4932 101.366 47.5583 103.612C48.0549 104.021 48.6446 104.209 49.2521 104.116C50.7364 103.888 51.7512 102.037 51.5033 99.9875Z" fill="#79A280"/>
<path d="M66.0207 95.7745C65.7648 93.6577 63.9758 92.1856 62.024 92.484C60.0717 92.7836 58.6976 94.7412 58.9523 96.8576C59.2083 98.9744 60.9973 100.446 62.9491 100.148C64.9014 99.8485 66.2755 97.8909 66.0207 95.7745Z" fill="#79A280"/>
<path d="M84.4022 90.3742C84.1463 88.2574 82.3573 86.7854 80.4055 87.0837C78.4532 87.3833 77.0791 89.341 77.3338 91.4573C77.5898 93.5741 79.3788 95.0462 81.3306 94.7479C83.2828 94.4482 84.657 92.4906 84.4022 90.3742Z" fill="#79A280"/>
<path opacity="0.4" d="M76.3419 172.867C74.6397 169.158 72.5339 165.678 70.7032 162.044C69.2822 159.243 67.9846 156.329 67.2015 153.262C66.6181 153.556 66.0688 153.845 65.5716 154.145C64.3038 154.899 63.3456 155.642 62.8194 156.412C62.985 157.076 63.169 157.738 63.3854 158.394C63.8536 158.006 64.4265 157.62 65.0688 157.242C65.5659 156.941 66.1153 156.652 66.6987 156.358C67.4818 159.425 68.7794 162.339 70.2004 165.141C71.6005 167.909 73.1623 170.595 74.5814 173.378C75.1325 173.239 75.7282 173.054 76.3419 172.867Z" fill="#C3B297"/>
<path opacity="0.4" d="M82.1487 170.839C77.5889 165.107 74.2739 158.159 72.6251 150.77C70.6464 151.614 68.7865 152.439 67.2018 153.26C67.4236 154.103 67.6608 154.923 67.9483 155.737C69.2315 155.112 70.6536 154.502 72.1235 153.867C73.5538 160.301 76.2492 166.394 79.9263 171.646C80.6518 171.405 81.3924 171.123 82.1487 170.839Z" fill="#C3B297"/>
<path opacity="0.4" d="M86.93 169.007C86.7839 168.787 86.6552 168.582 86.5277 168.378C82.7032 162.329 80.0283 155.413 78.6929 148.2C76.6687 149.087 74.5866 149.929 72.6252 150.77C72.8183 151.654 73.0419 152.514 73.2835 153.373C74.8867 152.698 76.5574 152.014 78.1896 151.297C79.4098 157.839 81.7171 164.139 84.9935 169.77C85.6344 169.522 86.2749 169.276 86.93 169.007Z" fill="#C3B297"/>
<path opacity="0.4" d="M91.9444 166.97C88.3912 160.32 84.902 153.493 83.4297 146C83.364 146.028 83.3163 146.055 83.2505 146.083C81.808 146.808 80.2594 147.511 78.6921 148.198C78.8512 149.087 79.0413 149.952 79.2512 150.833C80.4587 150.293 81.6287 149.742 82.7477 149.18C82.8134 149.151 82.8612 149.125 82.9269 149.096C84.2233 155.702 87.0897 161.786 90.1763 167.706C90.7672 167.468 91.3543 167.21 91.9444 166.97Z" fill="#C3B297"/>
<path opacity="0.4" d="M95.0522 165.656C92.9415 158.281 90.699 150.964 88.3424 143.684C86.6127 144.452 84.9537 145.228 83.4305 146.002C83.6015 146.852 83.7928 147.717 84.0127 148.541C85.2321 147.962 86.519 147.374 87.8396 146.78C89.9248 153.226 91.9253 159.686 93.7955 166.203C94.2172 166.007 94.6431 165.831 95.0522 165.656Z" fill="#C3B297"/>
<path opacity="0.4" d="M99.1147 163.859C98.9405 162.413 98.7126 160.957 98.4014 159.513C98.0205 157.782 97.4921 156.111 96.9779 154.418C95.9421 151.11 94.9075 147.801 93.8855 144.472C93.6024 143.546 93.2823 142.608 92.851 141.741C91.3441 142.364 89.8257 143.024 88.3405 143.682C88.6131 144.516 88.8875 145.368 89.1433 146.205C90.2052 145.744 91.284 145.281 92.3477 144.838C92.7795 145.704 93.098 146.643 93.3822 147.569C94.4031 150.898 95.4389 154.207 96.4735 157.515C96.9881 159.207 97.5161 160.879 97.897 162.61C98.0166 163.169 98.116 163.713 98.2017 164.278C98.5127 164.137 98.8221 163.997 99.1147 163.859Z" fill="#C3B297"/>
<path opacity="0.4" d="M102.373 153.965C101.54 151.334 100.431 148.839 99.483 146.262C98.7157 144.179 98.0408 142.009 97.178 139.979C95.7831 140.528 94.3251 141.124 92.8522 141.742C93.2413 142.54 93.5493 143.388 93.8051 144.224C94.7895 143.831 95.7398 143.443 96.6748 143.077C97.5388 145.107 98.2136 147.277 98.9802 149.358C99.9268 151.934 101.037 154.43 101.87 157.061C102.374 158.68 102.766 160.353 103.057 162.042C103.349 161.904 103.625 161.768 103.901 161.633C103.654 159.025 103.153 156.437 102.373 153.965Z" fill="#C3B297"/>
<path opacity="0.4" d="M106.305 152.505C105.765 150.742 105.03 149.066 104.295 147.389C103.016 144.491 101.722 141.595 100.33 138.751C99.344 139.126 98.2753 139.532 97.1757 139.962C97.1775 139.98 97.1775 139.98 97.1775 139.98C97.5345 140.802 97.8429 141.649 98.1514 142.496C98.7247 142.259 99.2846 142.061 99.827 141.848C101.219 144.692 102.515 147.588 103.792 150.485C104.527 152.162 105.263 153.839 105.802 155.601C106.257 157.097 106.544 158.62 106.751 160.19C107.042 160.034 107.299 159.883 107.556 159.731C107.328 157.27 107.017 154.837 106.305 152.505Z" fill="#C3B297"/>
<path opacity="0.4" d="M110.88 157.359C110.538 154.243 109.971 151.123 109.227 148.087C108.261 144.209 106.965 140.456 105.59 136.753C104.306 137.23 102.462 137.904 100.33 138.752C100.721 139.568 101.11 140.366 101.499 141.182C102.93 140.646 104.148 140.198 105.087 139.849C106.462 143.552 107.758 147.305 108.724 151.184C109.27 153.43 109.717 155.71 110.049 158.026C110.349 157.813 110.615 157.585 110.862 157.361L110.88 157.359Z" fill="#C3B297"/>
<path opacity="0.4" d="M110.327 138.263C109.236 136.771 108.098 135.884 107.124 136.219C106.926 136.287 106.645 136.386 106.315 136.493C106.1 136.563 105.853 136.657 105.589 136.753C105.918 137.616 106.228 138.481 106.522 139.35C106.556 139.344 106.588 139.322 106.622 139.316C107.596 138.981 108.734 139.868 109.825 141.36C111.17 145.945 112.101 150.667 112.61 155.454C112.879 155.114 113.111 154.762 113.31 154.415C112.87 148.926 111.872 143.506 110.327 138.263Z" fill="#C3B297"/>
<path opacity="0.4" d="M114.143 146.943C113.554 144.2 112.011 140.522 110.327 138.264C111.019 140.581 111.596 142.935 112.054 145.306C112.764 146.912 113.329 148.597 113.64 150.041C113.839 150.979 113.988 151.925 113.999 152.875C114.705 150.883 114.567 148.891 114.143 146.943Z" fill="#C3B297"/>
<path opacity="0.4" d="M72.3614 173.925C68.9315 169.436 65.5823 164.767 63.687 159.317C63.3482 158.362 63.0751 157.379 62.8207 156.412C62.6011 156.726 62.4669 157.044 62.4011 157.353C62.2654 158.083 62.3269 159.154 62.5632 160.404L62.57 160.459C62.751 161.101 62.9517 161.761 63.1849 162.415C64.6322 166.574 66.9367 170.284 69.4764 173.809C69.8424 173.995 70.2167 174.106 70.5804 174.125C71.0133 174.149 71.6237 174.075 72.3614 173.925Z" fill="#C3B297"/>
<path d="M76.7035 128.729C76.1682 127.217 75.1568 125.979 74.3239 124.64C73.4334 123.21 72.7338 121.639 72.2542 119.99C70.3222 121.534 68.5125 123.258 66.85 125.136C66.1426 125.935 65.4477 126.785 65.0523 127.808C63.8876 130.831 65.3717 131.58 67.2934 131.07C68.5471 130.738 70.4712 128.802 70.9957 128.906C71.7997 129.066 74.0786 133.102 75.5043 133.004C77.2959 132.879 77.2075 130.156 76.7035 128.729Z" fill="#79A280"/>
<path d="M90.678 131.324C89.5848 130.909 88.3961 130.934 87.2423 130.797C86.0115 130.651 84.8019 130.311 83.6623 129.792C83.5089 131.8 83.5149 133.818 83.6802 135.819C83.75 136.672 83.8548 137.54 84.207 138.305C85.248 140.562 86.4135 139.989 87.1223 138.505C87.584 137.538 87.5227 135.34 87.8482 135.057C88.3476 134.624 91.701 135.188 92.3788 134.227C93.2297 133.022 91.7099 131.715 90.678 131.324Z" fill="#79A280"/>
</svg>
