<svg width="146" height="98" viewBox="0 0 146 98" fill="none" xmlns="http://www.w3.org/2000/svg">
<path d="M84.701 41.57C80.414 33.896 85.0129 30.816 89.8499 31.599C90.0019 31.622 90.1429 31.652 90.2899 31.694C91.4749 31.93 92.672 32.408 93.805 32.968C94.697 33.399 95.542 33.887 96.297 34.379C98.479 35.762 100.038 37.138 100.038 37.138C99.965 37.008 99.8979 36.86 99.8359 36.693C99.4569 35.82 99.0849 34.572 98.7369 33.062C98.5169 32.085 98.303 30.981 98.116 29.815C97.333 24.753 97.009 18.212 97.913 12.564C98.172 10.948 98.5189 9.40601 99.0059 8.00401C100.219 4.35201 102.229 1.57201 105.321 0.619012C109.226 -0.570988 113.14 0.0310035 116.731 1.773C117.888 2.319 119.021 2.98801 120.085 3.75601C121.568 4.80201 122.973 6.01501 124.259 7.37301C124.392 7.50001 124.531 7.639 124.653 7.773C125.792 8.98 126.838 10.27 127.778 11.619C129.112 13.507 130.233 15.514 131.104 17.491C131.346 18.007 131.557 18.524 131.75 19.035C132.013 19.756 132.284 20.518 132.54 21.336C135.605 31.009 137.965 46.575 138.452 49.943C134.681 50.485 128.779 52.62 123.75 53.71C118.912 54.755 112.613 56.678 108.449 58.013C106.97 58.499 105.753 58.899 104.972 59.165C102.053 52.415 94.4309 50.028 89.0769 46.156C87.8759 45.309 86.7979 44.378 85.9069 43.311C85.4459 42.764 85.05 42.195 84.701 41.57Z" fill="#09386A"/>
<path d="M139.815 66.11C139.272 63.114 139.084 60.059 138.655 57.046C138.33 54.718 137.878 52.383 137.034 50.206C137.532 50.098 138.005 50.004 138.451 49.941C139.582 49.774 140.513 49.75 141.182 49.949C141.444 50.639 141.7 51.348 141.903 52.071C143.084 56.182 143.005 60.533 142.796 64.817C142.038 65.209 141.011 65.644 139.815 66.11Z" fill="#F9EDD8"/>
<path d="M135.257 67.711C135.638 62.154 134.7 56.482 132.515 51.351C134.135 50.895 135.672 50.486 137.033 50.206C137.878 52.383 138.33 54.717 138.654 57.046C139.083 60.059 139.271 63.114 139.814 66.11C138.488 66.619 136.933 67.162 135.257 67.711Z" fill="#F9EDD8"/>
<path d="M131.432 68.934C131.429 68.734 131.421 68.553 131.412 68.372C131.189 62.982 129.86 57.636 127.554 52.76C129.222 52.308 130.907 51.801 132.514 51.352C134.699 56.483 135.637 62.155 135.256 67.712C134.035 68.131 132.758 68.534 131.432 68.934Z" fill="#F9EDD8"/>
<path d="M127.371 70.149C126.714 64.537 125.939 58.851 123.598 53.746C123.652 53.731 123.694 53.723 123.748 53.709C124.977 53.441 126.263 53.109 127.555 52.76C129.861 57.637 131.19 62.982 131.413 68.372C131.421 68.553 131.43 68.734 131.433 68.934C130.102 69.352 128.734 69.76 127.371 70.149Z" fill="#F9EDD8"/>
<path d="M124.831 70.871C122.945 65.527 121.167 60.154 119.479 54.746C120.909 54.366 122.297 54.023 123.598 53.746C125.939 58.851 126.714 64.537 127.371 70.149C126.517 70.394 125.662 70.639 124.831 70.871Z" fill="#F9EDD8"/>
<path d="M121.476 71.77C120.955 70.837 120.463 69.873 120.03 68.876C119.515 67.677 119.119 66.441 118.705 65.201C117.915 62.761 117.125 60.321 116.317 57.876C116.092 57.196 115.884 56.491 115.779 55.776C117.004 55.417 118.253 55.075 119.479 54.747C121.168 60.155 122.946 65.528 124.831 70.872C123.678 71.19 122.547 71.496 121.476 71.77Z" fill="#F9EDD8"/>
<path d="M115.095 67.528C114.473 65.583 114.085 63.585 113.559 61.617C113.135 60.026 112.614 58.427 112.274 56.82C113.396 56.472 114.579 56.121 115.78 55.776C115.885 56.491 116.093 57.196 116.318 57.876C117.126 60.321 117.916 62.761 118.706 65.201C119.12 66.441 119.516 67.676 120.031 68.876C120.464 69.873 120.956 70.837 121.477 71.77C120.017 72.152 118.67 72.486 117.478 72.765C116.494 71.114 115.681 69.353 115.095 67.528Z" fill="#F9EDD8"/>
<path d="M111.97 68.561C111.541 67.267 111.274 65.929 111.007 64.591C110.55 62.275 110.104 59.953 109.743 57.614C110.531 57.36 111.384 57.085 112.267 56.808C112.274 56.82 112.274 56.82 112.274 56.82C112.614 58.427 113.135 60.026 113.559 61.617C114.085 63.585 114.473 65.583 115.095 67.528C115.681 69.354 116.495 71.114 117.478 72.765C116.861 72.908 116.286 73.044 115.77 73.146C115.272 73.254 114.792 73.336 114.335 73.405C113.404 71.849 112.538 70.272 111.97 68.561Z" fill="#F9EDD8"/>
<path d="M111.196 73.609C110.051 71.615 109.047 69.512 108.192 67.372C107.11 64.631 106.29 61.805 105.543 58.969C106.563 58.632 108.023 58.141 109.743 57.614C110.104 59.952 110.55 62.275 111.007 64.591C111.274 65.929 111.541 67.267 111.97 68.561C112.539 70.272 113.404 71.849 114.335 73.405C113.151 73.587 112.112 73.64 111.208 73.603L111.196 73.609Z" fill="#F9EDD8"/>
<path d="M103.205 62.133C103.244 60.733 103.576 59.664 104.339 59.393C104.494 59.337 104.714 59.261 104.97 59.164C105.137 59.102 105.333 59.038 105.542 58.968C106.289 61.803 107.109 64.629 108.191 67.371C109.046 69.511 110.05 71.614 111.195 73.608C110.078 73.55 109.149 73.357 108.372 73.047C106.254 69.616 104.519 65.954 103.205 62.133Z" fill="#F9EDD8"/>
<path d="M104.582 69.063C103.757 67.17 103.127 64.268 103.205 62.134C104.518 65.954 106.254 69.616 108.373 73.049C106.37 72.262 105.314 70.761 104.582 69.063Z" fill="#F9EDD8"/>
<path d="M142.795 64.817C143.004 60.533 143.083 56.183 141.902 52.071C141.699 51.348 141.443 50.639 141.181 49.949C141.457 50.027 141.681 50.15 141.857 50.3C143.914 52.125 146.63 61.838 144.008 64.078C143.746 64.301 143.328 64.551 142.795 64.817Z" fill="#F9EDD8"/>
<path d="M98.7369 33.06C98.5169 32.083 98.303 30.979 98.116 29.813C99.099 29.604 100.149 29.514 101.13 29.275C103.657 28.669 105.885 27.083 107.606 25.146C108.267 24.389 108.889 23.562 109.748 23.02C111.76 21.741 114.407 22.431 116.773 22.008C120.418 21.351 123.149 18.059 126.792 17.371C128.209 17.106 129.65 17.246 131.102 17.488C131.344 18.004 131.555 18.521 131.748 19.032C132.011 19.752 132.282 20.515 132.538 21.333C131.951 21.197 131.354 20.988 130.771 20.833C128.584 20.273 126.179 20.626 124.233 21.774C121.881 23.165 120.149 25.666 117.516 26.332C115.624 26.8 113.63 26.225 111.7 26.375C109.656 26.541 107.68 27.552 106.366 29.138C105.769 29.843 105.304 30.676 104.599 31.271C103.044 32.59 100.723 32.54 98.7369 33.06Z" fill="#F9EDD8"/>
<path d="M85.9059 43.311C86.1219 43.004 86.3629 42.715 86.6239 42.461C87.9379 41.154 89.6349 40.253 90.8159 38.818C92.1859 37.139 92.752 34.824 93.805 32.966C94.697 33.397 95.542 33.885 96.297 34.377L96.2849 34.384C94.6749 36.105 95.086 39.004 93.64 40.88C92.926 41.821 91.8389 42.397 90.9739 43.206C90.1039 44.033 89.527 45.052 89.075 46.157C87.874 45.309 86.7959 44.378 85.9059 43.311Z" fill="#F9EDD8"/>
<path d="M97.912 12.562C98.171 10.946 98.518 9.40401 99.005 8.00201C100.995 7.04501 102.906 6.33401 104.288 6.22801C107.685 5.98801 112.972 4.02601 116.731 1.77101C117.888 2.31701 119.021 2.98601 120.085 3.75401C118.794 3.85601 117.338 4.32801 115.787 5.48901C111.058 9.02901 108.026 9.73102 103.145 10.227C101.428 10.398 99.59 11.378 97.912 12.562Z" fill="#F9EDD8"/>
<path d="M123.698 11.387C122.953 10.053 123.209 8.51501 124.248 7.93501C124.378 7.86201 124.514 7.80201 124.652 7.77101C125.791 8.97801 126.837 10.268 127.777 11.617C127.642 12.095 127.351 12.49 126.926 12.728C125.886 13.309 124.436 12.709 123.698 11.387Z" fill="#79A280"/>
<path d="M112.675 15.893C111.912 14.528 112.401 12.803 113.766 12.04C115.131 11.277 116.856 11.766 117.619 13.131C118.382 14.496 117.893 16.221 116.528 16.984C115.163 17.746 113.438 17.258 112.675 15.893Z" fill="#79A280"/>
<path d="M98.6899 21.558C97.9269 20.193 98.4159 18.468 99.7809 17.705C101.146 16.942 102.871 17.431 103.634 18.796C104.397 20.161 103.908 21.886 102.543 22.649C101.177 23.412 99.4519 22.924 98.6899 21.558Z" fill="#79A280"/>
<path opacity="0.4" d="M139.816 66.111C139.273 63.115 139.085 60.06 138.656 57.047C138.331 54.719 137.879 52.385 137.035 50.207C137.533 50.1 138.006 50.005 138.452 49.942C139.582 49.775 140.514 49.751 141.183 49.95C141.368 50.42 141.541 50.896 141.691 51.386C141.225 51.383 140.694 51.432 140.123 51.519C139.678 51.582 139.204 51.676 138.706 51.784C139.551 53.961 140.003 56.295 140.327 58.624C140.65 60.922 140.836 63.25 141.154 65.567C140.744 65.748 140.286 65.926 139.816 66.111Z" fill="#C3B297"/>
<path opacity="0.4" d="M135.258 67.713C135.639 62.156 134.701 56.484 132.516 51.353C134.136 50.897 135.673 50.488 137.034 50.207C137.261 50.808 137.47 51.404 137.644 52.02C136.559 52.27 135.394 52.595 134.186 52.929C136.092 57.394 137.048 62.266 137.016 67.117C136.451 67.325 135.86 67.516 135.258 67.713Z" fill="#C3B297"/>
<path opacity="0.4" d="M131.433 68.935C131.43 68.735 131.422 68.554 131.413 68.373C131.19 62.983 129.862 57.637 127.555 52.761C129.223 52.309 130.907 51.802 132.515 51.353C132.779 51.964 133.013 52.577 133.235 53.197C131.926 53.572 130.57 53.973 129.225 54.337C131.311 58.764 132.603 63.572 132.99 68.452C132.478 68.615 131.965 68.778 131.433 68.935Z" fill="#C3B297"/>
<path opacity="0.4" d="M127.372 70.151C126.715 64.539 125.94 58.853 123.599 53.748C123.653 53.733 123.695 53.725 123.749 53.711C124.978 53.443 126.264 53.111 127.556 52.762C127.844 53.36 128.101 53.96 128.354 54.578C127.355 54.842 126.373 55.081 125.42 55.288C125.366 55.302 125.324 55.31 125.27 55.325C127.335 59.825 128.179 64.775 128.812 69.735C128.334 69.877 127.85 70.008 127.372 70.151Z" fill="#C3B297"/>
<path opacity="0.4" d="M124.832 70.873C122.947 65.529 121.168 60.156 119.48 54.748C120.909 54.368 122.298 54.026 123.599 53.748C123.862 54.329 124.119 54.929 124.34 55.518C123.316 55.765 122.245 56.038 121.15 56.324C122.647 61.111 124.203 65.865 125.866 70.589C125.514 70.678 125.167 70.779 124.832 70.873Z" fill="#C3B297"/>
<path opacity="0.4" d="M121.477 71.771C120.956 70.838 120.464 69.874 120.031 68.877C119.516 67.678 119.12 66.442 118.706 65.202C117.916 62.762 117.126 60.322 116.318 57.877C116.093 57.197 115.885 56.492 115.78 55.777C117.005 55.418 118.254 55.076 119.48 54.748C119.672 55.369 119.87 56.002 120.074 56.616C119.201 56.856 118.316 57.102 117.45 57.354C117.555 58.07 117.763 58.774 117.988 59.454C118.796 61.899 119.586 64.339 120.376 66.779C120.79 68.019 121.186 69.254 121.701 70.454C121.87 70.84 122.044 71.207 122.237 71.58C121.98 71.645 121.723 71.711 121.477 71.771Z" fill="#C3B297"/>
<path opacity="0.4" d="M115.095 67.529C114.473 65.584 114.085 63.586 113.559 61.618C113.135 60.027 112.614 58.428 112.274 56.821C113.396 56.473 114.579 56.122 115.78 55.776C115.883 56.431 116.057 57.077 116.261 57.691C115.467 57.933 114.696 58.162 113.944 58.396C114.284 60.003 114.805 61.602 115.229 63.193C115.755 65.161 116.143 67.159 116.765 69.104C117.153 70.297 117.636 71.467 118.19 72.599C117.944 72.659 117.711 72.712 117.477 72.765C116.495 71.115 115.682 69.355 115.095 67.529Z" fill="#C3B297"/>
<path opacity="0.4" d="M111.97 68.562C111.541 67.268 111.274 65.93 111.007 64.592C110.55 62.276 110.104 59.953 109.743 57.615C110.53 57.361 111.384 57.086 112.267 56.809C112.274 56.821 112.274 56.821 112.274 56.821C112.407 57.475 112.582 58.121 112.757 58.766C112.291 58.902 111.85 59.056 111.414 59.191C111.775 61.53 112.221 63.852 112.678 66.168C112.945 67.506 113.212 68.844 113.641 70.138C114.006 71.235 114.489 72.267 115.045 73.288C114.793 73.336 114.564 73.371 114.336 73.405C113.405 71.85 112.539 70.274 111.97 68.562Z" fill="#C3B297"/>
<path opacity="0.4" d="M111.197 73.61C110.052 71.616 109.048 69.513 108.193 67.373C107.111 64.632 106.291 61.806 105.544 58.97C106.564 58.633 108.024 58.142 109.744 57.615C109.853 58.282 109.956 58.937 110.065 59.604C108.926 59.977 107.96 60.3 107.214 60.546C107.961 63.381 108.781 66.207 109.863 68.949C110.499 70.53 111.211 72.084 112.014 73.603C111.73 73.622 111.464 73.616 111.209 73.604L111.197 73.61Z" fill="#C3B297"/>
<path opacity="0.4" d="M103.206 62.135C103.245 60.735 103.577 59.666 104.34 59.395C104.495 59.34 104.715 59.263 104.971 59.166C105.138 59.104 105.334 59.04 105.543 58.97C105.713 59.634 105.894 60.292 106.087 60.943C106.063 60.956 106.033 60.958 106.01 60.971C105.248 61.242 104.915 62.311 104.876 63.711C106.028 67.049 107.501 70.268 109.27 73.323C108.952 73.253 108.651 73.158 108.374 73.049C106.255 69.617 104.519 65.955 103.206 62.135Z" fill="#C3B297"/>
<path opacity="0.4" d="M104.583 69.064C103.757 67.171 103.128 64.269 103.206 62.135C103.78 63.828 104.443 65.487 105.189 67.099C105.442 68.383 105.82 69.643 106.253 70.64C106.537 71.287 106.856 71.914 107.264 72.476C105.949 71.647 105.166 70.412 104.583 69.064Z" fill="#C3B297"/>
<path opacity="0.4" d="M142.796 64.819C143.005 60.535 143.085 56.185 141.903 52.073C141.7 51.35 141.444 50.641 141.182 49.951C141.458 50.029 141.682 50.152 141.858 50.301C142.262 50.664 142.692 51.322 143.088 52.17L143.108 52.205C143.275 52.67 143.436 53.153 143.574 53.649C144.475 56.786 144.637 60.072 144.57 63.363C144.42 63.648 144.231 63.893 144.01 64.079C143.747 64.303 143.329 64.552 142.796 64.819Z" fill="#C3B297"/>
<path d="M120.311 40.374C119.989 39.23 120.088 38.017 120.03 36.829C119.969 35.561 119.725 34.303 119.308 33.104C121.204 33.082 123.102 33.223 124.974 33.527C125.771 33.656 126.581 33.821 127.278 34.232C129.335 35.446 128.723 36.599 127.285 37.224C126.347 37.632 124.284 37.421 123.998 37.734C123.559 38.214 123.88 41.679 122.935 42.306C121.748 43.095 120.614 41.454 120.311 40.374Z" fill="#79A280"/>
<path d="M112.604 48.615C113.114 47.846 113.878 47.29 114.547 46.654C115.262 45.976 115.878 45.195 116.373 44.343C117.347 45.447 118.224 46.635 118.994 47.89C119.322 48.424 119.635 48.985 119.746 49.602C120.074 51.427 119.086 51.651 117.99 51.122C117.276 50.777 116.355 49.456 116.025 49.447C115.52 49.432 113.645 51.376 112.797 51.138C111.732 50.839 112.122 49.341 112.604 48.615Z" fill="#79A280"/>
<path d="M2.40994 55.6519C1.79294 54.1279 1.28494 52.5469 0.895936 50.9329C0.396936 48.9339 0.09794 46.9079 0.02794 44.9129C-0.03406 43.6009 0.0249371 42.2879 0.199937 41.0199C0.702937 37.0599 2.33893 33.4529 5.46893 30.8329C7.95693 28.7639 11.3829 28.5999 15.1049 29.5799C16.5459 29.9389 18.0259 30.4909 19.5209 31.1569C20.6739 31.6669 21.8229 32.2549 22.9549 32.8979C26.9979 35.1599 30.8839 38.0838 33.8579 40.7538C34.7329 41.5468 35.5399 42.3299 36.2379 43.0479C37.3189 44.1759 38.1669 45.1819 38.6909 45.9759C38.7899 46.1069 38.8709 46.2329 38.9409 46.3639C38.9409 46.3639 38.6409 44.3068 38.6749 41.7238C38.6759 40.8228 38.7289 39.8479 38.8549 38.8649C39.0149 37.4519 39.3259 36.0369 39.8709 34.8049C41.7769 30.5209 46.5319 28.3469 50.5149 35.0079C50.6839 35.3009 50.8589 35.6059 51.0349 35.9419C51.3679 36.5769 51.6279 37.2189 51.8359 37.9039C52.2429 39.2329 52.4339 40.6449 52.4869 42.1129C52.8039 48.7119 50.6369 56.3999 54.6949 62.5329C52.2289 64.4679 44.6289 70.5629 39.8639 75.2779C37.2119 77.9069 33.8349 80.6099 31.2259 83.0019C30.2269 83.8929 29.3609 84.7439 28.6739 85.5319C26.1199 83.2829 14.3729 72.7999 7.94695 64.9469C7.40195 64.2859 6.91094 63.6419 6.45194 63.0279C6.12894 62.5869 5.81093 62.1269 5.51193 61.6429C4.32993 59.8359 3.26194 57.7999 2.40994 55.6519Z" fill="#09386A"/>
<path d="M41.4619 95.5128C39.2489 93.4208 36.7939 91.5939 34.5049 89.5879C32.7329 88.0439 31.0249 86.3899 29.6629 84.4929C29.3009 84.8509 28.9629 85.1959 28.6669 85.5349C27.9099 86.3909 27.3799 87.1569 27.1809 87.8259C27.6159 88.4219 28.0699 89.0239 28.5639 89.5889C31.3609 92.8249 35.0479 95.1358 38.7499 97.3018C39.4929 96.8818 40.4179 96.2588 41.4619 95.5128Z" fill="#F9EDD8"/>
<path d="M45.2939 92.5709C40.4319 89.8529 36.1939 85.9679 33.0909 81.3349C31.8239 82.4419 30.6409 83.5059 29.6629 84.4929C31.0249 86.3899 32.7329 88.0439 34.5049 89.5879C36.7939 91.5939 39.2499 93.4208 41.4619 95.5128C42.6129 94.6798 43.9179 93.6739 45.2939 92.5709Z" fill="#F9EDD8"/>
<path d="M48.4079 90.0359C48.2429 89.9239 48.0949 89.8179 47.9479 89.7119C43.5559 86.5799 39.8049 82.5459 36.9809 77.9499C35.6909 79.0999 34.3459 80.2339 33.0909 81.3349C36.1939 85.9679 40.4319 89.8529 45.2939 92.5709C46.3129 91.7769 47.3489 90.9279 48.4079 90.0359Z" fill="#F9EDD8"/>
<path d="M51.645 87.2989C47.304 83.6819 42.9659 79.9259 39.9689 75.1749C39.9269 75.2119 39.898 75.2428 39.856 75.2798C38.96 76.1628 37.979 77.0589 36.981 77.9489C39.805 82.5449 43.556 86.5788 47.948 89.7108C48.095 89.8168 48.243 89.9229 48.408 90.0349C49.486 89.1499 50.575 88.2269 51.645 87.2989Z" fill="#F9EDD8"/>
<path d="M53.6379 85.5659C50.1929 81.0659 46.6649 76.6409 43.0589 72.2719C41.9589 73.2609 40.9139 74.2379 39.9699 75.1749C42.9659 79.9249 47.3039 83.6819 51.6459 87.2989C52.3169 86.7169 52.9899 86.1349 53.6379 85.5659Z" fill="#F9EDD8"/>
<path d="M56.2239 83.2469C55.7279 82.3009 55.1889 81.3619 54.5909 80.4539C53.8679 79.3669 53.0499 78.3608 52.2369 77.3358C50.6249 75.3408 49.0139 73.3459 47.4069 71.3329C46.9609 70.7729 46.4839 70.2139 45.9419 69.7339C44.9719 70.5629 44.0029 71.4229 43.0579 72.2699C46.6639 76.6399 50.1919 81.0649 53.6369 85.5639C54.5359 84.7739 55.4099 83.9949 56.2239 83.2469Z" fill="#F9EDD8"/>
<path d="M56.1589 75.5849C54.8699 74.0009 53.4089 72.5839 52.0479 71.0679C50.9469 69.8439 49.8929 68.5329 48.7329 67.3699C47.8279 68.1199 46.8879 68.9179 45.9419 69.7349C46.4839 70.2139 46.9599 70.7739 47.4069 71.3339C49.0129 73.3469 50.6249 75.3419 52.2369 77.3369C53.0489 78.3609 53.8679 79.3679 54.5909 80.4549C55.1889 81.3629 55.7279 82.3019 56.2239 83.2479C57.3409 82.2339 58.3569 81.2889 59.2419 80.4429C58.3969 78.7169 57.3669 77.0729 56.1589 75.5849Z" fill="#F9EDD8"/>
<path d="M58.7319 73.5319C57.8819 72.4659 56.9079 71.5108 55.9339 70.5558C54.2439 68.9078 52.5429 67.2648 50.7819 65.6848C50.1389 66.2058 49.4419 66.7698 48.7279 67.3578C48.7339 67.3698 48.7339 67.3699 48.7339 67.3699C49.8939 68.5329 50.9479 69.8429 52.0489 71.0679C53.4089 72.5839 54.8709 74.0009 56.1599 75.5849C57.3689 77.0739 58.3989 78.7169 59.2429 80.4419C59.6999 80.0039 60.1279 79.5958 60.4959 79.2198C60.8579 78.8618 61.1899 78.5049 61.4969 78.1599C60.7019 76.5299 59.8539 74.9439 58.7319 73.5319Z" fill="#F9EDD8"/>
<path d="M63.3819 75.6429C62.3379 73.5949 61.1249 71.6039 59.7999 69.7189C58.0959 67.3149 56.1769 65.0839 54.2109 62.9079C53.3709 63.5779 52.1619 64.5328 50.7809 65.6848C52.5419 67.2658 54.2439 68.9078 55.9329 70.5558C56.9069 71.5108 57.8819 72.4659 58.7309 73.5319C59.8529 74.9429 60.7009 76.5299 61.4949 78.1599C62.2939 77.2669 62.9069 76.4269 63.3689 75.6489L63.3819 75.6429Z" fill="#F9EDD8"/>
<path d="M58.1379 62.6799C56.9439 61.9469 55.8679 61.6419 55.2239 62.1319C55.0929 62.2309 54.9079 62.3739 54.6879 62.5359C54.5449 62.6409 54.3839 62.7719 54.2109 62.9079C56.1769 65.0829 58.0959 67.3139 59.7999 69.7189C61.1249 71.6049 62.3379 73.5949 63.3819 75.6429C63.9439 74.6759 64.2899 73.7929 64.4549 72.9729C62.7379 69.3219 60.6199 65.8679 58.1379 62.6799Z" fill="#F9EDD8"/>
<path d="M63.1889 67.6199C62.0539 65.8939 59.9679 63.7809 58.1379 62.6799C60.6199 65.8679 62.7379 69.3219 64.4549 72.9729C64.8919 70.8649 64.2109 69.1599 63.1889 67.6199Z" fill="#F9EDD8"/>
<path d="M38.7509 97.3018C35.0489 95.1358 31.3619 92.8249 28.5649 89.5889C28.0699 89.0239 27.6169 88.4219 27.1819 87.8259C27.0969 88.0999 27.0769 88.3539 27.1059 88.5839C27.5099 91.3039 34.1609 98.8859 37.4689 97.9149C37.7989 97.8169 38.2369 97.6018 38.7509 97.3018Z" fill="#F9EDD8"/>
<path d="M36.2319 43.0499C35.5339 42.3319 34.7269 41.5489 33.8519 40.7559C33.1399 41.4659 32.4909 42.2948 31.7539 42.9868C29.8649 44.7718 27.3199 45.7719 24.7569 46.1539C23.7619 46.2939 22.7289 46.3629 21.8059 46.7859C19.6349 47.7719 18.7669 50.3659 17.1189 52.1159C14.5769 54.8089 10.3279 55.2969 7.76091 57.9729C6.76491 59.0149 6.09491 60.2979 5.50391 61.6459C5.80391 62.1299 6.1209 62.5899 6.4449 63.0309C6.9049 63.6449 7.39491 64.2889 7.93991 64.9499C8.14691 64.3839 8.2979 63.7689 8.4859 63.1969C9.2119 61.0599 10.8219 59.2379 12.8469 58.2359C15.2969 57.0269 18.3379 56.9429 20.3349 55.1009C21.7609 53.7729 22.3689 51.7889 23.5489 50.2529C24.8059 48.6319 26.7319 47.5289 28.7779 47.2959C29.6949 47.1809 30.6459 47.2469 31.5299 46.9819C33.4849 46.3999 34.7109 44.4289 36.2319 43.0499Z" fill="#F9EDD8"/>
<path d="M51.8289 37.9059C51.4539 37.9189 51.0799 37.9628 50.7249 38.0428C48.9119 38.4288 47.2299 39.3569 45.3829 39.5629C43.2279 39.7929 40.9799 39.0019 38.8489 38.8679C38.7229 39.8509 38.6689 40.8249 38.6689 41.7269L38.6809 41.7209C41.0019 41.3129 43.2049 43.2418 45.5669 43.0558C46.7449 42.9718 47.8219 42.3769 48.9719 42.0939C50.1399 41.8169 51.3089 41.8909 52.4809 42.1159C52.4269 40.6459 52.2359 39.2349 51.8289 37.9059Z" fill="#F9EDD8"/>
<path d="M19.5159 31.1579C18.0209 30.4919 16.5399 29.9399 15.0999 29.5809C13.2109 30.7249 11.5709 31.9369 10.7279 33.0359C8.66991 35.7499 4.13791 39.1049 0.195909 41.0209C0.0209088 42.2889 -0.0380883 43.6018 0.0239117 44.9138C0.813912 43.8878 2.00491 42.9268 3.82491 42.2628C9.37491 40.2368 11.6189 38.0819 14.7019 34.2649C15.7819 32.9189 17.6079 31.9149 19.5159 31.1579Z" fill="#F9EDD8"/>
<path d="M4.4409 52.1099C3.7309 50.7569 2.30291 50.1309 1.24991 50.6839C1.11791 50.7529 0.992907 50.8339 0.891907 50.9329C1.27991 52.5459 1.78891 54.1268 2.40591 55.6518C2.88091 55.7998 3.3699 55.7719 3.8009 55.5459C4.8539 54.9929 5.1449 53.4509 4.4409 52.1099Z" fill="#79A280"/>
<path d="M14.2379 45.3409C13.5109 43.9559 11.7999 43.4229 10.4149 44.1489C9.02993 44.8759 8.49693 46.5869 9.22293 47.9719C9.94993 49.3569 11.6609 49.8899 13.0459 49.1639C14.4309 48.4369 14.9639 46.7259 14.2379 45.3409Z" fill="#79A280"/>
<path d="M26.6259 36.7249C25.8989 35.3399 24.1879 34.8069 22.8029 35.5329C21.4179 36.2599 20.8849 37.9709 21.6109 39.3559C22.3379 40.7409 24.0489 41.2739 25.4339 40.5479C26.8189 39.8209 27.3519 38.1099 26.6259 36.7249Z" fill="#79A280"/>
<path opacity="0.4" d="M41.4629 95.5149C39.2509 93.4229 36.7949 91.5959 34.5059 89.5899C32.7339 88.0459 31.0259 86.3919 29.6639 84.4949C29.3019 84.8529 28.9639 85.1979 28.6679 85.5369C27.9099 86.3929 27.3809 87.1589 27.1819 87.8279C27.4739 88.2399 27.7789 88.6449 28.1069 89.0379C28.3589 88.6459 28.6899 88.2279 29.0749 87.7969C29.3709 87.4579 29.7089 87.1129 30.0709 86.7549C31.4329 88.6519 33.1409 90.3059 34.9129 91.8499C36.6609 93.3769 38.5089 94.8038 40.2749 96.3358C40.6519 96.0928 41.0509 95.8069 41.4629 95.5149Z" fill="#C3B297"/>
<path opacity="0.4" d="M45.2949 92.5719C40.4329 89.8539 36.1949 85.9688 33.0919 81.3358C31.8249 82.4438 30.6419 83.5069 29.6639 84.4939C30.0429 85.0129 30.4279 85.5129 30.8489 85.9949C31.6509 85.2229 32.5609 84.4249 33.4999 83.5959C36.1979 87.6319 39.7559 91.0949 43.8359 93.7189C44.3179 93.3599 44.8009 92.9689 45.2949 92.5719Z" fill="#C3B297"/>
<path opacity="0.4" d="M48.4089 90.0369C48.2439 89.9249 48.0959 89.8189 47.9489 89.7129C43.5569 86.5809 39.8059 82.5469 36.9819 77.9509C35.6919 79.1009 34.3469 80.2348 33.0919 81.3358C33.4599 81.8908 33.8449 82.4219 34.2429 82.9469C35.2719 82.0559 36.3489 81.1399 37.3889 80.2119C39.9569 84.3779 43.2769 88.0869 47.1529 91.0779C47.5699 90.7369 47.9869 90.3969 48.4089 90.0369Z" fill="#C3B297"/>
<path opacity="0.4" d="M51.6459 87.2999C47.3049 83.6829 42.9669 79.9269 39.9699 75.1759C39.9279 75.2129 39.8989 75.2439 39.8569 75.2809C38.9609 76.1639 37.9799 77.0599 36.9809 77.9499C37.3249 78.5179 37.6859 79.0609 38.0659 79.6099C38.8329 78.9169 39.5689 78.2259 40.2639 77.5409C40.3059 77.5039 40.3349 77.4729 40.3769 77.4359C43.0179 81.6249 46.7019 85.0369 50.5089 88.2769C50.8909 87.9559 51.2649 87.6219 51.6459 87.2999Z" fill="#C3B297"/>
<path opacity="0.4" d="M53.6389 85.5679C50.1939 81.0679 46.6649 76.6429 43.0599 72.2739C41.9599 73.2629 40.9149 74.2388 39.9709 75.1768C40.3139 75.7148 40.6759 76.2579 41.0489 76.7649C41.8149 76.0419 42.6289 75.2939 43.4669 74.5339C46.6579 78.4029 49.7889 82.3039 52.8369 86.2789C53.1029 86.0319 53.3769 85.7969 53.6389 85.5679Z" fill="#C3B297"/>
<path opacity="0.4" d="M56.2239 83.2489C55.7279 82.3029 55.1889 81.3639 54.5909 80.4559C53.8679 79.3689 53.0499 78.3629 52.2369 77.3379C50.6249 75.3429 49.0139 73.3479 47.4069 71.3349C46.9609 70.7749 46.4839 70.2159 45.9419 69.7359C44.9719 70.5659 44.0029 71.4249 43.0579 72.2729C43.4729 72.7729 43.8939 73.2849 44.2969 73.7909C44.9749 73.1909 45.6649 72.5849 46.3489 71.9969C46.8909 72.4759 47.3669 73.0359 47.8139 73.5959C49.4199 75.6089 51.0319 77.6038 52.6429 79.5988C53.4559 80.6228 54.2739 81.6299 54.9969 82.7169C55.2279 83.0689 55.4399 83.4159 55.6469 83.7809C55.8439 83.6009 56.0399 83.4219 56.2239 83.2489Z" fill="#C3B297"/>
<path opacity="0.4" d="M56.1589 75.5858C54.8699 74.0018 53.4089 72.5848 52.0479 71.0688C50.9469 69.8438 49.8929 68.5338 48.7339 67.3708C47.8289 68.1198 46.8889 68.9189 45.9429 69.7359C46.4359 70.1799 46.8809 70.6799 47.2839 71.1859C47.9209 70.6529 48.5339 70.1329 49.1409 69.6319C50.3009 70.7949 51.3549 72.1049 52.4549 73.3289C53.8149 74.8449 55.2769 76.2619 56.5659 77.8459C57.3529 78.8229 58.0689 79.8669 58.7139 80.9489C58.8979 80.7759 59.0699 80.6089 59.2419 80.4429C58.3979 78.7179 57.3679 77.0748 56.1589 75.5858Z" fill="#C3B297"/>
<path opacity="0.4" d="M58.7319 73.5339C57.8819 72.4679 56.9079 71.5129 55.9339 70.5579C54.2439 68.9099 52.5429 67.2669 50.7819 65.6859C50.1389 66.2069 49.4419 66.7709 48.7279 67.3599C48.7339 67.3719 48.7339 67.3719 48.7339 67.3719C49.2089 67.8409 49.6539 68.3399 50.0989 68.8389C50.4679 68.5229 50.8369 68.2379 51.1889 67.9469C52.9499 69.5279 54.6519 71.1699 56.3409 72.8179C57.3149 73.7729 58.2899 74.7279 59.1389 75.7939C59.8579 76.6989 60.4579 77.6679 61.0099 78.6909C61.1879 78.5059 61.3419 78.3339 61.4959 78.1609C60.7029 76.5319 59.8549 74.9449 58.7319 73.5339Z" fill="#C3B297"/>
<path opacity="0.4" d="M63.3829 75.6449C62.3389 73.5969 61.1259 71.6058 59.8009 69.7198C58.0969 67.3158 56.1779 65.0849 54.2119 62.9099C53.3719 63.5799 52.1629 64.5349 50.7819 65.6869C51.2809 66.1429 51.7739 66.5868 52.2719 67.0428C53.2069 66.2928 54.0049 65.6599 54.6189 65.1699C56.5849 67.3449 58.5039 69.5759 60.2079 71.9809C61.1849 73.3769 62.0959 74.8229 62.9299 76.3249C63.1009 76.0979 63.2419 75.8708 63.3699 75.6508L63.3829 75.6449Z" fill="#C3B297"/>
<path opacity="0.4" d="M58.1389 62.6819C56.9449 61.9489 55.8689 61.6439 55.2249 62.1339C55.0939 62.2329 54.9089 62.3759 54.6889 62.5379C54.5459 62.6429 54.3849 62.7739 54.2119 62.9099C54.6759 63.4149 55.1269 63.9259 55.5669 64.4439C55.5909 64.4309 55.6089 64.4069 55.6329 64.3939C56.2769 63.9039 57.3529 64.2089 58.5469 64.9419C60.7129 67.7309 62.6039 70.7239 64.1959 73.8749C64.3109 73.5699 64.3959 73.2659 64.4569 72.9749C62.7389 69.3239 60.6209 65.8689 58.1389 62.6819Z" fill="#C3B297"/>
<path opacity="0.4" d="M63.1899 67.6219C62.0549 65.8959 59.9699 63.7829 58.1389 62.6819C59.2429 64.0879 60.2699 65.5498 61.2129 67.0558C62.1499 67.9688 62.9989 68.9749 63.5969 69.8829C63.9829 70.4739 64.3339 71.0838 64.5829 71.7328C64.6069 70.1768 63.9999 68.8459 63.1899 67.6219Z" fill="#C3B297"/>
<path opacity="0.4" d="M38.7519 97.3039C35.0499 95.1379 31.3629 92.8269 28.5659 89.5909C28.0709 89.0259 27.6179 88.4239 27.1829 87.8279C27.0979 88.1019 27.0779 88.3558 27.1069 88.5858C27.1899 89.1228 27.5069 89.8419 27.9999 90.6369L28.0189 90.6729C28.3169 91.0659 28.6339 91.4649 28.9739 91.8519C31.1089 94.3209 33.7719 96.2529 36.5639 97.9949C36.8849 98.0249 37.1929 98.0009 37.4699 97.9169C37.7999 97.8179 38.2379 97.6039 38.7519 97.3039Z" fill="#C3B297"/>
<path d="M30.5679 65.1139C29.7849 64.2189 28.7149 63.6389 27.7529 62.9419C26.7249 62.1979 25.8039 61.3058 25.0279 60.3018C23.9729 61.8778 23.0549 63.5449 22.2859 65.2779C21.9589 66.0159 21.6539 66.7849 21.6169 67.5929C21.5099 69.9789 22.8099 70.0969 24.1189 69.2339C24.9729 68.6709 25.9229 66.8279 26.3419 66.7599C26.9839 66.6549 29.7099 68.8169 30.7519 68.3689C32.0609 67.8049 31.3059 65.9589 30.5679 65.1139Z" fill="#79A280"/>
<path d="M41.6809 63.1639C40.7579 63.1709 39.8749 63.5059 38.9769 63.7199C38.0189 63.9479 37.0279 64.0379 36.0439 63.9859C36.4369 65.4049 36.9519 66.7889 37.5819 68.1189C37.8499 68.6859 38.1479 69.2539 38.6049 69.6849C39.9549 70.9569 40.6819 70.2519 40.8369 69.0439C40.9379 68.2569 40.3359 66.7639 40.5079 66.4829C40.7719 66.0519 43.4239 65.5439 43.6879 64.7029C44.0199 63.6489 42.5519 63.1569 41.6809 63.1639Z" fill="#79A280"/>
</svg>
