<svg width="40" height="40" viewBox="0 0 40 40" fill="none" xmlns="http://www.w3.org/2000/svg">
<path d="M5.66658 5.66667L5.07449 5.08017L5.08151 5.07325L5.66658 5.66667ZM5.66658 34.3333L5.08007 34.9253L5.07316 34.9183L5.66658 34.3333ZM34.3332 34.3333L34.9253 34.9198L34.9183 34.9268L34.3332 34.3333ZM34.3332 5.66667L34.9197 5.07458L34.9267 5.0816L34.3332 5.66667ZM8.95546 13.4778L8.12229 13.4949C8.11771 13.2709 8.20344 13.0546 8.36019 12.8946C8.51694 12.7346 8.73148 12.6445 8.95546 12.6445V13.4778ZM21.511 27.3445H22.3443C22.3443 27.8047 21.9712 28.1778 21.511 28.1778V27.3445ZM21.511 22.3888H20.6777C20.6777 22.1535 20.7772 21.9292 20.9517 21.7712C21.1262 21.6132 21.3593 21.5363 21.5937 21.5597L21.511 22.3888ZM27.2555 27.3445V28.1778C26.8932 28.1778 26.5725 27.9438 26.462 27.5988L27.2555 27.3445ZM31.1998 27.3445L32.0043 27.127C32.072 27.3773 32.0193 27.645 31.8617 27.851C31.7038 28.057 31.4593 28.1778 31.1998 28.1778V27.3445ZM25.4998 20.3888L25.1285 21.135C24.857 20.9997 24.6802 20.7275 24.6673 20.4243C24.6543 20.1212 24.8073 19.835 25.0665 19.6772L25.4998 20.3888ZM30.3665 13.4667V12.6333C30.6168 12.6333 30.8538 12.7458 31.0122 12.9398C31.1705 13.1337 31.2332 13.3884 31.183 13.6337L30.3665 13.4667ZM26.7888 13.4667L25.9868 13.2403C26.0882 12.8813 26.4157 12.6333 26.7888 12.6333V13.4667ZM21.511 18.9555L21.5993 19.7842C21.3643 19.8093 21.1297 19.7333 20.9538 19.5753C20.778 19.4172 20.6777 19.192 20.6777 18.9555H21.511ZM21.511 13.4778V12.6445C21.9712 12.6445 22.3443 13.0176 22.3443 13.4778H21.511ZM17.9222 13.4778H17.0888C17.0888 13.0176 17.4618 12.6445 17.9222 12.6445V13.4778ZM17.9222 23.0778H18.7555C18.7555 23.3343 18.6372 23.5767 18.435 23.7347C18.2327 23.8925 17.969 23.9485 17.72 23.8862L17.9222 23.0778ZM12.7777 13.4778V12.6445C13.2317 12.6445 13.6021 13.0079 13.6109 13.4618L12.7777 13.4778ZM2.49991 19.3333C2.49991 15.5846 2.49816 12.6909 2.79894 10.4436C3.10293 8.17237 3.72936 6.43812 5.07449 5.08017L6.25861 6.25312C5.27043 7.25072 4.73023 8.57763 4.45088 10.6647C4.16833 12.7758 4.16658 15.5377 4.16658 19.3333H2.49991ZM2.49991 20.6667V19.3333H4.16658V20.6667H2.49991ZM5.07316 34.9183C3.72933 33.5553 3.10294 31.8195 2.79894 29.548C2.49816 27.3008 2.49991 24.41 2.49991 20.6667H4.16658C4.16658 24.4567 4.16833 27.2158 4.45088 29.327C4.73019 31.4138 5.27049 32.7447 6.25999 33.7483L5.07316 34.9183ZM19.3332 37.5C15.5845 37.5 12.6908 37.5018 10.4435 37.201C8.17226 36.897 6.43802 36.2705 5.08007 34.9253L6.25303 33.7413C7.25063 34.7295 8.57754 35.2697 10.6646 35.549C12.7757 35.8315 15.5376 35.8333 19.3332 35.8333V37.5ZM20.6665 37.5H19.3332V35.8333H20.6665V37.5ZM34.9183 34.9268C33.5553 36.2707 31.8193 36.897 29.548 37.201C27.3007 37.5018 24.4098 37.5 20.6665 37.5V35.8333C24.4567 35.8333 27.2158 35.8315 29.3268 35.549C31.4138 35.2697 32.7445 34.7293 33.7482 33.7398L34.9183 34.9268ZM37.4998 20.6667C37.4998 24.4155 37.5017 27.3092 37.2008 29.5563C36.8968 31.8277 36.2705 33.5618 34.9253 34.9198L33.7412 33.7468C34.7293 32.7493 35.2697 31.4223 35.549 29.3353C35.8315 27.2242 35.8332 24.4623 35.8332 20.6667H37.4998ZM37.4998 19.3333V20.6667H35.8332V19.3333H37.4998ZM34.9267 5.0816C36.2705 6.44463 36.8968 8.18057 37.2008 10.452C37.5017 12.6992 37.4998 15.5901 37.4998 19.3333H35.8332C35.8332 15.5433 35.8315 12.7841 35.549 10.6731C35.2697 8.5861 34.7293 7.25537 33.7398 6.25173L34.9267 5.0816ZM20.6665 2.5C24.4153 2.5 27.309 2.49825 29.5563 2.79903C31.8275 3.10302 33.5617 3.72943 34.9197 5.07458L33.7468 6.2587C32.7492 5.27052 31.4223 4.73032 29.3352 4.45097C27.2242 4.16842 24.4622 4.16667 20.6665 4.16667V2.5ZM19.3332 2.5H20.6665V4.16667H19.3332V2.5ZM5.08151 5.07325C6.44454 3.72942 8.18047 3.10305 10.4519 2.79903C12.6991 2.49825 15.59 2.5 19.3332 2.5V4.16667C15.5432 4.16667 12.784 4.16842 10.673 4.45097C8.58601 4.73028 7.25527 5.27058 6.25164 6.26008L5.08151 5.07325ZM21.0665 28.1778C17.0628 28.1778 13.8341 26.7997 11.5966 24.2053C9.37573 21.6303 8.21376 17.9532 8.12229 13.4949L9.78862 13.4607C9.87494 17.669 10.9685 20.9252 12.8587 23.1168C14.7324 25.2892 17.4703 26.5112 21.0665 26.5112V28.1778ZM21.0777 28.1778H21.0665V26.5112H21.0777V28.1778ZM21.511 28.1778H21.0777V26.5112H21.511V28.1778ZM22.3443 22.3888V27.3445H20.6777V22.3888H22.3443ZM26.462 27.5988C25.6987 25.2187 23.8258 23.4568 21.4283 23.2182L21.5937 21.5597C24.7738 21.8765 27.1233 24.2035 28.049 27.09L26.462 27.5988ZM31.1998 28.1778H27.2555V26.5112H31.1998V28.1778ZM29.7402 22.7273C30.7973 24.0173 31.569 25.5168 32.0043 27.127L30.3955 27.562C30.0217 26.1793 29.359 24.8915 28.451 23.7838L29.7402 22.7273ZM25.8712 19.6428C27.3643 20.386 28.683 21.4373 29.7402 22.7273L28.451 23.7838C27.5432 22.676 26.4108 21.7732 25.1285 21.135L25.8712 19.6428ZM29.3365 17.9143C28.4332 19.1992 27.2747 20.2838 25.9333 21.1007L25.0665 19.6772C26.2122 18.9795 27.2015 18.053 27.973 16.9558L29.3365 17.9143ZM31.183 13.6337C30.8683 15.1723 30.2397 16.6296 29.3365 17.9143L27.973 16.9558C28.7445 15.8585 29.2813 14.6138 29.5502 13.2997L31.183 13.6337ZM26.7888 12.6333H30.3665V14.3H26.7888V12.6333ZM21.4227 18.127C22.2502 18.0387 23.2043 17.4993 24.0748 16.583C24.9343 15.6782 25.6362 14.4823 25.9868 13.2403L27.5908 13.693C27.1635 15.2066 26.321 16.6385 25.2833 17.7308C24.2565 18.8117 22.9608 19.639 21.5993 19.7842L21.4227 18.127ZM22.3443 13.4778V18.9555H20.6777V13.4778H22.3443ZM17.9222 12.6445H21.511V14.3111H17.9222V12.6445ZM17.0888 23.0778V13.4778H18.7555V23.0778H17.0888ZM13.6109 13.4618C13.7287 19.5877 16.3923 21.8363 18.1242 22.2693L17.72 23.8862C15.0076 23.2082 12.0711 20.079 11.9445 13.4938L13.6109 13.4618ZM8.95546 12.6445H12.7777V14.3111H8.95546V12.6445Z" fill="#9B9B9B"/>
</svg>
